G04 #@! TF.FileFunction,Legend,Top*
%FSLAX46Y46*%
G04 Gerber Fmt 4.6, Leading zero omitted, Abs format (unit mm)*
G04 Created by KiCad (PCBNEW 4.0.7-e2-6376~58~ubuntu16.04.1) date Tue May 15 20:14:31 2018*
%MOMM*%
%LPD*%
G01*
G04 APERTURE LIST*
%ADD10C,0.100000*%
%ADD11C,0.150000*%
%ADD12C,0.200000*%
%ADD13C,0.120000*%
%ADD14C,0.152400*%
%ADD15C,0.400000*%
G04 APERTURE END LIST*
D10*
D11*
X153392858Y-66428571D02*
X153059524Y-66428571D01*
X153059524Y-66952381D02*
X153059524Y-65952381D01*
X153535715Y-65952381D01*
X154250001Y-66428571D02*
X154392858Y-66476190D01*
X154440477Y-66523810D01*
X154488096Y-66619048D01*
X154488096Y-66761905D01*
X154440477Y-66857143D01*
X154392858Y-66904762D01*
X154297620Y-66952381D01*
X153916667Y-66952381D01*
X153916667Y-65952381D01*
X154250001Y-65952381D01*
X154345239Y-66000000D01*
X154392858Y-66047619D01*
X154440477Y-66142857D01*
X154440477Y-66238095D01*
X154392858Y-66333333D01*
X154345239Y-66380952D01*
X154250001Y-66428571D01*
X153916667Y-66428571D01*
X168642858Y-73452381D02*
X168071429Y-73452381D01*
X168357143Y-73452381D02*
X168357143Y-72452381D01*
X168261905Y-72595238D01*
X168166667Y-72690476D01*
X168071429Y-72738095D01*
X169071429Y-73357143D02*
X169119048Y-73404762D01*
X169071429Y-73452381D01*
X169023810Y-73404762D01*
X169071429Y-73357143D01*
X169071429Y-73452381D01*
X169976191Y-72452381D02*
X169785714Y-72452381D01*
X169690476Y-72500000D01*
X169642857Y-72547619D01*
X169547619Y-72690476D01*
X169500000Y-72880952D01*
X169500000Y-73261905D01*
X169547619Y-73357143D01*
X169595238Y-73404762D01*
X169690476Y-73452381D01*
X169880953Y-73452381D01*
X169976191Y-73404762D01*
X170023810Y-73357143D01*
X170071429Y-73261905D01*
X170071429Y-73023810D01*
X170023810Y-72928571D01*
X169976191Y-72880952D01*
X169880953Y-72833333D01*
X169690476Y-72833333D01*
X169595238Y-72880952D01*
X169547619Y-72928571D01*
X169500000Y-73023810D01*
X170452381Y-73166667D02*
X170928572Y-73166667D01*
X170357143Y-73452381D02*
X170690476Y-72452381D01*
X171023810Y-73452381D01*
X168511905Y-54702381D02*
X169130953Y-54702381D01*
X168797619Y-55083333D01*
X168940477Y-55083333D01*
X169035715Y-55130952D01*
X169083334Y-55178571D01*
X169130953Y-55273810D01*
X169130953Y-55511905D01*
X169083334Y-55607143D01*
X169035715Y-55654762D01*
X168940477Y-55702381D01*
X168654762Y-55702381D01*
X168559524Y-55654762D01*
X168511905Y-55607143D01*
X169416667Y-54702381D02*
X169750000Y-55702381D01*
X170083334Y-54702381D01*
X170321429Y-54702381D02*
X170940477Y-54702381D01*
X170607143Y-55083333D01*
X170750001Y-55083333D01*
X170845239Y-55130952D01*
X170892858Y-55178571D01*
X170940477Y-55273810D01*
X170940477Y-55511905D01*
X170892858Y-55607143D01*
X170845239Y-55654762D01*
X170750001Y-55702381D01*
X170464286Y-55702381D01*
X170369048Y-55654762D01*
X170321429Y-55607143D01*
X168738096Y-67250000D02*
X168642858Y-67202381D01*
X168500001Y-67202381D01*
X168357143Y-67250000D01*
X168261905Y-67345238D01*
X168214286Y-67440476D01*
X168166667Y-67630952D01*
X168166667Y-67773810D01*
X168214286Y-67964286D01*
X168261905Y-68059524D01*
X168357143Y-68154762D01*
X168500001Y-68202381D01*
X168595239Y-68202381D01*
X168738096Y-68154762D01*
X168785715Y-68107143D01*
X168785715Y-67773810D01*
X168595239Y-67773810D01*
X169214286Y-68202381D02*
X169214286Y-67202381D01*
X169785715Y-68202381D01*
X169785715Y-67202381D01*
X170261905Y-68202381D02*
X170261905Y-67202381D01*
X170500000Y-67202381D01*
X170642858Y-67250000D01*
X170738096Y-67345238D01*
X170785715Y-67440476D01*
X170833334Y-67630952D01*
X170833334Y-67773810D01*
X170785715Y-67964286D01*
X170738096Y-68059524D01*
X170642858Y-68154762D01*
X170500000Y-68202381D01*
X170261905Y-68202381D01*
D12*
X164500000Y-87500000D02*
X164500000Y-100000000D01*
X158250000Y-87500000D02*
X164500000Y-87500000D01*
X158250000Y-78500000D02*
X158250000Y-87500000D01*
X109000000Y-104000000D02*
X111000000Y-104000000D01*
X111000000Y-104000000D02*
X111000000Y-116000000D01*
X111000000Y-116000000D02*
X109000000Y-116000000D01*
X109000000Y-116000000D02*
X109000000Y-104000000D01*
X143000000Y-109000000D02*
X88000000Y-109000000D01*
X143000000Y-111000000D02*
X88000000Y-111000000D01*
X143000000Y-99000000D02*
X88000000Y-99000000D01*
X143000000Y-101000000D02*
X88000000Y-101000000D01*
X109000000Y-106000000D02*
X109000000Y-94000000D01*
X111000000Y-106000000D02*
X109000000Y-106000000D01*
X111000000Y-94000000D02*
X111000000Y-106000000D01*
X109000000Y-94000000D02*
X111000000Y-94000000D01*
D13*
X143774000Y-75826000D02*
X143774000Y-76826000D01*
X145474000Y-76826000D02*
X145474000Y-75826000D01*
D12*
X183673000Y-111619000D02*
G75*
G03X183673000Y-111619000I-50000J0D01*
G01*
D13*
X183378000Y-111889000D02*
X183878000Y-111889000D01*
X183378000Y-116709000D02*
X183378000Y-111889000D01*
X185883000Y-111889000D02*
X186388000Y-111889000D01*
X186388000Y-111889000D02*
X186388000Y-116709000D01*
X186388000Y-116709000D02*
X185888000Y-116709000D01*
X183883000Y-116709000D02*
X183378000Y-116709000D01*
X173400000Y-82767000D02*
X173400000Y-82267000D01*
X173150000Y-82517000D02*
X173650000Y-82517000D01*
X171260000Y-78157000D02*
X167260000Y-78157000D01*
X171260000Y-82877000D02*
X167260000Y-82877000D01*
D11*
X126951854Y-59485800D02*
G75*
G03X126951854Y-59485800I-209454J0D01*
G01*
D13*
X177726000Y-116069000D02*
X177726000Y-115069000D01*
X179086000Y-115069000D02*
X179086000Y-116069000D01*
D11*
X123050000Y-76350000D02*
X132950000Y-76350000D01*
X133000000Y-70600000D02*
X133000000Y-76350000D01*
X123050000Y-70600000D02*
X132950000Y-70600000D01*
X123000000Y-70600000D02*
X123000000Y-76350000D01*
X148748960Y-51164760D02*
G75*
G03X148748960Y-51164760I-317500J0D01*
G01*
X148050460Y-63483760D02*
X148050460Y-50910760D01*
X135300460Y-50733760D02*
X135300460Y-63533760D01*
D13*
X179631000Y-109465000D02*
X179631000Y-108465000D01*
X180991000Y-108465000D02*
X180991000Y-109465000D01*
X159565000Y-94352000D02*
X159565000Y-93352000D01*
X160925000Y-93352000D02*
X160925000Y-94352000D01*
X156517000Y-94352000D02*
X156517000Y-93352000D01*
X157877000Y-93352000D02*
X157877000Y-94352000D01*
X182716000Y-124758000D02*
X181716000Y-124758000D01*
X181716000Y-123398000D02*
X182716000Y-123398000D01*
X177521000Y-121329000D02*
X176521000Y-121329000D01*
X176521000Y-119969000D02*
X177521000Y-119969000D01*
D11*
X178320711Y-71229000D02*
G75*
G03X178320711Y-71229000I-70711J0D01*
G01*
X183700000Y-66829000D02*
X183700000Y-70329000D01*
X178700000Y-66829000D02*
X178700000Y-70329000D01*
D12*
X183194000Y-130711000D02*
G75*
G03X183194000Y-130711000I-50000J0D01*
G01*
D13*
X181704000Y-130761000D02*
X181204000Y-130761000D01*
X179824000Y-132381000D02*
X180324000Y-132381000D01*
X179824000Y-131881000D02*
X179824000Y-132381000D01*
X182584000Y-132381000D02*
X183084000Y-132381000D01*
X183084000Y-132381000D02*
X183084000Y-131881000D01*
X179807000Y-128888000D02*
X179807000Y-126888000D01*
X177767000Y-126888000D02*
X177767000Y-128888000D01*
X162412000Y-85298000D02*
X163412000Y-85298000D01*
X163412000Y-86658000D02*
X162412000Y-86658000D01*
X162412000Y-83774000D02*
X163412000Y-83774000D01*
X163412000Y-85134000D02*
X162412000Y-85134000D01*
X162412000Y-82250000D02*
X163412000Y-82250000D01*
X163412000Y-83610000D02*
X162412000Y-83610000D01*
X184848000Y-131221000D02*
X184848000Y-131921000D01*
X183648000Y-131921000D02*
X183648000Y-131221000D01*
D12*
X139093000Y-72521000D02*
X140693000Y-72521000D01*
D13*
X156406200Y-59034760D02*
X156406200Y-58534760D01*
X155346200Y-58534760D02*
X155346200Y-59034760D01*
X155270000Y-52750000D02*
X155270000Y-53250000D01*
X156330000Y-53250000D02*
X156330000Y-52750000D01*
X155277620Y-55187040D02*
X155277620Y-55687040D01*
X156337620Y-55687040D02*
X156337620Y-55187040D01*
X139040000Y-68601000D02*
X139540000Y-68601000D01*
X139540000Y-67541000D02*
X139040000Y-67541000D01*
D14*
X154364900Y-78151903D02*
X154364900Y-75008097D01*
X145805100Y-75008097D02*
X145805100Y-78151903D01*
D13*
X149491720Y-53398180D02*
X149491720Y-55398180D01*
X151531720Y-55398180D02*
X151531720Y-53398180D01*
X156530000Y-55250000D02*
X156530000Y-55750000D01*
X157470000Y-55750000D02*
X157470000Y-55250000D01*
X132848460Y-57424780D02*
X132848460Y-57924780D01*
X133788460Y-57924780D02*
X133788460Y-57424780D01*
X126144600Y-61509800D02*
X126144600Y-60509800D01*
X124444600Y-60509800D02*
X124444600Y-61509800D01*
X124150520Y-58576580D02*
X124650520Y-58576580D01*
X124650520Y-57636580D02*
X124150520Y-57636580D01*
X130528080Y-53377000D02*
X130028080Y-53377000D01*
X130028080Y-54317000D02*
X130528080Y-54317000D01*
X132228040Y-49898120D02*
X130228040Y-49898120D01*
X130228040Y-52858120D02*
X132228040Y-52858120D01*
X130581420Y-59899720D02*
X130081420Y-59899720D01*
X130081420Y-60839720D02*
X130581420Y-60839720D01*
X132289000Y-61257000D02*
X130289000Y-61257000D01*
X130289000Y-64217000D02*
X132289000Y-64217000D01*
X135010000Y-69091000D02*
X135010000Y-69591000D01*
X135950000Y-69591000D02*
X135950000Y-69091000D01*
D11*
X186960000Y-130250000D02*
X191960000Y-130250000D01*
X186960000Y-48310000D02*
X186960000Y-130250000D01*
X191960000Y-48310000D02*
X191960000Y-130250000D01*
X186960000Y-48310000D02*
X191960000Y-48310000D01*
D13*
X144462000Y-123347000D02*
X144462000Y-124047000D01*
X143262000Y-124047000D02*
X143262000Y-123347000D01*
X151578000Y-110327000D02*
X150878000Y-110327000D01*
X150878000Y-109127000D02*
X151578000Y-109127000D01*
X165921000Y-132833000D02*
X165921000Y-131833000D01*
X164221000Y-131833000D02*
X164221000Y-132833000D01*
X177345356Y-132845216D02*
X177345356Y-131845216D01*
X175645356Y-131845216D02*
X175645356Y-132845216D01*
X176659000Y-121827000D02*
X177359000Y-121827000D01*
X177359000Y-123027000D02*
X176659000Y-123027000D01*
X175440356Y-132845216D02*
X175440356Y-131845216D01*
X173740356Y-131845216D02*
X173740356Y-132845216D01*
X173535356Y-132845216D02*
X173535356Y-131845216D01*
X171835356Y-131845216D02*
X171835356Y-132845216D01*
X164016000Y-132833000D02*
X164016000Y-131833000D01*
X162316000Y-131833000D02*
X162316000Y-132833000D01*
X171630356Y-132845216D02*
X171630356Y-131845216D01*
X169930356Y-131845216D02*
X169930356Y-132845216D01*
X169725356Y-132845216D02*
X169725356Y-131845216D01*
X168025356Y-131845216D02*
X168025356Y-132845216D01*
X167820356Y-132845216D02*
X167820356Y-131845216D01*
X166120356Y-131845216D02*
X166120356Y-132845216D01*
X174692000Y-126837000D02*
X173992000Y-126837000D01*
X173992000Y-125637000D02*
X174692000Y-125637000D01*
X174692000Y-128361000D02*
X173992000Y-128361000D01*
X173992000Y-127161000D02*
X174692000Y-127161000D01*
X176863000Y-119725000D02*
X176163000Y-119725000D01*
X176163000Y-118525000D02*
X176863000Y-118525000D01*
X179426000Y-113245000D02*
X179926000Y-113245000D01*
X179926000Y-112305000D02*
X179426000Y-112305000D01*
X179426000Y-114134000D02*
X179926000Y-114134000D01*
X179926000Y-113194000D02*
X179426000Y-113194000D01*
X152463000Y-127284000D02*
X152463000Y-127984000D01*
X151263000Y-127984000D02*
X151263000Y-127284000D01*
X179387000Y-131221000D02*
X179387000Y-131921000D01*
X178187000Y-131921000D02*
X178187000Y-131221000D01*
X170628000Y-123535000D02*
X169928000Y-123535000D01*
X169928000Y-122335000D02*
X170628000Y-122335000D01*
X152664000Y-128531000D02*
X152664000Y-129531000D01*
X154364000Y-129531000D02*
X154364000Y-128531000D01*
X169647000Y-122135000D02*
X170147000Y-122135000D01*
X170147000Y-121195000D02*
X169647000Y-121195000D01*
X165102000Y-121065000D02*
X165802000Y-121065000D01*
X165802000Y-122265000D02*
X165102000Y-122265000D01*
X165802000Y-125059000D02*
X165102000Y-125059000D01*
X165102000Y-123859000D02*
X165802000Y-123859000D01*
X166757000Y-114776000D02*
X166757000Y-114076000D01*
X167957000Y-114076000D02*
X167957000Y-114776000D01*
X167957000Y-108488000D02*
X167957000Y-109188000D01*
X166757000Y-109188000D02*
X166757000Y-108488000D01*
X179418000Y-111289000D02*
X178918000Y-111289000D01*
X178918000Y-112229000D02*
X179418000Y-112229000D01*
X166950000Y-101700000D02*
X166250000Y-101700000D01*
X166250000Y-100500000D02*
X166950000Y-100500000D01*
X166691000Y-112232000D02*
X165991000Y-112232000D01*
X165991000Y-111032000D02*
X166691000Y-111032000D01*
X175069000Y-113822000D02*
X175069000Y-114522000D01*
X173869000Y-114522000D02*
X173869000Y-113822000D01*
X161677000Y-104477000D02*
X161677000Y-103777000D01*
X162877000Y-103777000D02*
X162877000Y-104477000D01*
X178818000Y-117001000D02*
X179518000Y-117001000D01*
X179518000Y-118201000D02*
X178818000Y-118201000D01*
X179418000Y-110273000D02*
X178918000Y-110273000D01*
X178918000Y-111213000D02*
X179418000Y-111213000D01*
X166106000Y-98586000D02*
X166806000Y-98586000D01*
X166806000Y-99786000D02*
X166106000Y-99786000D01*
X166952000Y-96685000D02*
X165952000Y-96685000D01*
X165952000Y-98385000D02*
X166952000Y-98385000D01*
X176228000Y-106771000D02*
X175528000Y-106771000D01*
X175528000Y-105571000D02*
X176228000Y-105571000D01*
X170556000Y-98385000D02*
X171556000Y-98385000D01*
X171556000Y-96685000D02*
X170556000Y-96685000D01*
X166952000Y-94780000D02*
X165952000Y-94780000D01*
X165952000Y-96480000D02*
X166952000Y-96480000D01*
X181243000Y-104428000D02*
X181943000Y-104428000D01*
X181943000Y-105628000D02*
X181243000Y-105628000D01*
X170556000Y-96480000D02*
X171556000Y-96480000D01*
X171556000Y-94780000D02*
X170556000Y-94780000D01*
X166984000Y-92875000D02*
X165984000Y-92875000D01*
X165984000Y-94575000D02*
X166984000Y-94575000D01*
X183109000Y-114283000D02*
X183109000Y-112283000D01*
X181069000Y-112283000D02*
X181069000Y-114283000D01*
X170524000Y-94575000D02*
X171524000Y-94575000D01*
X171524000Y-92875000D02*
X170524000Y-92875000D01*
X166984000Y-90970000D02*
X165984000Y-90970000D01*
X165984000Y-92670000D02*
X166984000Y-92670000D01*
X170524000Y-92670000D02*
X171524000Y-92670000D01*
X171524000Y-90970000D02*
X170524000Y-90970000D01*
D10*
X173528000Y-88849000D02*
X173528000Y-89349000D01*
X173278000Y-89099000D02*
X173778000Y-89099000D01*
D13*
X172778000Y-89504000D02*
X172778000Y-88504000D01*
X172778000Y-84484000D02*
X172778000Y-85484000D01*
X165758000Y-89504000D02*
X165758000Y-90504000D01*
X165758000Y-90504000D02*
X166758000Y-90504000D01*
X166758000Y-83484000D02*
X165758000Y-83484000D01*
X165758000Y-83484000D02*
X165758000Y-84484000D01*
X150717000Y-104285000D02*
X150717000Y-104785000D01*
X145897000Y-104285000D02*
X150717000Y-104285000D01*
X150717000Y-106790000D02*
X150717000Y-107295000D01*
X145897000Y-107295000D02*
X145897000Y-106795000D01*
X150717000Y-107295000D02*
X145897000Y-107295000D01*
X145897000Y-104790000D02*
X145897000Y-104285000D01*
D10*
X156022000Y-106432000D02*
X157022000Y-106432000D01*
X163672000Y-106432000D02*
X164672000Y-106432000D01*
X163672000Y-116832000D02*
X164672000Y-116832000D01*
X156022000Y-107432000D02*
X156022000Y-106432000D01*
X164672000Y-107432000D02*
X164672000Y-106432000D01*
X164672000Y-116832000D02*
X164672000Y-115832000D01*
X156022000Y-116832000D02*
X157022000Y-116832000D01*
X156022000Y-116832000D02*
X156022000Y-115832000D01*
D12*
X151741000Y-132626000D02*
G75*
G03X151741000Y-132626000I-50000J0D01*
G01*
D13*
X151641000Y-131186000D02*
X151641000Y-130686000D01*
X150021000Y-129306000D02*
X150021000Y-129806000D01*
X150521000Y-129306000D02*
X150021000Y-129306000D01*
X150021000Y-132066000D02*
X150021000Y-132566000D01*
X150021000Y-132566000D02*
X150521000Y-132566000D01*
D12*
X157081000Y-96998000D02*
G75*
G03X157081000Y-96998000I-50000J0D01*
G01*
D13*
X158471000Y-96948000D02*
X158971000Y-96948000D01*
X160351000Y-95328000D02*
X159851000Y-95328000D01*
X160351000Y-95828000D02*
X160351000Y-95328000D01*
X157591000Y-95328000D02*
X157091000Y-95328000D01*
X157091000Y-95328000D02*
X157091000Y-95828000D01*
X145263000Y-120276000D02*
X145263000Y-118276000D01*
X143223000Y-118276000D02*
X143223000Y-120276000D01*
X147549000Y-120252000D02*
X147549000Y-118252000D01*
X145509000Y-118252000D02*
X145509000Y-120252000D01*
X145009000Y-132190000D02*
X145009000Y-130190000D01*
X142969000Y-130190000D02*
X142969000Y-132190000D01*
X148553000Y-110407000D02*
X147553000Y-110407000D01*
X147553000Y-109047000D02*
X148553000Y-109047000D01*
X150839000Y-108883000D02*
X149839000Y-108883000D01*
X149839000Y-107523000D02*
X150839000Y-107523000D01*
X148188000Y-127716000D02*
X149188000Y-127716000D01*
X149188000Y-129076000D02*
X148188000Y-129076000D01*
X177382000Y-124631000D02*
X176382000Y-124631000D01*
X176382000Y-123271000D02*
X177382000Y-123271000D01*
X176874000Y-118281000D02*
X175874000Y-118281000D01*
X175874000Y-116921000D02*
X176874000Y-116921000D01*
X179176000Y-119969000D02*
X180176000Y-119969000D01*
X180176000Y-121329000D02*
X179176000Y-121329000D01*
X174715000Y-130092000D02*
X173715000Y-130092000D01*
X173715000Y-128732000D02*
X174715000Y-128732000D01*
X170020000Y-124983000D02*
X170020000Y-126983000D01*
X172060000Y-126983000D02*
X172060000Y-124983000D01*
X181716000Y-121747000D02*
X182716000Y-121747000D01*
X182716000Y-123107000D02*
X181716000Y-123107000D01*
X174461000Y-125139000D02*
X173461000Y-125139000D01*
X173461000Y-123779000D02*
X174461000Y-123779000D01*
X154950000Y-123451000D02*
X154950000Y-124451000D01*
X156650000Y-124451000D02*
X156650000Y-123451000D01*
X177495000Y-113033000D02*
X177495000Y-113533000D01*
X178555000Y-113533000D02*
X178555000Y-113033000D01*
X193273000Y-88600000D02*
X194273000Y-88600000D01*
X194273000Y-89960000D02*
X193273000Y-89960000D01*
X193273000Y-86060000D02*
X194273000Y-86060000D01*
X194273000Y-87420000D02*
X193273000Y-87420000D01*
X180610000Y-115069000D02*
X180610000Y-116069000D01*
X179250000Y-116069000D02*
X179250000Y-115069000D01*
X193273000Y-103840000D02*
X194273000Y-103840000D01*
X194273000Y-105200000D02*
X193273000Y-105200000D01*
X161397742Y-95383222D02*
X161397742Y-94383222D01*
X162757742Y-94383222D02*
X162757742Y-95383222D01*
X161397742Y-98050222D02*
X161397742Y-97050222D01*
X162757742Y-97050222D02*
X162757742Y-98050222D01*
X193273000Y-101300000D02*
X194273000Y-101300000D01*
X194273000Y-102660000D02*
X193273000Y-102660000D01*
X165952000Y-123742000D02*
X164952000Y-123742000D01*
X164952000Y-122382000D02*
X165952000Y-122382000D01*
X163200000Y-100420000D02*
X164200000Y-100420000D01*
X164200000Y-101780000D02*
X163200000Y-101780000D01*
X162412000Y-80726000D02*
X163412000Y-80726000D01*
X163412000Y-82086000D02*
X162412000Y-82086000D01*
X176673000Y-113545000D02*
X176673000Y-114545000D01*
X175313000Y-114545000D02*
X175313000Y-113545000D01*
X177259000Y-108054000D02*
X176759000Y-108054000D01*
X176759000Y-109114000D02*
X177259000Y-109114000D01*
X179176000Y-118445000D02*
X180176000Y-118445000D01*
X180176000Y-119805000D02*
X179176000Y-119805000D01*
X158221000Y-97998000D02*
X159221000Y-97998000D01*
X159221000Y-99358000D02*
X158221000Y-99358000D01*
X178615000Y-106544000D02*
X178615000Y-105544000D01*
X179975000Y-105544000D02*
X179975000Y-106544000D01*
X181819000Y-102230000D02*
X179819000Y-102230000D01*
X179819000Y-104270000D02*
X181819000Y-104270000D01*
X157963000Y-92246000D02*
X156963000Y-92246000D01*
X156963000Y-90886000D02*
X157963000Y-90886000D01*
X179467000Y-108465000D02*
X179467000Y-109465000D01*
X178107000Y-109465000D02*
X178107000Y-108465000D01*
X180954000Y-105999000D02*
X181954000Y-105999000D01*
X181954000Y-107359000D02*
X180954000Y-107359000D01*
X159491000Y-90886000D02*
X160491000Y-90886000D01*
X160491000Y-92246000D02*
X159491000Y-92246000D01*
D10*
X111000000Y-61000000D02*
X111500000Y-61000000D01*
X110500000Y-60000000D02*
X111000000Y-61000000D01*
X108000000Y-60000000D02*
X110500000Y-60000000D01*
X108000000Y-66000000D02*
X111500000Y-66000000D01*
X103000000Y-60000000D02*
X105000000Y-60000000D01*
X103000000Y-60500000D02*
X103000000Y-60000000D01*
X103000000Y-65500000D02*
X103000000Y-62500000D01*
X104000000Y-65500000D02*
X103000000Y-65500000D01*
X104000000Y-66000000D02*
X104000000Y-65500000D01*
X105000000Y-66000000D02*
X104000000Y-66000000D01*
X103000000Y-62500000D02*
X103000000Y-60500000D01*
X111000000Y-73500000D02*
X111500000Y-73500000D01*
X110500000Y-72500000D02*
X111000000Y-73500000D01*
X108000000Y-72500000D02*
X110500000Y-72500000D01*
X108000000Y-78500000D02*
X111500000Y-78500000D01*
X103000000Y-72500000D02*
X105000000Y-72500000D01*
X103000000Y-73000000D02*
X103000000Y-72500000D01*
X103000000Y-78000000D02*
X103000000Y-75000000D01*
X104000000Y-78000000D02*
X103000000Y-78000000D01*
X104000000Y-78500000D02*
X104000000Y-78000000D01*
X105000000Y-78500000D02*
X104000000Y-78500000D01*
X103000000Y-75000000D02*
X103000000Y-73000000D01*
D13*
X151228000Y-121090000D02*
X153828000Y-121090000D01*
X153828000Y-121090000D02*
X153828000Y-118430000D01*
X153828000Y-118430000D02*
X151228000Y-118430000D01*
X151228000Y-118430000D02*
X151228000Y-121090000D01*
X149958000Y-121090000D02*
X148628000Y-121090000D01*
X148628000Y-121090000D02*
X148628000Y-119760000D01*
X155359000Y-128777000D02*
X155359000Y-133917000D01*
X155359000Y-133917000D02*
X158019000Y-133917000D01*
X158019000Y-133917000D02*
X158019000Y-128777000D01*
X158019000Y-128777000D02*
X155359000Y-128777000D01*
X155359000Y-127507000D02*
X155359000Y-126177000D01*
X155359000Y-126177000D02*
X156689000Y-126177000D01*
X145469000Y-72859000D02*
X145469000Y-70859000D01*
X142509000Y-70859000D02*
X142509000Y-72859000D01*
X136631000Y-75050000D02*
X137631000Y-75050000D01*
X137631000Y-73350000D02*
X136631000Y-73350000D01*
X132266140Y-64579320D02*
X130266140Y-64579320D01*
X130266140Y-67539320D02*
X132266140Y-67539320D01*
X132225500Y-46677400D02*
X130225500Y-46677400D01*
X130225500Y-49637400D02*
X132225500Y-49637400D01*
X154353660Y-60874420D02*
X154353660Y-58874420D01*
X152313660Y-58874420D02*
X152313660Y-60874420D01*
X152313660Y-53398180D02*
X152313660Y-55398180D01*
X154353660Y-55398180D02*
X154353660Y-53398180D01*
X151503780Y-60874420D02*
X151503780Y-58874420D01*
X149463780Y-58874420D02*
X149463780Y-60874420D01*
D11*
X181340603Y-75945000D02*
G75*
G03X181340603Y-75945000I-89803J0D01*
G01*
X181187300Y-77977000D02*
X181187300Y-76135500D01*
X181187300Y-76135500D02*
X183663800Y-76135500D01*
X183663800Y-76135500D02*
X183663800Y-77977000D01*
X183663800Y-77977000D02*
X181187300Y-77977000D01*
X181355803Y-73036000D02*
G75*
G03X181355803Y-73036000I-89803J0D01*
G01*
X181202500Y-75068000D02*
X181202500Y-73226500D01*
X181202500Y-73226500D02*
X183679000Y-73226500D01*
X183679000Y-73226500D02*
X183679000Y-75068000D01*
X183679000Y-75068000D02*
X181202500Y-75068000D01*
X176055000Y-125551000D02*
X177455000Y-125551000D01*
D13*
X177490000Y-128111000D02*
X177490000Y-125551000D01*
X176020000Y-128111000D02*
X176020000Y-125551000D01*
D11*
X180175000Y-127191000D02*
X180175000Y-125791000D01*
D13*
X182735000Y-125756000D02*
X180175000Y-125756000D01*
X182735000Y-127226000D02*
X180175000Y-127226000D01*
D11*
X180503000Y-124764000D02*
X179103000Y-124764000D01*
D13*
X179068000Y-122204000D02*
X179068000Y-124764000D01*
X180538000Y-122204000D02*
X180538000Y-124764000D01*
X139540000Y-66017000D02*
X139040000Y-66017000D01*
X139040000Y-67077000D02*
X139540000Y-67077000D01*
D12*
X146385000Y-132476000D02*
G75*
G03X146385000Y-132476000I-50000J0D01*
G01*
D13*
X146585000Y-129276000D02*
X146585000Y-129536000D01*
X148485000Y-129276000D02*
X146605000Y-129276000D01*
X148505000Y-129536000D02*
X148505000Y-129276000D01*
X148505000Y-132336000D02*
X148505000Y-132596000D01*
X148485000Y-132596000D02*
X146605000Y-132596000D01*
X146585000Y-132596000D02*
X146585000Y-132336000D01*
D12*
X172309000Y-120854500D02*
X172309000Y-121104500D01*
X172309000Y-121104500D02*
X171309000Y-121104500D01*
X168409000Y-120854500D02*
X168409000Y-121104500D01*
X169409000Y-121104500D02*
X168409000Y-121104500D01*
X172309000Y-117454500D02*
X172309000Y-117704500D01*
X172309000Y-117454500D02*
X171309000Y-117454500D01*
X169409000Y-117454500D02*
X168409000Y-117454500D01*
X168409000Y-117454500D02*
X168409000Y-117704500D01*
D15*
X167979000Y-117729500D02*
G75*
G03X167979000Y-117729500I-100000J0D01*
G01*
D12*
X167809000Y-120854500D02*
X167809000Y-121104500D01*
X167809000Y-121104500D02*
X166809000Y-121104500D01*
X163909000Y-120854500D02*
X163909000Y-121104500D01*
X164909000Y-121104500D02*
X163909000Y-121104500D01*
X167809000Y-117454500D02*
X167809000Y-117704500D01*
X167809000Y-117454500D02*
X166809000Y-117454500D01*
X164909000Y-117454500D02*
X163909000Y-117454500D01*
X163909000Y-117454500D02*
X163909000Y-117704500D01*
D15*
X163479000Y-117729500D02*
G75*
G03X163479000Y-117729500I-100000J0D01*
G01*
D12*
X167749500Y-105559500D02*
X167749500Y-105809500D01*
X167749500Y-105809500D02*
X166749500Y-105809500D01*
X163849500Y-105559500D02*
X163849500Y-105809500D01*
X164849500Y-105809500D02*
X163849500Y-105809500D01*
X167749500Y-102159500D02*
X167749500Y-102409500D01*
X167749500Y-102159500D02*
X166749500Y-102159500D01*
X164849500Y-102159500D02*
X163849500Y-102159500D01*
X163849500Y-102159500D02*
X163849500Y-102409500D01*
D15*
X163419500Y-102434500D02*
G75*
G03X163419500Y-102434500I-100000J0D01*
G01*
D12*
X172410000Y-105559500D02*
X172410000Y-105809500D01*
X172410000Y-105809500D02*
X171410000Y-105809500D01*
X168510000Y-105559500D02*
X168510000Y-105809500D01*
X169510000Y-105809500D02*
X168510000Y-105809500D01*
X172410000Y-102159500D02*
X172410000Y-102409500D01*
X172410000Y-102159500D02*
X171410000Y-102159500D01*
X169510000Y-102159500D02*
X168510000Y-102159500D01*
X168510000Y-102159500D02*
X168510000Y-102409500D01*
D15*
X168080000Y-102434500D02*
G75*
G03X168080000Y-102434500I-100000J0D01*
G01*
D12*
X173102000Y-102464500D02*
X173102000Y-102214500D01*
X173102000Y-102214500D02*
X174102000Y-102214500D01*
X177002000Y-102464500D02*
X177002000Y-102214500D01*
X176002000Y-102214500D02*
X177002000Y-102214500D01*
X173102000Y-105864500D02*
X173102000Y-105614500D01*
X173102000Y-105864500D02*
X174102000Y-105864500D01*
X176002000Y-105864500D02*
X177002000Y-105864500D01*
X177002000Y-105864500D02*
X177002000Y-105614500D01*
D15*
X177632000Y-105589500D02*
G75*
G03X177632000Y-105589500I-100000J0D01*
G01*
D11*
X153349607Y-111892000D02*
G75*
G03X153349607Y-111892000I-223607J0D01*
G01*
X149776000Y-115542000D02*
X149776000Y-112242000D01*
X153076000Y-115542000D02*
X153076000Y-112242000D01*
X149363857Y-111899500D02*
G75*
G03X149363857Y-111899500I-223607J0D01*
G01*
X145790250Y-115549500D02*
X145790250Y-112249500D01*
X149090250Y-115549500D02*
X149090250Y-112249500D01*
D12*
X157850000Y-58850000D02*
X157850000Y-68150000D01*
X167150000Y-58850000D02*
X157850000Y-58850000D01*
X167150000Y-68150000D02*
X167150000Y-58850000D01*
X157850000Y-68150000D02*
X167150000Y-68150000D01*
D13*
X159280000Y-71750000D02*
X159280000Y-71250000D01*
X158220000Y-71250000D02*
X158220000Y-71750000D01*
X160220000Y-71250000D02*
X160220000Y-71750000D01*
X161280000Y-71750000D02*
X161280000Y-71250000D01*
D11*
X139000000Y-98000000D02*
X120000000Y-104000000D01*
X139000000Y-98000000D02*
X121000000Y-99000000D01*
X142000000Y-97700000D02*
X122000000Y-97700000D01*
X122000000Y-87000000D02*
X122000000Y-97700000D01*
X131000000Y-87000000D02*
X124000000Y-87000000D01*
X140000000Y-87000000D02*
X133000000Y-87000000D01*
X142000000Y-87000000D02*
X142000000Y-97700000D01*
X139750000Y-112000000D02*
X122750000Y-111000000D01*
X139750000Y-112000000D02*
X122750000Y-106000000D01*
X121750000Y-112300000D02*
X141750000Y-112300000D01*
X141750000Y-123000000D02*
X141750000Y-112300000D01*
X132750000Y-123000000D02*
X139750000Y-123000000D01*
X123750000Y-123000000D02*
X130750000Y-123000000D01*
X121750000Y-123000000D02*
X121750000Y-112300000D01*
D12*
X168917000Y-109382000D02*
X169467000Y-109382000D01*
X172867000Y-109382000D02*
X173417000Y-109382000D01*
X172867000Y-113882000D02*
X173417000Y-113882000D01*
X173417000Y-109382000D02*
X173417000Y-109932000D01*
X173417000Y-113332000D02*
X173417000Y-113882000D01*
X168917000Y-109382000D02*
X168917000Y-109932000D01*
X168917000Y-113332000D02*
X168917000Y-113882000D01*
X168917000Y-113882000D02*
X169467000Y-113882000D01*
X169317000Y-114232000D02*
G75*
G03X169317000Y-114232000I-100000J0D01*
G01*
D11*
X144981143Y-80270857D02*
X145028762Y-80318476D01*
X145076381Y-80461333D01*
X145076381Y-80556571D01*
X145028762Y-80699429D01*
X144933524Y-80794667D01*
X144838286Y-80842286D01*
X144647810Y-80889905D01*
X144504952Y-80889905D01*
X144314476Y-80842286D01*
X144219238Y-80794667D01*
X144124000Y-80699429D01*
X144076381Y-80556571D01*
X144076381Y-80461333D01*
X144124000Y-80318476D01*
X144171619Y-80270857D01*
X145076381Y-79318476D02*
X145076381Y-79889905D01*
X145076381Y-79604191D02*
X144076381Y-79604191D01*
X144219238Y-79699429D01*
X144314476Y-79794667D01*
X144362095Y-79889905D01*
X144076381Y-78699429D02*
X144076381Y-78604190D01*
X144124000Y-78508952D01*
X144171619Y-78461333D01*
X144266857Y-78413714D01*
X144457333Y-78366095D01*
X144695429Y-78366095D01*
X144885905Y-78413714D01*
X144981143Y-78461333D01*
X145028762Y-78508952D01*
X145076381Y-78604190D01*
X145076381Y-78699429D01*
X145028762Y-78794667D01*
X144981143Y-78842286D01*
X144885905Y-78889905D01*
X144695429Y-78937524D01*
X144457333Y-78937524D01*
X144266857Y-78889905D01*
X144171619Y-78842286D01*
X144124000Y-78794667D01*
X144076381Y-78699429D01*
X184144905Y-110687381D02*
X184144905Y-109687381D01*
X184383000Y-109687381D01*
X184525858Y-109735000D01*
X184621096Y-109830238D01*
X184668715Y-109925476D01*
X184716334Y-110115952D01*
X184716334Y-110258810D01*
X184668715Y-110449286D01*
X184621096Y-110544524D01*
X184525858Y-110639762D01*
X184383000Y-110687381D01*
X184144905Y-110687381D01*
X185573477Y-110020714D02*
X185573477Y-110687381D01*
X185335381Y-109639762D02*
X185097286Y-110354048D01*
X185716334Y-110354048D01*
X174588143Y-80874143D02*
X174540524Y-80921762D01*
X174397667Y-80969381D01*
X174302429Y-80969381D01*
X174159571Y-80921762D01*
X174064333Y-80826524D01*
X174016714Y-80731286D01*
X173969095Y-80540810D01*
X173969095Y-80397952D01*
X174016714Y-80207476D01*
X174064333Y-80112238D01*
X174159571Y-80017000D01*
X174302429Y-79969381D01*
X174397667Y-79969381D01*
X174540524Y-80017000D01*
X174588143Y-80064619D01*
X175492905Y-79969381D02*
X175016714Y-79969381D01*
X174969095Y-80445571D01*
X175016714Y-80397952D01*
X175111952Y-80350333D01*
X175350048Y-80350333D01*
X175445286Y-80397952D01*
X175492905Y-80445571D01*
X175540524Y-80540810D01*
X175540524Y-80778905D01*
X175492905Y-80874143D01*
X175445286Y-80921762D01*
X175350048Y-80969381D01*
X175111952Y-80969381D01*
X175016714Y-80921762D01*
X174969095Y-80874143D01*
X176397667Y-79969381D02*
X176207190Y-79969381D01*
X176111952Y-80017000D01*
X176064333Y-80064619D01*
X175969095Y-80207476D01*
X175921476Y-80397952D01*
X175921476Y-80778905D01*
X175969095Y-80874143D01*
X176016714Y-80921762D01*
X176111952Y-80969381D01*
X176302429Y-80969381D01*
X176397667Y-80921762D01*
X176445286Y-80874143D01*
X176492905Y-80778905D01*
X176492905Y-80540810D01*
X176445286Y-80445571D01*
X176397667Y-80397952D01*
X176302429Y-80350333D01*
X176111952Y-80350333D01*
X176016714Y-80397952D01*
X175969095Y-80445571D01*
X175921476Y-80540810D01*
X124812095Y-55458381D02*
X124812095Y-56267905D01*
X124859714Y-56363143D01*
X124907333Y-56410762D01*
X125002571Y-56458381D01*
X125193048Y-56458381D01*
X125288286Y-56410762D01*
X125335905Y-56363143D01*
X125383524Y-56267905D01*
X125383524Y-55458381D01*
X125764476Y-55458381D02*
X126383524Y-55458381D01*
X126050190Y-55839333D01*
X126193048Y-55839333D01*
X126288286Y-55886952D01*
X126335905Y-55934571D01*
X126383524Y-56029810D01*
X126383524Y-56267905D01*
X126335905Y-56363143D01*
X126288286Y-56410762D01*
X126193048Y-56458381D01*
X125907333Y-56458381D01*
X125812095Y-56410762D01*
X125764476Y-56363143D01*
X178702381Y-116142857D02*
X178226190Y-116476191D01*
X178702381Y-116714286D02*
X177702381Y-116714286D01*
X177702381Y-116333333D01*
X177750000Y-116238095D01*
X177797619Y-116190476D01*
X177892857Y-116142857D01*
X178035714Y-116142857D01*
X178130952Y-116190476D01*
X178178571Y-116238095D01*
X178226190Y-116333333D01*
X178226190Y-116714286D01*
X178035714Y-115285714D02*
X178702381Y-115285714D01*
X177654762Y-115523810D02*
X178369048Y-115761905D01*
X178369048Y-115142857D01*
X178702381Y-114238095D02*
X178702381Y-114809524D01*
X178702381Y-114523810D02*
X177702381Y-114523810D01*
X177845238Y-114619048D01*
X177940476Y-114714286D01*
X177988095Y-114809524D01*
X127238095Y-77452381D02*
X127238095Y-78261905D01*
X127285714Y-78357143D01*
X127333333Y-78404762D01*
X127428571Y-78452381D01*
X127619048Y-78452381D01*
X127714286Y-78404762D01*
X127761905Y-78357143D01*
X127809524Y-78261905D01*
X127809524Y-77452381D01*
X128809524Y-78452381D02*
X128238095Y-78452381D01*
X128523809Y-78452381D02*
X128523809Y-77452381D01*
X128428571Y-77595238D01*
X128333333Y-77690476D01*
X128238095Y-77738095D01*
X141583334Y-65202381D02*
X141107143Y-65202381D01*
X141107143Y-64202381D01*
X141821429Y-64202381D02*
X142440477Y-64202381D01*
X142107143Y-64583333D01*
X142250001Y-64583333D01*
X142345239Y-64630952D01*
X142392858Y-64678571D01*
X142440477Y-64773810D01*
X142440477Y-65011905D01*
X142392858Y-65107143D01*
X142345239Y-65154762D01*
X142250001Y-65202381D01*
X141964286Y-65202381D01*
X141869048Y-65154762D01*
X141821429Y-65107143D01*
X183621095Y-127848381D02*
X184192524Y-127848381D01*
X183906809Y-128848381D02*
X183906809Y-127848381D01*
X184525857Y-128848381D02*
X184525857Y-127848381D01*
X184906810Y-127848381D01*
X185002048Y-127896000D01*
X185049667Y-127943619D01*
X185097286Y-128038857D01*
X185097286Y-128181714D01*
X185049667Y-128276952D01*
X185002048Y-128324571D01*
X184906810Y-128372190D01*
X184525857Y-128372190D01*
X185573476Y-128848381D02*
X185763952Y-128848381D01*
X185859191Y-128800762D01*
X185906810Y-128753143D01*
X186002048Y-128610286D01*
X186049667Y-128419810D01*
X186049667Y-128038857D01*
X186002048Y-127943619D01*
X185954429Y-127896000D01*
X185859191Y-127848381D01*
X185668714Y-127848381D01*
X185573476Y-127896000D01*
X185525857Y-127943619D01*
X185478238Y-128038857D01*
X185478238Y-128276952D01*
X185525857Y-128372190D01*
X185573476Y-128419810D01*
X185668714Y-128467429D01*
X185859191Y-128467429D01*
X185954429Y-128419810D01*
X186002048Y-128372190D01*
X186049667Y-128276952D01*
X161729381Y-91430905D02*
X161729381Y-90859476D01*
X162729381Y-91145191D02*
X161729381Y-91145191D01*
X162729381Y-90526143D02*
X161729381Y-90526143D01*
X161729381Y-90145190D01*
X161777000Y-90049952D01*
X161824619Y-90002333D01*
X161919857Y-89954714D01*
X162062714Y-89954714D01*
X162157952Y-90002333D01*
X162205571Y-90049952D01*
X162253190Y-90145190D01*
X162253190Y-90526143D01*
X162157952Y-89383286D02*
X162110333Y-89478524D01*
X162062714Y-89526143D01*
X161967476Y-89573762D01*
X161919857Y-89573762D01*
X161824619Y-89526143D01*
X161777000Y-89478524D01*
X161729381Y-89383286D01*
X161729381Y-89192809D01*
X161777000Y-89097571D01*
X161824619Y-89049952D01*
X161919857Y-89002333D01*
X161967476Y-89002333D01*
X162062714Y-89049952D01*
X162110333Y-89097571D01*
X162157952Y-89192809D01*
X162157952Y-89383286D01*
X162205571Y-89478524D01*
X162253190Y-89526143D01*
X162348429Y-89573762D01*
X162538905Y-89573762D01*
X162634143Y-89526143D01*
X162681762Y-89478524D01*
X162729381Y-89383286D01*
X162729381Y-89192809D01*
X162681762Y-89097571D01*
X162634143Y-89049952D01*
X162538905Y-89002333D01*
X162348429Y-89002333D01*
X162253190Y-89049952D01*
X162205571Y-89097571D01*
X162157952Y-89192809D01*
X180702381Y-109607857D02*
X180226190Y-109941191D01*
X180702381Y-110179286D02*
X179702381Y-110179286D01*
X179702381Y-109798333D01*
X179750000Y-109703095D01*
X179797619Y-109655476D01*
X179892857Y-109607857D01*
X180035714Y-109607857D01*
X180130952Y-109655476D01*
X180178571Y-109703095D01*
X180226190Y-109798333D01*
X180226190Y-110179286D01*
X179797619Y-109226905D02*
X179750000Y-109179286D01*
X179702381Y-109084048D01*
X179702381Y-108845952D01*
X179750000Y-108750714D01*
X179797619Y-108703095D01*
X179892857Y-108655476D01*
X179988095Y-108655476D01*
X180130952Y-108703095D01*
X180702381Y-109274524D01*
X180702381Y-108655476D01*
X179797619Y-108274524D02*
X179750000Y-108226905D01*
X179702381Y-108131667D01*
X179702381Y-107893571D01*
X179750000Y-107798333D01*
X179797619Y-107750714D01*
X179892857Y-107703095D01*
X179988095Y-107703095D01*
X180130952Y-107750714D01*
X180702381Y-108322143D01*
X180702381Y-107703095D01*
X159300381Y-94494857D02*
X158824190Y-94828191D01*
X159300381Y-95066286D02*
X158300381Y-95066286D01*
X158300381Y-94685333D01*
X158348000Y-94590095D01*
X158395619Y-94542476D01*
X158490857Y-94494857D01*
X158633714Y-94494857D01*
X158728952Y-94542476D01*
X158776571Y-94590095D01*
X158824190Y-94685333D01*
X158824190Y-95066286D01*
X158395619Y-94113905D02*
X158348000Y-94066286D01*
X158300381Y-93971048D01*
X158300381Y-93732952D01*
X158348000Y-93637714D01*
X158395619Y-93590095D01*
X158490857Y-93542476D01*
X158586095Y-93542476D01*
X158728952Y-93590095D01*
X159300381Y-94161524D01*
X159300381Y-93542476D01*
X159300381Y-92590095D02*
X159300381Y-93161524D01*
X159300381Y-92875810D02*
X158300381Y-92875810D01*
X158443238Y-92971048D01*
X158538476Y-93066286D01*
X158586095Y-93161524D01*
X156379381Y-94494857D02*
X155903190Y-94828191D01*
X156379381Y-95066286D02*
X155379381Y-95066286D01*
X155379381Y-94685333D01*
X155427000Y-94590095D01*
X155474619Y-94542476D01*
X155569857Y-94494857D01*
X155712714Y-94494857D01*
X155807952Y-94542476D01*
X155855571Y-94590095D01*
X155903190Y-94685333D01*
X155903190Y-95066286D01*
X155474619Y-94113905D02*
X155427000Y-94066286D01*
X155379381Y-93971048D01*
X155379381Y-93732952D01*
X155427000Y-93637714D01*
X155474619Y-93590095D01*
X155569857Y-93542476D01*
X155665095Y-93542476D01*
X155807952Y-93590095D01*
X156379381Y-94161524D01*
X156379381Y-93542476D01*
X155379381Y-92923429D02*
X155379381Y-92828190D01*
X155427000Y-92732952D01*
X155474619Y-92685333D01*
X155569857Y-92637714D01*
X155760333Y-92590095D01*
X155998429Y-92590095D01*
X156188905Y-92637714D01*
X156284143Y-92685333D01*
X156331762Y-92732952D01*
X156379381Y-92828190D01*
X156379381Y-92923429D01*
X156331762Y-93018667D01*
X156284143Y-93066286D01*
X156188905Y-93113905D01*
X155998429Y-93161524D01*
X155760333Y-93161524D01*
X155569857Y-93113905D01*
X155474619Y-93066286D01*
X155427000Y-93018667D01*
X155379381Y-92923429D01*
X181573143Y-124530381D02*
X181239809Y-124054190D01*
X181001714Y-124530381D02*
X181001714Y-123530381D01*
X181382667Y-123530381D01*
X181477905Y-123578000D01*
X181525524Y-123625619D01*
X181573143Y-123720857D01*
X181573143Y-123863714D01*
X181525524Y-123958952D01*
X181477905Y-124006571D01*
X181382667Y-124054190D01*
X181001714Y-124054190D01*
X182525524Y-124530381D02*
X181954095Y-124530381D01*
X182239809Y-124530381D02*
X182239809Y-123530381D01*
X182144571Y-123673238D01*
X182049333Y-123768476D01*
X181954095Y-123816095D01*
X183001714Y-124530381D02*
X183192190Y-124530381D01*
X183287429Y-124482762D01*
X183335048Y-124435143D01*
X183430286Y-124292286D01*
X183477905Y-124101810D01*
X183477905Y-123720857D01*
X183430286Y-123625619D01*
X183382667Y-123578000D01*
X183287429Y-123530381D01*
X183096952Y-123530381D01*
X183001714Y-123578000D01*
X182954095Y-123625619D01*
X182906476Y-123720857D01*
X182906476Y-123958952D01*
X182954095Y-124054190D01*
X183001714Y-124101810D01*
X183096952Y-124149429D01*
X183287429Y-124149429D01*
X183382667Y-124101810D01*
X183430286Y-124054190D01*
X183477905Y-123958952D01*
X176378143Y-121101381D02*
X176044809Y-120625190D01*
X175806714Y-121101381D02*
X175806714Y-120101381D01*
X176187667Y-120101381D01*
X176282905Y-120149000D01*
X176330524Y-120196619D01*
X176378143Y-120291857D01*
X176378143Y-120434714D01*
X176330524Y-120529952D01*
X176282905Y-120577571D01*
X176187667Y-120625190D01*
X175806714Y-120625190D01*
X177330524Y-121101381D02*
X176759095Y-121101381D01*
X177044809Y-121101381D02*
X177044809Y-120101381D01*
X176949571Y-120244238D01*
X176854333Y-120339476D01*
X176759095Y-120387095D01*
X177901952Y-120529952D02*
X177806714Y-120482333D01*
X177759095Y-120434714D01*
X177711476Y-120339476D01*
X177711476Y-120291857D01*
X177759095Y-120196619D01*
X177806714Y-120149000D01*
X177901952Y-120101381D01*
X178092429Y-120101381D01*
X178187667Y-120149000D01*
X178235286Y-120196619D01*
X178282905Y-120291857D01*
X178282905Y-120339476D01*
X178235286Y-120434714D01*
X178187667Y-120482333D01*
X178092429Y-120529952D01*
X177901952Y-120529952D01*
X177806714Y-120577571D01*
X177759095Y-120625190D01*
X177711476Y-120720429D01*
X177711476Y-120910905D01*
X177759095Y-121006143D01*
X177806714Y-121053762D01*
X177901952Y-121101381D01*
X178092429Y-121101381D01*
X178187667Y-121053762D01*
X178235286Y-121006143D01*
X178282905Y-120910905D01*
X178282905Y-120720429D01*
X178235286Y-120625190D01*
X178187667Y-120577571D01*
X178092429Y-120529952D01*
X180011905Y-63452381D02*
X180011905Y-64261905D01*
X180059524Y-64357143D01*
X180107143Y-64404762D01*
X180202381Y-64452381D01*
X180392858Y-64452381D01*
X180488096Y-64404762D01*
X180535715Y-64357143D01*
X180583334Y-64261905D01*
X180583334Y-63452381D01*
X181583334Y-64452381D02*
X181011905Y-64452381D01*
X181297619Y-64452381D02*
X181297619Y-63452381D01*
X181202381Y-63595238D01*
X181107143Y-63690476D01*
X181011905Y-63738095D01*
X182202381Y-63452381D02*
X182297620Y-63452381D01*
X182392858Y-63500000D01*
X182440477Y-63547619D01*
X182488096Y-63642857D01*
X182535715Y-63833333D01*
X182535715Y-64071429D01*
X182488096Y-64261905D01*
X182440477Y-64357143D01*
X182392858Y-64404762D01*
X182297620Y-64452381D01*
X182202381Y-64452381D01*
X182107143Y-64404762D01*
X182059524Y-64357143D01*
X182011905Y-64261905D01*
X181964286Y-64071429D01*
X181964286Y-63833333D01*
X182011905Y-63642857D01*
X182059524Y-63547619D01*
X182107143Y-63500000D01*
X182202381Y-63452381D01*
X180692095Y-133563381D02*
X180692095Y-134372905D01*
X180739714Y-134468143D01*
X180787333Y-134515762D01*
X180882571Y-134563381D01*
X181073048Y-134563381D01*
X181168286Y-134515762D01*
X181215905Y-134468143D01*
X181263524Y-134372905D01*
X181263524Y-133563381D01*
X181787333Y-134563381D02*
X181977809Y-134563381D01*
X182073048Y-134515762D01*
X182120667Y-134468143D01*
X182215905Y-134325286D01*
X182263524Y-134134810D01*
X182263524Y-133753857D01*
X182215905Y-133658619D01*
X182168286Y-133611000D01*
X182073048Y-133563381D01*
X181882571Y-133563381D01*
X181787333Y-133611000D01*
X181739714Y-133658619D01*
X181692095Y-133753857D01*
X181692095Y-133991952D01*
X181739714Y-134087190D01*
X181787333Y-134134810D01*
X181882571Y-134182429D01*
X182073048Y-134182429D01*
X182168286Y-134134810D01*
X182215905Y-134087190D01*
X182263524Y-133991952D01*
X158808381Y-122895095D02*
X158808381Y-122323666D01*
X159808381Y-122609381D02*
X158808381Y-122609381D01*
X159808381Y-121990333D02*
X158808381Y-121990333D01*
X158808381Y-121609380D01*
X158856000Y-121514142D01*
X158903619Y-121466523D01*
X158998857Y-121418904D01*
X159141714Y-121418904D01*
X159236952Y-121466523D01*
X159284571Y-121514142D01*
X159332190Y-121609380D01*
X159332190Y-121990333D01*
X158808381Y-121085571D02*
X158808381Y-120466523D01*
X159189333Y-120799857D01*
X159189333Y-120656999D01*
X159236952Y-120561761D01*
X159284571Y-120514142D01*
X159379810Y-120466523D01*
X159617905Y-120466523D01*
X159713143Y-120514142D01*
X159760762Y-120561761D01*
X159808381Y-120656999D01*
X159808381Y-120942714D01*
X159760762Y-121037952D01*
X159713143Y-121085571D01*
X158808381Y-119561761D02*
X158808381Y-120037952D01*
X159284571Y-120085571D01*
X159236952Y-120037952D01*
X159189333Y-119942714D01*
X159189333Y-119704618D01*
X159236952Y-119609380D01*
X159284571Y-119561761D01*
X159379810Y-119514142D01*
X159617905Y-119514142D01*
X159713143Y-119561761D01*
X159760762Y-119609380D01*
X159808381Y-119704618D01*
X159808381Y-119942714D01*
X159760762Y-120037952D01*
X159713143Y-120085571D01*
X162999381Y-78318095D02*
X162999381Y-77746666D01*
X163999381Y-78032381D02*
X162999381Y-78032381D01*
X163999381Y-77413333D02*
X162999381Y-77413333D01*
X162999381Y-77032380D01*
X163047000Y-76937142D01*
X163094619Y-76889523D01*
X163189857Y-76841904D01*
X163332714Y-76841904D01*
X163427952Y-76889523D01*
X163475571Y-76937142D01*
X163523190Y-77032380D01*
X163523190Y-77413333D01*
X162999381Y-76508571D02*
X162999381Y-75889523D01*
X163380333Y-76222857D01*
X163380333Y-76079999D01*
X163427952Y-75984761D01*
X163475571Y-75937142D01*
X163570810Y-75889523D01*
X163808905Y-75889523D01*
X163904143Y-75937142D01*
X163951762Y-75984761D01*
X163999381Y-76079999D01*
X163999381Y-76365714D01*
X163951762Y-76460952D01*
X163904143Y-76508571D01*
X163999381Y-74937142D02*
X163999381Y-75508571D01*
X163999381Y-75222857D02*
X162999381Y-75222857D01*
X163142238Y-75318095D01*
X163237476Y-75413333D01*
X163285095Y-75508571D01*
X183525905Y-121879381D02*
X184097334Y-121879381D01*
X183811619Y-122879381D02*
X183811619Y-121879381D01*
X184430667Y-122879381D02*
X184430667Y-121879381D01*
X184811620Y-121879381D01*
X184906858Y-121927000D01*
X184954477Y-121974619D01*
X185002096Y-122069857D01*
X185002096Y-122212714D01*
X184954477Y-122307952D01*
X184906858Y-122355571D01*
X184811620Y-122403190D01*
X184430667Y-122403190D01*
X185383048Y-121974619D02*
X185430667Y-121927000D01*
X185525905Y-121879381D01*
X185764001Y-121879381D01*
X185859239Y-121927000D01*
X185906858Y-121974619D01*
X185954477Y-122069857D01*
X185954477Y-122165095D01*
X185906858Y-122307952D01*
X185335429Y-122879381D01*
X185954477Y-122879381D01*
X186287810Y-121879381D02*
X186954477Y-121879381D01*
X186525905Y-122879381D01*
X148854905Y-95717381D02*
X149426334Y-95717381D01*
X149140619Y-96717381D02*
X149140619Y-95717381D01*
X149759667Y-96717381D02*
X149759667Y-95717381D01*
X150140620Y-95717381D01*
X150235858Y-95765000D01*
X150283477Y-95812619D01*
X150331096Y-95907857D01*
X150331096Y-96050714D01*
X150283477Y-96145952D01*
X150235858Y-96193571D01*
X150140620Y-96241190D01*
X149759667Y-96241190D01*
X150712048Y-95812619D02*
X150759667Y-95765000D01*
X150854905Y-95717381D01*
X151093001Y-95717381D01*
X151188239Y-95765000D01*
X151235858Y-95812619D01*
X151283477Y-95907857D01*
X151283477Y-96003095D01*
X151235858Y-96145952D01*
X150664429Y-96717381D01*
X151283477Y-96717381D01*
X152140620Y-96050714D02*
X152140620Y-96717381D01*
X151902524Y-95669762D02*
X151664429Y-96384048D01*
X152283477Y-96384048D01*
X183271905Y-118069381D02*
X183843334Y-118069381D01*
X183557619Y-119069381D02*
X183557619Y-118069381D01*
X184176667Y-119069381D02*
X184176667Y-118069381D01*
X184557620Y-118069381D01*
X184652858Y-118117000D01*
X184700477Y-118164619D01*
X184748096Y-118259857D01*
X184748096Y-118402714D01*
X184700477Y-118497952D01*
X184652858Y-118545571D01*
X184557620Y-118593190D01*
X184176667Y-118593190D01*
X185129048Y-118164619D02*
X185176667Y-118117000D01*
X185271905Y-118069381D01*
X185510001Y-118069381D01*
X185605239Y-118117000D01*
X185652858Y-118164619D01*
X185700477Y-118259857D01*
X185700477Y-118355095D01*
X185652858Y-118497952D01*
X185081429Y-119069381D01*
X185700477Y-119069381D01*
X186081429Y-118164619D02*
X186129048Y-118117000D01*
X186224286Y-118069381D01*
X186462382Y-118069381D01*
X186557620Y-118117000D01*
X186605239Y-118164619D01*
X186652858Y-118259857D01*
X186652858Y-118355095D01*
X186605239Y-118497952D01*
X186033810Y-119069381D01*
X186652858Y-119069381D01*
X179763381Y-97876095D02*
X179763381Y-97304666D01*
X180763381Y-97590381D02*
X179763381Y-97590381D01*
X180763381Y-96971333D02*
X179763381Y-96971333D01*
X179763381Y-96590380D01*
X179811000Y-96495142D01*
X179858619Y-96447523D01*
X179953857Y-96399904D01*
X180096714Y-96399904D01*
X180191952Y-96447523D01*
X180239571Y-96495142D01*
X180287190Y-96590380D01*
X180287190Y-96971333D01*
X179858619Y-96018952D02*
X179811000Y-95971333D01*
X179763381Y-95876095D01*
X179763381Y-95637999D01*
X179811000Y-95542761D01*
X179858619Y-95495142D01*
X179953857Y-95447523D01*
X180049095Y-95447523D01*
X180191952Y-95495142D01*
X180763381Y-96066571D01*
X180763381Y-95447523D01*
X179763381Y-94828476D02*
X179763381Y-94733237D01*
X179811000Y-94637999D01*
X179858619Y-94590380D01*
X179953857Y-94542761D01*
X180144333Y-94495142D01*
X180382429Y-94495142D01*
X180572905Y-94542761D01*
X180668143Y-94590380D01*
X180715762Y-94637999D01*
X180763381Y-94733237D01*
X180763381Y-94828476D01*
X180715762Y-94923714D01*
X180668143Y-94971333D01*
X180572905Y-95018952D01*
X180382429Y-95066571D01*
X180144333Y-95066571D01*
X179953857Y-95018952D01*
X179858619Y-94971333D01*
X179811000Y-94923714D01*
X179763381Y-94828476D01*
X148854905Y-93558381D02*
X149426334Y-93558381D01*
X149140619Y-94558381D02*
X149140619Y-93558381D01*
X149759667Y-94558381D02*
X149759667Y-93558381D01*
X150140620Y-93558381D01*
X150235858Y-93606000D01*
X150283477Y-93653619D01*
X150331096Y-93748857D01*
X150331096Y-93891714D01*
X150283477Y-93986952D01*
X150235858Y-94034571D01*
X150140620Y-94082190D01*
X149759667Y-94082190D01*
X151283477Y-94558381D02*
X150712048Y-94558381D01*
X150997762Y-94558381D02*
X150997762Y-93558381D01*
X150902524Y-93701238D01*
X150807286Y-93796476D01*
X150712048Y-93844095D01*
X151759667Y-94558381D02*
X151950143Y-94558381D01*
X152045382Y-94510762D01*
X152093001Y-94463143D01*
X152188239Y-94320286D01*
X152235858Y-94129810D01*
X152235858Y-93748857D01*
X152188239Y-93653619D01*
X152140620Y-93606000D01*
X152045382Y-93558381D01*
X151854905Y-93558381D01*
X151759667Y-93606000D01*
X151712048Y-93653619D01*
X151664429Y-93748857D01*
X151664429Y-93986952D01*
X151712048Y-94082190D01*
X151759667Y-94129810D01*
X151854905Y-94177429D01*
X152045382Y-94177429D01*
X152140620Y-94129810D01*
X152188239Y-94082190D01*
X152235858Y-93986952D01*
X177604381Y-97876095D02*
X177604381Y-97304666D01*
X178604381Y-97590381D02*
X177604381Y-97590381D01*
X178604381Y-96971333D02*
X177604381Y-96971333D01*
X177604381Y-96590380D01*
X177652000Y-96495142D01*
X177699619Y-96447523D01*
X177794857Y-96399904D01*
X177937714Y-96399904D01*
X178032952Y-96447523D01*
X178080571Y-96495142D01*
X178128190Y-96590380D01*
X178128190Y-96971333D01*
X178604381Y-95447523D02*
X178604381Y-96018952D01*
X178604381Y-95733238D02*
X177604381Y-95733238D01*
X177747238Y-95828476D01*
X177842476Y-95923714D01*
X177890095Y-96018952D01*
X178032952Y-94876095D02*
X177985333Y-94971333D01*
X177937714Y-95018952D01*
X177842476Y-95066571D01*
X177794857Y-95066571D01*
X177699619Y-95018952D01*
X177652000Y-94971333D01*
X177604381Y-94876095D01*
X177604381Y-94685618D01*
X177652000Y-94590380D01*
X177699619Y-94542761D01*
X177794857Y-94495142D01*
X177842476Y-94495142D01*
X177937714Y-94542761D01*
X177985333Y-94590380D01*
X178032952Y-94685618D01*
X178032952Y-94876095D01*
X178080571Y-94971333D01*
X178128190Y-95018952D01*
X178223429Y-95066571D01*
X178413905Y-95066571D01*
X178509143Y-95018952D01*
X178556762Y-94971333D01*
X178604381Y-94876095D01*
X178604381Y-94685618D01*
X178556762Y-94590380D01*
X178509143Y-94542761D01*
X178413905Y-94495142D01*
X178223429Y-94495142D01*
X178128190Y-94542761D01*
X178080571Y-94590380D01*
X178032952Y-94685618D01*
X173413381Y-121244095D02*
X173413381Y-120672666D01*
X174413381Y-120958381D02*
X173413381Y-120958381D01*
X174413381Y-120339333D02*
X173413381Y-120339333D01*
X173413381Y-119958380D01*
X173461000Y-119863142D01*
X173508619Y-119815523D01*
X173603857Y-119767904D01*
X173746714Y-119767904D01*
X173841952Y-119815523D01*
X173889571Y-119863142D01*
X173937190Y-119958380D01*
X173937190Y-120339333D01*
X174413381Y-118815523D02*
X174413381Y-119386952D01*
X174413381Y-119101238D02*
X173413381Y-119101238D01*
X173556238Y-119196476D01*
X173651476Y-119291714D01*
X173699095Y-119386952D01*
X173413381Y-118482190D02*
X173413381Y-117815523D01*
X174413381Y-118244095D01*
X159824381Y-128737095D02*
X159824381Y-128165666D01*
X160824381Y-128451381D02*
X159824381Y-128451381D01*
X160824381Y-127832333D02*
X159824381Y-127832333D01*
X159824381Y-127451380D01*
X159872000Y-127356142D01*
X159919619Y-127308523D01*
X160014857Y-127260904D01*
X160157714Y-127260904D01*
X160252952Y-127308523D01*
X160300571Y-127356142D01*
X160348190Y-127451380D01*
X160348190Y-127832333D01*
X160824381Y-126308523D02*
X160824381Y-126879952D01*
X160824381Y-126594238D02*
X159824381Y-126594238D01*
X159967238Y-126689476D01*
X160062476Y-126784714D01*
X160110095Y-126879952D01*
X159824381Y-125451380D02*
X159824381Y-125641857D01*
X159872000Y-125737095D01*
X159919619Y-125784714D01*
X160062476Y-125879952D01*
X160252952Y-125927571D01*
X160633905Y-125927571D01*
X160729143Y-125879952D01*
X160776762Y-125832333D01*
X160824381Y-125737095D01*
X160824381Y-125546618D01*
X160776762Y-125451380D01*
X160729143Y-125403761D01*
X160633905Y-125356142D01*
X160395810Y-125356142D01*
X160300571Y-125403761D01*
X160252952Y-125451380D01*
X160205333Y-125546618D01*
X160205333Y-125737095D01*
X160252952Y-125832333D01*
X160300571Y-125879952D01*
X160395810Y-125927571D01*
X173761905Y-100702381D02*
X174333334Y-100702381D01*
X174047619Y-101702381D02*
X174047619Y-100702381D01*
X174666667Y-101702381D02*
X174666667Y-100702381D01*
X175047620Y-100702381D01*
X175142858Y-100750000D01*
X175190477Y-100797619D01*
X175238096Y-100892857D01*
X175238096Y-101035714D01*
X175190477Y-101130952D01*
X175142858Y-101178571D01*
X175047620Y-101226190D01*
X174666667Y-101226190D01*
X176190477Y-101702381D02*
X175619048Y-101702381D01*
X175904762Y-101702381D02*
X175904762Y-100702381D01*
X175809524Y-100845238D01*
X175714286Y-100940476D01*
X175619048Y-100988095D01*
X177095239Y-100702381D02*
X176619048Y-100702381D01*
X176571429Y-101178571D01*
X176619048Y-101130952D01*
X176714286Y-101083333D01*
X176952382Y-101083333D01*
X177047620Y-101130952D01*
X177095239Y-101178571D01*
X177142858Y-101273810D01*
X177142858Y-101511905D01*
X177095239Y-101607143D01*
X177047620Y-101654762D01*
X176952382Y-101702381D01*
X176714286Y-101702381D01*
X176619048Y-101654762D01*
X176571429Y-101607143D01*
X156776381Y-103718095D02*
X156776381Y-103146666D01*
X157776381Y-103432381D02*
X156776381Y-103432381D01*
X157776381Y-102813333D02*
X156776381Y-102813333D01*
X156776381Y-102432380D01*
X156824000Y-102337142D01*
X156871619Y-102289523D01*
X156966857Y-102241904D01*
X157109714Y-102241904D01*
X157204952Y-102289523D01*
X157252571Y-102337142D01*
X157300190Y-102432380D01*
X157300190Y-102813333D01*
X157776381Y-101289523D02*
X157776381Y-101860952D01*
X157776381Y-101575238D02*
X156776381Y-101575238D01*
X156919238Y-101670476D01*
X157014476Y-101765714D01*
X157062095Y-101860952D01*
X157109714Y-100432380D02*
X157776381Y-100432380D01*
X156728762Y-100670476D02*
X157443048Y-100908571D01*
X157443048Y-100289523D01*
X181261905Y-100952381D02*
X181833334Y-100952381D01*
X181547619Y-101952381D02*
X181547619Y-100952381D01*
X182166667Y-101952381D02*
X182166667Y-100952381D01*
X182547620Y-100952381D01*
X182642858Y-101000000D01*
X182690477Y-101047619D01*
X182738096Y-101142857D01*
X182738096Y-101285714D01*
X182690477Y-101380952D01*
X182642858Y-101428571D01*
X182547620Y-101476190D01*
X182166667Y-101476190D01*
X183690477Y-101952381D02*
X183119048Y-101952381D01*
X183404762Y-101952381D02*
X183404762Y-100952381D01*
X183309524Y-101095238D01*
X183214286Y-101190476D01*
X183119048Y-101238095D01*
X184071429Y-101047619D02*
X184119048Y-101000000D01*
X184214286Y-100952381D01*
X184452382Y-100952381D01*
X184547620Y-101000000D01*
X184595239Y-101047619D01*
X184642858Y-101142857D01*
X184642858Y-101238095D01*
X184595239Y-101380952D01*
X184023810Y-101952381D01*
X184642858Y-101952381D01*
X159443381Y-103845095D02*
X159443381Y-103273666D01*
X160443381Y-103559381D02*
X159443381Y-103559381D01*
X160443381Y-102940333D02*
X159443381Y-102940333D01*
X159443381Y-102559380D01*
X159491000Y-102464142D01*
X159538619Y-102416523D01*
X159633857Y-102368904D01*
X159776714Y-102368904D01*
X159871952Y-102416523D01*
X159919571Y-102464142D01*
X159967190Y-102559380D01*
X159967190Y-102940333D01*
X160443381Y-101416523D02*
X160443381Y-101987952D01*
X160443381Y-101702238D02*
X159443381Y-101702238D01*
X159586238Y-101797476D01*
X159681476Y-101892714D01*
X159729095Y-101987952D01*
X160443381Y-100464142D02*
X160443381Y-101035571D01*
X160443381Y-100749857D02*
X159443381Y-100749857D01*
X159586238Y-100845095D01*
X159681476Y-100940333D01*
X159729095Y-101035571D01*
X156903381Y-122895095D02*
X156903381Y-122323666D01*
X157903381Y-122609381D02*
X156903381Y-122609381D01*
X157903381Y-121990333D02*
X156903381Y-121990333D01*
X156903381Y-121609380D01*
X156951000Y-121514142D01*
X156998619Y-121466523D01*
X157093857Y-121418904D01*
X157236714Y-121418904D01*
X157331952Y-121466523D01*
X157379571Y-121514142D01*
X157427190Y-121609380D01*
X157427190Y-121990333D01*
X157903381Y-120466523D02*
X157903381Y-121037952D01*
X157903381Y-120752238D02*
X156903381Y-120752238D01*
X157046238Y-120847476D01*
X157141476Y-120942714D01*
X157189095Y-121037952D01*
X156903381Y-119847476D02*
X156903381Y-119752237D01*
X156951000Y-119656999D01*
X156998619Y-119609380D01*
X157093857Y-119561761D01*
X157284333Y-119514142D01*
X157522429Y-119514142D01*
X157712905Y-119561761D01*
X157808143Y-119609380D01*
X157855762Y-119656999D01*
X157903381Y-119752237D01*
X157903381Y-119847476D01*
X157855762Y-119942714D01*
X157808143Y-119990333D01*
X157712905Y-120037952D01*
X157522429Y-120085571D01*
X157284333Y-120085571D01*
X157093857Y-120037952D01*
X156998619Y-119990333D01*
X156951000Y-119942714D01*
X156903381Y-119847476D01*
X149839095Y-98257381D02*
X150410524Y-98257381D01*
X150124809Y-99257381D02*
X150124809Y-98257381D01*
X150743857Y-99257381D02*
X150743857Y-98257381D01*
X151124810Y-98257381D01*
X151220048Y-98305000D01*
X151267667Y-98352619D01*
X151315286Y-98447857D01*
X151315286Y-98590714D01*
X151267667Y-98685952D01*
X151220048Y-98733571D01*
X151124810Y-98781190D01*
X150743857Y-98781190D01*
X152172429Y-98590714D02*
X152172429Y-99257381D01*
X151934333Y-98209762D02*
X151696238Y-98924048D01*
X152315286Y-98924048D01*
X154109381Y-103749905D02*
X154109381Y-103178476D01*
X155109381Y-103464191D02*
X154109381Y-103464191D01*
X155109381Y-102845143D02*
X154109381Y-102845143D01*
X154109381Y-102464190D01*
X154157000Y-102368952D01*
X154204619Y-102321333D01*
X154299857Y-102273714D01*
X154442714Y-102273714D01*
X154537952Y-102321333D01*
X154585571Y-102368952D01*
X154633190Y-102464190D01*
X154633190Y-102845143D01*
X154109381Y-101940381D02*
X154109381Y-101321333D01*
X154490333Y-101654667D01*
X154490333Y-101511809D01*
X154537952Y-101416571D01*
X154585571Y-101368952D01*
X154680810Y-101321333D01*
X154918905Y-101321333D01*
X155014143Y-101368952D01*
X155061762Y-101416571D01*
X155109381Y-101511809D01*
X155109381Y-101797524D01*
X155061762Y-101892762D01*
X155014143Y-101940381D01*
X153238095Y-112952381D02*
X153809524Y-112952381D01*
X153523809Y-113952381D02*
X153523809Y-112952381D01*
X154142857Y-113952381D02*
X154142857Y-112952381D01*
X154523810Y-112952381D01*
X154619048Y-113000000D01*
X154666667Y-113047619D01*
X154714286Y-113142857D01*
X154714286Y-113285714D01*
X154666667Y-113380952D01*
X154619048Y-113428571D01*
X154523810Y-113476190D01*
X154142857Y-113476190D01*
X155095238Y-113047619D02*
X155142857Y-113000000D01*
X155238095Y-112952381D01*
X155476191Y-112952381D01*
X155571429Y-113000000D01*
X155619048Y-113047619D01*
X155666667Y-113142857D01*
X155666667Y-113238095D01*
X155619048Y-113380952D01*
X155047619Y-113952381D01*
X155666667Y-113952381D01*
X183192381Y-121910905D02*
X183192381Y-121339476D01*
X184192381Y-121625191D02*
X183192381Y-121625191D01*
X184192381Y-121006143D02*
X183192381Y-121006143D01*
X183192381Y-120625190D01*
X183240000Y-120529952D01*
X183287619Y-120482333D01*
X183382857Y-120434714D01*
X183525714Y-120434714D01*
X183620952Y-120482333D01*
X183668571Y-120529952D01*
X183716190Y-120625190D01*
X183716190Y-121006143D01*
X184192381Y-119482333D02*
X184192381Y-120053762D01*
X184192381Y-119768048D02*
X183192381Y-119768048D01*
X183335238Y-119863286D01*
X183430476Y-119958524D01*
X183478095Y-120053762D01*
X181202381Y-129392857D02*
X180726190Y-129726191D01*
X181202381Y-129964286D02*
X180202381Y-129964286D01*
X180202381Y-129583333D01*
X180250000Y-129488095D01*
X180297619Y-129440476D01*
X180392857Y-129392857D01*
X180535714Y-129392857D01*
X180630952Y-129440476D01*
X180678571Y-129488095D01*
X180726190Y-129583333D01*
X180726190Y-129964286D01*
X181202381Y-128440476D02*
X181202381Y-129011905D01*
X181202381Y-128726191D02*
X180202381Y-128726191D01*
X180345238Y-128821429D01*
X180440476Y-128916667D01*
X180488095Y-129011905D01*
X180202381Y-128107143D02*
X180202381Y-127440476D01*
X181202381Y-127869048D01*
X186107143Y-132142857D02*
X186154762Y-132190476D01*
X186202381Y-132333333D01*
X186202381Y-132428571D01*
X186154762Y-132571429D01*
X186059524Y-132666667D01*
X185964286Y-132714286D01*
X185773810Y-132761905D01*
X185630952Y-132761905D01*
X185440476Y-132714286D01*
X185345238Y-132666667D01*
X185250000Y-132571429D01*
X185202381Y-132428571D01*
X185202381Y-132333333D01*
X185250000Y-132190476D01*
X185297619Y-132142857D01*
X185202381Y-131285714D02*
X185202381Y-131476191D01*
X185250000Y-131571429D01*
X185297619Y-131619048D01*
X185440476Y-131714286D01*
X185630952Y-131761905D01*
X186011905Y-131761905D01*
X186107143Y-131714286D01*
X186154762Y-131666667D01*
X186202381Y-131571429D01*
X186202381Y-131380952D01*
X186154762Y-131285714D01*
X186107143Y-131238095D01*
X186011905Y-131190476D01*
X185773810Y-131190476D01*
X185678571Y-131238095D01*
X185630952Y-131285714D01*
X185583333Y-131380952D01*
X185583333Y-131571429D01*
X185630952Y-131666667D01*
X185678571Y-131714286D01*
X185773810Y-131761905D01*
X185202381Y-130571429D02*
X185202381Y-130476190D01*
X185250000Y-130380952D01*
X185297619Y-130333333D01*
X185392857Y-130285714D01*
X185583333Y-130238095D01*
X185821429Y-130238095D01*
X186011905Y-130285714D01*
X186107143Y-130333333D01*
X186154762Y-130380952D01*
X186202381Y-130476190D01*
X186202381Y-130571429D01*
X186154762Y-130666667D01*
X186107143Y-130714286D01*
X186011905Y-130761905D01*
X185821429Y-130809524D01*
X185583333Y-130809524D01*
X185392857Y-130761905D01*
X185297619Y-130714286D01*
X185250000Y-130666667D01*
X185202381Y-130571429D01*
X134140476Y-71311905D02*
X134140476Y-71959524D01*
X134178571Y-72035714D01*
X134216667Y-72073810D01*
X134292857Y-72111905D01*
X134445238Y-72111905D01*
X134521429Y-72073810D01*
X134559524Y-72035714D01*
X134597619Y-71959524D01*
X134597619Y-71311905D01*
X134940476Y-71388095D02*
X134978571Y-71350000D01*
X135054762Y-71311905D01*
X135245238Y-71311905D01*
X135321428Y-71350000D01*
X135359524Y-71388095D01*
X135397619Y-71464286D01*
X135397619Y-71540476D01*
X135359524Y-71654762D01*
X134902381Y-72111905D01*
X135397619Y-72111905D01*
X157357143Y-58452381D02*
X157023809Y-57976190D01*
X156785714Y-58452381D02*
X156785714Y-57452381D01*
X157166667Y-57452381D01*
X157261905Y-57500000D01*
X157309524Y-57547619D01*
X157357143Y-57642857D01*
X157357143Y-57785714D01*
X157309524Y-57880952D01*
X157261905Y-57928571D01*
X157166667Y-57976190D01*
X156785714Y-57976190D01*
X158309524Y-58452381D02*
X157738095Y-58452381D01*
X158023809Y-58452381D02*
X158023809Y-57452381D01*
X157928571Y-57595238D01*
X157833333Y-57690476D01*
X157738095Y-57738095D01*
X158642857Y-57452381D02*
X159261905Y-57452381D01*
X158928571Y-57833333D01*
X159071429Y-57833333D01*
X159166667Y-57880952D01*
X159214286Y-57928571D01*
X159261905Y-58023810D01*
X159261905Y-58261905D01*
X159214286Y-58357143D01*
X159166667Y-58404762D01*
X159071429Y-58452381D01*
X158785714Y-58452381D01*
X158690476Y-58404762D01*
X158642857Y-58357143D01*
X157189143Y-53410381D02*
X156855809Y-52934190D01*
X156617714Y-53410381D02*
X156617714Y-52410381D01*
X156998667Y-52410381D01*
X157093905Y-52458000D01*
X157141524Y-52505619D01*
X157189143Y-52600857D01*
X157189143Y-52743714D01*
X157141524Y-52838952D01*
X157093905Y-52886571D01*
X156998667Y-52934190D01*
X156617714Y-52934190D01*
X158141524Y-53410381D02*
X157570095Y-53410381D01*
X157855809Y-53410381D02*
X157855809Y-52410381D01*
X157760571Y-52553238D01*
X157665333Y-52648476D01*
X157570095Y-52696095D01*
X158522476Y-52505619D02*
X158570095Y-52458000D01*
X158665333Y-52410381D01*
X158903429Y-52410381D01*
X158998667Y-52458000D01*
X159046286Y-52505619D01*
X159093905Y-52600857D01*
X159093905Y-52696095D01*
X159046286Y-52838952D01*
X158474857Y-53410381D01*
X159093905Y-53410381D01*
X158952381Y-56142857D02*
X158476190Y-56476191D01*
X158952381Y-56714286D02*
X157952381Y-56714286D01*
X157952381Y-56333333D01*
X158000000Y-56238095D01*
X158047619Y-56190476D01*
X158142857Y-56142857D01*
X158285714Y-56142857D01*
X158380952Y-56190476D01*
X158428571Y-56238095D01*
X158476190Y-56333333D01*
X158476190Y-56714286D01*
X158952381Y-55190476D02*
X158952381Y-55761905D01*
X158952381Y-55476191D02*
X157952381Y-55476191D01*
X158095238Y-55571429D01*
X158190476Y-55666667D01*
X158238095Y-55761905D01*
X158952381Y-54238095D02*
X158952381Y-54809524D01*
X158952381Y-54523810D02*
X157952381Y-54523810D01*
X158095238Y-54619048D01*
X158190476Y-54714286D01*
X158238095Y-54809524D01*
X141083334Y-68452381D02*
X140750000Y-67976190D01*
X140511905Y-68452381D02*
X140511905Y-67452381D01*
X140892858Y-67452381D01*
X140988096Y-67500000D01*
X141035715Y-67547619D01*
X141083334Y-67642857D01*
X141083334Y-67785714D01*
X141035715Y-67880952D01*
X140988096Y-67928571D01*
X140892858Y-67976190D01*
X140511905Y-67976190D01*
X141654762Y-67880952D02*
X141559524Y-67833333D01*
X141511905Y-67785714D01*
X141464286Y-67690476D01*
X141464286Y-67642857D01*
X141511905Y-67547619D01*
X141559524Y-67500000D01*
X141654762Y-67452381D01*
X141845239Y-67452381D01*
X141940477Y-67500000D01*
X141988096Y-67547619D01*
X142035715Y-67642857D01*
X142035715Y-67690476D01*
X141988096Y-67785714D01*
X141940477Y-67833333D01*
X141845239Y-67880952D01*
X141654762Y-67880952D01*
X141559524Y-67928571D01*
X141511905Y-67976190D01*
X141464286Y-68071429D01*
X141464286Y-68261905D01*
X141511905Y-68357143D01*
X141559524Y-68404762D01*
X141654762Y-68452381D01*
X141845239Y-68452381D01*
X141940477Y-68404762D01*
X141988096Y-68357143D01*
X142035715Y-68261905D01*
X142035715Y-68071429D01*
X141988096Y-67976190D01*
X141940477Y-67928571D01*
X141845239Y-67880952D01*
X149833334Y-82202381D02*
X149357143Y-82202381D01*
X149357143Y-81202381D01*
X150119048Y-81297619D02*
X150166667Y-81250000D01*
X150261905Y-81202381D01*
X150500001Y-81202381D01*
X150595239Y-81250000D01*
X150642858Y-81297619D01*
X150690477Y-81392857D01*
X150690477Y-81488095D01*
X150642858Y-81630952D01*
X150071429Y-82202381D01*
X150690477Y-82202381D01*
X150950143Y-51314857D02*
X150997762Y-51362476D01*
X151045381Y-51505333D01*
X151045381Y-51600571D01*
X150997762Y-51743429D01*
X150902524Y-51838667D01*
X150807286Y-51886286D01*
X150616810Y-51933905D01*
X150473952Y-51933905D01*
X150283476Y-51886286D01*
X150188238Y-51838667D01*
X150093000Y-51743429D01*
X150045381Y-51600571D01*
X150045381Y-51505333D01*
X150093000Y-51362476D01*
X150140619Y-51314857D01*
X150045381Y-50410095D02*
X150045381Y-50886286D01*
X150521571Y-50933905D01*
X150473952Y-50886286D01*
X150426333Y-50791048D01*
X150426333Y-50552952D01*
X150473952Y-50457714D01*
X150521571Y-50410095D01*
X150616810Y-50362476D01*
X150854905Y-50362476D01*
X150950143Y-50410095D01*
X150997762Y-50457714D01*
X151045381Y-50552952D01*
X151045381Y-50791048D01*
X150997762Y-50886286D01*
X150950143Y-50933905D01*
X151045381Y-49886286D02*
X151045381Y-49695810D01*
X150997762Y-49600571D01*
X150950143Y-49552952D01*
X150807286Y-49457714D01*
X150616810Y-49410095D01*
X150235857Y-49410095D01*
X150140619Y-49457714D01*
X150093000Y-49505333D01*
X150045381Y-49600571D01*
X150045381Y-49791048D01*
X150093000Y-49886286D01*
X150140619Y-49933905D01*
X150235857Y-49981524D01*
X150473952Y-49981524D01*
X150569190Y-49933905D01*
X150616810Y-49886286D01*
X150664429Y-49791048D01*
X150664429Y-49600571D01*
X150616810Y-49505333D01*
X150569190Y-49457714D01*
X150473952Y-49410095D01*
X160357143Y-56142857D02*
X160404762Y-56190476D01*
X160452381Y-56333333D01*
X160452381Y-56428571D01*
X160404762Y-56571429D01*
X160309524Y-56666667D01*
X160214286Y-56714286D01*
X160023810Y-56761905D01*
X159880952Y-56761905D01*
X159690476Y-56714286D01*
X159595238Y-56666667D01*
X159500000Y-56571429D01*
X159452381Y-56428571D01*
X159452381Y-56333333D01*
X159500000Y-56190476D01*
X159547619Y-56142857D01*
X159452381Y-55238095D02*
X159452381Y-55714286D01*
X159928571Y-55761905D01*
X159880952Y-55714286D01*
X159833333Y-55619048D01*
X159833333Y-55380952D01*
X159880952Y-55285714D01*
X159928571Y-55238095D01*
X160023810Y-55190476D01*
X160261905Y-55190476D01*
X160357143Y-55238095D01*
X160404762Y-55285714D01*
X160452381Y-55380952D01*
X160452381Y-55619048D01*
X160404762Y-55714286D01*
X160357143Y-55761905D01*
X159880952Y-54619048D02*
X159833333Y-54714286D01*
X159785714Y-54761905D01*
X159690476Y-54809524D01*
X159642857Y-54809524D01*
X159547619Y-54761905D01*
X159500000Y-54714286D01*
X159452381Y-54619048D01*
X159452381Y-54428571D01*
X159500000Y-54333333D01*
X159547619Y-54285714D01*
X159642857Y-54238095D01*
X159690476Y-54238095D01*
X159785714Y-54285714D01*
X159833333Y-54333333D01*
X159880952Y-54428571D01*
X159880952Y-54619048D01*
X159928571Y-54714286D01*
X159976190Y-54761905D01*
X160071429Y-54809524D01*
X160261905Y-54809524D01*
X160357143Y-54761905D01*
X160404762Y-54714286D01*
X160452381Y-54619048D01*
X160452381Y-54428571D01*
X160404762Y-54333333D01*
X160357143Y-54285714D01*
X160261905Y-54238095D01*
X160071429Y-54238095D01*
X159976190Y-54285714D01*
X159928571Y-54333333D01*
X159880952Y-54428571D01*
X133059143Y-56236143D02*
X133011524Y-56283762D01*
X132868667Y-56331381D01*
X132773429Y-56331381D01*
X132630571Y-56283762D01*
X132535333Y-56188524D01*
X132487714Y-56093286D01*
X132440095Y-55902810D01*
X132440095Y-55759952D01*
X132487714Y-55569476D01*
X132535333Y-55474238D01*
X132630571Y-55379000D01*
X132773429Y-55331381D01*
X132868667Y-55331381D01*
X133011524Y-55379000D01*
X133059143Y-55426619D01*
X133963905Y-55331381D02*
X133487714Y-55331381D01*
X133440095Y-55807571D01*
X133487714Y-55759952D01*
X133582952Y-55712333D01*
X133821048Y-55712333D01*
X133916286Y-55759952D01*
X133963905Y-55807571D01*
X134011524Y-55902810D01*
X134011524Y-56140905D01*
X133963905Y-56236143D01*
X133916286Y-56283762D01*
X133821048Y-56331381D01*
X133582952Y-56331381D01*
X133487714Y-56283762D01*
X133440095Y-56236143D01*
X134344857Y-55331381D02*
X135011524Y-55331381D01*
X134582952Y-56331381D01*
X122137143Y-61857143D02*
X122089524Y-61904762D01*
X121946667Y-61952381D01*
X121851429Y-61952381D01*
X121708571Y-61904762D01*
X121613333Y-61809524D01*
X121565714Y-61714286D01*
X121518095Y-61523810D01*
X121518095Y-61380952D01*
X121565714Y-61190476D01*
X121613333Y-61095238D01*
X121708571Y-61000000D01*
X121851429Y-60952381D01*
X121946667Y-60952381D01*
X122089524Y-61000000D01*
X122137143Y-61047619D01*
X123089524Y-61952381D02*
X122518095Y-61952381D01*
X122803809Y-61952381D02*
X122803809Y-60952381D01*
X122708571Y-61095238D01*
X122613333Y-61190476D01*
X122518095Y-61238095D01*
X123946667Y-60952381D02*
X123756190Y-60952381D01*
X123660952Y-61000000D01*
X123613333Y-61047619D01*
X123518095Y-61190476D01*
X123470476Y-61380952D01*
X123470476Y-61761905D01*
X123518095Y-61857143D01*
X123565714Y-61904762D01*
X123660952Y-61952381D01*
X123851429Y-61952381D01*
X123946667Y-61904762D01*
X123994286Y-61857143D01*
X124041905Y-61761905D01*
X124041905Y-61523810D01*
X123994286Y-61428571D01*
X123946667Y-61380952D01*
X123851429Y-61333333D01*
X123660952Y-61333333D01*
X123565714Y-61380952D01*
X123518095Y-61428571D01*
X123470476Y-61523810D01*
X121248143Y-58522143D02*
X121200524Y-58569762D01*
X121057667Y-58617381D01*
X120962429Y-58617381D01*
X120819571Y-58569762D01*
X120724333Y-58474524D01*
X120676714Y-58379286D01*
X120629095Y-58188810D01*
X120629095Y-58045952D01*
X120676714Y-57855476D01*
X120724333Y-57760238D01*
X120819571Y-57665000D01*
X120962429Y-57617381D01*
X121057667Y-57617381D01*
X121200524Y-57665000D01*
X121248143Y-57712619D01*
X122200524Y-58617381D02*
X121629095Y-58617381D01*
X121914809Y-58617381D02*
X121914809Y-57617381D01*
X121819571Y-57760238D01*
X121724333Y-57855476D01*
X121629095Y-57903095D01*
X123105286Y-57617381D02*
X122629095Y-57617381D01*
X122581476Y-58093571D01*
X122629095Y-58045952D01*
X122724333Y-57998333D01*
X122962429Y-57998333D01*
X123057667Y-58045952D01*
X123105286Y-58093571D01*
X123152905Y-58188810D01*
X123152905Y-58426905D01*
X123105286Y-58522143D01*
X123057667Y-58569762D01*
X122962429Y-58617381D01*
X122724333Y-58617381D01*
X122629095Y-58569762D01*
X122581476Y-58522143D01*
X132357143Y-54357143D02*
X132309524Y-54404762D01*
X132166667Y-54452381D01*
X132071429Y-54452381D01*
X131928571Y-54404762D01*
X131833333Y-54309524D01*
X131785714Y-54214286D01*
X131738095Y-54023810D01*
X131738095Y-53880952D01*
X131785714Y-53690476D01*
X131833333Y-53595238D01*
X131928571Y-53500000D01*
X132071429Y-53452381D01*
X132166667Y-53452381D01*
X132309524Y-53500000D01*
X132357143Y-53547619D01*
X133309524Y-54452381D02*
X132738095Y-54452381D01*
X133023809Y-54452381D02*
X133023809Y-53452381D01*
X132928571Y-53595238D01*
X132833333Y-53690476D01*
X132738095Y-53738095D01*
X134166667Y-53785714D02*
X134166667Y-54452381D01*
X133928571Y-53404762D02*
X133690476Y-54119048D01*
X134309524Y-54119048D01*
X134607143Y-52142857D02*
X134654762Y-52190476D01*
X134702381Y-52333333D01*
X134702381Y-52428571D01*
X134654762Y-52571429D01*
X134559524Y-52666667D01*
X134464286Y-52714286D01*
X134273810Y-52761905D01*
X134130952Y-52761905D01*
X133940476Y-52714286D01*
X133845238Y-52666667D01*
X133750000Y-52571429D01*
X133702381Y-52428571D01*
X133702381Y-52333333D01*
X133750000Y-52190476D01*
X133797619Y-52142857D01*
X134702381Y-51190476D02*
X134702381Y-51761905D01*
X134702381Y-51476191D02*
X133702381Y-51476191D01*
X133845238Y-51571429D01*
X133940476Y-51666667D01*
X133988095Y-51761905D01*
X133702381Y-50857143D02*
X133702381Y-50238095D01*
X134083333Y-50571429D01*
X134083333Y-50428571D01*
X134130952Y-50333333D01*
X134178571Y-50285714D01*
X134273810Y-50238095D01*
X134511905Y-50238095D01*
X134607143Y-50285714D01*
X134654762Y-50333333D01*
X134702381Y-50428571D01*
X134702381Y-50714286D01*
X134654762Y-50809524D01*
X134607143Y-50857143D01*
X132424143Y-60681143D02*
X132376524Y-60728762D01*
X132233667Y-60776381D01*
X132138429Y-60776381D01*
X131995571Y-60728762D01*
X131900333Y-60633524D01*
X131852714Y-60538286D01*
X131805095Y-60347810D01*
X131805095Y-60204952D01*
X131852714Y-60014476D01*
X131900333Y-59919238D01*
X131995571Y-59824000D01*
X132138429Y-59776381D01*
X132233667Y-59776381D01*
X132376524Y-59824000D01*
X132424143Y-59871619D01*
X133376524Y-60776381D02*
X132805095Y-60776381D01*
X133090809Y-60776381D02*
X133090809Y-59776381D01*
X132995571Y-59919238D01*
X132900333Y-60014476D01*
X132805095Y-60062095D01*
X133757476Y-59871619D02*
X133805095Y-59824000D01*
X133900333Y-59776381D01*
X134138429Y-59776381D01*
X134233667Y-59824000D01*
X134281286Y-59871619D01*
X134328905Y-59966857D01*
X134328905Y-60062095D01*
X134281286Y-60204952D01*
X133709857Y-60776381D01*
X134328905Y-60776381D01*
X134607143Y-63392857D02*
X134654762Y-63440476D01*
X134702381Y-63583333D01*
X134702381Y-63678571D01*
X134654762Y-63821429D01*
X134559524Y-63916667D01*
X134464286Y-63964286D01*
X134273810Y-64011905D01*
X134130952Y-64011905D01*
X133940476Y-63964286D01*
X133845238Y-63916667D01*
X133750000Y-63821429D01*
X133702381Y-63678571D01*
X133702381Y-63583333D01*
X133750000Y-63440476D01*
X133797619Y-63392857D01*
X134702381Y-62440476D02*
X134702381Y-63011905D01*
X134702381Y-62726191D02*
X133702381Y-62726191D01*
X133845238Y-62821429D01*
X133940476Y-62916667D01*
X133988095Y-63011905D01*
X134702381Y-61488095D02*
X134702381Y-62059524D01*
X134702381Y-61773810D02*
X133702381Y-61773810D01*
X133845238Y-61869048D01*
X133940476Y-61964286D01*
X133988095Y-62059524D01*
X134671283Y-69469566D02*
X134718902Y-69517185D01*
X134766521Y-69660042D01*
X134766521Y-69755280D01*
X134718902Y-69898138D01*
X134623664Y-69993376D01*
X134528426Y-70040995D01*
X134337950Y-70088614D01*
X134195092Y-70088614D01*
X134004616Y-70040995D01*
X133909378Y-69993376D01*
X133814140Y-69898138D01*
X133766521Y-69755280D01*
X133766521Y-69660042D01*
X133814140Y-69517185D01*
X133861759Y-69469566D01*
X134195092Y-68898138D02*
X134147473Y-68993376D01*
X134099854Y-69040995D01*
X134004616Y-69088614D01*
X133956997Y-69088614D01*
X133861759Y-69040995D01*
X133814140Y-68993376D01*
X133766521Y-68898138D01*
X133766521Y-68707661D01*
X133814140Y-68612423D01*
X133861759Y-68564804D01*
X133956997Y-68517185D01*
X134004616Y-68517185D01*
X134099854Y-68564804D01*
X134147473Y-68612423D01*
X134195092Y-68707661D01*
X134195092Y-68898138D01*
X134242711Y-68993376D01*
X134290330Y-69040995D01*
X134385569Y-69088614D01*
X134576045Y-69088614D01*
X134671283Y-69040995D01*
X134718902Y-68993376D01*
X134766521Y-68898138D01*
X134766521Y-68707661D01*
X134718902Y-68612423D01*
X134671283Y-68564804D01*
X134576045Y-68517185D01*
X134385569Y-68517185D01*
X134290330Y-68564804D01*
X134242711Y-68612423D01*
X134195092Y-68707661D01*
X188872667Y-44917381D02*
X188872667Y-45631667D01*
X188825047Y-45774524D01*
X188729809Y-45869762D01*
X188586952Y-45917381D01*
X188491714Y-45917381D01*
X189872667Y-45917381D02*
X189301238Y-45917381D01*
X189586952Y-45917381D02*
X189586952Y-44917381D01*
X189491714Y-45060238D01*
X189396476Y-45155476D01*
X189301238Y-45203095D01*
X141833334Y-124054143D02*
X141785715Y-124101762D01*
X141642858Y-124149381D01*
X141547620Y-124149381D01*
X141404762Y-124101762D01*
X141309524Y-124006524D01*
X141261905Y-123911286D01*
X141214286Y-123720810D01*
X141214286Y-123577952D01*
X141261905Y-123387476D01*
X141309524Y-123292238D01*
X141404762Y-123197000D01*
X141547620Y-123149381D01*
X141642858Y-123149381D01*
X141785715Y-123197000D01*
X141833334Y-123244619D01*
X142785715Y-124149381D02*
X142214286Y-124149381D01*
X142500000Y-124149381D02*
X142500000Y-123149381D01*
X142404762Y-123292238D01*
X142309524Y-123387476D01*
X142214286Y-123435095D01*
X153474334Y-110084143D02*
X153426715Y-110131762D01*
X153283858Y-110179381D01*
X153188620Y-110179381D01*
X153045762Y-110131762D01*
X152950524Y-110036524D01*
X152902905Y-109941286D01*
X152855286Y-109750810D01*
X152855286Y-109607952D01*
X152902905Y-109417476D01*
X152950524Y-109322238D01*
X153045762Y-109227000D01*
X153188620Y-109179381D01*
X153283858Y-109179381D01*
X153426715Y-109227000D01*
X153474334Y-109274619D01*
X153855286Y-109274619D02*
X153902905Y-109227000D01*
X153998143Y-109179381D01*
X154236239Y-109179381D01*
X154331477Y-109227000D01*
X154379096Y-109274619D01*
X154426715Y-109369857D01*
X154426715Y-109465095D01*
X154379096Y-109607952D01*
X153807667Y-110179381D01*
X154426715Y-110179381D01*
X165809143Y-136182666D02*
X165856762Y-136230285D01*
X165904381Y-136373142D01*
X165904381Y-136468380D01*
X165856762Y-136611238D01*
X165761524Y-136706476D01*
X165666286Y-136754095D01*
X165475810Y-136801714D01*
X165332952Y-136801714D01*
X165142476Y-136754095D01*
X165047238Y-136706476D01*
X164952000Y-136611238D01*
X164904381Y-136468380D01*
X164904381Y-136373142D01*
X164952000Y-136230285D01*
X164999619Y-136182666D01*
X164904381Y-135849333D02*
X164904381Y-135230285D01*
X165285333Y-135563619D01*
X165285333Y-135420761D01*
X165332952Y-135325523D01*
X165380571Y-135277904D01*
X165475810Y-135230285D01*
X165713905Y-135230285D01*
X165809143Y-135277904D01*
X165856762Y-135325523D01*
X165904381Y-135420761D01*
X165904381Y-135706476D01*
X165856762Y-135801714D01*
X165809143Y-135849333D01*
X176858143Y-135547666D02*
X176905762Y-135595285D01*
X176953381Y-135738142D01*
X176953381Y-135833380D01*
X176905762Y-135976238D01*
X176810524Y-136071476D01*
X176715286Y-136119095D01*
X176524810Y-136166714D01*
X176381952Y-136166714D01*
X176191476Y-136119095D01*
X176096238Y-136071476D01*
X176001000Y-135976238D01*
X175953381Y-135833380D01*
X175953381Y-135738142D01*
X176001000Y-135595285D01*
X176048619Y-135547666D01*
X176286714Y-134690523D02*
X176953381Y-134690523D01*
X175905762Y-134928619D02*
X176620048Y-135166714D01*
X176620048Y-134547666D01*
X176842334Y-122784143D02*
X176794715Y-122831762D01*
X176651858Y-122879381D01*
X176556620Y-122879381D01*
X176413762Y-122831762D01*
X176318524Y-122736524D01*
X176270905Y-122641286D01*
X176223286Y-122450810D01*
X176223286Y-122307952D01*
X176270905Y-122117476D01*
X176318524Y-122022238D01*
X176413762Y-121927000D01*
X176556620Y-121879381D01*
X176651858Y-121879381D01*
X176794715Y-121927000D01*
X176842334Y-121974619D01*
X177747096Y-121879381D02*
X177270905Y-121879381D01*
X177223286Y-122355571D01*
X177270905Y-122307952D01*
X177366143Y-122260333D01*
X177604239Y-122260333D01*
X177699477Y-122307952D01*
X177747096Y-122355571D01*
X177794715Y-122450810D01*
X177794715Y-122688905D01*
X177747096Y-122784143D01*
X177699477Y-122831762D01*
X177604239Y-122879381D01*
X177366143Y-122879381D01*
X177270905Y-122831762D01*
X177223286Y-122784143D01*
X174947499Y-135801666D02*
X174995118Y-135849285D01*
X175042737Y-135992142D01*
X175042737Y-136087380D01*
X174995118Y-136230238D01*
X174899880Y-136325476D01*
X174804642Y-136373095D01*
X174614166Y-136420714D01*
X174471308Y-136420714D01*
X174280832Y-136373095D01*
X174185594Y-136325476D01*
X174090356Y-136230238D01*
X174042737Y-136087380D01*
X174042737Y-135992142D01*
X174090356Y-135849285D01*
X174137975Y-135801666D01*
X174042737Y-134944523D02*
X174042737Y-135135000D01*
X174090356Y-135230238D01*
X174137975Y-135277857D01*
X174280832Y-135373095D01*
X174471308Y-135420714D01*
X174852261Y-135420714D01*
X174947499Y-135373095D01*
X174995118Y-135325476D01*
X175042737Y-135230238D01*
X175042737Y-135039761D01*
X174995118Y-134944523D01*
X174947499Y-134896904D01*
X174852261Y-134849285D01*
X174614166Y-134849285D01*
X174518927Y-134896904D01*
X174471308Y-134944523D01*
X174423689Y-135039761D01*
X174423689Y-135230238D01*
X174471308Y-135325476D01*
X174518927Y-135373095D01*
X174614166Y-135420714D01*
X173048143Y-136277857D02*
X173095762Y-136325476D01*
X173143381Y-136468333D01*
X173143381Y-136563571D01*
X173095762Y-136706429D01*
X173000524Y-136801667D01*
X172905286Y-136849286D01*
X172714810Y-136896905D01*
X172571952Y-136896905D01*
X172381476Y-136849286D01*
X172286238Y-136801667D01*
X172191000Y-136706429D01*
X172143381Y-136563571D01*
X172143381Y-136468333D01*
X172191000Y-136325476D01*
X172238619Y-136277857D01*
X173143381Y-135325476D02*
X173143381Y-135896905D01*
X173143381Y-135611191D02*
X172143381Y-135611191D01*
X172286238Y-135706429D01*
X172381476Y-135801667D01*
X172429095Y-135896905D01*
X172143381Y-134992143D02*
X172143381Y-134325476D01*
X173143381Y-134754048D01*
X163650143Y-137166857D02*
X163697762Y-137214476D01*
X163745381Y-137357333D01*
X163745381Y-137452571D01*
X163697762Y-137595429D01*
X163602524Y-137690667D01*
X163507286Y-137738286D01*
X163316810Y-137785905D01*
X163173952Y-137785905D01*
X162983476Y-137738286D01*
X162888238Y-137690667D01*
X162793000Y-137595429D01*
X162745381Y-137452571D01*
X162745381Y-137357333D01*
X162793000Y-137214476D01*
X162840619Y-137166857D01*
X163745381Y-136214476D02*
X163745381Y-136785905D01*
X163745381Y-136500191D02*
X162745381Y-136500191D01*
X162888238Y-136595429D01*
X162983476Y-136690667D01*
X163031095Y-136785905D01*
X163173952Y-135643048D02*
X163126333Y-135738286D01*
X163078714Y-135785905D01*
X162983476Y-135833524D01*
X162935857Y-135833524D01*
X162840619Y-135785905D01*
X162793000Y-135738286D01*
X162745381Y-135643048D01*
X162745381Y-135452571D01*
X162793000Y-135357333D01*
X162840619Y-135309714D01*
X162935857Y-135262095D01*
X162983476Y-135262095D01*
X163078714Y-135309714D01*
X163126333Y-135357333D01*
X163173952Y-135452571D01*
X163173952Y-135643048D01*
X163221571Y-135738286D01*
X163269190Y-135785905D01*
X163364429Y-135833524D01*
X163554905Y-135833524D01*
X163650143Y-135785905D01*
X163697762Y-135738286D01*
X163745381Y-135643048D01*
X163745381Y-135452571D01*
X163697762Y-135357333D01*
X163650143Y-135309714D01*
X163554905Y-135262095D01*
X163364429Y-135262095D01*
X163269190Y-135309714D01*
X163221571Y-135357333D01*
X163173952Y-135452571D01*
X171137499Y-136404857D02*
X171185118Y-136452476D01*
X171232737Y-136595333D01*
X171232737Y-136690571D01*
X171185118Y-136833429D01*
X171089880Y-136928667D01*
X170994642Y-136976286D01*
X170804166Y-137023905D01*
X170661308Y-137023905D01*
X170470832Y-136976286D01*
X170375594Y-136928667D01*
X170280356Y-136833429D01*
X170232737Y-136690571D01*
X170232737Y-136595333D01*
X170280356Y-136452476D01*
X170327975Y-136404857D01*
X171232737Y-135452476D02*
X171232737Y-136023905D01*
X171232737Y-135738191D02*
X170232737Y-135738191D01*
X170375594Y-135833429D01*
X170470832Y-135928667D01*
X170518451Y-136023905D01*
X171232737Y-134976286D02*
X171232737Y-134785810D01*
X171185118Y-134690571D01*
X171137499Y-134642952D01*
X170994642Y-134547714D01*
X170804166Y-134500095D01*
X170423213Y-134500095D01*
X170327975Y-134547714D01*
X170280356Y-134595333D01*
X170232737Y-134690571D01*
X170232737Y-134881048D01*
X170280356Y-134976286D01*
X170327975Y-135023905D01*
X170423213Y-135071524D01*
X170661308Y-135071524D01*
X170756546Y-135023905D01*
X170804166Y-134976286D01*
X170851785Y-134881048D01*
X170851785Y-134690571D01*
X170804166Y-134595333D01*
X170756546Y-134547714D01*
X170661308Y-134500095D01*
X169232499Y-136277857D02*
X169280118Y-136325476D01*
X169327737Y-136468333D01*
X169327737Y-136563571D01*
X169280118Y-136706429D01*
X169184880Y-136801667D01*
X169089642Y-136849286D01*
X168899166Y-136896905D01*
X168756308Y-136896905D01*
X168565832Y-136849286D01*
X168470594Y-136801667D01*
X168375356Y-136706429D01*
X168327737Y-136563571D01*
X168327737Y-136468333D01*
X168375356Y-136325476D01*
X168422975Y-136277857D01*
X168422975Y-135896905D02*
X168375356Y-135849286D01*
X168327737Y-135754048D01*
X168327737Y-135515952D01*
X168375356Y-135420714D01*
X168422975Y-135373095D01*
X168518213Y-135325476D01*
X168613451Y-135325476D01*
X168756308Y-135373095D01*
X169327737Y-135944524D01*
X169327737Y-135325476D01*
X168327737Y-134706429D02*
X168327737Y-134611190D01*
X168375356Y-134515952D01*
X168422975Y-134468333D01*
X168518213Y-134420714D01*
X168708689Y-134373095D01*
X168946785Y-134373095D01*
X169137261Y-134420714D01*
X169232499Y-134468333D01*
X169280118Y-134515952D01*
X169327737Y-134611190D01*
X169327737Y-134706429D01*
X169280118Y-134801667D01*
X169232499Y-134849286D01*
X169137261Y-134896905D01*
X168946785Y-134944524D01*
X168708689Y-134944524D01*
X168518213Y-134896905D01*
X168422975Y-134849286D01*
X168375356Y-134801667D01*
X168327737Y-134706429D01*
X167327499Y-136658857D02*
X167375118Y-136706476D01*
X167422737Y-136849333D01*
X167422737Y-136944571D01*
X167375118Y-137087429D01*
X167279880Y-137182667D01*
X167184642Y-137230286D01*
X166994166Y-137277905D01*
X166851308Y-137277905D01*
X166660832Y-137230286D01*
X166565594Y-137182667D01*
X166470356Y-137087429D01*
X166422737Y-136944571D01*
X166422737Y-136849333D01*
X166470356Y-136706476D01*
X166517975Y-136658857D01*
X166517975Y-136277905D02*
X166470356Y-136230286D01*
X166422737Y-136135048D01*
X166422737Y-135896952D01*
X166470356Y-135801714D01*
X166517975Y-135754095D01*
X166613213Y-135706476D01*
X166708451Y-135706476D01*
X166851308Y-135754095D01*
X167422737Y-136325524D01*
X167422737Y-135706476D01*
X167422737Y-134754095D02*
X167422737Y-135325524D01*
X167422737Y-135039810D02*
X166422737Y-135039810D01*
X166565594Y-135135048D01*
X166660832Y-135230286D01*
X166708451Y-135325524D01*
X173699143Y-126594143D02*
X173651524Y-126641762D01*
X173508667Y-126689381D01*
X173413429Y-126689381D01*
X173270571Y-126641762D01*
X173175333Y-126546524D01*
X173127714Y-126451286D01*
X173080095Y-126260810D01*
X173080095Y-126117952D01*
X173127714Y-125927476D01*
X173175333Y-125832238D01*
X173270571Y-125737000D01*
X173413429Y-125689381D01*
X173508667Y-125689381D01*
X173651524Y-125737000D01*
X173699143Y-125784619D01*
X174080095Y-125784619D02*
X174127714Y-125737000D01*
X174222952Y-125689381D01*
X174461048Y-125689381D01*
X174556286Y-125737000D01*
X174603905Y-125784619D01*
X174651524Y-125879857D01*
X174651524Y-125975095D01*
X174603905Y-126117952D01*
X174032476Y-126689381D01*
X174651524Y-126689381D01*
X175032476Y-125784619D02*
X175080095Y-125737000D01*
X175175333Y-125689381D01*
X175413429Y-125689381D01*
X175508667Y-125737000D01*
X175556286Y-125784619D01*
X175603905Y-125879857D01*
X175603905Y-125975095D01*
X175556286Y-126117952D01*
X174984857Y-126689381D01*
X175603905Y-126689381D01*
X173699143Y-128118143D02*
X173651524Y-128165762D01*
X173508667Y-128213381D01*
X173413429Y-128213381D01*
X173270571Y-128165762D01*
X173175333Y-128070524D01*
X173127714Y-127975286D01*
X173080095Y-127784810D01*
X173080095Y-127641952D01*
X173127714Y-127451476D01*
X173175333Y-127356238D01*
X173270571Y-127261000D01*
X173413429Y-127213381D01*
X173508667Y-127213381D01*
X173651524Y-127261000D01*
X173699143Y-127308619D01*
X174080095Y-127308619D02*
X174127714Y-127261000D01*
X174222952Y-127213381D01*
X174461048Y-127213381D01*
X174556286Y-127261000D01*
X174603905Y-127308619D01*
X174651524Y-127403857D01*
X174651524Y-127499095D01*
X174603905Y-127641952D01*
X174032476Y-128213381D01*
X174651524Y-128213381D01*
X174984857Y-127213381D02*
X175603905Y-127213381D01*
X175270571Y-127594333D01*
X175413429Y-127594333D01*
X175508667Y-127641952D01*
X175556286Y-127689571D01*
X175603905Y-127784810D01*
X175603905Y-128022905D01*
X175556286Y-128118143D01*
X175508667Y-128165762D01*
X175413429Y-128213381D01*
X175127714Y-128213381D01*
X175032476Y-128165762D01*
X174984857Y-128118143D01*
X175858143Y-119482143D02*
X175810524Y-119529762D01*
X175667667Y-119577381D01*
X175572429Y-119577381D01*
X175429571Y-119529762D01*
X175334333Y-119434524D01*
X175286714Y-119339286D01*
X175239095Y-119148810D01*
X175239095Y-119005952D01*
X175286714Y-118815476D01*
X175334333Y-118720238D01*
X175429571Y-118625000D01*
X175572429Y-118577381D01*
X175667667Y-118577381D01*
X175810524Y-118625000D01*
X175858143Y-118672619D01*
X176239095Y-118672619D02*
X176286714Y-118625000D01*
X176381952Y-118577381D01*
X176620048Y-118577381D01*
X176715286Y-118625000D01*
X176762905Y-118672619D01*
X176810524Y-118767857D01*
X176810524Y-118863095D01*
X176762905Y-119005952D01*
X176191476Y-119577381D01*
X176810524Y-119577381D01*
X177667667Y-118910714D02*
X177667667Y-119577381D01*
X177429571Y-118529762D02*
X177191476Y-119244048D01*
X177810524Y-119244048D01*
X179033143Y-113132143D02*
X178985524Y-113179762D01*
X178842667Y-113227381D01*
X178747429Y-113227381D01*
X178604571Y-113179762D01*
X178509333Y-113084524D01*
X178461714Y-112989286D01*
X178414095Y-112798810D01*
X178414095Y-112655952D01*
X178461714Y-112465476D01*
X178509333Y-112370238D01*
X178604571Y-112275000D01*
X178747429Y-112227381D01*
X178842667Y-112227381D01*
X178985524Y-112275000D01*
X179033143Y-112322619D01*
X179414095Y-112322619D02*
X179461714Y-112275000D01*
X179556952Y-112227381D01*
X179795048Y-112227381D01*
X179890286Y-112275000D01*
X179937905Y-112322619D01*
X179985524Y-112417857D01*
X179985524Y-112513095D01*
X179937905Y-112655952D01*
X179366476Y-113227381D01*
X179985524Y-113227381D01*
X180890286Y-112227381D02*
X180414095Y-112227381D01*
X180366476Y-112703571D01*
X180414095Y-112655952D01*
X180509333Y-112608333D01*
X180747429Y-112608333D01*
X180842667Y-112655952D01*
X180890286Y-112703571D01*
X180937905Y-112798810D01*
X180937905Y-113036905D01*
X180890286Y-113132143D01*
X180842667Y-113179762D01*
X180747429Y-113227381D01*
X180509333Y-113227381D01*
X180414095Y-113179762D01*
X180366476Y-113132143D01*
X179033143Y-114021143D02*
X178985524Y-114068762D01*
X178842667Y-114116381D01*
X178747429Y-114116381D01*
X178604571Y-114068762D01*
X178509333Y-113973524D01*
X178461714Y-113878286D01*
X178414095Y-113687810D01*
X178414095Y-113544952D01*
X178461714Y-113354476D01*
X178509333Y-113259238D01*
X178604571Y-113164000D01*
X178747429Y-113116381D01*
X178842667Y-113116381D01*
X178985524Y-113164000D01*
X179033143Y-113211619D01*
X179414095Y-113211619D02*
X179461714Y-113164000D01*
X179556952Y-113116381D01*
X179795048Y-113116381D01*
X179890286Y-113164000D01*
X179937905Y-113211619D01*
X179985524Y-113306857D01*
X179985524Y-113402095D01*
X179937905Y-113544952D01*
X179366476Y-114116381D01*
X179985524Y-114116381D01*
X180842667Y-113116381D02*
X180652190Y-113116381D01*
X180556952Y-113164000D01*
X180509333Y-113211619D01*
X180414095Y-113354476D01*
X180366476Y-113544952D01*
X180366476Y-113925905D01*
X180414095Y-114021143D01*
X180461714Y-114068762D01*
X180556952Y-114116381D01*
X180747429Y-114116381D01*
X180842667Y-114068762D01*
X180890286Y-114021143D01*
X180937905Y-113925905D01*
X180937905Y-113687810D01*
X180890286Y-113592571D01*
X180842667Y-113544952D01*
X180747429Y-113497333D01*
X180556952Y-113497333D01*
X180461714Y-113544952D01*
X180414095Y-113592571D01*
X180366476Y-113687810D01*
X151220143Y-125832143D02*
X151172524Y-125879762D01*
X151029667Y-125927381D01*
X150934429Y-125927381D01*
X150791571Y-125879762D01*
X150696333Y-125784524D01*
X150648714Y-125689286D01*
X150601095Y-125498810D01*
X150601095Y-125355952D01*
X150648714Y-125165476D01*
X150696333Y-125070238D01*
X150791571Y-124975000D01*
X150934429Y-124927381D01*
X151029667Y-124927381D01*
X151172524Y-124975000D01*
X151220143Y-125022619D01*
X151601095Y-125022619D02*
X151648714Y-124975000D01*
X151743952Y-124927381D01*
X151982048Y-124927381D01*
X152077286Y-124975000D01*
X152124905Y-125022619D01*
X152172524Y-125117857D01*
X152172524Y-125213095D01*
X152124905Y-125355952D01*
X151553476Y-125927381D01*
X152172524Y-125927381D01*
X152505857Y-124927381D02*
X153172524Y-124927381D01*
X152743952Y-125927381D01*
X178357143Y-134107143D02*
X178309524Y-134154762D01*
X178166667Y-134202381D01*
X178071429Y-134202381D01*
X177928571Y-134154762D01*
X177833333Y-134059524D01*
X177785714Y-133964286D01*
X177738095Y-133773810D01*
X177738095Y-133630952D01*
X177785714Y-133440476D01*
X177833333Y-133345238D01*
X177928571Y-133250000D01*
X178071429Y-133202381D01*
X178166667Y-133202381D01*
X178309524Y-133250000D01*
X178357143Y-133297619D01*
X178738095Y-133297619D02*
X178785714Y-133250000D01*
X178880952Y-133202381D01*
X179119048Y-133202381D01*
X179214286Y-133250000D01*
X179261905Y-133297619D01*
X179309524Y-133392857D01*
X179309524Y-133488095D01*
X179261905Y-133630952D01*
X178690476Y-134202381D01*
X179309524Y-134202381D01*
X179880952Y-133630952D02*
X179785714Y-133583333D01*
X179738095Y-133535714D01*
X179690476Y-133440476D01*
X179690476Y-133392857D01*
X179738095Y-133297619D01*
X179785714Y-133250000D01*
X179880952Y-133202381D01*
X180071429Y-133202381D01*
X180166667Y-133250000D01*
X180214286Y-133297619D01*
X180261905Y-133392857D01*
X180261905Y-133440476D01*
X180214286Y-133535714D01*
X180166667Y-133583333D01*
X180071429Y-133630952D01*
X179880952Y-133630952D01*
X179785714Y-133678571D01*
X179738095Y-133726190D01*
X179690476Y-133821429D01*
X179690476Y-134011905D01*
X179738095Y-134107143D01*
X179785714Y-134154762D01*
X179880952Y-134202381D01*
X180071429Y-134202381D01*
X180166667Y-134154762D01*
X180214286Y-134107143D01*
X180261905Y-134011905D01*
X180261905Y-133821429D01*
X180214286Y-133726190D01*
X180166667Y-133678571D01*
X180071429Y-133630952D01*
X172357143Y-123607143D02*
X172309524Y-123654762D01*
X172166667Y-123702381D01*
X172071429Y-123702381D01*
X171928571Y-123654762D01*
X171833333Y-123559524D01*
X171785714Y-123464286D01*
X171738095Y-123273810D01*
X171738095Y-123130952D01*
X171785714Y-122940476D01*
X171833333Y-122845238D01*
X171928571Y-122750000D01*
X172071429Y-122702381D01*
X172166667Y-122702381D01*
X172309524Y-122750000D01*
X172357143Y-122797619D01*
X172738095Y-122797619D02*
X172785714Y-122750000D01*
X172880952Y-122702381D01*
X173119048Y-122702381D01*
X173214286Y-122750000D01*
X173261905Y-122797619D01*
X173309524Y-122892857D01*
X173309524Y-122988095D01*
X173261905Y-123130952D01*
X172690476Y-123702381D01*
X173309524Y-123702381D01*
X173785714Y-123702381D02*
X173976190Y-123702381D01*
X174071429Y-123654762D01*
X174119048Y-123607143D01*
X174214286Y-123464286D01*
X174261905Y-123273810D01*
X174261905Y-122892857D01*
X174214286Y-122797619D01*
X174166667Y-122750000D01*
X174071429Y-122702381D01*
X173880952Y-122702381D01*
X173785714Y-122750000D01*
X173738095Y-122797619D01*
X173690476Y-122892857D01*
X173690476Y-123130952D01*
X173738095Y-123226190D01*
X173785714Y-123273810D01*
X173880952Y-123321429D01*
X174071429Y-123321429D01*
X174166667Y-123273810D01*
X174214286Y-123226190D01*
X174261905Y-123130952D01*
X153125143Y-131928143D02*
X153077524Y-131975762D01*
X152934667Y-132023381D01*
X152839429Y-132023381D01*
X152696571Y-131975762D01*
X152601333Y-131880524D01*
X152553714Y-131785286D01*
X152506095Y-131594810D01*
X152506095Y-131451952D01*
X152553714Y-131261476D01*
X152601333Y-131166238D01*
X152696571Y-131071000D01*
X152839429Y-131023381D01*
X152934667Y-131023381D01*
X153077524Y-131071000D01*
X153125143Y-131118619D01*
X153458476Y-131023381D02*
X154077524Y-131023381D01*
X153744190Y-131404333D01*
X153887048Y-131404333D01*
X153982286Y-131451952D01*
X154029905Y-131499571D01*
X154077524Y-131594810D01*
X154077524Y-131832905D01*
X154029905Y-131928143D01*
X153982286Y-131975762D01*
X153887048Y-132023381D01*
X153601333Y-132023381D01*
X153506095Y-131975762D01*
X153458476Y-131928143D01*
X154696571Y-131023381D02*
X154791810Y-131023381D01*
X154887048Y-131071000D01*
X154934667Y-131118619D01*
X154982286Y-131213857D01*
X155029905Y-131404333D01*
X155029905Y-131642429D01*
X154982286Y-131832905D01*
X154934667Y-131928143D01*
X154887048Y-131975762D01*
X154791810Y-132023381D01*
X154696571Y-132023381D01*
X154601333Y-131975762D01*
X154553714Y-131928143D01*
X154506095Y-131832905D01*
X154458476Y-131642429D01*
X154458476Y-131404333D01*
X154506095Y-131213857D01*
X154553714Y-131118619D01*
X154601333Y-131071000D01*
X154696571Y-131023381D01*
X171107143Y-121857143D02*
X171059524Y-121904762D01*
X170916667Y-121952381D01*
X170821429Y-121952381D01*
X170678571Y-121904762D01*
X170583333Y-121809524D01*
X170535714Y-121714286D01*
X170488095Y-121523810D01*
X170488095Y-121380952D01*
X170535714Y-121190476D01*
X170583333Y-121095238D01*
X170678571Y-121000000D01*
X170821429Y-120952381D01*
X170916667Y-120952381D01*
X171059524Y-121000000D01*
X171107143Y-121047619D01*
X171440476Y-120952381D02*
X172059524Y-120952381D01*
X171726190Y-121333333D01*
X171869048Y-121333333D01*
X171964286Y-121380952D01*
X172011905Y-121428571D01*
X172059524Y-121523810D01*
X172059524Y-121761905D01*
X172011905Y-121857143D01*
X171964286Y-121904762D01*
X171869048Y-121952381D01*
X171583333Y-121952381D01*
X171488095Y-121904762D01*
X171440476Y-121857143D01*
X173011905Y-121952381D02*
X172440476Y-121952381D01*
X172726190Y-121952381D02*
X172726190Y-120952381D01*
X172630952Y-121095238D01*
X172535714Y-121190476D01*
X172440476Y-121238095D01*
X162015143Y-122149143D02*
X161967524Y-122196762D01*
X161824667Y-122244381D01*
X161729429Y-122244381D01*
X161586571Y-122196762D01*
X161491333Y-122101524D01*
X161443714Y-122006286D01*
X161396095Y-121815810D01*
X161396095Y-121672952D01*
X161443714Y-121482476D01*
X161491333Y-121387238D01*
X161586571Y-121292000D01*
X161729429Y-121244381D01*
X161824667Y-121244381D01*
X161967524Y-121292000D01*
X162015143Y-121339619D01*
X162348476Y-121244381D02*
X162967524Y-121244381D01*
X162634190Y-121625333D01*
X162777048Y-121625333D01*
X162872286Y-121672952D01*
X162919905Y-121720571D01*
X162967524Y-121815810D01*
X162967524Y-122053905D01*
X162919905Y-122149143D01*
X162872286Y-122196762D01*
X162777048Y-122244381D01*
X162491333Y-122244381D01*
X162396095Y-122196762D01*
X162348476Y-122149143D01*
X163348476Y-121339619D02*
X163396095Y-121292000D01*
X163491333Y-121244381D01*
X163729429Y-121244381D01*
X163824667Y-121292000D01*
X163872286Y-121339619D01*
X163919905Y-121434857D01*
X163919905Y-121530095D01*
X163872286Y-121672952D01*
X163300857Y-122244381D01*
X163919905Y-122244381D01*
X162142143Y-124816143D02*
X162094524Y-124863762D01*
X161951667Y-124911381D01*
X161856429Y-124911381D01*
X161713571Y-124863762D01*
X161618333Y-124768524D01*
X161570714Y-124673286D01*
X161523095Y-124482810D01*
X161523095Y-124339952D01*
X161570714Y-124149476D01*
X161618333Y-124054238D01*
X161713571Y-123959000D01*
X161856429Y-123911381D01*
X161951667Y-123911381D01*
X162094524Y-123959000D01*
X162142143Y-124006619D01*
X162475476Y-123911381D02*
X163094524Y-123911381D01*
X162761190Y-124292333D01*
X162904048Y-124292333D01*
X162999286Y-124339952D01*
X163046905Y-124387571D01*
X163094524Y-124482810D01*
X163094524Y-124720905D01*
X163046905Y-124816143D01*
X162999286Y-124863762D01*
X162904048Y-124911381D01*
X162618333Y-124911381D01*
X162523095Y-124863762D01*
X162475476Y-124816143D01*
X163427857Y-123911381D02*
X164046905Y-123911381D01*
X163713571Y-124292333D01*
X163856429Y-124292333D01*
X163951667Y-124339952D01*
X163999286Y-124387571D01*
X164046905Y-124482810D01*
X164046905Y-124720905D01*
X163999286Y-124816143D01*
X163951667Y-124863762D01*
X163856429Y-124911381D01*
X163570714Y-124911381D01*
X163475476Y-124863762D01*
X163427857Y-124816143D01*
X166444143Y-115068857D02*
X166491762Y-115116476D01*
X166539381Y-115259333D01*
X166539381Y-115354571D01*
X166491762Y-115497429D01*
X166396524Y-115592667D01*
X166301286Y-115640286D01*
X166110810Y-115687905D01*
X165967952Y-115687905D01*
X165777476Y-115640286D01*
X165682238Y-115592667D01*
X165587000Y-115497429D01*
X165539381Y-115354571D01*
X165539381Y-115259333D01*
X165587000Y-115116476D01*
X165634619Y-115068857D01*
X165539381Y-114735524D02*
X165539381Y-114116476D01*
X165920333Y-114449810D01*
X165920333Y-114306952D01*
X165967952Y-114211714D01*
X166015571Y-114164095D01*
X166110810Y-114116476D01*
X166348905Y-114116476D01*
X166444143Y-114164095D01*
X166491762Y-114211714D01*
X166539381Y-114306952D01*
X166539381Y-114592667D01*
X166491762Y-114687905D01*
X166444143Y-114735524D01*
X165872714Y-113259333D02*
X166539381Y-113259333D01*
X165491762Y-113497429D02*
X166206048Y-113735524D01*
X166206048Y-113116476D01*
X168857143Y-108607143D02*
X168809524Y-108654762D01*
X168666667Y-108702381D01*
X168571429Y-108702381D01*
X168428571Y-108654762D01*
X168333333Y-108559524D01*
X168285714Y-108464286D01*
X168238095Y-108273810D01*
X168238095Y-108130952D01*
X168285714Y-107940476D01*
X168333333Y-107845238D01*
X168428571Y-107750000D01*
X168571429Y-107702381D01*
X168666667Y-107702381D01*
X168809524Y-107750000D01*
X168857143Y-107797619D01*
X169190476Y-107702381D02*
X169809524Y-107702381D01*
X169476190Y-108083333D01*
X169619048Y-108083333D01*
X169714286Y-108130952D01*
X169761905Y-108178571D01*
X169809524Y-108273810D01*
X169809524Y-108511905D01*
X169761905Y-108607143D01*
X169714286Y-108654762D01*
X169619048Y-108702381D01*
X169333333Y-108702381D01*
X169238095Y-108654762D01*
X169190476Y-108607143D01*
X170714286Y-107702381D02*
X170238095Y-107702381D01*
X170190476Y-108178571D01*
X170238095Y-108130952D01*
X170333333Y-108083333D01*
X170571429Y-108083333D01*
X170666667Y-108130952D01*
X170714286Y-108178571D01*
X170761905Y-108273810D01*
X170761905Y-108511905D01*
X170714286Y-108607143D01*
X170666667Y-108654762D01*
X170571429Y-108702381D01*
X170333333Y-108702381D01*
X170238095Y-108654762D01*
X170190476Y-108607143D01*
X178525143Y-112116143D02*
X178477524Y-112163762D01*
X178334667Y-112211381D01*
X178239429Y-112211381D01*
X178096571Y-112163762D01*
X178001333Y-112068524D01*
X177953714Y-111973286D01*
X177906095Y-111782810D01*
X177906095Y-111639952D01*
X177953714Y-111449476D01*
X178001333Y-111354238D01*
X178096571Y-111259000D01*
X178239429Y-111211381D01*
X178334667Y-111211381D01*
X178477524Y-111259000D01*
X178525143Y-111306619D01*
X178858476Y-111211381D02*
X179477524Y-111211381D01*
X179144190Y-111592333D01*
X179287048Y-111592333D01*
X179382286Y-111639952D01*
X179429905Y-111687571D01*
X179477524Y-111782810D01*
X179477524Y-112020905D01*
X179429905Y-112116143D01*
X179382286Y-112163762D01*
X179287048Y-112211381D01*
X179001333Y-112211381D01*
X178906095Y-112163762D01*
X178858476Y-112116143D01*
X180334667Y-111211381D02*
X180144190Y-111211381D01*
X180048952Y-111259000D01*
X180001333Y-111306619D01*
X179906095Y-111449476D01*
X179858476Y-111639952D01*
X179858476Y-112020905D01*
X179906095Y-112116143D01*
X179953714Y-112163762D01*
X180048952Y-112211381D01*
X180239429Y-112211381D01*
X180334667Y-112163762D01*
X180382286Y-112116143D01*
X180429905Y-112020905D01*
X180429905Y-111782810D01*
X180382286Y-111687571D01*
X180334667Y-111639952D01*
X180239429Y-111592333D01*
X180048952Y-111592333D01*
X179953714Y-111639952D01*
X179906095Y-111687571D01*
X179858476Y-111782810D01*
X168751143Y-101357143D02*
X168703524Y-101404762D01*
X168560667Y-101452381D01*
X168465429Y-101452381D01*
X168322571Y-101404762D01*
X168227333Y-101309524D01*
X168179714Y-101214286D01*
X168132095Y-101023810D01*
X168132095Y-100880952D01*
X168179714Y-100690476D01*
X168227333Y-100595238D01*
X168322571Y-100500000D01*
X168465429Y-100452381D01*
X168560667Y-100452381D01*
X168703524Y-100500000D01*
X168751143Y-100547619D01*
X169084476Y-100452381D02*
X169703524Y-100452381D01*
X169370190Y-100833333D01*
X169513048Y-100833333D01*
X169608286Y-100880952D01*
X169655905Y-100928571D01*
X169703524Y-101023810D01*
X169703524Y-101261905D01*
X169655905Y-101357143D01*
X169608286Y-101404762D01*
X169513048Y-101452381D01*
X169227333Y-101452381D01*
X169132095Y-101404762D01*
X169084476Y-101357143D01*
X170036857Y-100452381D02*
X170703524Y-100452381D01*
X170274952Y-101452381D01*
X165809143Y-110242857D02*
X165856762Y-110290476D01*
X165904381Y-110433333D01*
X165904381Y-110528571D01*
X165856762Y-110671429D01*
X165761524Y-110766667D01*
X165666286Y-110814286D01*
X165475810Y-110861905D01*
X165332952Y-110861905D01*
X165142476Y-110814286D01*
X165047238Y-110766667D01*
X164952000Y-110671429D01*
X164904381Y-110528571D01*
X164904381Y-110433333D01*
X164952000Y-110290476D01*
X164999619Y-110242857D01*
X164904381Y-109909524D02*
X164904381Y-109290476D01*
X165285333Y-109623810D01*
X165285333Y-109480952D01*
X165332952Y-109385714D01*
X165380571Y-109338095D01*
X165475810Y-109290476D01*
X165713905Y-109290476D01*
X165809143Y-109338095D01*
X165856762Y-109385714D01*
X165904381Y-109480952D01*
X165904381Y-109766667D01*
X165856762Y-109861905D01*
X165809143Y-109909524D01*
X165332952Y-108719048D02*
X165285333Y-108814286D01*
X165237714Y-108861905D01*
X165142476Y-108909524D01*
X165094857Y-108909524D01*
X164999619Y-108861905D01*
X164952000Y-108814286D01*
X164904381Y-108719048D01*
X164904381Y-108528571D01*
X164952000Y-108433333D01*
X164999619Y-108385714D01*
X165094857Y-108338095D01*
X165142476Y-108338095D01*
X165237714Y-108385714D01*
X165285333Y-108433333D01*
X165332952Y-108528571D01*
X165332952Y-108719048D01*
X165380571Y-108814286D01*
X165428190Y-108861905D01*
X165523429Y-108909524D01*
X165713905Y-108909524D01*
X165809143Y-108861905D01*
X165856762Y-108814286D01*
X165904381Y-108719048D01*
X165904381Y-108528571D01*
X165856762Y-108433333D01*
X165809143Y-108385714D01*
X165713905Y-108338095D01*
X165523429Y-108338095D01*
X165428190Y-108385714D01*
X165380571Y-108433333D01*
X165332952Y-108528571D01*
X172683143Y-116688143D02*
X172635524Y-116735762D01*
X172492667Y-116783381D01*
X172397429Y-116783381D01*
X172254571Y-116735762D01*
X172159333Y-116640524D01*
X172111714Y-116545286D01*
X172064095Y-116354810D01*
X172064095Y-116211952D01*
X172111714Y-116021476D01*
X172159333Y-115926238D01*
X172254571Y-115831000D01*
X172397429Y-115783381D01*
X172492667Y-115783381D01*
X172635524Y-115831000D01*
X172683143Y-115878619D01*
X173016476Y-115783381D02*
X173635524Y-115783381D01*
X173302190Y-116164333D01*
X173445048Y-116164333D01*
X173540286Y-116211952D01*
X173587905Y-116259571D01*
X173635524Y-116354810D01*
X173635524Y-116592905D01*
X173587905Y-116688143D01*
X173540286Y-116735762D01*
X173445048Y-116783381D01*
X173159333Y-116783381D01*
X173064095Y-116735762D01*
X173016476Y-116688143D01*
X174111714Y-116783381D02*
X174302190Y-116783381D01*
X174397429Y-116735762D01*
X174445048Y-116688143D01*
X174540286Y-116545286D01*
X174587905Y-116354810D01*
X174587905Y-115973857D01*
X174540286Y-115878619D01*
X174492667Y-115831000D01*
X174397429Y-115783381D01*
X174206952Y-115783381D01*
X174111714Y-115831000D01*
X174064095Y-115878619D01*
X174016476Y-115973857D01*
X174016476Y-116211952D01*
X174064095Y-116307190D01*
X174111714Y-116354810D01*
X174206952Y-116402429D01*
X174397429Y-116402429D01*
X174492667Y-116354810D01*
X174540286Y-116307190D01*
X174587905Y-116211952D01*
X162507143Y-101987857D02*
X162554762Y-102035476D01*
X162602381Y-102178333D01*
X162602381Y-102273571D01*
X162554762Y-102416429D01*
X162459524Y-102511667D01*
X162364286Y-102559286D01*
X162173810Y-102606905D01*
X162030952Y-102606905D01*
X161840476Y-102559286D01*
X161745238Y-102511667D01*
X161650000Y-102416429D01*
X161602381Y-102273571D01*
X161602381Y-102178333D01*
X161650000Y-102035476D01*
X161697619Y-101987857D01*
X161935714Y-101130714D02*
X162602381Y-101130714D01*
X161554762Y-101368810D02*
X162269048Y-101606905D01*
X162269048Y-100987857D01*
X161602381Y-100416429D02*
X161602381Y-100321190D01*
X161650000Y-100225952D01*
X161697619Y-100178333D01*
X161792857Y-100130714D01*
X161983333Y-100083095D01*
X162221429Y-100083095D01*
X162411905Y-100130714D01*
X162507143Y-100178333D01*
X162554762Y-100225952D01*
X162602381Y-100321190D01*
X162602381Y-100416429D01*
X162554762Y-100511667D01*
X162507143Y-100559286D01*
X162411905Y-100606905D01*
X162221429Y-100654524D01*
X161983333Y-100654524D01*
X161792857Y-100606905D01*
X161697619Y-100559286D01*
X161650000Y-100511667D01*
X161602381Y-100416429D01*
X178525143Y-117958143D02*
X178477524Y-118005762D01*
X178334667Y-118053381D01*
X178239429Y-118053381D01*
X178096571Y-118005762D01*
X178001333Y-117910524D01*
X177953714Y-117815286D01*
X177906095Y-117624810D01*
X177906095Y-117481952D01*
X177953714Y-117291476D01*
X178001333Y-117196238D01*
X178096571Y-117101000D01*
X178239429Y-117053381D01*
X178334667Y-117053381D01*
X178477524Y-117101000D01*
X178525143Y-117148619D01*
X179382286Y-117386714D02*
X179382286Y-118053381D01*
X179144190Y-117005762D02*
X178906095Y-117720048D01*
X179525143Y-117720048D01*
X180429905Y-118053381D02*
X179858476Y-118053381D01*
X180144190Y-118053381D02*
X180144190Y-117053381D01*
X180048952Y-117196238D01*
X179953714Y-117291476D01*
X179858476Y-117339095D01*
X178525143Y-111100143D02*
X178477524Y-111147762D01*
X178334667Y-111195381D01*
X178239429Y-111195381D01*
X178096571Y-111147762D01*
X178001333Y-111052524D01*
X177953714Y-110957286D01*
X177906095Y-110766810D01*
X177906095Y-110623952D01*
X177953714Y-110433476D01*
X178001333Y-110338238D01*
X178096571Y-110243000D01*
X178239429Y-110195381D01*
X178334667Y-110195381D01*
X178477524Y-110243000D01*
X178525143Y-110290619D01*
X179382286Y-110528714D02*
X179382286Y-111195381D01*
X179144190Y-110147762D02*
X178906095Y-110862048D01*
X179525143Y-110862048D01*
X179858476Y-110290619D02*
X179906095Y-110243000D01*
X180001333Y-110195381D01*
X180239429Y-110195381D01*
X180334667Y-110243000D01*
X180382286Y-110290619D01*
X180429905Y-110385857D01*
X180429905Y-110481095D01*
X180382286Y-110623952D01*
X179810857Y-111195381D01*
X180429905Y-111195381D01*
X155813143Y-86793143D02*
X155765524Y-86840762D01*
X155622667Y-86888381D01*
X155527429Y-86888381D01*
X155384571Y-86840762D01*
X155289333Y-86745524D01*
X155241714Y-86650286D01*
X155194095Y-86459810D01*
X155194095Y-86316952D01*
X155241714Y-86126476D01*
X155289333Y-86031238D01*
X155384571Y-85936000D01*
X155527429Y-85888381D01*
X155622667Y-85888381D01*
X155765524Y-85936000D01*
X155813143Y-85983619D01*
X156670286Y-86221714D02*
X156670286Y-86888381D01*
X156432190Y-85840762D02*
X156194095Y-86555048D01*
X156813143Y-86555048D01*
X157098857Y-85888381D02*
X157717905Y-85888381D01*
X157384571Y-86269333D01*
X157527429Y-86269333D01*
X157622667Y-86316952D01*
X157670286Y-86364571D01*
X157717905Y-86459810D01*
X157717905Y-86697905D01*
X157670286Y-86793143D01*
X157622667Y-86840762D01*
X157527429Y-86888381D01*
X157241714Y-86888381D01*
X157146476Y-86840762D01*
X157098857Y-86793143D01*
X155809143Y-85142143D02*
X155761524Y-85189762D01*
X155618667Y-85237381D01*
X155523429Y-85237381D01*
X155380571Y-85189762D01*
X155285333Y-85094524D01*
X155237714Y-84999286D01*
X155190095Y-84808810D01*
X155190095Y-84665952D01*
X155237714Y-84475476D01*
X155285333Y-84380238D01*
X155380571Y-84285000D01*
X155523429Y-84237381D01*
X155618667Y-84237381D01*
X155761524Y-84285000D01*
X155809143Y-84332619D01*
X156666286Y-84570714D02*
X156666286Y-85237381D01*
X156428190Y-84189762D02*
X156190095Y-84904048D01*
X156809143Y-84904048D01*
X157618667Y-84570714D02*
X157618667Y-85237381D01*
X157380571Y-84189762D02*
X157142476Y-84904048D01*
X157761524Y-84904048D01*
X175357143Y-107857143D02*
X175309524Y-107904762D01*
X175166667Y-107952381D01*
X175071429Y-107952381D01*
X174928571Y-107904762D01*
X174833333Y-107809524D01*
X174785714Y-107714286D01*
X174738095Y-107523810D01*
X174738095Y-107380952D01*
X174785714Y-107190476D01*
X174833333Y-107095238D01*
X174928571Y-107000000D01*
X175071429Y-106952381D01*
X175166667Y-106952381D01*
X175309524Y-107000000D01*
X175357143Y-107047619D01*
X176214286Y-107285714D02*
X176214286Y-107952381D01*
X175976190Y-106904762D02*
X175738095Y-107619048D01*
X176357143Y-107619048D01*
X177214286Y-106952381D02*
X176738095Y-106952381D01*
X176690476Y-107428571D01*
X176738095Y-107380952D01*
X176833333Y-107333333D01*
X177071429Y-107333333D01*
X177166667Y-107380952D01*
X177214286Y-107428571D01*
X177261905Y-107523810D01*
X177261905Y-107761905D01*
X177214286Y-107857143D01*
X177166667Y-107904762D01*
X177071429Y-107952381D01*
X176833333Y-107952381D01*
X176738095Y-107904762D01*
X176690476Y-107857143D01*
X174588143Y-97892143D02*
X174540524Y-97939762D01*
X174397667Y-97987381D01*
X174302429Y-97987381D01*
X174159571Y-97939762D01*
X174064333Y-97844524D01*
X174016714Y-97749286D01*
X173969095Y-97558810D01*
X173969095Y-97415952D01*
X174016714Y-97225476D01*
X174064333Y-97130238D01*
X174159571Y-97035000D01*
X174302429Y-96987381D01*
X174397667Y-96987381D01*
X174540524Y-97035000D01*
X174588143Y-97082619D01*
X175445286Y-97320714D02*
X175445286Y-97987381D01*
X175207190Y-96939762D02*
X174969095Y-97654048D01*
X175588143Y-97654048D01*
X176397667Y-96987381D02*
X176207190Y-96987381D01*
X176111952Y-97035000D01*
X176064333Y-97082619D01*
X175969095Y-97225476D01*
X175921476Y-97415952D01*
X175921476Y-97796905D01*
X175969095Y-97892143D01*
X176016714Y-97939762D01*
X176111952Y-97987381D01*
X176302429Y-97987381D01*
X176397667Y-97939762D01*
X176445286Y-97892143D01*
X176492905Y-97796905D01*
X176492905Y-97558810D01*
X176445286Y-97463571D01*
X176397667Y-97415952D01*
X176302429Y-97368333D01*
X176111952Y-97368333D01*
X176016714Y-97415952D01*
X175969095Y-97463571D01*
X175921476Y-97558810D01*
X155809143Y-83237143D02*
X155761524Y-83284762D01*
X155618667Y-83332381D01*
X155523429Y-83332381D01*
X155380571Y-83284762D01*
X155285333Y-83189524D01*
X155237714Y-83094286D01*
X155190095Y-82903810D01*
X155190095Y-82760952D01*
X155237714Y-82570476D01*
X155285333Y-82475238D01*
X155380571Y-82380000D01*
X155523429Y-82332381D01*
X155618667Y-82332381D01*
X155761524Y-82380000D01*
X155809143Y-82427619D01*
X156666286Y-82665714D02*
X156666286Y-83332381D01*
X156428190Y-82284762D02*
X156190095Y-82999048D01*
X156809143Y-82999048D01*
X157094857Y-82332381D02*
X157761524Y-82332381D01*
X157332952Y-83332381D01*
X183859143Y-105385143D02*
X183811524Y-105432762D01*
X183668667Y-105480381D01*
X183573429Y-105480381D01*
X183430571Y-105432762D01*
X183335333Y-105337524D01*
X183287714Y-105242286D01*
X183240095Y-105051810D01*
X183240095Y-104908952D01*
X183287714Y-104718476D01*
X183335333Y-104623238D01*
X183430571Y-104528000D01*
X183573429Y-104480381D01*
X183668667Y-104480381D01*
X183811524Y-104528000D01*
X183859143Y-104575619D01*
X184716286Y-104813714D02*
X184716286Y-105480381D01*
X184478190Y-104432762D02*
X184240095Y-105147048D01*
X184859143Y-105147048D01*
X185382952Y-104908952D02*
X185287714Y-104861333D01*
X185240095Y-104813714D01*
X185192476Y-104718476D01*
X185192476Y-104670857D01*
X185240095Y-104575619D01*
X185287714Y-104528000D01*
X185382952Y-104480381D01*
X185573429Y-104480381D01*
X185668667Y-104528000D01*
X185716286Y-104575619D01*
X185763905Y-104670857D01*
X185763905Y-104718476D01*
X185716286Y-104813714D01*
X185668667Y-104861333D01*
X185573429Y-104908952D01*
X185382952Y-104908952D01*
X185287714Y-104956571D01*
X185240095Y-105004190D01*
X185192476Y-105099429D01*
X185192476Y-105289905D01*
X185240095Y-105385143D01*
X185287714Y-105432762D01*
X185382952Y-105480381D01*
X185573429Y-105480381D01*
X185668667Y-105432762D01*
X185716286Y-105385143D01*
X185763905Y-105289905D01*
X185763905Y-105099429D01*
X185716286Y-105004190D01*
X185668667Y-104956571D01*
X185573429Y-104908952D01*
X174588143Y-95860143D02*
X174540524Y-95907762D01*
X174397667Y-95955381D01*
X174302429Y-95955381D01*
X174159571Y-95907762D01*
X174064333Y-95812524D01*
X174016714Y-95717286D01*
X173969095Y-95526810D01*
X173969095Y-95383952D01*
X174016714Y-95193476D01*
X174064333Y-95098238D01*
X174159571Y-95003000D01*
X174302429Y-94955381D01*
X174397667Y-94955381D01*
X174540524Y-95003000D01*
X174588143Y-95050619D01*
X175445286Y-95288714D02*
X175445286Y-95955381D01*
X175207190Y-94907762D02*
X174969095Y-95622048D01*
X175588143Y-95622048D01*
X176016714Y-95955381D02*
X176207190Y-95955381D01*
X176302429Y-95907762D01*
X176350048Y-95860143D01*
X176445286Y-95717286D01*
X176492905Y-95526810D01*
X176492905Y-95145857D01*
X176445286Y-95050619D01*
X176397667Y-95003000D01*
X176302429Y-94955381D01*
X176111952Y-94955381D01*
X176016714Y-95003000D01*
X175969095Y-95050619D01*
X175921476Y-95145857D01*
X175921476Y-95383952D01*
X175969095Y-95479190D01*
X176016714Y-95526810D01*
X176111952Y-95574429D01*
X176302429Y-95574429D01*
X176397667Y-95526810D01*
X176445286Y-95479190D01*
X176492905Y-95383952D01*
X155841143Y-81332143D02*
X155793524Y-81379762D01*
X155650667Y-81427381D01*
X155555429Y-81427381D01*
X155412571Y-81379762D01*
X155317333Y-81284524D01*
X155269714Y-81189286D01*
X155222095Y-80998810D01*
X155222095Y-80855952D01*
X155269714Y-80665476D01*
X155317333Y-80570238D01*
X155412571Y-80475000D01*
X155555429Y-80427381D01*
X155650667Y-80427381D01*
X155793524Y-80475000D01*
X155841143Y-80522619D01*
X156745905Y-80427381D02*
X156269714Y-80427381D01*
X156222095Y-80903571D01*
X156269714Y-80855952D01*
X156364952Y-80808333D01*
X156603048Y-80808333D01*
X156698286Y-80855952D01*
X156745905Y-80903571D01*
X156793524Y-80998810D01*
X156793524Y-81236905D01*
X156745905Y-81332143D01*
X156698286Y-81379762D01*
X156603048Y-81427381D01*
X156364952Y-81427381D01*
X156269714Y-81379762D01*
X156222095Y-81332143D01*
X157412571Y-80427381D02*
X157507810Y-80427381D01*
X157603048Y-80475000D01*
X157650667Y-80522619D01*
X157698286Y-80617857D01*
X157745905Y-80808333D01*
X157745905Y-81046429D01*
X157698286Y-81236905D01*
X157650667Y-81332143D01*
X157603048Y-81379762D01*
X157507810Y-81427381D01*
X157412571Y-81427381D01*
X157317333Y-81379762D01*
X157269714Y-81332143D01*
X157222095Y-81236905D01*
X157174476Y-81046429D01*
X157174476Y-80808333D01*
X157222095Y-80617857D01*
X157269714Y-80522619D01*
X157317333Y-80475000D01*
X157412571Y-80427381D01*
X182446143Y-110142857D02*
X182493762Y-110190476D01*
X182541381Y-110333333D01*
X182541381Y-110428571D01*
X182493762Y-110571429D01*
X182398524Y-110666667D01*
X182303286Y-110714286D01*
X182112810Y-110761905D01*
X181969952Y-110761905D01*
X181779476Y-110714286D01*
X181684238Y-110666667D01*
X181589000Y-110571429D01*
X181541381Y-110428571D01*
X181541381Y-110333333D01*
X181589000Y-110190476D01*
X181636619Y-110142857D01*
X181541381Y-109238095D02*
X181541381Y-109714286D01*
X182017571Y-109761905D01*
X181969952Y-109714286D01*
X181922333Y-109619048D01*
X181922333Y-109380952D01*
X181969952Y-109285714D01*
X182017571Y-109238095D01*
X182112810Y-109190476D01*
X182350905Y-109190476D01*
X182446143Y-109238095D01*
X182493762Y-109285714D01*
X182541381Y-109380952D01*
X182541381Y-109619048D01*
X182493762Y-109714286D01*
X182446143Y-109761905D01*
X182541381Y-108238095D02*
X182541381Y-108809524D01*
X182541381Y-108523810D02*
X181541381Y-108523810D01*
X181684238Y-108619048D01*
X181779476Y-108714286D01*
X181827095Y-108809524D01*
X174461143Y-94082143D02*
X174413524Y-94129762D01*
X174270667Y-94177381D01*
X174175429Y-94177381D01*
X174032571Y-94129762D01*
X173937333Y-94034524D01*
X173889714Y-93939286D01*
X173842095Y-93748810D01*
X173842095Y-93605952D01*
X173889714Y-93415476D01*
X173937333Y-93320238D01*
X174032571Y-93225000D01*
X174175429Y-93177381D01*
X174270667Y-93177381D01*
X174413524Y-93225000D01*
X174461143Y-93272619D01*
X175365905Y-93177381D02*
X174889714Y-93177381D01*
X174842095Y-93653571D01*
X174889714Y-93605952D01*
X174984952Y-93558333D01*
X175223048Y-93558333D01*
X175318286Y-93605952D01*
X175365905Y-93653571D01*
X175413524Y-93748810D01*
X175413524Y-93986905D01*
X175365905Y-94082143D01*
X175318286Y-94129762D01*
X175223048Y-94177381D01*
X174984952Y-94177381D01*
X174889714Y-94129762D01*
X174842095Y-94082143D01*
X175794476Y-93272619D02*
X175842095Y-93225000D01*
X175937333Y-93177381D01*
X176175429Y-93177381D01*
X176270667Y-93225000D01*
X176318286Y-93272619D01*
X176365905Y-93367857D01*
X176365905Y-93463095D01*
X176318286Y-93605952D01*
X175746857Y-94177381D01*
X176365905Y-94177381D01*
X155841143Y-79427143D02*
X155793524Y-79474762D01*
X155650667Y-79522381D01*
X155555429Y-79522381D01*
X155412571Y-79474762D01*
X155317333Y-79379524D01*
X155269714Y-79284286D01*
X155222095Y-79093810D01*
X155222095Y-78950952D01*
X155269714Y-78760476D01*
X155317333Y-78665238D01*
X155412571Y-78570000D01*
X155555429Y-78522381D01*
X155650667Y-78522381D01*
X155793524Y-78570000D01*
X155841143Y-78617619D01*
X156745905Y-78522381D02*
X156269714Y-78522381D01*
X156222095Y-78998571D01*
X156269714Y-78950952D01*
X156364952Y-78903333D01*
X156603048Y-78903333D01*
X156698286Y-78950952D01*
X156745905Y-78998571D01*
X156793524Y-79093810D01*
X156793524Y-79331905D01*
X156745905Y-79427143D01*
X156698286Y-79474762D01*
X156603048Y-79522381D01*
X156364952Y-79522381D01*
X156269714Y-79474762D01*
X156222095Y-79427143D01*
X157126857Y-78522381D02*
X157745905Y-78522381D01*
X157412571Y-78903333D01*
X157555429Y-78903333D01*
X157650667Y-78950952D01*
X157698286Y-78998571D01*
X157745905Y-79093810D01*
X157745905Y-79331905D01*
X157698286Y-79427143D01*
X157650667Y-79474762D01*
X157555429Y-79522381D01*
X157269714Y-79522381D01*
X157174476Y-79474762D01*
X157126857Y-79427143D01*
X174715143Y-92177143D02*
X174667524Y-92224762D01*
X174524667Y-92272381D01*
X174429429Y-92272381D01*
X174286571Y-92224762D01*
X174191333Y-92129524D01*
X174143714Y-92034286D01*
X174096095Y-91843810D01*
X174096095Y-91700952D01*
X174143714Y-91510476D01*
X174191333Y-91415238D01*
X174286571Y-91320000D01*
X174429429Y-91272381D01*
X174524667Y-91272381D01*
X174667524Y-91320000D01*
X174715143Y-91367619D01*
X175619905Y-91272381D02*
X175143714Y-91272381D01*
X175096095Y-91748571D01*
X175143714Y-91700952D01*
X175238952Y-91653333D01*
X175477048Y-91653333D01*
X175572286Y-91700952D01*
X175619905Y-91748571D01*
X175667524Y-91843810D01*
X175667524Y-92081905D01*
X175619905Y-92177143D01*
X175572286Y-92224762D01*
X175477048Y-92272381D01*
X175238952Y-92272381D01*
X175143714Y-92224762D01*
X175096095Y-92177143D01*
X176524667Y-91605714D02*
X176524667Y-92272381D01*
X176286571Y-91224762D02*
X176048476Y-91939048D01*
X176667524Y-91939048D01*
X174969143Y-87351143D02*
X174921524Y-87398762D01*
X174778667Y-87446381D01*
X174683429Y-87446381D01*
X174540571Y-87398762D01*
X174445333Y-87303524D01*
X174397714Y-87208286D01*
X174350095Y-87017810D01*
X174350095Y-86874952D01*
X174397714Y-86684476D01*
X174445333Y-86589238D01*
X174540571Y-86494000D01*
X174683429Y-86446381D01*
X174778667Y-86446381D01*
X174921524Y-86494000D01*
X174969143Y-86541619D01*
X175873905Y-86446381D02*
X175397714Y-86446381D01*
X175350095Y-86922571D01*
X175397714Y-86874952D01*
X175492952Y-86827333D01*
X175731048Y-86827333D01*
X175826286Y-86874952D01*
X175873905Y-86922571D01*
X175921524Y-87017810D01*
X175921524Y-87255905D01*
X175873905Y-87351143D01*
X175826286Y-87398762D01*
X175731048Y-87446381D01*
X175492952Y-87446381D01*
X175397714Y-87398762D01*
X175350095Y-87351143D01*
X176826286Y-86446381D02*
X176350095Y-86446381D01*
X176302476Y-86922571D01*
X176350095Y-86874952D01*
X176445333Y-86827333D01*
X176683429Y-86827333D01*
X176778667Y-86874952D01*
X176826286Y-86922571D01*
X176873905Y-87017810D01*
X176873905Y-87255905D01*
X176826286Y-87351143D01*
X176778667Y-87398762D01*
X176683429Y-87446381D01*
X176445333Y-87446381D01*
X176350095Y-87398762D01*
X176302476Y-87351143D01*
X147568905Y-103742381D02*
X147568905Y-102742381D01*
X147807000Y-102742381D01*
X147949858Y-102790000D01*
X148045096Y-102885238D01*
X148092715Y-102980476D01*
X148140334Y-103170952D01*
X148140334Y-103313810D01*
X148092715Y-103504286D01*
X148045096Y-103599524D01*
X147949858Y-103694762D01*
X147807000Y-103742381D01*
X147568905Y-103742381D01*
X149092715Y-103742381D02*
X148521286Y-103742381D01*
X148807000Y-103742381D02*
X148807000Y-102742381D01*
X148711762Y-102885238D01*
X148616524Y-102980476D01*
X148521286Y-103028095D01*
X155674381Y-111798666D02*
X155674381Y-112274857D01*
X154674381Y-112274857D01*
X155674381Y-110941523D02*
X155674381Y-111512952D01*
X155674381Y-111227238D02*
X154674381Y-111227238D01*
X154817238Y-111322476D01*
X154912476Y-111417714D01*
X154960095Y-111512952D01*
X150878762Y-134277619D02*
X150783524Y-134230000D01*
X150688286Y-134134762D01*
X150545429Y-133991905D01*
X150450190Y-133944286D01*
X150354952Y-133944286D01*
X150402571Y-134182381D02*
X150307333Y-134134762D01*
X150212095Y-134039524D01*
X150164476Y-133849048D01*
X150164476Y-133515714D01*
X150212095Y-133325238D01*
X150307333Y-133230000D01*
X150402571Y-133182381D01*
X150593048Y-133182381D01*
X150688286Y-133230000D01*
X150783524Y-133325238D01*
X150831143Y-133515714D01*
X150831143Y-133849048D01*
X150783524Y-134039524D01*
X150688286Y-134134762D01*
X150593048Y-134182381D01*
X150402571Y-134182381D01*
X151164476Y-133182381D02*
X151831143Y-133182381D01*
X151402571Y-134182381D01*
X156728619Y-97217428D02*
X156681000Y-97312666D01*
X156585762Y-97407904D01*
X156442905Y-97550761D01*
X156395286Y-97646000D01*
X156395286Y-97741238D01*
X156633381Y-97693619D02*
X156585762Y-97788857D01*
X156490524Y-97884095D01*
X156300048Y-97931714D01*
X155966714Y-97931714D01*
X155776238Y-97884095D01*
X155681000Y-97788857D01*
X155633381Y-97693619D01*
X155633381Y-97503142D01*
X155681000Y-97407904D01*
X155776238Y-97312666D01*
X155966714Y-97265047D01*
X156300048Y-97265047D01*
X156490524Y-97312666D01*
X156585762Y-97407904D01*
X156633381Y-97503142D01*
X156633381Y-97693619D01*
X156633381Y-96312666D02*
X156633381Y-96884095D01*
X156633381Y-96598381D02*
X155633381Y-96598381D01*
X155776238Y-96693619D01*
X155871476Y-96788857D01*
X155919095Y-96884095D01*
X155966714Y-95455523D02*
X156633381Y-95455523D01*
X155585762Y-95693619D02*
X156300048Y-95931714D01*
X156300048Y-95312666D01*
X144333334Y-116952381D02*
X144000000Y-116476190D01*
X143761905Y-116952381D02*
X143761905Y-115952381D01*
X144142858Y-115952381D01*
X144238096Y-116000000D01*
X144285715Y-116047619D01*
X144333334Y-116142857D01*
X144333334Y-116285714D01*
X144285715Y-116380952D01*
X144238096Y-116428571D01*
X144142858Y-116476190D01*
X143761905Y-116476190D01*
X145285715Y-116952381D02*
X144714286Y-116952381D01*
X145000000Y-116952381D02*
X145000000Y-115952381D01*
X144904762Y-116095238D01*
X144809524Y-116190476D01*
X144714286Y-116238095D01*
X146362334Y-116952381D02*
X146029000Y-116476190D01*
X145790905Y-116952381D02*
X145790905Y-115952381D01*
X146171858Y-115952381D01*
X146267096Y-116000000D01*
X146314715Y-116047619D01*
X146362334Y-116142857D01*
X146362334Y-116285714D01*
X146314715Y-116380952D01*
X146267096Y-116428571D01*
X146171858Y-116476190D01*
X145790905Y-116476190D01*
X146743286Y-116047619D02*
X146790905Y-116000000D01*
X146886143Y-115952381D01*
X147124239Y-115952381D01*
X147219477Y-116000000D01*
X147267096Y-116047619D01*
X147314715Y-116142857D01*
X147314715Y-116238095D01*
X147267096Y-116380952D01*
X146695667Y-116952381D01*
X147314715Y-116952381D01*
X143822334Y-128452381D02*
X143489000Y-127976190D01*
X143250905Y-128452381D02*
X143250905Y-127452381D01*
X143631858Y-127452381D01*
X143727096Y-127500000D01*
X143774715Y-127547619D01*
X143822334Y-127642857D01*
X143822334Y-127785714D01*
X143774715Y-127880952D01*
X143727096Y-127928571D01*
X143631858Y-127976190D01*
X143250905Y-127976190D01*
X144155667Y-127452381D02*
X144774715Y-127452381D01*
X144441381Y-127833333D01*
X144584239Y-127833333D01*
X144679477Y-127880952D01*
X144727096Y-127928571D01*
X144774715Y-128023810D01*
X144774715Y-128261905D01*
X144727096Y-128357143D01*
X144679477Y-128404762D01*
X144584239Y-128452381D01*
X144298524Y-128452381D01*
X144203286Y-128404762D01*
X144155667Y-128357143D01*
X145600334Y-110179381D02*
X145267000Y-109703190D01*
X145028905Y-110179381D02*
X145028905Y-109179381D01*
X145409858Y-109179381D01*
X145505096Y-109227000D01*
X145552715Y-109274619D01*
X145600334Y-109369857D01*
X145600334Y-109512714D01*
X145552715Y-109607952D01*
X145505096Y-109655571D01*
X145409858Y-109703190D01*
X145028905Y-109703190D01*
X146457477Y-109512714D02*
X146457477Y-110179381D01*
X146219381Y-109131762D02*
X145981286Y-109846048D01*
X146600334Y-109846048D01*
X152331334Y-108655381D02*
X151998000Y-108179190D01*
X151759905Y-108655381D02*
X151759905Y-107655381D01*
X152140858Y-107655381D01*
X152236096Y-107703000D01*
X152283715Y-107750619D01*
X152331334Y-107845857D01*
X152331334Y-107988714D01*
X152283715Y-108083952D01*
X152236096Y-108131571D01*
X152140858Y-108179190D01*
X151759905Y-108179190D01*
X153236096Y-107655381D02*
X152759905Y-107655381D01*
X152712286Y-108131571D01*
X152759905Y-108083952D01*
X152855143Y-108036333D01*
X153093239Y-108036333D01*
X153188477Y-108083952D01*
X153236096Y-108131571D01*
X153283715Y-108226810D01*
X153283715Y-108464905D01*
X153236096Y-108560143D01*
X153188477Y-108607762D01*
X153093239Y-108655381D01*
X152855143Y-108655381D01*
X152759905Y-108607762D01*
X152712286Y-108560143D01*
X148521334Y-127324381D02*
X148188000Y-126848190D01*
X147949905Y-127324381D02*
X147949905Y-126324381D01*
X148330858Y-126324381D01*
X148426096Y-126372000D01*
X148473715Y-126419619D01*
X148521334Y-126514857D01*
X148521334Y-126657714D01*
X148473715Y-126752952D01*
X148426096Y-126800571D01*
X148330858Y-126848190D01*
X147949905Y-126848190D01*
X149378477Y-126324381D02*
X149188000Y-126324381D01*
X149092762Y-126372000D01*
X149045143Y-126419619D01*
X148949905Y-126562476D01*
X148902286Y-126752952D01*
X148902286Y-127133905D01*
X148949905Y-127229143D01*
X148997524Y-127276762D01*
X149092762Y-127324381D01*
X149283239Y-127324381D01*
X149378477Y-127276762D01*
X149426096Y-127229143D01*
X149473715Y-127133905D01*
X149473715Y-126895810D01*
X149426096Y-126800571D01*
X149378477Y-126752952D01*
X149283239Y-126705333D01*
X149092762Y-126705333D01*
X148997524Y-126752952D01*
X148949905Y-126800571D01*
X148902286Y-126895810D01*
X176715334Y-124403381D02*
X176382000Y-123927190D01*
X176143905Y-124403381D02*
X176143905Y-123403381D01*
X176524858Y-123403381D01*
X176620096Y-123451000D01*
X176667715Y-123498619D01*
X176715334Y-123593857D01*
X176715334Y-123736714D01*
X176667715Y-123831952D01*
X176620096Y-123879571D01*
X176524858Y-123927190D01*
X176143905Y-123927190D01*
X177048667Y-123403381D02*
X177715334Y-123403381D01*
X177286762Y-124403381D01*
X175731143Y-118053381D02*
X175397809Y-117577190D01*
X175159714Y-118053381D02*
X175159714Y-117053381D01*
X175540667Y-117053381D01*
X175635905Y-117101000D01*
X175683524Y-117148619D01*
X175731143Y-117243857D01*
X175731143Y-117386714D01*
X175683524Y-117481952D01*
X175635905Y-117529571D01*
X175540667Y-117577190D01*
X175159714Y-117577190D01*
X176112095Y-117148619D02*
X176159714Y-117101000D01*
X176254952Y-117053381D01*
X176493048Y-117053381D01*
X176588286Y-117101000D01*
X176635905Y-117148619D01*
X176683524Y-117243857D01*
X176683524Y-117339095D01*
X176635905Y-117481952D01*
X176064476Y-118053381D01*
X176683524Y-118053381D01*
X177540667Y-117386714D02*
X177540667Y-118053381D01*
X177302571Y-117005762D02*
X177064476Y-117720048D01*
X177683524Y-117720048D01*
X179033143Y-121101381D02*
X178699809Y-120625190D01*
X178461714Y-121101381D02*
X178461714Y-120101381D01*
X178842667Y-120101381D01*
X178937905Y-120149000D01*
X178985524Y-120196619D01*
X179033143Y-120291857D01*
X179033143Y-120434714D01*
X178985524Y-120529952D01*
X178937905Y-120577571D01*
X178842667Y-120625190D01*
X178461714Y-120625190D01*
X179414095Y-120196619D02*
X179461714Y-120149000D01*
X179556952Y-120101381D01*
X179795048Y-120101381D01*
X179890286Y-120149000D01*
X179937905Y-120196619D01*
X179985524Y-120291857D01*
X179985524Y-120387095D01*
X179937905Y-120529952D01*
X179366476Y-121101381D01*
X179985524Y-121101381D01*
X180890286Y-120101381D02*
X180414095Y-120101381D01*
X180366476Y-120577571D01*
X180414095Y-120529952D01*
X180509333Y-120482333D01*
X180747429Y-120482333D01*
X180842667Y-120529952D01*
X180890286Y-120577571D01*
X180937905Y-120672810D01*
X180937905Y-120910905D01*
X180890286Y-121006143D01*
X180842667Y-121053762D01*
X180747429Y-121101381D01*
X180509333Y-121101381D01*
X180414095Y-121053762D01*
X180366476Y-121006143D01*
X173572143Y-129864381D02*
X173238809Y-129388190D01*
X173000714Y-129864381D02*
X173000714Y-128864381D01*
X173381667Y-128864381D01*
X173476905Y-128912000D01*
X173524524Y-128959619D01*
X173572143Y-129054857D01*
X173572143Y-129197714D01*
X173524524Y-129292952D01*
X173476905Y-129340571D01*
X173381667Y-129388190D01*
X173000714Y-129388190D01*
X173953095Y-128959619D02*
X174000714Y-128912000D01*
X174095952Y-128864381D01*
X174334048Y-128864381D01*
X174429286Y-128912000D01*
X174476905Y-128959619D01*
X174524524Y-129054857D01*
X174524524Y-129150095D01*
X174476905Y-129292952D01*
X173905476Y-129864381D01*
X174524524Y-129864381D01*
X175381667Y-128864381D02*
X175191190Y-128864381D01*
X175095952Y-128912000D01*
X175048333Y-128959619D01*
X174953095Y-129102476D01*
X174905476Y-129292952D01*
X174905476Y-129673905D01*
X174953095Y-129769143D01*
X175000714Y-129816762D01*
X175095952Y-129864381D01*
X175286429Y-129864381D01*
X175381667Y-129816762D01*
X175429286Y-129769143D01*
X175476905Y-129673905D01*
X175476905Y-129435810D01*
X175429286Y-129340571D01*
X175381667Y-129292952D01*
X175286429Y-129245333D01*
X175095952Y-129245333D01*
X175000714Y-129292952D01*
X174953095Y-129340571D01*
X174905476Y-129435810D01*
X169841381Y-126625857D02*
X169365190Y-126959191D01*
X169841381Y-127197286D02*
X168841381Y-127197286D01*
X168841381Y-126816333D01*
X168889000Y-126721095D01*
X168936619Y-126673476D01*
X169031857Y-126625857D01*
X169174714Y-126625857D01*
X169269952Y-126673476D01*
X169317571Y-126721095D01*
X169365190Y-126816333D01*
X169365190Y-127197286D01*
X168936619Y-126244905D02*
X168889000Y-126197286D01*
X168841381Y-126102048D01*
X168841381Y-125863952D01*
X168889000Y-125768714D01*
X168936619Y-125721095D01*
X169031857Y-125673476D01*
X169127095Y-125673476D01*
X169269952Y-125721095D01*
X169841381Y-126292524D01*
X169841381Y-125673476D01*
X168841381Y-125340143D02*
X168841381Y-124673476D01*
X169841381Y-125102048D01*
X181573143Y-122952381D02*
X181239809Y-122476190D01*
X181001714Y-122952381D02*
X181001714Y-121952381D01*
X181382667Y-121952381D01*
X181477905Y-122000000D01*
X181525524Y-122047619D01*
X181573143Y-122142857D01*
X181573143Y-122285714D01*
X181525524Y-122380952D01*
X181477905Y-122428571D01*
X181382667Y-122476190D01*
X181001714Y-122476190D01*
X181954095Y-122047619D02*
X182001714Y-122000000D01*
X182096952Y-121952381D01*
X182335048Y-121952381D01*
X182430286Y-122000000D01*
X182477905Y-122047619D01*
X182525524Y-122142857D01*
X182525524Y-122238095D01*
X182477905Y-122380952D01*
X181906476Y-122952381D01*
X182525524Y-122952381D01*
X183096952Y-122380952D02*
X183001714Y-122333333D01*
X182954095Y-122285714D01*
X182906476Y-122190476D01*
X182906476Y-122142857D01*
X182954095Y-122047619D01*
X183001714Y-122000000D01*
X183096952Y-121952381D01*
X183287429Y-121952381D01*
X183382667Y-122000000D01*
X183430286Y-122047619D01*
X183477905Y-122142857D01*
X183477905Y-122190476D01*
X183430286Y-122285714D01*
X183382667Y-122333333D01*
X183287429Y-122380952D01*
X183096952Y-122380952D01*
X183001714Y-122428571D01*
X182954095Y-122476190D01*
X182906476Y-122571429D01*
X182906476Y-122761905D01*
X182954095Y-122857143D01*
X183001714Y-122904762D01*
X183096952Y-122952381D01*
X183287429Y-122952381D01*
X183382667Y-122904762D01*
X183430286Y-122857143D01*
X183477905Y-122761905D01*
X183477905Y-122571429D01*
X183430286Y-122476190D01*
X183382667Y-122428571D01*
X183287429Y-122380952D01*
X173318143Y-124911381D02*
X172984809Y-124435190D01*
X172746714Y-124911381D02*
X172746714Y-123911381D01*
X173127667Y-123911381D01*
X173222905Y-123959000D01*
X173270524Y-124006619D01*
X173318143Y-124101857D01*
X173318143Y-124244714D01*
X173270524Y-124339952D01*
X173222905Y-124387571D01*
X173127667Y-124435190D01*
X172746714Y-124435190D01*
X173699095Y-124006619D02*
X173746714Y-123959000D01*
X173841952Y-123911381D01*
X174080048Y-123911381D01*
X174175286Y-123959000D01*
X174222905Y-124006619D01*
X174270524Y-124101857D01*
X174270524Y-124197095D01*
X174222905Y-124339952D01*
X173651476Y-124911381D01*
X174270524Y-124911381D01*
X174746714Y-124911381D02*
X174937190Y-124911381D01*
X175032429Y-124863762D01*
X175080048Y-124816143D01*
X175175286Y-124673286D01*
X175222905Y-124482810D01*
X175222905Y-124101857D01*
X175175286Y-124006619D01*
X175127667Y-123959000D01*
X175032429Y-123911381D01*
X174841952Y-123911381D01*
X174746714Y-123959000D01*
X174699095Y-124006619D01*
X174651476Y-124101857D01*
X174651476Y-124339952D01*
X174699095Y-124435190D01*
X174746714Y-124482810D01*
X174841952Y-124530429D01*
X175032429Y-124530429D01*
X175127667Y-124482810D01*
X175175286Y-124435190D01*
X175222905Y-124339952D01*
X157443143Y-125546381D02*
X157109809Y-125070190D01*
X156871714Y-125546381D02*
X156871714Y-124546381D01*
X157252667Y-124546381D01*
X157347905Y-124594000D01*
X157395524Y-124641619D01*
X157443143Y-124736857D01*
X157443143Y-124879714D01*
X157395524Y-124974952D01*
X157347905Y-125022571D01*
X157252667Y-125070190D01*
X156871714Y-125070190D01*
X157776476Y-124546381D02*
X158395524Y-124546381D01*
X158062190Y-124927333D01*
X158205048Y-124927333D01*
X158300286Y-124974952D01*
X158347905Y-125022571D01*
X158395524Y-125117810D01*
X158395524Y-125355905D01*
X158347905Y-125451143D01*
X158300286Y-125498762D01*
X158205048Y-125546381D01*
X157919333Y-125546381D01*
X157824095Y-125498762D01*
X157776476Y-125451143D01*
X159347905Y-125546381D02*
X158776476Y-125546381D01*
X159062190Y-125546381D02*
X159062190Y-124546381D01*
X158966952Y-124689238D01*
X158871714Y-124784476D01*
X158776476Y-124832095D01*
X178477381Y-113925857D02*
X178001190Y-114259191D01*
X178477381Y-114497286D02*
X177477381Y-114497286D01*
X177477381Y-114116333D01*
X177525000Y-114021095D01*
X177572619Y-113973476D01*
X177667857Y-113925857D01*
X177810714Y-113925857D01*
X177905952Y-113973476D01*
X177953571Y-114021095D01*
X178001190Y-114116333D01*
X178001190Y-114497286D01*
X177477381Y-113592524D02*
X177477381Y-112973476D01*
X177858333Y-113306810D01*
X177858333Y-113163952D01*
X177905952Y-113068714D01*
X177953571Y-113021095D01*
X178048810Y-112973476D01*
X178286905Y-112973476D01*
X178382143Y-113021095D01*
X178429762Y-113068714D01*
X178477381Y-113163952D01*
X178477381Y-113449667D01*
X178429762Y-113544905D01*
X178382143Y-113592524D01*
X177572619Y-112592524D02*
X177525000Y-112544905D01*
X177477381Y-112449667D01*
X177477381Y-112211571D01*
X177525000Y-112116333D01*
X177572619Y-112068714D01*
X177667857Y-112021095D01*
X177763095Y-112021095D01*
X177905952Y-112068714D01*
X178477381Y-112640143D01*
X178477381Y-112021095D01*
X195924143Y-89605381D02*
X195590809Y-89129190D01*
X195352714Y-89605381D02*
X195352714Y-88605381D01*
X195733667Y-88605381D01*
X195828905Y-88653000D01*
X195876524Y-88700619D01*
X195924143Y-88795857D01*
X195924143Y-88938714D01*
X195876524Y-89033952D01*
X195828905Y-89081571D01*
X195733667Y-89129190D01*
X195352714Y-89129190D01*
X196257476Y-88605381D02*
X196876524Y-88605381D01*
X196543190Y-88986333D01*
X196686048Y-88986333D01*
X196781286Y-89033952D01*
X196828905Y-89081571D01*
X196876524Y-89176810D01*
X196876524Y-89414905D01*
X196828905Y-89510143D01*
X196781286Y-89557762D01*
X196686048Y-89605381D01*
X196400333Y-89605381D01*
X196305095Y-89557762D01*
X196257476Y-89510143D01*
X197733667Y-88938714D02*
X197733667Y-89605381D01*
X197495571Y-88557762D02*
X197257476Y-89272048D01*
X197876524Y-89272048D01*
X195924143Y-87192381D02*
X195590809Y-86716190D01*
X195352714Y-87192381D02*
X195352714Y-86192381D01*
X195733667Y-86192381D01*
X195828905Y-86240000D01*
X195876524Y-86287619D01*
X195924143Y-86382857D01*
X195924143Y-86525714D01*
X195876524Y-86620952D01*
X195828905Y-86668571D01*
X195733667Y-86716190D01*
X195352714Y-86716190D01*
X196257476Y-86192381D02*
X196876524Y-86192381D01*
X196543190Y-86573333D01*
X196686048Y-86573333D01*
X196781286Y-86620952D01*
X196828905Y-86668571D01*
X196876524Y-86763810D01*
X196876524Y-87001905D01*
X196828905Y-87097143D01*
X196781286Y-87144762D01*
X196686048Y-87192381D01*
X196400333Y-87192381D01*
X196305095Y-87144762D01*
X196257476Y-87097143D01*
X197781286Y-86192381D02*
X197305095Y-86192381D01*
X197257476Y-86668571D01*
X197305095Y-86620952D01*
X197400333Y-86573333D01*
X197638429Y-86573333D01*
X197733667Y-86620952D01*
X197781286Y-86668571D01*
X197828905Y-86763810D01*
X197828905Y-87001905D01*
X197781286Y-87097143D01*
X197733667Y-87144762D01*
X197638429Y-87192381D01*
X197400333Y-87192381D01*
X197305095Y-87144762D01*
X197257476Y-87097143D01*
X180452381Y-116211857D02*
X179976190Y-116545191D01*
X180452381Y-116783286D02*
X179452381Y-116783286D01*
X179452381Y-116402333D01*
X179500000Y-116307095D01*
X179547619Y-116259476D01*
X179642857Y-116211857D01*
X179785714Y-116211857D01*
X179880952Y-116259476D01*
X179928571Y-116307095D01*
X179976190Y-116402333D01*
X179976190Y-116783286D01*
X179452381Y-115878524D02*
X179452381Y-115259476D01*
X179833333Y-115592810D01*
X179833333Y-115449952D01*
X179880952Y-115354714D01*
X179928571Y-115307095D01*
X180023810Y-115259476D01*
X180261905Y-115259476D01*
X180357143Y-115307095D01*
X180404762Y-115354714D01*
X180452381Y-115449952D01*
X180452381Y-115735667D01*
X180404762Y-115830905D01*
X180357143Y-115878524D01*
X179452381Y-114402333D02*
X179452381Y-114592810D01*
X179500000Y-114688048D01*
X179547619Y-114735667D01*
X179690476Y-114830905D01*
X179880952Y-114878524D01*
X180261905Y-114878524D01*
X180357143Y-114830905D01*
X180404762Y-114783286D01*
X180452381Y-114688048D01*
X180452381Y-114497571D01*
X180404762Y-114402333D01*
X180357143Y-114354714D01*
X180261905Y-114307095D01*
X180023810Y-114307095D01*
X179928571Y-114354714D01*
X179880952Y-114402333D01*
X179833333Y-114497571D01*
X179833333Y-114688048D01*
X179880952Y-114783286D01*
X179928571Y-114830905D01*
X180023810Y-114878524D01*
X196107143Y-104972381D02*
X195773809Y-104496190D01*
X195535714Y-104972381D02*
X195535714Y-103972381D01*
X195916667Y-103972381D01*
X196011905Y-104020000D01*
X196059524Y-104067619D01*
X196107143Y-104162857D01*
X196107143Y-104305714D01*
X196059524Y-104400952D01*
X196011905Y-104448571D01*
X195916667Y-104496190D01*
X195535714Y-104496190D01*
X196440476Y-103972381D02*
X197059524Y-103972381D01*
X196726190Y-104353333D01*
X196869048Y-104353333D01*
X196964286Y-104400952D01*
X197011905Y-104448571D01*
X197059524Y-104543810D01*
X197059524Y-104781905D01*
X197011905Y-104877143D01*
X196964286Y-104924762D01*
X196869048Y-104972381D01*
X196583333Y-104972381D01*
X196488095Y-104924762D01*
X196440476Y-104877143D01*
X197392857Y-103972381D02*
X198059524Y-103972381D01*
X197630952Y-104972381D01*
X163980123Y-95526079D02*
X163503932Y-95859413D01*
X163980123Y-96097508D02*
X162980123Y-96097508D01*
X162980123Y-95716555D01*
X163027742Y-95621317D01*
X163075361Y-95573698D01*
X163170599Y-95526079D01*
X163313456Y-95526079D01*
X163408694Y-95573698D01*
X163456313Y-95621317D01*
X163503932Y-95716555D01*
X163503932Y-96097508D01*
X162980123Y-95192746D02*
X162980123Y-94573698D01*
X163361075Y-94907032D01*
X163361075Y-94764174D01*
X163408694Y-94668936D01*
X163456313Y-94621317D01*
X163551552Y-94573698D01*
X163789647Y-94573698D01*
X163884885Y-94621317D01*
X163932504Y-94668936D01*
X163980123Y-94764174D01*
X163980123Y-95049889D01*
X163932504Y-95145127D01*
X163884885Y-95192746D01*
X163408694Y-94002270D02*
X163361075Y-94097508D01*
X163313456Y-94145127D01*
X163218218Y-94192746D01*
X163170599Y-94192746D01*
X163075361Y-94145127D01*
X163027742Y-94097508D01*
X162980123Y-94002270D01*
X162980123Y-93811793D01*
X163027742Y-93716555D01*
X163075361Y-93668936D01*
X163170599Y-93621317D01*
X163218218Y-93621317D01*
X163313456Y-93668936D01*
X163361075Y-93716555D01*
X163408694Y-93811793D01*
X163408694Y-94002270D01*
X163456313Y-94097508D01*
X163503932Y-94145127D01*
X163599171Y-94192746D01*
X163789647Y-94192746D01*
X163884885Y-94145127D01*
X163932504Y-94097508D01*
X163980123Y-94002270D01*
X163980123Y-93811793D01*
X163932504Y-93716555D01*
X163884885Y-93668936D01*
X163789647Y-93621317D01*
X163599171Y-93621317D01*
X163503932Y-93668936D01*
X163456313Y-93716555D01*
X163408694Y-93811793D01*
X163999381Y-98193079D02*
X163523190Y-98526413D01*
X163999381Y-98764508D02*
X162999381Y-98764508D01*
X162999381Y-98383555D01*
X163047000Y-98288317D01*
X163094619Y-98240698D01*
X163189857Y-98193079D01*
X163332714Y-98193079D01*
X163427952Y-98240698D01*
X163475571Y-98288317D01*
X163523190Y-98383555D01*
X163523190Y-98764508D01*
X162999381Y-97859746D02*
X162999381Y-97240698D01*
X163380333Y-97574032D01*
X163380333Y-97431174D01*
X163427952Y-97335936D01*
X163475571Y-97288317D01*
X163570810Y-97240698D01*
X163808905Y-97240698D01*
X163904143Y-97288317D01*
X163951762Y-97335936D01*
X163999381Y-97431174D01*
X163999381Y-97716889D01*
X163951762Y-97812127D01*
X163904143Y-97859746D01*
X163999381Y-96764508D02*
X163999381Y-96574032D01*
X163951762Y-96478793D01*
X163904143Y-96431174D01*
X163761286Y-96335936D01*
X163570810Y-96288317D01*
X163189857Y-96288317D01*
X163094619Y-96335936D01*
X163047000Y-96383555D01*
X162999381Y-96478793D01*
X162999381Y-96669270D01*
X163047000Y-96764508D01*
X163094619Y-96812127D01*
X163189857Y-96859746D01*
X163427952Y-96859746D01*
X163523190Y-96812127D01*
X163570810Y-96764508D01*
X163618429Y-96669270D01*
X163618429Y-96478793D01*
X163570810Y-96383555D01*
X163523190Y-96335936D01*
X163427952Y-96288317D01*
X196107143Y-102452381D02*
X195773809Y-101976190D01*
X195535714Y-102452381D02*
X195535714Y-101452381D01*
X195916667Y-101452381D01*
X196011905Y-101500000D01*
X196059524Y-101547619D01*
X196107143Y-101642857D01*
X196107143Y-101785714D01*
X196059524Y-101880952D01*
X196011905Y-101928571D01*
X195916667Y-101976190D01*
X195535714Y-101976190D01*
X196964286Y-101785714D02*
X196964286Y-102452381D01*
X196726190Y-101404762D02*
X196488095Y-102119048D01*
X197107143Y-102119048D01*
X197678571Y-101452381D02*
X197773810Y-101452381D01*
X197869048Y-101500000D01*
X197916667Y-101547619D01*
X197964286Y-101642857D01*
X198011905Y-101833333D01*
X198011905Y-102071429D01*
X197964286Y-102261905D01*
X197916667Y-102357143D01*
X197869048Y-102404762D01*
X197773810Y-102452381D01*
X197678571Y-102452381D01*
X197583333Y-102404762D01*
X197535714Y-102357143D01*
X197488095Y-102261905D01*
X197440476Y-102071429D01*
X197440476Y-101833333D01*
X197488095Y-101642857D01*
X197535714Y-101547619D01*
X197583333Y-101500000D01*
X197678571Y-101452381D01*
X162142143Y-123514381D02*
X161808809Y-123038190D01*
X161570714Y-123514381D02*
X161570714Y-122514381D01*
X161951667Y-122514381D01*
X162046905Y-122562000D01*
X162094524Y-122609619D01*
X162142143Y-122704857D01*
X162142143Y-122847714D01*
X162094524Y-122942952D01*
X162046905Y-122990571D01*
X161951667Y-123038190D01*
X161570714Y-123038190D01*
X162999286Y-122847714D02*
X162999286Y-123514381D01*
X162761190Y-122466762D02*
X162523095Y-123181048D01*
X163142143Y-123181048D01*
X163475476Y-122609619D02*
X163523095Y-122562000D01*
X163618333Y-122514381D01*
X163856429Y-122514381D01*
X163951667Y-122562000D01*
X163999286Y-122609619D01*
X164046905Y-122704857D01*
X164046905Y-122800095D01*
X163999286Y-122942952D01*
X163427857Y-123514381D01*
X164046905Y-123514381D01*
X163107143Y-101702381D02*
X162773809Y-101226190D01*
X162535714Y-101702381D02*
X162535714Y-100702381D01*
X162916667Y-100702381D01*
X163011905Y-100750000D01*
X163059524Y-100797619D01*
X163107143Y-100892857D01*
X163107143Y-101035714D01*
X163059524Y-101130952D01*
X163011905Y-101178571D01*
X162916667Y-101226190D01*
X162535714Y-101226190D01*
X163964286Y-101035714D02*
X163964286Y-101702381D01*
X163726190Y-100654762D02*
X163488095Y-101369048D01*
X164107143Y-101369048D01*
X164392857Y-100702381D02*
X165011905Y-100702381D01*
X164678571Y-101083333D01*
X164821429Y-101083333D01*
X164916667Y-101130952D01*
X164964286Y-101178571D01*
X165011905Y-101273810D01*
X165011905Y-101511905D01*
X164964286Y-101607143D01*
X164916667Y-101654762D01*
X164821429Y-101702381D01*
X164535714Y-101702381D01*
X164440476Y-101654762D01*
X164392857Y-101607143D01*
X176445381Y-114560857D02*
X175969190Y-114894191D01*
X176445381Y-115132286D02*
X175445381Y-115132286D01*
X175445381Y-114751333D01*
X175493000Y-114656095D01*
X175540619Y-114608476D01*
X175635857Y-114560857D01*
X175778714Y-114560857D01*
X175873952Y-114608476D01*
X175921571Y-114656095D01*
X175969190Y-114751333D01*
X175969190Y-115132286D01*
X175778714Y-113703714D02*
X176445381Y-113703714D01*
X175397762Y-113941810D02*
X176112048Y-114179905D01*
X176112048Y-113560857D01*
X175445381Y-112703714D02*
X175445381Y-113179905D01*
X175921571Y-113227524D01*
X175873952Y-113179905D01*
X175826333Y-113084667D01*
X175826333Y-112846571D01*
X175873952Y-112751333D01*
X175921571Y-112703714D01*
X176016810Y-112656095D01*
X176254905Y-112656095D01*
X176350143Y-112703714D01*
X176397762Y-112751333D01*
X176445381Y-112846571D01*
X176445381Y-113084667D01*
X176397762Y-113179905D01*
X176350143Y-113227524D01*
X175731143Y-110179381D02*
X175397809Y-109703190D01*
X175159714Y-110179381D02*
X175159714Y-109179381D01*
X175540667Y-109179381D01*
X175635905Y-109227000D01*
X175683524Y-109274619D01*
X175731143Y-109369857D01*
X175731143Y-109512714D01*
X175683524Y-109607952D01*
X175635905Y-109655571D01*
X175540667Y-109703190D01*
X175159714Y-109703190D01*
X176588286Y-109512714D02*
X176588286Y-110179381D01*
X176350190Y-109131762D02*
X176112095Y-109846048D01*
X176731143Y-109846048D01*
X177540667Y-109179381D02*
X177350190Y-109179381D01*
X177254952Y-109227000D01*
X177207333Y-109274619D01*
X177112095Y-109417476D01*
X177064476Y-109607952D01*
X177064476Y-109988905D01*
X177112095Y-110084143D01*
X177159714Y-110131762D01*
X177254952Y-110179381D01*
X177445429Y-110179381D01*
X177540667Y-110131762D01*
X177588286Y-110084143D01*
X177635905Y-109988905D01*
X177635905Y-109750810D01*
X177588286Y-109655571D01*
X177540667Y-109607952D01*
X177445429Y-109560333D01*
X177254952Y-109560333D01*
X177159714Y-109607952D01*
X177112095Y-109655571D01*
X177064476Y-109750810D01*
X179033143Y-119577381D02*
X178699809Y-119101190D01*
X178461714Y-119577381D02*
X178461714Y-118577381D01*
X178842667Y-118577381D01*
X178937905Y-118625000D01*
X178985524Y-118672619D01*
X179033143Y-118767857D01*
X179033143Y-118910714D01*
X178985524Y-119005952D01*
X178937905Y-119053571D01*
X178842667Y-119101190D01*
X178461714Y-119101190D01*
X179890286Y-118910714D02*
X179890286Y-119577381D01*
X179652190Y-118529762D02*
X179414095Y-119244048D01*
X180033143Y-119244048D01*
X180318857Y-118577381D02*
X180985524Y-118577381D01*
X180556952Y-119577381D01*
X155665143Y-99130381D02*
X155331809Y-98654190D01*
X155093714Y-99130381D02*
X155093714Y-98130381D01*
X155474667Y-98130381D01*
X155569905Y-98178000D01*
X155617524Y-98225619D01*
X155665143Y-98320857D01*
X155665143Y-98463714D01*
X155617524Y-98558952D01*
X155569905Y-98606571D01*
X155474667Y-98654190D01*
X155093714Y-98654190D01*
X156522286Y-98463714D02*
X156522286Y-99130381D01*
X156284190Y-98082762D02*
X156046095Y-98797048D01*
X156665143Y-98797048D01*
X157188952Y-98558952D02*
X157093714Y-98511333D01*
X157046095Y-98463714D01*
X156998476Y-98368476D01*
X156998476Y-98320857D01*
X157046095Y-98225619D01*
X157093714Y-98178000D01*
X157188952Y-98130381D01*
X157379429Y-98130381D01*
X157474667Y-98178000D01*
X157522286Y-98225619D01*
X157569905Y-98320857D01*
X157569905Y-98368476D01*
X157522286Y-98463714D01*
X157474667Y-98511333D01*
X157379429Y-98558952D01*
X157188952Y-98558952D01*
X157093714Y-98606571D01*
X157046095Y-98654190D01*
X156998476Y-98749429D01*
X156998476Y-98939905D01*
X157046095Y-99035143D01*
X157093714Y-99082762D01*
X157188952Y-99130381D01*
X157379429Y-99130381D01*
X157474667Y-99082762D01*
X157522286Y-99035143D01*
X157569905Y-98939905D01*
X157569905Y-98749429D01*
X157522286Y-98654190D01*
X157474667Y-98606571D01*
X157379429Y-98558952D01*
X179747381Y-106686857D02*
X179271190Y-107020191D01*
X179747381Y-107258286D02*
X178747381Y-107258286D01*
X178747381Y-106877333D01*
X178795000Y-106782095D01*
X178842619Y-106734476D01*
X178937857Y-106686857D01*
X179080714Y-106686857D01*
X179175952Y-106734476D01*
X179223571Y-106782095D01*
X179271190Y-106877333D01*
X179271190Y-107258286D01*
X179080714Y-105829714D02*
X179747381Y-105829714D01*
X178699762Y-106067810D02*
X179414048Y-106305905D01*
X179414048Y-105686857D01*
X179747381Y-105258286D02*
X179747381Y-105067810D01*
X179699762Y-104972571D01*
X179652143Y-104924952D01*
X179509286Y-104829714D01*
X179318810Y-104782095D01*
X178937857Y-104782095D01*
X178842619Y-104829714D01*
X178795000Y-104877333D01*
X178747381Y-104972571D01*
X178747381Y-105163048D01*
X178795000Y-105258286D01*
X178842619Y-105305905D01*
X178937857Y-105353524D01*
X179175952Y-105353524D01*
X179271190Y-105305905D01*
X179318810Y-105258286D01*
X179366429Y-105163048D01*
X179366429Y-104972571D01*
X179318810Y-104877333D01*
X179271190Y-104829714D01*
X179175952Y-104782095D01*
X183986143Y-103829381D02*
X183652809Y-103353190D01*
X183414714Y-103829381D02*
X183414714Y-102829381D01*
X183795667Y-102829381D01*
X183890905Y-102877000D01*
X183938524Y-102924619D01*
X183986143Y-103019857D01*
X183986143Y-103162714D01*
X183938524Y-103257952D01*
X183890905Y-103305571D01*
X183795667Y-103353190D01*
X183414714Y-103353190D01*
X184890905Y-102829381D02*
X184414714Y-102829381D01*
X184367095Y-103305571D01*
X184414714Y-103257952D01*
X184509952Y-103210333D01*
X184748048Y-103210333D01*
X184843286Y-103257952D01*
X184890905Y-103305571D01*
X184938524Y-103400810D01*
X184938524Y-103638905D01*
X184890905Y-103734143D01*
X184843286Y-103781762D01*
X184748048Y-103829381D01*
X184509952Y-103829381D01*
X184414714Y-103781762D01*
X184367095Y-103734143D01*
X185557571Y-102829381D02*
X185652810Y-102829381D01*
X185748048Y-102877000D01*
X185795667Y-102924619D01*
X185843286Y-103019857D01*
X185890905Y-103210333D01*
X185890905Y-103448429D01*
X185843286Y-103638905D01*
X185795667Y-103734143D01*
X185748048Y-103781762D01*
X185652810Y-103829381D01*
X185557571Y-103829381D01*
X185462333Y-103781762D01*
X185414714Y-103734143D01*
X185367095Y-103638905D01*
X185319476Y-103448429D01*
X185319476Y-103210333D01*
X185367095Y-103019857D01*
X185414714Y-102924619D01*
X185462333Y-102877000D01*
X185557571Y-102829381D01*
X157903381Y-89922857D02*
X157427190Y-90256191D01*
X157903381Y-90494286D02*
X156903381Y-90494286D01*
X156903381Y-90113333D01*
X156951000Y-90018095D01*
X156998619Y-89970476D01*
X157093857Y-89922857D01*
X157236714Y-89922857D01*
X157331952Y-89970476D01*
X157379571Y-90018095D01*
X157427190Y-90113333D01*
X157427190Y-90494286D01*
X156903381Y-89018095D02*
X156903381Y-89494286D01*
X157379571Y-89541905D01*
X157331952Y-89494286D01*
X157284333Y-89399048D01*
X157284333Y-89160952D01*
X157331952Y-89065714D01*
X157379571Y-89018095D01*
X157474810Y-88970476D01*
X157712905Y-88970476D01*
X157808143Y-89018095D01*
X157855762Y-89065714D01*
X157903381Y-89160952D01*
X157903381Y-89399048D01*
X157855762Y-89494286D01*
X157808143Y-89541905D01*
X157903381Y-88018095D02*
X157903381Y-88589524D01*
X157903381Y-88303810D02*
X156903381Y-88303810D01*
X157046238Y-88399048D01*
X157141476Y-88494286D01*
X157189095Y-88589524D01*
X179239381Y-109607857D02*
X178763190Y-109941191D01*
X179239381Y-110179286D02*
X178239381Y-110179286D01*
X178239381Y-109798333D01*
X178287000Y-109703095D01*
X178334619Y-109655476D01*
X178429857Y-109607857D01*
X178572714Y-109607857D01*
X178667952Y-109655476D01*
X178715571Y-109703095D01*
X178763190Y-109798333D01*
X178763190Y-110179286D01*
X178239381Y-108703095D02*
X178239381Y-109179286D01*
X178715571Y-109226905D01*
X178667952Y-109179286D01*
X178620333Y-109084048D01*
X178620333Y-108845952D01*
X178667952Y-108750714D01*
X178715571Y-108703095D01*
X178810810Y-108655476D01*
X179048905Y-108655476D01*
X179144143Y-108703095D01*
X179191762Y-108750714D01*
X179239381Y-108845952D01*
X179239381Y-109084048D01*
X179191762Y-109179286D01*
X179144143Y-109226905D01*
X178239381Y-108322143D02*
X178239381Y-107703095D01*
X178620333Y-108036429D01*
X178620333Y-107893571D01*
X178667952Y-107798333D01*
X178715571Y-107750714D01*
X178810810Y-107703095D01*
X179048905Y-107703095D01*
X179144143Y-107750714D01*
X179191762Y-107798333D01*
X179239381Y-107893571D01*
X179239381Y-108179286D01*
X179191762Y-108274524D01*
X179144143Y-108322143D01*
X183478143Y-107131381D02*
X183144809Y-106655190D01*
X182906714Y-107131381D02*
X182906714Y-106131381D01*
X183287667Y-106131381D01*
X183382905Y-106179000D01*
X183430524Y-106226619D01*
X183478143Y-106321857D01*
X183478143Y-106464714D01*
X183430524Y-106559952D01*
X183382905Y-106607571D01*
X183287667Y-106655190D01*
X182906714Y-106655190D01*
X184382905Y-106131381D02*
X183906714Y-106131381D01*
X183859095Y-106607571D01*
X183906714Y-106559952D01*
X184001952Y-106512333D01*
X184240048Y-106512333D01*
X184335286Y-106559952D01*
X184382905Y-106607571D01*
X184430524Y-106702810D01*
X184430524Y-106940905D01*
X184382905Y-107036143D01*
X184335286Y-107083762D01*
X184240048Y-107131381D01*
X184001952Y-107131381D01*
X183906714Y-107083762D01*
X183859095Y-107036143D01*
X185287667Y-106464714D02*
X185287667Y-107131381D01*
X185049571Y-106083762D02*
X184811476Y-106798048D01*
X185430524Y-106798048D01*
X160443381Y-89922857D02*
X159967190Y-90256191D01*
X160443381Y-90494286D02*
X159443381Y-90494286D01*
X159443381Y-90113333D01*
X159491000Y-90018095D01*
X159538619Y-89970476D01*
X159633857Y-89922857D01*
X159776714Y-89922857D01*
X159871952Y-89970476D01*
X159919571Y-90018095D01*
X159967190Y-90113333D01*
X159967190Y-90494286D01*
X159443381Y-89018095D02*
X159443381Y-89494286D01*
X159919571Y-89541905D01*
X159871952Y-89494286D01*
X159824333Y-89399048D01*
X159824333Y-89160952D01*
X159871952Y-89065714D01*
X159919571Y-89018095D01*
X160014810Y-88970476D01*
X160252905Y-88970476D01*
X160348143Y-89018095D01*
X160395762Y-89065714D01*
X160443381Y-89160952D01*
X160443381Y-89399048D01*
X160395762Y-89494286D01*
X160348143Y-89541905D01*
X159443381Y-88065714D02*
X159443381Y-88541905D01*
X159919571Y-88589524D01*
X159871952Y-88541905D01*
X159824333Y-88446667D01*
X159824333Y-88208571D01*
X159871952Y-88113333D01*
X159919571Y-88065714D01*
X160014810Y-88018095D01*
X160252905Y-88018095D01*
X160348143Y-88065714D01*
X160395762Y-88113333D01*
X160443381Y-88208571D01*
X160443381Y-88446667D01*
X160395762Y-88541905D01*
X160348143Y-88589524D01*
X117452381Y-64238095D02*
X116452381Y-64238095D01*
X116452381Y-63857142D01*
X116500000Y-63761904D01*
X116547619Y-63714285D01*
X116642857Y-63666666D01*
X116785714Y-63666666D01*
X116880952Y-63714285D01*
X116928571Y-63761904D01*
X116976190Y-63857142D01*
X116976190Y-64238095D01*
X117452381Y-62714285D02*
X117452381Y-63285714D01*
X117452381Y-63000000D02*
X116452381Y-63000000D01*
X116595238Y-63095238D01*
X116690476Y-63190476D01*
X116738095Y-63285714D01*
X117452381Y-76738095D02*
X116452381Y-76738095D01*
X116452381Y-76357142D01*
X116500000Y-76261904D01*
X116547619Y-76214285D01*
X116642857Y-76166666D01*
X116785714Y-76166666D01*
X116880952Y-76214285D01*
X116928571Y-76261904D01*
X116976190Y-76357142D01*
X116976190Y-76738095D01*
X116547619Y-75785714D02*
X116500000Y-75738095D01*
X116452381Y-75642857D01*
X116452381Y-75404761D01*
X116500000Y-75309523D01*
X116547619Y-75261904D01*
X116642857Y-75214285D01*
X116738095Y-75214285D01*
X116880952Y-75261904D01*
X117452381Y-75833333D01*
X117452381Y-75214285D01*
X148489667Y-116799381D02*
X148489667Y-117513667D01*
X148442047Y-117656524D01*
X148346809Y-117751762D01*
X148203952Y-117799381D01*
X148108714Y-117799381D01*
X148965857Y-117799381D02*
X148965857Y-116799381D01*
X149346810Y-116799381D01*
X149442048Y-116847000D01*
X149489667Y-116894619D01*
X149537286Y-116989857D01*
X149537286Y-117132714D01*
X149489667Y-117227952D01*
X149442048Y-117275571D01*
X149346810Y-117323190D01*
X148965857Y-117323190D01*
X150489667Y-117799381D02*
X149918238Y-117799381D01*
X150203952Y-117799381D02*
X150203952Y-116799381D01*
X150108714Y-116942238D01*
X150013476Y-117037476D01*
X149918238Y-117085095D01*
X158649667Y-132674381D02*
X158649667Y-133388667D01*
X158602047Y-133531524D01*
X158506809Y-133626762D01*
X158363952Y-133674381D01*
X158268714Y-133674381D01*
X159125857Y-133674381D02*
X159125857Y-132674381D01*
X159506810Y-132674381D01*
X159602048Y-132722000D01*
X159649667Y-132769619D01*
X159697286Y-132864857D01*
X159697286Y-133007714D01*
X159649667Y-133102952D01*
X159602048Y-133150571D01*
X159506810Y-133198190D01*
X159125857Y-133198190D01*
X160030619Y-132674381D02*
X160697286Y-132674381D01*
X160268714Y-133674381D01*
X143822334Y-68936143D02*
X143774715Y-68983762D01*
X143631858Y-69031381D01*
X143536620Y-69031381D01*
X143393762Y-68983762D01*
X143298524Y-68888524D01*
X143250905Y-68793286D01*
X143203286Y-68602810D01*
X143203286Y-68459952D01*
X143250905Y-68269476D01*
X143298524Y-68174238D01*
X143393762Y-68079000D01*
X143536620Y-68031381D01*
X143631858Y-68031381D01*
X143774715Y-68079000D01*
X143822334Y-68126619D01*
X144155667Y-68031381D02*
X144822334Y-68031381D01*
X144393762Y-69031381D01*
X136964334Y-76607143D02*
X136916715Y-76654762D01*
X136773858Y-76702381D01*
X136678620Y-76702381D01*
X136535762Y-76654762D01*
X136440524Y-76559524D01*
X136392905Y-76464286D01*
X136345286Y-76273810D01*
X136345286Y-76130952D01*
X136392905Y-75940476D01*
X136440524Y-75845238D01*
X136535762Y-75750000D01*
X136678620Y-75702381D01*
X136773858Y-75702381D01*
X136916715Y-75750000D01*
X136964334Y-75797619D01*
X137440524Y-76702381D02*
X137631000Y-76702381D01*
X137726239Y-76654762D01*
X137773858Y-76607143D01*
X137869096Y-76464286D01*
X137916715Y-76273810D01*
X137916715Y-75892857D01*
X137869096Y-75797619D01*
X137821477Y-75750000D01*
X137726239Y-75702381D01*
X137535762Y-75702381D01*
X137440524Y-75750000D01*
X137392905Y-75797619D01*
X137345286Y-75892857D01*
X137345286Y-76130952D01*
X137392905Y-76226190D01*
X137440524Y-76273810D01*
X137535762Y-76321429D01*
X137726239Y-76321429D01*
X137821477Y-76273810D01*
X137869096Y-76226190D01*
X137916715Y-76130952D01*
X134607143Y-66642857D02*
X134654762Y-66690476D01*
X134702381Y-66833333D01*
X134702381Y-66928571D01*
X134654762Y-67071429D01*
X134559524Y-67166667D01*
X134464286Y-67214286D01*
X134273810Y-67261905D01*
X134130952Y-67261905D01*
X133940476Y-67214286D01*
X133845238Y-67166667D01*
X133750000Y-67071429D01*
X133702381Y-66928571D01*
X133702381Y-66833333D01*
X133750000Y-66690476D01*
X133797619Y-66642857D01*
X133702381Y-65785714D02*
X133702381Y-65976191D01*
X133750000Y-66071429D01*
X133797619Y-66119048D01*
X133940476Y-66214286D01*
X134130952Y-66261905D01*
X134511905Y-66261905D01*
X134607143Y-66214286D01*
X134654762Y-66166667D01*
X134702381Y-66071429D01*
X134702381Y-65880952D01*
X134654762Y-65785714D01*
X134607143Y-65738095D01*
X134511905Y-65690476D01*
X134273810Y-65690476D01*
X134178571Y-65738095D01*
X134130952Y-65785714D01*
X134083333Y-65880952D01*
X134083333Y-66071429D01*
X134130952Y-66166667D01*
X134178571Y-66214286D01*
X134273810Y-66261905D01*
X134702381Y-64738095D02*
X134702381Y-65309524D01*
X134702381Y-65023810D02*
X133702381Y-65023810D01*
X133845238Y-65119048D01*
X133940476Y-65214286D01*
X133988095Y-65309524D01*
X134607143Y-48892857D02*
X134654762Y-48940476D01*
X134702381Y-49083333D01*
X134702381Y-49178571D01*
X134654762Y-49321429D01*
X134559524Y-49416667D01*
X134464286Y-49464286D01*
X134273810Y-49511905D01*
X134130952Y-49511905D01*
X133940476Y-49464286D01*
X133845238Y-49416667D01*
X133750000Y-49321429D01*
X133702381Y-49178571D01*
X133702381Y-49083333D01*
X133750000Y-48940476D01*
X133797619Y-48892857D01*
X133702381Y-48035714D02*
X133702381Y-48226191D01*
X133750000Y-48321429D01*
X133797619Y-48369048D01*
X133940476Y-48464286D01*
X134130952Y-48511905D01*
X134511905Y-48511905D01*
X134607143Y-48464286D01*
X134654762Y-48416667D01*
X134702381Y-48321429D01*
X134702381Y-48130952D01*
X134654762Y-48035714D01*
X134607143Y-47988095D01*
X134511905Y-47940476D01*
X134273810Y-47940476D01*
X134178571Y-47988095D01*
X134130952Y-48035714D01*
X134083333Y-48130952D01*
X134083333Y-48321429D01*
X134130952Y-48416667D01*
X134178571Y-48464286D01*
X134273810Y-48511905D01*
X133797619Y-47559524D02*
X133750000Y-47511905D01*
X133702381Y-47416667D01*
X133702381Y-47178571D01*
X133750000Y-47083333D01*
X133797619Y-47035714D01*
X133892857Y-46988095D01*
X133988095Y-46988095D01*
X134130952Y-47035714D01*
X134702381Y-47607143D01*
X134702381Y-46988095D01*
X153617143Y-64395857D02*
X153664762Y-64443476D01*
X153712381Y-64586333D01*
X153712381Y-64681571D01*
X153664762Y-64824429D01*
X153569524Y-64919667D01*
X153474286Y-64967286D01*
X153283810Y-65014905D01*
X153140952Y-65014905D01*
X152950476Y-64967286D01*
X152855238Y-64919667D01*
X152760000Y-64824429D01*
X152712381Y-64681571D01*
X152712381Y-64586333D01*
X152760000Y-64443476D01*
X152807619Y-64395857D01*
X152712381Y-63538714D02*
X152712381Y-63729191D01*
X152760000Y-63824429D01*
X152807619Y-63872048D01*
X152950476Y-63967286D01*
X153140952Y-64014905D01*
X153521905Y-64014905D01*
X153617143Y-63967286D01*
X153664762Y-63919667D01*
X153712381Y-63824429D01*
X153712381Y-63633952D01*
X153664762Y-63538714D01*
X153617143Y-63491095D01*
X153521905Y-63443476D01*
X153283810Y-63443476D01*
X153188571Y-63491095D01*
X153140952Y-63538714D01*
X153093333Y-63633952D01*
X153093333Y-63824429D01*
X153140952Y-63919667D01*
X153188571Y-63967286D01*
X153283810Y-64014905D01*
X152712381Y-63110143D02*
X152712381Y-62491095D01*
X153093333Y-62824429D01*
X153093333Y-62681571D01*
X153140952Y-62586333D01*
X153188571Y-62538714D01*
X153283810Y-62491095D01*
X153521905Y-62491095D01*
X153617143Y-62538714D01*
X153664762Y-62586333D01*
X153712381Y-62681571D01*
X153712381Y-62967286D01*
X153664762Y-63062524D01*
X153617143Y-63110143D01*
X153617143Y-51314857D02*
X153664762Y-51362476D01*
X153712381Y-51505333D01*
X153712381Y-51600571D01*
X153664762Y-51743429D01*
X153569524Y-51838667D01*
X153474286Y-51886286D01*
X153283810Y-51933905D01*
X153140952Y-51933905D01*
X152950476Y-51886286D01*
X152855238Y-51838667D01*
X152760000Y-51743429D01*
X152712381Y-51600571D01*
X152712381Y-51505333D01*
X152760000Y-51362476D01*
X152807619Y-51314857D01*
X152712381Y-50457714D02*
X152712381Y-50648191D01*
X152760000Y-50743429D01*
X152807619Y-50791048D01*
X152950476Y-50886286D01*
X153140952Y-50933905D01*
X153521905Y-50933905D01*
X153617143Y-50886286D01*
X153664762Y-50838667D01*
X153712381Y-50743429D01*
X153712381Y-50552952D01*
X153664762Y-50457714D01*
X153617143Y-50410095D01*
X153521905Y-50362476D01*
X153283810Y-50362476D01*
X153188571Y-50410095D01*
X153140952Y-50457714D01*
X153093333Y-50552952D01*
X153093333Y-50743429D01*
X153140952Y-50838667D01*
X153188571Y-50886286D01*
X153283810Y-50933905D01*
X153045714Y-49505333D02*
X153712381Y-49505333D01*
X152664762Y-49743429D02*
X153379048Y-49981524D01*
X153379048Y-49362476D01*
X150823143Y-64395857D02*
X150870762Y-64443476D01*
X150918381Y-64586333D01*
X150918381Y-64681571D01*
X150870762Y-64824429D01*
X150775524Y-64919667D01*
X150680286Y-64967286D01*
X150489810Y-65014905D01*
X150346952Y-65014905D01*
X150156476Y-64967286D01*
X150061238Y-64919667D01*
X149966000Y-64824429D01*
X149918381Y-64681571D01*
X149918381Y-64586333D01*
X149966000Y-64443476D01*
X150013619Y-64395857D01*
X149918381Y-63538714D02*
X149918381Y-63729191D01*
X149966000Y-63824429D01*
X150013619Y-63872048D01*
X150156476Y-63967286D01*
X150346952Y-64014905D01*
X150727905Y-64014905D01*
X150823143Y-63967286D01*
X150870762Y-63919667D01*
X150918381Y-63824429D01*
X150918381Y-63633952D01*
X150870762Y-63538714D01*
X150823143Y-63491095D01*
X150727905Y-63443476D01*
X150489810Y-63443476D01*
X150394571Y-63491095D01*
X150346952Y-63538714D01*
X150299333Y-63633952D01*
X150299333Y-63824429D01*
X150346952Y-63919667D01*
X150394571Y-63967286D01*
X150489810Y-64014905D01*
X149918381Y-62538714D02*
X149918381Y-63014905D01*
X150394571Y-63062524D01*
X150346952Y-63014905D01*
X150299333Y-62919667D01*
X150299333Y-62681571D01*
X150346952Y-62586333D01*
X150394571Y-62538714D01*
X150489810Y-62491095D01*
X150727905Y-62491095D01*
X150823143Y-62538714D01*
X150870762Y-62586333D01*
X150918381Y-62681571D01*
X150918381Y-62919667D01*
X150870762Y-63014905D01*
X150823143Y-63062524D01*
X178488095Y-76159381D02*
X178488095Y-76968905D01*
X178535714Y-77064143D01*
X178583333Y-77111762D01*
X178678571Y-77159381D01*
X178869048Y-77159381D01*
X178964286Y-77111762D01*
X179011905Y-77064143D01*
X179059524Y-76968905D01*
X179059524Y-76159381D01*
X180011905Y-76159381D02*
X179535714Y-76159381D01*
X179488095Y-76635571D01*
X179535714Y-76587952D01*
X179630952Y-76540333D01*
X179869048Y-76540333D01*
X179964286Y-76587952D01*
X180011905Y-76635571D01*
X180059524Y-76730810D01*
X180059524Y-76968905D01*
X180011905Y-77064143D01*
X179964286Y-77111762D01*
X179869048Y-77159381D01*
X179630952Y-77159381D01*
X179535714Y-77111762D01*
X179488095Y-77064143D01*
X178488095Y-73452381D02*
X178488095Y-74261905D01*
X178535714Y-74357143D01*
X178583333Y-74404762D01*
X178678571Y-74452381D01*
X178869048Y-74452381D01*
X178964286Y-74404762D01*
X179011905Y-74357143D01*
X179059524Y-74261905D01*
X179059524Y-73452381D01*
X179964286Y-73452381D02*
X179773809Y-73452381D01*
X179678571Y-73500000D01*
X179630952Y-73547619D01*
X179535714Y-73690476D01*
X179488095Y-73880952D01*
X179488095Y-74261905D01*
X179535714Y-74357143D01*
X179583333Y-74404762D01*
X179678571Y-74452381D01*
X179869048Y-74452381D01*
X179964286Y-74404762D01*
X180011905Y-74357143D01*
X180059524Y-74261905D01*
X180059524Y-74023810D01*
X180011905Y-73928571D01*
X179964286Y-73880952D01*
X179869048Y-73833333D01*
X179678571Y-73833333D01*
X179583333Y-73880952D01*
X179535714Y-73928571D01*
X179488095Y-74023810D01*
X177202381Y-128238095D02*
X176202381Y-128238095D01*
X176202381Y-128000000D01*
X176250000Y-127857142D01*
X176345238Y-127761904D01*
X176440476Y-127714285D01*
X176630952Y-127666666D01*
X176773810Y-127666666D01*
X176964286Y-127714285D01*
X177059524Y-127761904D01*
X177154762Y-127857142D01*
X177202381Y-128000000D01*
X177202381Y-128238095D01*
X176202381Y-126761904D02*
X176202381Y-127238095D01*
X176678571Y-127285714D01*
X176630952Y-127238095D01*
X176583333Y-127142857D01*
X176583333Y-126904761D01*
X176630952Y-126809523D01*
X176678571Y-126761904D01*
X176773810Y-126714285D01*
X177011905Y-126714285D01*
X177107143Y-126761904D01*
X177154762Y-126809523D01*
X177202381Y-126904761D01*
X177202381Y-127142857D01*
X177154762Y-127238095D01*
X177107143Y-127285714D01*
X183511905Y-126952381D02*
X183511905Y-125952381D01*
X183750000Y-125952381D01*
X183892858Y-126000000D01*
X183988096Y-126095238D01*
X184035715Y-126190476D01*
X184083334Y-126380952D01*
X184083334Y-126523810D01*
X184035715Y-126714286D01*
X183988096Y-126809524D01*
X183892858Y-126904762D01*
X183750000Y-126952381D01*
X183511905Y-126952381D01*
X184464286Y-126047619D02*
X184511905Y-126000000D01*
X184607143Y-125952381D01*
X184845239Y-125952381D01*
X184940477Y-126000000D01*
X184988096Y-126047619D01*
X185035715Y-126142857D01*
X185035715Y-126238095D01*
X184988096Y-126380952D01*
X184416667Y-126952381D01*
X185035715Y-126952381D01*
X180202381Y-123988095D02*
X179202381Y-123988095D01*
X179202381Y-123750000D01*
X179250000Y-123607142D01*
X179345238Y-123511904D01*
X179440476Y-123464285D01*
X179630952Y-123416666D01*
X179773810Y-123416666D01*
X179964286Y-123464285D01*
X180059524Y-123511904D01*
X180154762Y-123607142D01*
X180202381Y-123750000D01*
X180202381Y-123988095D01*
X179202381Y-123083333D02*
X179202381Y-122464285D01*
X179583333Y-122797619D01*
X179583333Y-122654761D01*
X179630952Y-122559523D01*
X179678571Y-122511904D01*
X179773810Y-122464285D01*
X180011905Y-122464285D01*
X180107143Y-122511904D01*
X180154762Y-122559523D01*
X180202381Y-122654761D01*
X180202381Y-122940476D01*
X180154762Y-123035714D01*
X180107143Y-123083333D01*
X142107143Y-66952381D02*
X141773809Y-66476190D01*
X141535714Y-66952381D02*
X141535714Y-65952381D01*
X141916667Y-65952381D01*
X142011905Y-66000000D01*
X142059524Y-66047619D01*
X142107143Y-66142857D01*
X142107143Y-66285714D01*
X142059524Y-66380952D01*
X142011905Y-66428571D01*
X141916667Y-66476190D01*
X141535714Y-66476190D01*
X142488095Y-66047619D02*
X142535714Y-66000000D01*
X142630952Y-65952381D01*
X142869048Y-65952381D01*
X142964286Y-66000000D01*
X143011905Y-66047619D01*
X143059524Y-66142857D01*
X143059524Y-66238095D01*
X143011905Y-66380952D01*
X142440476Y-66952381D01*
X143059524Y-66952381D01*
X143392857Y-65952381D02*
X144011905Y-65952381D01*
X143678571Y-66333333D01*
X143821429Y-66333333D01*
X143916667Y-66380952D01*
X143964286Y-66428571D01*
X144011905Y-66523810D01*
X144011905Y-66761905D01*
X143964286Y-66857143D01*
X143916667Y-66904762D01*
X143821429Y-66952381D01*
X143535714Y-66952381D01*
X143440476Y-66904762D01*
X143392857Y-66857143D01*
X147449762Y-134150619D02*
X147354524Y-134103000D01*
X147259286Y-134007762D01*
X147116429Y-133864905D01*
X147021190Y-133817286D01*
X146925952Y-133817286D01*
X146973571Y-134055381D02*
X146878333Y-134007762D01*
X146783095Y-133912524D01*
X146735476Y-133722048D01*
X146735476Y-133388714D01*
X146783095Y-133198238D01*
X146878333Y-133103000D01*
X146973571Y-133055381D01*
X147164048Y-133055381D01*
X147259286Y-133103000D01*
X147354524Y-133198238D01*
X147402143Y-133388714D01*
X147402143Y-133722048D01*
X147354524Y-133912524D01*
X147259286Y-134007762D01*
X147164048Y-134055381D01*
X146973571Y-134055381D01*
X148259286Y-133055381D02*
X148068809Y-133055381D01*
X147973571Y-133103000D01*
X147925952Y-133150619D01*
X147830714Y-133293476D01*
X147783095Y-133483952D01*
X147783095Y-133864905D01*
X147830714Y-133960143D01*
X147878333Y-134007762D01*
X147973571Y-134055381D01*
X148164048Y-134055381D01*
X148259286Y-134007762D01*
X148306905Y-133960143D01*
X148354524Y-133864905D01*
X148354524Y-133626810D01*
X148306905Y-133531571D01*
X148259286Y-133483952D01*
X148164048Y-133436333D01*
X147973571Y-133436333D01*
X147878333Y-133483952D01*
X147830714Y-133531571D01*
X147783095Y-133626810D01*
X170263762Y-116827119D02*
X170168524Y-116779500D01*
X170073286Y-116684262D01*
X169930429Y-116541405D01*
X169835190Y-116493786D01*
X169739952Y-116493786D01*
X169787571Y-116731881D02*
X169692333Y-116684262D01*
X169597095Y-116589024D01*
X169549476Y-116398548D01*
X169549476Y-116065214D01*
X169597095Y-115874738D01*
X169692333Y-115779500D01*
X169787571Y-115731881D01*
X169978048Y-115731881D01*
X170073286Y-115779500D01*
X170168524Y-115874738D01*
X170216143Y-116065214D01*
X170216143Y-116398548D01*
X170168524Y-116589024D01*
X170073286Y-116684262D01*
X169978048Y-116731881D01*
X169787571Y-116731881D01*
X170692333Y-116731881D02*
X170882809Y-116731881D01*
X170978048Y-116684262D01*
X171025667Y-116636643D01*
X171120905Y-116493786D01*
X171168524Y-116303310D01*
X171168524Y-115922357D01*
X171120905Y-115827119D01*
X171073286Y-115779500D01*
X170978048Y-115731881D01*
X170787571Y-115731881D01*
X170692333Y-115779500D01*
X170644714Y-115827119D01*
X170597095Y-115922357D01*
X170597095Y-116160452D01*
X170644714Y-116255690D01*
X170692333Y-116303310D01*
X170787571Y-116350929D01*
X170978048Y-116350929D01*
X171073286Y-116303310D01*
X171120905Y-116255690D01*
X171168524Y-116160452D01*
X165287572Y-116827119D02*
X165192334Y-116779500D01*
X165097096Y-116684262D01*
X164954239Y-116541405D01*
X164859000Y-116493786D01*
X164763762Y-116493786D01*
X164811381Y-116731881D02*
X164716143Y-116684262D01*
X164620905Y-116589024D01*
X164573286Y-116398548D01*
X164573286Y-116065214D01*
X164620905Y-115874738D01*
X164716143Y-115779500D01*
X164811381Y-115731881D01*
X165001858Y-115731881D01*
X165097096Y-115779500D01*
X165192334Y-115874738D01*
X165239953Y-116065214D01*
X165239953Y-116398548D01*
X165192334Y-116589024D01*
X165097096Y-116684262D01*
X165001858Y-116731881D01*
X164811381Y-116731881D01*
X166192334Y-116731881D02*
X165620905Y-116731881D01*
X165906619Y-116731881D02*
X165906619Y-115731881D01*
X165811381Y-115874738D01*
X165716143Y-115969976D01*
X165620905Y-116017595D01*
X166811381Y-115731881D02*
X166906620Y-115731881D01*
X167001858Y-115779500D01*
X167049477Y-115827119D01*
X167097096Y-115922357D01*
X167144715Y-116112833D01*
X167144715Y-116350929D01*
X167097096Y-116541405D01*
X167049477Y-116636643D01*
X167001858Y-116684262D01*
X166906620Y-116731881D01*
X166811381Y-116731881D01*
X166716143Y-116684262D01*
X166668524Y-116636643D01*
X166620905Y-116541405D01*
X166573286Y-116350929D01*
X166573286Y-116112833D01*
X166620905Y-115922357D01*
X166668524Y-115827119D01*
X166716143Y-115779500D01*
X166811381Y-115731881D01*
X165678572Y-107297619D02*
X165583334Y-107250000D01*
X165488096Y-107154762D01*
X165345239Y-107011905D01*
X165250000Y-106964286D01*
X165154762Y-106964286D01*
X165202381Y-107202381D02*
X165107143Y-107154762D01*
X165011905Y-107059524D01*
X164964286Y-106869048D01*
X164964286Y-106535714D01*
X165011905Y-106345238D01*
X165107143Y-106250000D01*
X165202381Y-106202381D01*
X165392858Y-106202381D01*
X165488096Y-106250000D01*
X165583334Y-106345238D01*
X165630953Y-106535714D01*
X165630953Y-106869048D01*
X165583334Y-107059524D01*
X165488096Y-107154762D01*
X165392858Y-107202381D01*
X165202381Y-107202381D01*
X166583334Y-107202381D02*
X166011905Y-107202381D01*
X166297619Y-107202381D02*
X166297619Y-106202381D01*
X166202381Y-106345238D01*
X166107143Y-106440476D01*
X166011905Y-106488095D01*
X167535715Y-107202381D02*
X166964286Y-107202381D01*
X167250000Y-107202381D02*
X167250000Y-106202381D01*
X167154762Y-106345238D01*
X167059524Y-106440476D01*
X166964286Y-106488095D01*
X169888572Y-107297619D02*
X169793334Y-107250000D01*
X169698096Y-107154762D01*
X169555239Y-107011905D01*
X169460000Y-106964286D01*
X169364762Y-106964286D01*
X169412381Y-107202381D02*
X169317143Y-107154762D01*
X169221905Y-107059524D01*
X169174286Y-106869048D01*
X169174286Y-106535714D01*
X169221905Y-106345238D01*
X169317143Y-106250000D01*
X169412381Y-106202381D01*
X169602858Y-106202381D01*
X169698096Y-106250000D01*
X169793334Y-106345238D01*
X169840953Y-106535714D01*
X169840953Y-106869048D01*
X169793334Y-107059524D01*
X169698096Y-107154762D01*
X169602858Y-107202381D01*
X169412381Y-107202381D01*
X170793334Y-107202381D02*
X170221905Y-107202381D01*
X170507619Y-107202381D02*
X170507619Y-106202381D01*
X170412381Y-106345238D01*
X170317143Y-106440476D01*
X170221905Y-106488095D01*
X171174286Y-106297619D02*
X171221905Y-106250000D01*
X171317143Y-106202381D01*
X171555239Y-106202381D01*
X171650477Y-106250000D01*
X171698096Y-106297619D01*
X171745715Y-106392857D01*
X171745715Y-106488095D01*
X171698096Y-106630952D01*
X171126667Y-107202381D01*
X171745715Y-107202381D01*
X178547619Y-104321428D02*
X178500000Y-104416666D01*
X178404762Y-104511904D01*
X178261905Y-104654761D01*
X178214286Y-104750000D01*
X178214286Y-104845238D01*
X178452381Y-104797619D02*
X178404762Y-104892857D01*
X178309524Y-104988095D01*
X178119048Y-105035714D01*
X177785714Y-105035714D01*
X177595238Y-104988095D01*
X177500000Y-104892857D01*
X177452381Y-104797619D01*
X177452381Y-104607142D01*
X177500000Y-104511904D01*
X177595238Y-104416666D01*
X177785714Y-104369047D01*
X178119048Y-104369047D01*
X178309524Y-104416666D01*
X178404762Y-104511904D01*
X178452381Y-104607142D01*
X178452381Y-104797619D01*
X178452381Y-103416666D02*
X178452381Y-103988095D01*
X178452381Y-103702381D02*
X177452381Y-103702381D01*
X177595238Y-103797619D01*
X177690476Y-103892857D01*
X177738095Y-103988095D01*
X177452381Y-103083333D02*
X177452381Y-102464285D01*
X177833333Y-102797619D01*
X177833333Y-102654761D01*
X177880952Y-102559523D01*
X177928571Y-102511904D01*
X178023810Y-102464285D01*
X178261905Y-102464285D01*
X178357143Y-102511904D01*
X178404762Y-102559523D01*
X178452381Y-102654761D01*
X178452381Y-102940476D01*
X178404762Y-103035714D01*
X178357143Y-103083333D01*
X151154762Y-111797619D02*
X151059524Y-111750000D01*
X150964286Y-111654762D01*
X150821429Y-111511905D01*
X150726190Y-111464286D01*
X150630952Y-111464286D01*
X150678571Y-111702381D02*
X150583333Y-111654762D01*
X150488095Y-111559524D01*
X150440476Y-111369048D01*
X150440476Y-111035714D01*
X150488095Y-110845238D01*
X150583333Y-110750000D01*
X150678571Y-110702381D01*
X150869048Y-110702381D01*
X150964286Y-110750000D01*
X151059524Y-110845238D01*
X151107143Y-111035714D01*
X151107143Y-111369048D01*
X151059524Y-111559524D01*
X150964286Y-111654762D01*
X150869048Y-111702381D01*
X150678571Y-111702381D01*
X151678571Y-111130952D02*
X151583333Y-111083333D01*
X151535714Y-111035714D01*
X151488095Y-110940476D01*
X151488095Y-110892857D01*
X151535714Y-110797619D01*
X151583333Y-110750000D01*
X151678571Y-110702381D01*
X151869048Y-110702381D01*
X151964286Y-110750000D01*
X152011905Y-110797619D01*
X152059524Y-110892857D01*
X152059524Y-110940476D01*
X152011905Y-111035714D01*
X151964286Y-111083333D01*
X151869048Y-111130952D01*
X151678571Y-111130952D01*
X151583333Y-111178571D01*
X151535714Y-111226190D01*
X151488095Y-111321429D01*
X151488095Y-111511905D01*
X151535714Y-111607143D01*
X151583333Y-111654762D01*
X151678571Y-111702381D01*
X151869048Y-111702381D01*
X151964286Y-111654762D01*
X152011905Y-111607143D01*
X152059524Y-111511905D01*
X152059524Y-111321429D01*
X152011905Y-111226190D01*
X151964286Y-111178571D01*
X151869048Y-111130952D01*
X147404762Y-111797619D02*
X147309524Y-111750000D01*
X147214286Y-111654762D01*
X147071429Y-111511905D01*
X146976190Y-111464286D01*
X146880952Y-111464286D01*
X146928571Y-111702381D02*
X146833333Y-111654762D01*
X146738095Y-111559524D01*
X146690476Y-111369048D01*
X146690476Y-111035714D01*
X146738095Y-110845238D01*
X146833333Y-110750000D01*
X146928571Y-110702381D01*
X147119048Y-110702381D01*
X147214286Y-110750000D01*
X147309524Y-110845238D01*
X147357143Y-111035714D01*
X147357143Y-111369048D01*
X147309524Y-111559524D01*
X147214286Y-111654762D01*
X147119048Y-111702381D01*
X146928571Y-111702381D01*
X148261905Y-110702381D02*
X147785714Y-110702381D01*
X147738095Y-111178571D01*
X147785714Y-111130952D01*
X147880952Y-111083333D01*
X148119048Y-111083333D01*
X148214286Y-111130952D01*
X148261905Y-111178571D01*
X148309524Y-111273810D01*
X148309524Y-111511905D01*
X148261905Y-111607143D01*
X148214286Y-111654762D01*
X148119048Y-111702381D01*
X147880952Y-111702381D01*
X147785714Y-111654762D01*
X147738095Y-111607143D01*
X164654762Y-57952381D02*
X164321428Y-57476190D01*
X164083333Y-57952381D02*
X164083333Y-56952381D01*
X164464286Y-56952381D01*
X164559524Y-57000000D01*
X164607143Y-57047619D01*
X164654762Y-57142857D01*
X164654762Y-57285714D01*
X164607143Y-57380952D01*
X164559524Y-57428571D01*
X164464286Y-57476190D01*
X164083333Y-57476190D01*
X164940476Y-56952381D02*
X165273809Y-57952381D01*
X165607143Y-56952381D01*
X166464286Y-57952381D02*
X165892857Y-57952381D01*
X166178571Y-57952381D02*
X166178571Y-56952381D01*
X166083333Y-57095238D01*
X165988095Y-57190476D01*
X165892857Y-57238095D01*
X156833334Y-71952381D02*
X156500000Y-71476190D01*
X156261905Y-71952381D02*
X156261905Y-70952381D01*
X156642858Y-70952381D01*
X156738096Y-71000000D01*
X156785715Y-71047619D01*
X156833334Y-71142857D01*
X156833334Y-71285714D01*
X156785715Y-71380952D01*
X156738096Y-71428571D01*
X156642858Y-71476190D01*
X156261905Y-71476190D01*
X157309524Y-71952381D02*
X157500000Y-71952381D01*
X157595239Y-71904762D01*
X157642858Y-71857143D01*
X157738096Y-71714286D01*
X157785715Y-71523810D01*
X157785715Y-71142857D01*
X157738096Y-71047619D01*
X157690477Y-71000000D01*
X157595239Y-70952381D01*
X157404762Y-70952381D01*
X157309524Y-71000000D01*
X157261905Y-71047619D01*
X157214286Y-71142857D01*
X157214286Y-71380952D01*
X157261905Y-71476190D01*
X157309524Y-71523810D01*
X157404762Y-71571429D01*
X157595239Y-71571429D01*
X157690477Y-71523810D01*
X157738096Y-71476190D01*
X157785715Y-71380952D01*
X162357143Y-71952381D02*
X162023809Y-71476190D01*
X161785714Y-71952381D02*
X161785714Y-70952381D01*
X162166667Y-70952381D01*
X162261905Y-71000000D01*
X162309524Y-71047619D01*
X162357143Y-71142857D01*
X162357143Y-71285714D01*
X162309524Y-71380952D01*
X162261905Y-71428571D01*
X162166667Y-71476190D01*
X161785714Y-71476190D01*
X163309524Y-71952381D02*
X162738095Y-71952381D01*
X163023809Y-71952381D02*
X163023809Y-70952381D01*
X162928571Y-71095238D01*
X162833333Y-71190476D01*
X162738095Y-71238095D01*
X163928571Y-70952381D02*
X164023810Y-70952381D01*
X164119048Y-71000000D01*
X164166667Y-71047619D01*
X164214286Y-71142857D01*
X164261905Y-71333333D01*
X164261905Y-71571429D01*
X164214286Y-71761905D01*
X164166667Y-71857143D01*
X164119048Y-71904762D01*
X164023810Y-71952381D01*
X163928571Y-71952381D01*
X163833333Y-71904762D01*
X163785714Y-71857143D01*
X163738095Y-71761905D01*
X163690476Y-71571429D01*
X163690476Y-71333333D01*
X163738095Y-71142857D01*
X163785714Y-71047619D01*
X163833333Y-71000000D01*
X163928571Y-70952381D01*
X121404762Y-93333333D02*
X121452381Y-93190476D01*
X121452381Y-92952380D01*
X121404762Y-92857142D01*
X121357143Y-92809523D01*
X121261905Y-92761904D01*
X121166667Y-92761904D01*
X121071429Y-92809523D01*
X121023810Y-92857142D01*
X120976190Y-92952380D01*
X120928571Y-93142857D01*
X120880952Y-93238095D01*
X120833333Y-93285714D01*
X120738095Y-93333333D01*
X120642857Y-93333333D01*
X120547619Y-93285714D01*
X120500000Y-93238095D01*
X120452381Y-93142857D01*
X120452381Y-92904761D01*
X120500000Y-92761904D01*
X120452381Y-92428571D02*
X121452381Y-92190476D01*
X120738095Y-91999999D01*
X121452381Y-91809523D01*
X120452381Y-91571428D01*
X120452381Y-91285714D02*
X120452381Y-90666666D01*
X120833333Y-91000000D01*
X120833333Y-90857142D01*
X120880952Y-90761904D01*
X120928571Y-90714285D01*
X121023810Y-90666666D01*
X121261905Y-90666666D01*
X121357143Y-90714285D01*
X121404762Y-90761904D01*
X121452381Y-90857142D01*
X121452381Y-91142857D01*
X121404762Y-91238095D01*
X121357143Y-91285714D01*
X121152762Y-123252333D02*
X121200381Y-123109476D01*
X121200381Y-122871380D01*
X121152762Y-122776142D01*
X121105143Y-122728523D01*
X121009905Y-122680904D01*
X120914667Y-122680904D01*
X120819429Y-122728523D01*
X120771810Y-122776142D01*
X120724190Y-122871380D01*
X120676571Y-123061857D01*
X120628952Y-123157095D01*
X120581333Y-123204714D01*
X120486095Y-123252333D01*
X120390857Y-123252333D01*
X120295619Y-123204714D01*
X120248000Y-123157095D01*
X120200381Y-123061857D01*
X120200381Y-122823761D01*
X120248000Y-122680904D01*
X120200381Y-122347571D02*
X121200381Y-122109476D01*
X120486095Y-121918999D01*
X121200381Y-121728523D01*
X120200381Y-121490428D01*
X121200381Y-120585666D02*
X121200381Y-121157095D01*
X121200381Y-120871381D02*
X120200381Y-120871381D01*
X120343238Y-120966619D01*
X120438476Y-121061857D01*
X120486095Y-121157095D01*
X174119381Y-112393905D02*
X174928905Y-112393905D01*
X175024143Y-112346286D01*
X175071762Y-112298667D01*
X175119381Y-112203429D01*
X175119381Y-112012952D01*
X175071762Y-111917714D01*
X175024143Y-111870095D01*
X174928905Y-111822476D01*
X174119381Y-111822476D01*
X174119381Y-111441524D02*
X174119381Y-110774857D01*
X175119381Y-111203429D01*
M02*
