G04 #@! TF.FileFunction,Copper,L3,Inr,Plane*
%FSLAX46Y46*%
G04 Gerber Fmt 4.6, Leading zero omitted, Abs format (unit mm)*
G04 Created by KiCad (PCBNEW 4.0.7-e2-6376~58~ubuntu16.04.1) date Tue May 15 22:20:39 2018*
%MOMM*%
%LPD*%
G01*
G04 APERTURE LIST*
%ADD10C,0.100000*%
%ADD11C,1.600000*%
%ADD12C,6.350000*%
%ADD13C,1.720000*%
%ADD14R,1.700000X1.700000*%
%ADD15O,1.700000X1.700000*%
%ADD16C,1.250000*%
%ADD17C,2.500000*%
%ADD18C,0.400000*%
%ADD19C,0.600000*%
%ADD20C,0.200000*%
%ADD21C,0.500000*%
G04 APERTURE END LIST*
D10*
D11*
X125500000Y-74000000D03*
X130500000Y-74000000D03*
X128000000Y-74000000D03*
D12*
X195810000Y-129920000D03*
X195810000Y-49910000D03*
X110080000Y-52450000D03*
X110080000Y-126110000D03*
D13*
X188190000Y-49910000D03*
X188190000Y-52450000D03*
X188190000Y-54990000D03*
X188190000Y-57530000D03*
X188190000Y-60070000D03*
X188190000Y-62610000D03*
X188190000Y-65150000D03*
X188190000Y-67690000D03*
X188190000Y-70230000D03*
X188190000Y-72770000D03*
X188190000Y-75310000D03*
X188190000Y-77850000D03*
X188190000Y-80390000D03*
X188190000Y-82930000D03*
X188190000Y-85470000D03*
X188190000Y-88010000D03*
X188190000Y-90550000D03*
X188190000Y-93090000D03*
X188190000Y-95630000D03*
X188190000Y-98170000D03*
X188190000Y-100710000D03*
X188190000Y-103250000D03*
X188190000Y-105790000D03*
X188190000Y-108330000D03*
X188190000Y-110870000D03*
X188190000Y-113410000D03*
X188190000Y-115950000D03*
X188190000Y-118490000D03*
X188190000Y-121030000D03*
X188190000Y-123570000D03*
X188190000Y-126110000D03*
X188190000Y-128650000D03*
X190730000Y-49910000D03*
X190730000Y-52450000D03*
X190730000Y-54990000D03*
X190730000Y-57530000D03*
X190730000Y-60070000D03*
X190730000Y-62610000D03*
X190730000Y-65150000D03*
X190730000Y-67690000D03*
X190730000Y-70230000D03*
X190730000Y-72770000D03*
X190730000Y-75310000D03*
X190730000Y-77850000D03*
X190730000Y-80390000D03*
X190730000Y-82930000D03*
X190730000Y-85470000D03*
X190730000Y-88010000D03*
X190730000Y-90550000D03*
X190730000Y-93090000D03*
X190730000Y-95630000D03*
X190730000Y-98170000D03*
X190730000Y-100710000D03*
X190730000Y-103250000D03*
X190730000Y-105790000D03*
X190730000Y-108330000D03*
X190730000Y-110870000D03*
X190730000Y-113410000D03*
X190730000Y-115950000D03*
X190730000Y-118490000D03*
X190730000Y-121030000D03*
X190730000Y-123570000D03*
X190730000Y-126110000D03*
X190730000Y-128650000D03*
D11*
X147500000Y-124000000D03*
X152500000Y-124000000D03*
X150000000Y-124000000D03*
D14*
X149958000Y-119760000D03*
D15*
X152498000Y-119760000D03*
D14*
X156689000Y-127507000D03*
D15*
X156689000Y-130047000D03*
X156689000Y-132587000D03*
D16*
X162500000Y-61000000D03*
X160000000Y-63500000D03*
X162500000Y-66000000D03*
D17*
X131300000Y-83750000D03*
X139850000Y-83750000D03*
X124350000Y-83750000D03*
X131050000Y-126250000D03*
X124100000Y-126250000D03*
X139600000Y-126250000D03*
X132450000Y-130250000D03*
X139400000Y-130250000D03*
X123900000Y-130250000D03*
D18*
X170167000Y-111632000D03*
X170167000Y-110632000D03*
X171167000Y-110632000D03*
X172167000Y-110632000D03*
X172167000Y-111632000D03*
X172167000Y-112632000D03*
X170167000Y-112632000D03*
X171167000Y-112632000D03*
X171167000Y-111632000D03*
D19*
X148429304Y-111413922D03*
X157266998Y-66699582D03*
X142000000Y-73000000D03*
X142000000Y-74000000D03*
X142500000Y-75000000D03*
X143500000Y-74750000D03*
X143500000Y-75500000D03*
X140814000Y-66547000D03*
X136435249Y-68767765D03*
X109318000Y-67944000D03*
X108302000Y-67944000D03*
X108302000Y-66928000D03*
X109318000Y-66928000D03*
X109318000Y-65912000D03*
X108302000Y-65912000D03*
X108302000Y-59816000D03*
X109318000Y-59816000D03*
X109318000Y-58800000D03*
X109318000Y-57784000D03*
X108302000Y-57784000D03*
X108302000Y-58800000D03*
X114652000Y-67436000D03*
X115668000Y-67436000D03*
X115668000Y-66420000D03*
X115668000Y-65404000D03*
X114652000Y-65404000D03*
X114652000Y-66420000D03*
X128241000Y-57276000D03*
X128241000Y-56514000D03*
X128241000Y-58038000D03*
X170345949Y-126032989D03*
X173646154Y-125373468D03*
X154657000Y-126491000D03*
X159102000Y-86740000D03*
X160118000Y-86740000D03*
X161134000Y-86740000D03*
X161134000Y-85724000D03*
X160118000Y-85724000D03*
X159102000Y-85724000D03*
X159102000Y-84708000D03*
X160118000Y-84708000D03*
X161134000Y-84708000D03*
X161134000Y-83692000D03*
X160118000Y-83692000D03*
X159102000Y-83692000D03*
X159102000Y-82676000D03*
X160118000Y-82676000D03*
X161134000Y-82676000D03*
X161134000Y-81660000D03*
X160118000Y-81660000D03*
X159102000Y-81660000D03*
X159102000Y-80644000D03*
X160118000Y-80644000D03*
X161134000Y-80644000D03*
X160868846Y-97794000D03*
X183810179Y-72708478D03*
X184349600Y-74979800D03*
X184400400Y-77850000D03*
X183105000Y-69595000D03*
X181835000Y-69595000D03*
X180565000Y-69595000D03*
X179295000Y-69595000D03*
X182216000Y-124967000D03*
X178571323Y-123509821D03*
X180565000Y-110616000D03*
X175035208Y-119955792D03*
X180569524Y-111792538D03*
X123854420Y-57019460D03*
X125284440Y-63549800D03*
X160796813Y-100887634D03*
X161250000Y-103250000D03*
X162250000Y-102368755D03*
X164250000Y-102368755D03*
X163250000Y-103500000D03*
X163250000Y-102500000D03*
X165013790Y-111050981D03*
X145106600Y-124459000D03*
X174250000Y-106250000D03*
X185518000Y-134238000D03*
X139290000Y-100710000D03*
X149704000Y-102488000D03*
X150974000Y-102488000D03*
X150974000Y-103758000D03*
X150339000Y-103123000D03*
X149704000Y-103758000D03*
X180438000Y-133222000D03*
X175231000Y-115442000D03*
X165960000Y-88518000D03*
X168754000Y-88518000D03*
X167357000Y-88518000D03*
X167357000Y-90042000D03*
X168754000Y-90042000D03*
X167865000Y-85470000D03*
X166468000Y-85470000D03*
X166468000Y-84073000D03*
X167865000Y-84073000D03*
X167865000Y-82676000D03*
X166468000Y-82676000D03*
X165071000Y-82676000D03*
X165071000Y-84073000D03*
X165071000Y-85470000D03*
X183613000Y-116966000D03*
X182470000Y-115950000D03*
X183613000Y-115950000D03*
X185899000Y-114172000D03*
X184756000Y-114172000D03*
X183613000Y-114172000D03*
X183613000Y-115061000D03*
X184756000Y-115061000D03*
X185899000Y-115061000D03*
X178406000Y-133222000D03*
X182470000Y-133349000D03*
X184502000Y-133349000D03*
X183486000Y-134238000D03*
X181454000Y-134238000D03*
X179422000Y-134238000D03*
X177390000Y-134238000D03*
X175358000Y-134238000D03*
X173326000Y-134238000D03*
X171294000Y-134238000D03*
X169262000Y-134238000D03*
X167230000Y-134238000D03*
X165198000Y-134238000D03*
X163166000Y-134238000D03*
X160753000Y-120649000D03*
X160753000Y-119506000D03*
X162531000Y-120649000D03*
X161642000Y-120649000D03*
X161642000Y-119506000D03*
X161642000Y-118363000D03*
X162531000Y-118363000D03*
X162531000Y-119506000D03*
X163420000Y-119506000D03*
X163420000Y-118363000D03*
X180935851Y-117697391D03*
X168754000Y-122935000D03*
X168754000Y-99186000D03*
X168754000Y-97916000D03*
X168754000Y-96646000D03*
X168754000Y-95376000D03*
X168754000Y-94106000D03*
X168754000Y-92836000D03*
X168754000Y-91566000D03*
X166849000Y-123062000D03*
X141631736Y-119175533D03*
X141616619Y-115471902D03*
X142431297Y-119148990D03*
X149577000Y-112394000D03*
X145788615Y-112394711D03*
X149577000Y-109727000D03*
X151355000Y-117093000D03*
X152244000Y-117093000D03*
X153133000Y-117093000D03*
X152498000Y-116331000D03*
X151609000Y-116331000D03*
X150720000Y-116331000D03*
X172056000Y-130047000D03*
X171167000Y-129158000D03*
X170278000Y-130047000D03*
X169389000Y-129158000D03*
X169389000Y-127380000D03*
X168500000Y-128269000D03*
X168500000Y-130047000D03*
X167611000Y-129158000D03*
X167611000Y-127380000D03*
X166722000Y-128269000D03*
X166722000Y-130047000D03*
X165833000Y-129158000D03*
X165833000Y-127380000D03*
X164944000Y-128269000D03*
X164944000Y-130047000D03*
X164055000Y-129158000D03*
X164055000Y-127380000D03*
X163166000Y-128269000D03*
X163166000Y-130047000D03*
X154657000Y-121538000D03*
X153133000Y-121538000D03*
X151609000Y-121538000D03*
X155165000Y-120649000D03*
X155165000Y-119125000D03*
X154403000Y-118363000D03*
X154403000Y-119887000D03*
X165115714Y-113560870D03*
X164690000Y-109854000D03*
X173795837Y-114120626D03*
X184354622Y-119916783D03*
X179676000Y-119887000D03*
X173309023Y-107446569D03*
X176907686Y-102435010D03*
X176247000Y-114045000D03*
X158467000Y-99821000D03*
X172945000Y-115188000D03*
X170073980Y-117456066D03*
X176628000Y-129285000D03*
X165256107Y-112619563D03*
X174621250Y-117296481D03*
X186153000Y-132098293D03*
X161515000Y-132460000D03*
X183199372Y-125341513D03*
X124050000Y-72770000D03*
X122780000Y-72770000D03*
X121510000Y-72770000D03*
X120240000Y-72770000D03*
X118970000Y-72770000D03*
X118970000Y-74040000D03*
X120240000Y-74040000D03*
X121510000Y-74040000D03*
X122780000Y-74040000D03*
X124050000Y-74040000D03*
X184121000Y-94106000D03*
X184629000Y-100710000D03*
X183486000Y-100710000D03*
X183486000Y-99440000D03*
X184629000Y-99440000D03*
X185772000Y-99440000D03*
X185772000Y-98170000D03*
X184629000Y-98170000D03*
X183486000Y-98170000D03*
X183486000Y-96900000D03*
X184629000Y-96900000D03*
X185772000Y-96900000D03*
X185772000Y-95630000D03*
X184629000Y-95630000D03*
X183486000Y-95630000D03*
X182343000Y-95630000D03*
X182343000Y-96900000D03*
X182343000Y-98170000D03*
X182343000Y-99440000D03*
X182343000Y-100710000D03*
X184978756Y-126119448D03*
X127860000Y-61340000D03*
X116684000Y-60832000D03*
X115922000Y-60070000D03*
X115922000Y-61594000D03*
X115160000Y-60832000D03*
X114398000Y-61594000D03*
X114398000Y-60070000D03*
X127860000Y-62610000D03*
X127860000Y-63880000D03*
X127860000Y-65150000D03*
X127860000Y-66420000D03*
X127860000Y-67690000D03*
X127860000Y-53720000D03*
X126590000Y-53720000D03*
X126590000Y-52450000D03*
X127860000Y-52450000D03*
X127860000Y-51180000D03*
X126590000Y-51180000D03*
X126590000Y-49910000D03*
X127860000Y-49910000D03*
X127860000Y-48640000D03*
X126590000Y-48640000D03*
X126590000Y-47370000D03*
X127860000Y-47370000D03*
X141449000Y-70484000D03*
X142084000Y-69854000D03*
X141449000Y-69214000D03*
X147799000Y-69849000D03*
X147164000Y-69214000D03*
X147164000Y-70484000D03*
X146529000Y-69849000D03*
X145894000Y-69214000D03*
X145894000Y-70484000D03*
X138161683Y-68655866D03*
X142000000Y-76500000D03*
X171675000Y-101726000D03*
X173961000Y-99567000D03*
X172818000Y-99567000D03*
X171675000Y-99567000D03*
X171675000Y-100583000D03*
X172818000Y-100583000D03*
X173961000Y-100583000D03*
X173961000Y-101726000D03*
X172818000Y-101726000D03*
X164029710Y-99000367D03*
X163928000Y-91566000D03*
X163928000Y-92836000D03*
X163928000Y-94106000D03*
X163928000Y-95376000D03*
X163928000Y-96646000D03*
X163928000Y-97916000D03*
X173580000Y-88518000D03*
X172183000Y-88518000D03*
X170786000Y-88518000D03*
X172183000Y-90042000D03*
X173580000Y-90042000D03*
X173580000Y-91566000D03*
X173580000Y-92836000D03*
X173580000Y-94106000D03*
X173580000Y-95376000D03*
X173580000Y-96646000D03*
X173580000Y-97916000D03*
X173580000Y-82676000D03*
X172183000Y-82676000D03*
X170786000Y-82676000D03*
X170786000Y-84073000D03*
X172183000Y-84073000D03*
X173580000Y-84073000D03*
X170786000Y-85470000D03*
X172183000Y-85470000D03*
X173580000Y-85470000D03*
X174723000Y-70738000D03*
X175358000Y-70103000D03*
X174088000Y-70103000D03*
X174723000Y-69468000D03*
X175358000Y-68833000D03*
X174088000Y-68833000D03*
X174723000Y-68198000D03*
X175358000Y-67563000D03*
X174088000Y-67563000D03*
X181454000Y-75564000D03*
X182343000Y-78388002D03*
X178914000Y-67944000D03*
X175215197Y-111112709D03*
X175906957Y-111514564D03*
X137893000Y-66547000D03*
X135988000Y-72008000D03*
X182978000Y-80390000D03*
X178148367Y-73139309D03*
X178907932Y-77866170D03*
X176073235Y-112346784D03*
X172733280Y-125417415D03*
X173780299Y-119281926D03*
X184883000Y-68325000D03*
X184883000Y-69214000D03*
X184883000Y-70230000D03*
X184883000Y-71246000D03*
X184883000Y-72262000D03*
X184883000Y-73278000D03*
X184248000Y-73913000D03*
X186661000Y-71881000D03*
X186661000Y-73024000D03*
X186661000Y-74040000D03*
X186280000Y-75183000D03*
X185518000Y-75945000D03*
X184375000Y-76326000D03*
X157197000Y-98551000D03*
X155546000Y-98678000D03*
X171236868Y-115751006D03*
X160305502Y-117676172D03*
X156943000Y-95376000D03*
X155419000Y-96265000D03*
X160520002Y-99790037D03*
X175402439Y-107960522D03*
X180438000Y-115569000D03*
X162912000Y-99186000D03*
X175358000Y-110108000D03*
X139290000Y-73405000D03*
X146402000Y-72008000D03*
X146402000Y-71373000D03*
X147037000Y-71373000D03*
X147037000Y-72008000D03*
X141957000Y-71373000D03*
X141957000Y-72008000D03*
X141322000Y-72008000D03*
X141322000Y-71373000D03*
X124862864Y-57194558D03*
X155949860Y-60636420D03*
X159401564Y-128760201D03*
X153364662Y-126722662D03*
X166449715Y-113174036D03*
X157705000Y-119125000D03*
X163801000Y-121030000D03*
X166195689Y-110414017D03*
X164309000Y-105536000D03*
X128906576Y-59798212D03*
X133194000Y-59054000D03*
X125896986Y-57232414D03*
X155800000Y-54200000D03*
X168232001Y-113607673D03*
X168881000Y-120903000D03*
X168752968Y-105536000D03*
X158594000Y-105790000D03*
X169013115Y-109503675D03*
X179021516Y-99768150D03*
X178025000Y-106806000D03*
X181089983Y-99982759D03*
X181073000Y-107441000D03*
X180637008Y-78164577D03*
X180387200Y-72719200D03*
X180623208Y-75404520D03*
X181504800Y-72719200D03*
D20*
X173580000Y-85470000D02*
X172183000Y-85470000D01*
D21*
X139290000Y-73405000D02*
X139925000Y-73405000D01*
X139925000Y-73405000D02*
X141322000Y-72008000D01*
D20*
G36*
X200515000Y-93498000D02*
X191816613Y-93498000D01*
X191889798Y-93321751D01*
X191890201Y-92860274D01*
X191713974Y-92433771D01*
X191387945Y-92107173D01*
X190961751Y-91930202D01*
X190500274Y-91929799D01*
X190073771Y-92106026D01*
X189747173Y-92432055D01*
X189570202Y-92858249D01*
X189569799Y-93319726D01*
X189643460Y-93498000D01*
X189276613Y-93498000D01*
X189349798Y-93321751D01*
X189350201Y-92860274D01*
X189173974Y-92433771D01*
X188847945Y-92107173D01*
X188421751Y-91930202D01*
X187960274Y-91929799D01*
X187533771Y-92106026D01*
X187207173Y-92432055D01*
X187030202Y-92858249D01*
X187029799Y-93319726D01*
X187103460Y-93498000D01*
X182062000Y-93498000D01*
X182062000Y-90779726D01*
X187029799Y-90779726D01*
X187206026Y-91206229D01*
X187532055Y-91532827D01*
X187958249Y-91709798D01*
X188419726Y-91710201D01*
X188846229Y-91533974D01*
X189172827Y-91207945D01*
X189349798Y-90781751D01*
X189349799Y-90779726D01*
X189569799Y-90779726D01*
X189746026Y-91206229D01*
X190072055Y-91532827D01*
X190498249Y-91709798D01*
X190959726Y-91710201D01*
X191386229Y-91533974D01*
X191712827Y-91207945D01*
X191889798Y-90781751D01*
X191890201Y-90320274D01*
X191713974Y-89893771D01*
X191387945Y-89567173D01*
X190961751Y-89390202D01*
X190500274Y-89389799D01*
X190073771Y-89566026D01*
X189747173Y-89892055D01*
X189570202Y-90318249D01*
X189569799Y-90779726D01*
X189349799Y-90779726D01*
X189350201Y-90320274D01*
X189173974Y-89893771D01*
X188847945Y-89567173D01*
X188421751Y-89390202D01*
X187960274Y-89389799D01*
X187533771Y-89566026D01*
X187207173Y-89892055D01*
X187030202Y-90318249D01*
X187029799Y-90779726D01*
X182062000Y-90779726D01*
X182062000Y-88239726D01*
X187029799Y-88239726D01*
X187206026Y-88666229D01*
X187532055Y-88992827D01*
X187958249Y-89169798D01*
X188419726Y-89170201D01*
X188846229Y-88993974D01*
X189172827Y-88667945D01*
X189349798Y-88241751D01*
X189349799Y-88239726D01*
X189569799Y-88239726D01*
X189746026Y-88666229D01*
X190072055Y-88992827D01*
X190498249Y-89169798D01*
X190959726Y-89170201D01*
X191386229Y-88993974D01*
X191712827Y-88667945D01*
X191889798Y-88241751D01*
X191890201Y-87780274D01*
X191713974Y-87353771D01*
X191387945Y-87027173D01*
X190961751Y-86850202D01*
X190500274Y-86849799D01*
X190073771Y-87026026D01*
X189747173Y-87352055D01*
X189570202Y-87778249D01*
X189569799Y-88239726D01*
X189349799Y-88239726D01*
X189350201Y-87780274D01*
X189173974Y-87353771D01*
X188847945Y-87027173D01*
X188421751Y-86850202D01*
X187960274Y-86849799D01*
X187533771Y-87026026D01*
X187207173Y-87352055D01*
X187030202Y-87778249D01*
X187029799Y-88239726D01*
X182062000Y-88239726D01*
X182062000Y-85978000D01*
X182054121Y-85939094D01*
X182031727Y-85906319D01*
X181998346Y-85884839D01*
X181962000Y-85878000D01*
X174342000Y-85878000D01*
X174303094Y-85885879D01*
X174270319Y-85908273D01*
X174248839Y-85941654D01*
X174242000Y-85978000D01*
X174242000Y-102388000D01*
X164849984Y-102388000D01*
X164850104Y-102249931D01*
X164758952Y-102029326D01*
X164590317Y-101860396D01*
X164369871Y-101768859D01*
X164131176Y-101768651D01*
X163910571Y-101859803D01*
X163741641Y-102028438D01*
X163720000Y-102080555D01*
X163720000Y-99304824D01*
X168153896Y-99304824D01*
X168245048Y-99525429D01*
X168413683Y-99694359D01*
X168634129Y-99785896D01*
X168872824Y-99786104D01*
X169093429Y-99694952D01*
X169262359Y-99526317D01*
X169353896Y-99305871D01*
X169354104Y-99067176D01*
X169262952Y-98846571D01*
X169094317Y-98677641D01*
X168873871Y-98586104D01*
X168635176Y-98585896D01*
X168414571Y-98677048D01*
X168245641Y-98845683D01*
X168154104Y-99066129D01*
X168153896Y-99304824D01*
X163720000Y-99304824D01*
X163720000Y-98034824D01*
X168153896Y-98034824D01*
X168245048Y-98255429D01*
X168413683Y-98424359D01*
X168634129Y-98515896D01*
X168872824Y-98516104D01*
X169093429Y-98424952D01*
X169262359Y-98256317D01*
X169353896Y-98035871D01*
X169354104Y-97797176D01*
X169262952Y-97576571D01*
X169094317Y-97407641D01*
X168873871Y-97316104D01*
X168635176Y-97315896D01*
X168414571Y-97407048D01*
X168245641Y-97575683D01*
X168154104Y-97796129D01*
X168153896Y-98034824D01*
X163720000Y-98034824D01*
X163720000Y-96764824D01*
X168153896Y-96764824D01*
X168245048Y-96985429D01*
X168413683Y-97154359D01*
X168634129Y-97245896D01*
X168872824Y-97246104D01*
X169093429Y-97154952D01*
X169262359Y-96986317D01*
X169353896Y-96765871D01*
X169354104Y-96527176D01*
X169262952Y-96306571D01*
X169094317Y-96137641D01*
X168873871Y-96046104D01*
X168635176Y-96045896D01*
X168414571Y-96137048D01*
X168245641Y-96305683D01*
X168154104Y-96526129D01*
X168153896Y-96764824D01*
X163720000Y-96764824D01*
X163720000Y-95494824D01*
X168153896Y-95494824D01*
X168245048Y-95715429D01*
X168413683Y-95884359D01*
X168634129Y-95975896D01*
X168872824Y-95976104D01*
X169093429Y-95884952D01*
X169262359Y-95716317D01*
X169353896Y-95495871D01*
X169354104Y-95257176D01*
X169262952Y-95036571D01*
X169094317Y-94867641D01*
X168873871Y-94776104D01*
X168635176Y-94775896D01*
X168414571Y-94867048D01*
X168245641Y-95035683D01*
X168154104Y-95256129D01*
X168153896Y-95494824D01*
X163720000Y-95494824D01*
X163720000Y-94224824D01*
X168153896Y-94224824D01*
X168245048Y-94445429D01*
X168413683Y-94614359D01*
X168634129Y-94705896D01*
X168872824Y-94706104D01*
X169093429Y-94614952D01*
X169262359Y-94446317D01*
X169353896Y-94225871D01*
X169354104Y-93987176D01*
X169262952Y-93766571D01*
X169094317Y-93597641D01*
X168873871Y-93506104D01*
X168635176Y-93505896D01*
X168414571Y-93597048D01*
X168245641Y-93765683D01*
X168154104Y-93986129D01*
X168153896Y-94224824D01*
X163720000Y-94224824D01*
X163720000Y-92954824D01*
X168153896Y-92954824D01*
X168245048Y-93175429D01*
X168413683Y-93344359D01*
X168634129Y-93435896D01*
X168872824Y-93436104D01*
X169093429Y-93344952D01*
X169262359Y-93176317D01*
X169353896Y-92955871D01*
X169354104Y-92717176D01*
X169262952Y-92496571D01*
X169094317Y-92327641D01*
X168873871Y-92236104D01*
X168635176Y-92235896D01*
X168414571Y-92327048D01*
X168245641Y-92495683D01*
X168154104Y-92716129D01*
X168153896Y-92954824D01*
X163720000Y-92954824D01*
X163720000Y-91684824D01*
X168153896Y-91684824D01*
X168245048Y-91905429D01*
X168413683Y-92074359D01*
X168634129Y-92165896D01*
X168872824Y-92166104D01*
X169093429Y-92074952D01*
X169262359Y-91906317D01*
X169353896Y-91685871D01*
X169354104Y-91447176D01*
X169262952Y-91226571D01*
X169094317Y-91057641D01*
X168873871Y-90966104D01*
X168635176Y-90965896D01*
X168414571Y-91057048D01*
X168245641Y-91225683D01*
X168154104Y-91446129D01*
X168153896Y-91684824D01*
X163720000Y-91684824D01*
X163720000Y-90160824D01*
X166756896Y-90160824D01*
X166848048Y-90381429D01*
X167016683Y-90550359D01*
X167237129Y-90641896D01*
X167475824Y-90642104D01*
X167696429Y-90550952D01*
X167865359Y-90382317D01*
X167956896Y-90161871D01*
X167956896Y-90160824D01*
X168153896Y-90160824D01*
X168245048Y-90381429D01*
X168413683Y-90550359D01*
X168634129Y-90641896D01*
X168872824Y-90642104D01*
X169093429Y-90550952D01*
X169262359Y-90382317D01*
X169353896Y-90161871D01*
X169354104Y-89923176D01*
X169262952Y-89702571D01*
X169094317Y-89533641D01*
X168873871Y-89442104D01*
X168635176Y-89441896D01*
X168414571Y-89533048D01*
X168245641Y-89701683D01*
X168154104Y-89922129D01*
X168153896Y-90160824D01*
X167956896Y-90160824D01*
X167957104Y-89923176D01*
X167865952Y-89702571D01*
X167697317Y-89533641D01*
X167476871Y-89442104D01*
X167238176Y-89441896D01*
X167017571Y-89533048D01*
X166848641Y-89701683D01*
X166757104Y-89922129D01*
X166756896Y-90160824D01*
X163720000Y-90160824D01*
X163720000Y-88636824D01*
X165359896Y-88636824D01*
X165451048Y-88857429D01*
X165619683Y-89026359D01*
X165840129Y-89117896D01*
X166078824Y-89118104D01*
X166299429Y-89026952D01*
X166468359Y-88858317D01*
X166559896Y-88637871D01*
X166559896Y-88636824D01*
X166756896Y-88636824D01*
X166848048Y-88857429D01*
X167016683Y-89026359D01*
X167237129Y-89117896D01*
X167475824Y-89118104D01*
X167696429Y-89026952D01*
X167865359Y-88858317D01*
X167956896Y-88637871D01*
X167956896Y-88636824D01*
X168153896Y-88636824D01*
X168245048Y-88857429D01*
X168413683Y-89026359D01*
X168634129Y-89117896D01*
X168872824Y-89118104D01*
X169093429Y-89026952D01*
X169262359Y-88858317D01*
X169353896Y-88637871D01*
X169354104Y-88399176D01*
X169262952Y-88178571D01*
X169094317Y-88009641D01*
X168873871Y-87918104D01*
X168635176Y-87917896D01*
X168414571Y-88009048D01*
X168245641Y-88177683D01*
X168154104Y-88398129D01*
X168153896Y-88636824D01*
X167956896Y-88636824D01*
X167957104Y-88399176D01*
X167865952Y-88178571D01*
X167697317Y-88009641D01*
X167476871Y-87918104D01*
X167238176Y-87917896D01*
X167017571Y-88009048D01*
X166848641Y-88177683D01*
X166757104Y-88398129D01*
X166756896Y-88636824D01*
X166559896Y-88636824D01*
X166560104Y-88399176D01*
X166468952Y-88178571D01*
X166300317Y-88009641D01*
X166079871Y-87918104D01*
X165841176Y-87917896D01*
X165620571Y-88009048D01*
X165451641Y-88177683D01*
X165360104Y-88398129D01*
X165359896Y-88636824D01*
X163720000Y-88636824D01*
X163720000Y-85588824D01*
X164470896Y-85588824D01*
X164562048Y-85809429D01*
X164730683Y-85978359D01*
X164951129Y-86069896D01*
X165189824Y-86070104D01*
X165410429Y-85978952D01*
X165579359Y-85810317D01*
X165670896Y-85589871D01*
X165670896Y-85588824D01*
X165867896Y-85588824D01*
X165959048Y-85809429D01*
X166127683Y-85978359D01*
X166348129Y-86069896D01*
X166586824Y-86070104D01*
X166807429Y-85978952D01*
X166976359Y-85810317D01*
X167067896Y-85589871D01*
X167067896Y-85588824D01*
X167264896Y-85588824D01*
X167356048Y-85809429D01*
X167524683Y-85978359D01*
X167745129Y-86069896D01*
X167983824Y-86070104D01*
X168204429Y-85978952D01*
X168373359Y-85810317D01*
X168419280Y-85699726D01*
X187029799Y-85699726D01*
X187206026Y-86126229D01*
X187532055Y-86452827D01*
X187958249Y-86629798D01*
X188419726Y-86630201D01*
X188846229Y-86453974D01*
X189172827Y-86127945D01*
X189349798Y-85701751D01*
X189349799Y-85699726D01*
X189569799Y-85699726D01*
X189746026Y-86126229D01*
X190072055Y-86452827D01*
X190498249Y-86629798D01*
X190959726Y-86630201D01*
X191386229Y-86453974D01*
X191712827Y-86127945D01*
X191889798Y-85701751D01*
X191890201Y-85240274D01*
X191713974Y-84813771D01*
X191387945Y-84487173D01*
X190961751Y-84310202D01*
X190500274Y-84309799D01*
X190073771Y-84486026D01*
X189747173Y-84812055D01*
X189570202Y-85238249D01*
X189569799Y-85699726D01*
X189349799Y-85699726D01*
X189350201Y-85240274D01*
X189173974Y-84813771D01*
X188847945Y-84487173D01*
X188421751Y-84310202D01*
X187960274Y-84309799D01*
X187533771Y-84486026D01*
X187207173Y-84812055D01*
X187030202Y-85238249D01*
X187029799Y-85699726D01*
X168419280Y-85699726D01*
X168464896Y-85589871D01*
X168465104Y-85351176D01*
X168373952Y-85130571D01*
X168205317Y-84961641D01*
X167984871Y-84870104D01*
X167746176Y-84869896D01*
X167525571Y-84961048D01*
X167356641Y-85129683D01*
X167265104Y-85350129D01*
X167264896Y-85588824D01*
X167067896Y-85588824D01*
X167068104Y-85351176D01*
X166976952Y-85130571D01*
X166808317Y-84961641D01*
X166587871Y-84870104D01*
X166349176Y-84869896D01*
X166128571Y-84961048D01*
X165959641Y-85129683D01*
X165868104Y-85350129D01*
X165867896Y-85588824D01*
X165670896Y-85588824D01*
X165671104Y-85351176D01*
X165579952Y-85130571D01*
X165411317Y-84961641D01*
X165190871Y-84870104D01*
X164952176Y-84869896D01*
X164731571Y-84961048D01*
X164562641Y-85129683D01*
X164471104Y-85350129D01*
X164470896Y-85588824D01*
X163720000Y-85588824D01*
X163720000Y-84191824D01*
X164470896Y-84191824D01*
X164562048Y-84412429D01*
X164730683Y-84581359D01*
X164951129Y-84672896D01*
X165189824Y-84673104D01*
X165410429Y-84581952D01*
X165579359Y-84413317D01*
X165670896Y-84192871D01*
X165670896Y-84191824D01*
X165867896Y-84191824D01*
X165959048Y-84412429D01*
X166127683Y-84581359D01*
X166348129Y-84672896D01*
X166586824Y-84673104D01*
X166807429Y-84581952D01*
X166976359Y-84413317D01*
X167067896Y-84192871D01*
X167067896Y-84191824D01*
X167264896Y-84191824D01*
X167356048Y-84412429D01*
X167524683Y-84581359D01*
X167745129Y-84672896D01*
X167983824Y-84673104D01*
X168204429Y-84581952D01*
X168373359Y-84413317D01*
X168464896Y-84192871D01*
X168465104Y-83954176D01*
X168373952Y-83733571D01*
X168205317Y-83564641D01*
X167984871Y-83473104D01*
X167746176Y-83472896D01*
X167525571Y-83564048D01*
X167356641Y-83732683D01*
X167265104Y-83953129D01*
X167264896Y-84191824D01*
X167067896Y-84191824D01*
X167068104Y-83954176D01*
X166976952Y-83733571D01*
X166808317Y-83564641D01*
X166587871Y-83473104D01*
X166349176Y-83472896D01*
X166128571Y-83564048D01*
X165959641Y-83732683D01*
X165868104Y-83953129D01*
X165867896Y-84191824D01*
X165670896Y-84191824D01*
X165671104Y-83954176D01*
X165579952Y-83733571D01*
X165411317Y-83564641D01*
X165190871Y-83473104D01*
X164952176Y-83472896D01*
X164731571Y-83564048D01*
X164562641Y-83732683D01*
X164471104Y-83953129D01*
X164470896Y-84191824D01*
X163720000Y-84191824D01*
X163720000Y-82794824D01*
X164470896Y-82794824D01*
X164562048Y-83015429D01*
X164730683Y-83184359D01*
X164951129Y-83275896D01*
X165189824Y-83276104D01*
X165410429Y-83184952D01*
X165579359Y-83016317D01*
X165670896Y-82795871D01*
X165670896Y-82794824D01*
X165867896Y-82794824D01*
X165959048Y-83015429D01*
X166127683Y-83184359D01*
X166348129Y-83275896D01*
X166586824Y-83276104D01*
X166807429Y-83184952D01*
X166976359Y-83016317D01*
X167067896Y-82795871D01*
X167067896Y-82794824D01*
X167264896Y-82794824D01*
X167356048Y-83015429D01*
X167524683Y-83184359D01*
X167745129Y-83275896D01*
X167983824Y-83276104D01*
X168204429Y-83184952D01*
X168229699Y-83159726D01*
X187029799Y-83159726D01*
X187206026Y-83586229D01*
X187532055Y-83912827D01*
X187958249Y-84089798D01*
X188419726Y-84090201D01*
X188846229Y-83913974D01*
X189172827Y-83587945D01*
X189349798Y-83161751D01*
X189349799Y-83159726D01*
X189569799Y-83159726D01*
X189746026Y-83586229D01*
X190072055Y-83912827D01*
X190498249Y-84089798D01*
X190959726Y-84090201D01*
X191386229Y-83913974D01*
X191712827Y-83587945D01*
X191889798Y-83161751D01*
X191890201Y-82700274D01*
X191713974Y-82273771D01*
X191387945Y-81947173D01*
X190961751Y-81770202D01*
X190500274Y-81769799D01*
X190073771Y-81946026D01*
X189747173Y-82272055D01*
X189570202Y-82698249D01*
X189569799Y-83159726D01*
X189349799Y-83159726D01*
X189350201Y-82700274D01*
X189173974Y-82273771D01*
X188847945Y-81947173D01*
X188421751Y-81770202D01*
X187960274Y-81769799D01*
X187533771Y-81946026D01*
X187207173Y-82272055D01*
X187030202Y-82698249D01*
X187029799Y-83159726D01*
X168229699Y-83159726D01*
X168373359Y-83016317D01*
X168464896Y-82795871D01*
X168465104Y-82557176D01*
X168373952Y-82336571D01*
X168205317Y-82167641D01*
X167984871Y-82076104D01*
X167746176Y-82075896D01*
X167525571Y-82167048D01*
X167356641Y-82335683D01*
X167265104Y-82556129D01*
X167264896Y-82794824D01*
X167067896Y-82794824D01*
X167068104Y-82557176D01*
X166976952Y-82336571D01*
X166808317Y-82167641D01*
X166587871Y-82076104D01*
X166349176Y-82075896D01*
X166128571Y-82167048D01*
X165959641Y-82335683D01*
X165868104Y-82556129D01*
X165867896Y-82794824D01*
X165670896Y-82794824D01*
X165671104Y-82557176D01*
X165579952Y-82336571D01*
X165411317Y-82167641D01*
X165190871Y-82076104D01*
X164952176Y-82075896D01*
X164731571Y-82167048D01*
X164562641Y-82335683D01*
X164471104Y-82556129D01*
X164470896Y-82794824D01*
X163720000Y-82794824D01*
X163720000Y-80508824D01*
X182377896Y-80508824D01*
X182469048Y-80729429D01*
X182637683Y-80898359D01*
X182858129Y-80989896D01*
X183096824Y-80990104D01*
X183317429Y-80898952D01*
X183486359Y-80730317D01*
X183532280Y-80619726D01*
X187029799Y-80619726D01*
X187206026Y-81046229D01*
X187532055Y-81372827D01*
X187958249Y-81549798D01*
X188419726Y-81550201D01*
X188846229Y-81373974D01*
X189172827Y-81047945D01*
X189349798Y-80621751D01*
X189349799Y-80619726D01*
X189569799Y-80619726D01*
X189746026Y-81046229D01*
X190072055Y-81372827D01*
X190498249Y-81549798D01*
X190959726Y-81550201D01*
X191386229Y-81373974D01*
X191712827Y-81047945D01*
X191889798Y-80621751D01*
X191890201Y-80160274D01*
X191713974Y-79733771D01*
X191387945Y-79407173D01*
X190961751Y-79230202D01*
X190500274Y-79229799D01*
X190073771Y-79406026D01*
X189747173Y-79732055D01*
X189570202Y-80158249D01*
X189569799Y-80619726D01*
X189349799Y-80619726D01*
X189350201Y-80160274D01*
X189173974Y-79733771D01*
X188847945Y-79407173D01*
X188421751Y-79230202D01*
X187960274Y-79229799D01*
X187533771Y-79406026D01*
X187207173Y-79732055D01*
X187030202Y-80158249D01*
X187029799Y-80619726D01*
X183532280Y-80619726D01*
X183577896Y-80509871D01*
X183578104Y-80271176D01*
X183486952Y-80050571D01*
X183318317Y-79881641D01*
X183097871Y-79790104D01*
X182859176Y-79789896D01*
X182638571Y-79881048D01*
X182469641Y-80049683D01*
X182378104Y-80270129D01*
X182377896Y-80508824D01*
X163720000Y-80508824D01*
X163720000Y-79166000D01*
X185010000Y-79166000D01*
X185119037Y-79145483D01*
X185219181Y-79081042D01*
X185286364Y-78982717D01*
X185310000Y-78866000D01*
X185310000Y-78079726D01*
X187029799Y-78079726D01*
X187206026Y-78506229D01*
X187532055Y-78832827D01*
X187958249Y-79009798D01*
X188419726Y-79010201D01*
X188846229Y-78833974D01*
X189172827Y-78507945D01*
X189349798Y-78081751D01*
X189349799Y-78079726D01*
X189569799Y-78079726D01*
X189746026Y-78506229D01*
X190072055Y-78832827D01*
X190498249Y-79009798D01*
X190959726Y-79010201D01*
X191386229Y-78833974D01*
X191712827Y-78507945D01*
X191889798Y-78081751D01*
X191890201Y-77620274D01*
X191713974Y-77193771D01*
X191387945Y-76867173D01*
X190961751Y-76690202D01*
X190500274Y-76689799D01*
X190073771Y-76866026D01*
X189747173Y-77192055D01*
X189570202Y-77618249D01*
X189569799Y-78079726D01*
X189349799Y-78079726D01*
X189350201Y-77620274D01*
X189173974Y-77193771D01*
X188847945Y-76867173D01*
X188421751Y-76690202D01*
X187960274Y-76689799D01*
X187533771Y-76866026D01*
X187207173Y-77192055D01*
X187030202Y-77618249D01*
X187029799Y-78079726D01*
X185310000Y-78079726D01*
X185310000Y-76508302D01*
X185398129Y-76544896D01*
X185636824Y-76545104D01*
X185857429Y-76453952D01*
X186026359Y-76285317D01*
X186117896Y-76064871D01*
X186118104Y-75826176D01*
X186087814Y-75752868D01*
X186160129Y-75782896D01*
X186398824Y-75783104D01*
X186619429Y-75691952D01*
X186771921Y-75539726D01*
X187029799Y-75539726D01*
X187206026Y-75966229D01*
X187532055Y-76292827D01*
X187958249Y-76469798D01*
X188419726Y-76470201D01*
X188846229Y-76293974D01*
X189172827Y-75967945D01*
X189349798Y-75541751D01*
X189349799Y-75539726D01*
X189569799Y-75539726D01*
X189746026Y-75966229D01*
X190072055Y-76292827D01*
X190498249Y-76469798D01*
X190959726Y-76470201D01*
X191386229Y-76293974D01*
X191712827Y-75967945D01*
X191889798Y-75541751D01*
X191890201Y-75080274D01*
X191713974Y-74653771D01*
X191387945Y-74327173D01*
X190961751Y-74150202D01*
X190500274Y-74149799D01*
X190073771Y-74326026D01*
X189747173Y-74652055D01*
X189570202Y-75078249D01*
X189569799Y-75539726D01*
X189349799Y-75539726D01*
X189350201Y-75080274D01*
X189173974Y-74653771D01*
X188847945Y-74327173D01*
X188421751Y-74150202D01*
X187960274Y-74149799D01*
X187533771Y-74326026D01*
X187207173Y-74652055D01*
X187030202Y-75078249D01*
X187029799Y-75539726D01*
X186771921Y-75539726D01*
X186788359Y-75523317D01*
X186879896Y-75302871D01*
X186880104Y-75064176D01*
X186788952Y-74843571D01*
X186620317Y-74674641D01*
X186399871Y-74583104D01*
X186161176Y-74582896D01*
X185940571Y-74674048D01*
X185771641Y-74842683D01*
X185680104Y-75063129D01*
X185679896Y-75301824D01*
X185710186Y-75375132D01*
X185637871Y-75345104D01*
X185399176Y-75344896D01*
X185310000Y-75381743D01*
X185310000Y-73759000D01*
X186128010Y-73759000D01*
X186061104Y-73920129D01*
X186060896Y-74158824D01*
X186152048Y-74379429D01*
X186320683Y-74548359D01*
X186541129Y-74639896D01*
X186779824Y-74640104D01*
X187000429Y-74548952D01*
X187169359Y-74380317D01*
X187260896Y-74159871D01*
X187261104Y-73921176D01*
X187194094Y-73759000D01*
X187546921Y-73759000D01*
X187958249Y-73929798D01*
X188419726Y-73930201D01*
X188834065Y-73759000D01*
X190086921Y-73759000D01*
X190498249Y-73929798D01*
X190959726Y-73930201D01*
X191374065Y-73759000D01*
X194662000Y-73759000D01*
X194700906Y-73751121D01*
X194733681Y-73728727D01*
X194755161Y-73695346D01*
X194762000Y-73659000D01*
X194762000Y-56260000D01*
X194754121Y-56221094D01*
X194731727Y-56188319D01*
X194698346Y-56166839D01*
X194662000Y-56160000D01*
X189555000Y-56160000D01*
X189555000Y-50139726D01*
X189569799Y-50139726D01*
X189746026Y-50566229D01*
X190072055Y-50892827D01*
X190498249Y-51069798D01*
X190959726Y-51070201D01*
X191386229Y-50893974D01*
X191682531Y-50598188D01*
X192334398Y-50598188D01*
X192862321Y-51875858D01*
X193839001Y-52854244D01*
X195115747Y-53384395D01*
X196498188Y-53385602D01*
X197775858Y-52857679D01*
X198754244Y-51880999D01*
X199284395Y-50604253D01*
X199285602Y-49221812D01*
X198757679Y-47944142D01*
X197780999Y-46965756D01*
X196504253Y-46435605D01*
X195121812Y-46434398D01*
X193844142Y-46962321D01*
X192865756Y-47939001D01*
X192335605Y-49215747D01*
X192334398Y-50598188D01*
X191682531Y-50598188D01*
X191712827Y-50567945D01*
X191889798Y-50141751D01*
X191890201Y-49680274D01*
X191713974Y-49253771D01*
X191387945Y-48927173D01*
X190961751Y-48750202D01*
X190500274Y-48749799D01*
X190073771Y-48926026D01*
X189747173Y-49252055D01*
X189570202Y-49678249D01*
X189569799Y-50139726D01*
X189555000Y-50139726D01*
X189555000Y-45205000D01*
X200515000Y-45205000D01*
X200515000Y-93498000D01*
X200515000Y-93498000D01*
G37*
X200515000Y-93498000D02*
X191816613Y-93498000D01*
X191889798Y-93321751D01*
X191890201Y-92860274D01*
X191713974Y-92433771D01*
X191387945Y-92107173D01*
X190961751Y-91930202D01*
X190500274Y-91929799D01*
X190073771Y-92106026D01*
X189747173Y-92432055D01*
X189570202Y-92858249D01*
X189569799Y-93319726D01*
X189643460Y-93498000D01*
X189276613Y-93498000D01*
X189349798Y-93321751D01*
X189350201Y-92860274D01*
X189173974Y-92433771D01*
X188847945Y-92107173D01*
X188421751Y-91930202D01*
X187960274Y-91929799D01*
X187533771Y-92106026D01*
X187207173Y-92432055D01*
X187030202Y-92858249D01*
X187029799Y-93319726D01*
X187103460Y-93498000D01*
X182062000Y-93498000D01*
X182062000Y-90779726D01*
X187029799Y-90779726D01*
X187206026Y-91206229D01*
X187532055Y-91532827D01*
X187958249Y-91709798D01*
X188419726Y-91710201D01*
X188846229Y-91533974D01*
X189172827Y-91207945D01*
X189349798Y-90781751D01*
X189349799Y-90779726D01*
X189569799Y-90779726D01*
X189746026Y-91206229D01*
X190072055Y-91532827D01*
X190498249Y-91709798D01*
X190959726Y-91710201D01*
X191386229Y-91533974D01*
X191712827Y-91207945D01*
X191889798Y-90781751D01*
X191890201Y-90320274D01*
X191713974Y-89893771D01*
X191387945Y-89567173D01*
X190961751Y-89390202D01*
X190500274Y-89389799D01*
X190073771Y-89566026D01*
X189747173Y-89892055D01*
X189570202Y-90318249D01*
X189569799Y-90779726D01*
X189349799Y-90779726D01*
X189350201Y-90320274D01*
X189173974Y-89893771D01*
X188847945Y-89567173D01*
X188421751Y-89390202D01*
X187960274Y-89389799D01*
X187533771Y-89566026D01*
X187207173Y-89892055D01*
X187030202Y-90318249D01*
X187029799Y-90779726D01*
X182062000Y-90779726D01*
X182062000Y-88239726D01*
X187029799Y-88239726D01*
X187206026Y-88666229D01*
X187532055Y-88992827D01*
X187958249Y-89169798D01*
X188419726Y-89170201D01*
X188846229Y-88993974D01*
X189172827Y-88667945D01*
X189349798Y-88241751D01*
X189349799Y-88239726D01*
X189569799Y-88239726D01*
X189746026Y-88666229D01*
X190072055Y-88992827D01*
X190498249Y-89169798D01*
X190959726Y-89170201D01*
X191386229Y-88993974D01*
X191712827Y-88667945D01*
X191889798Y-88241751D01*
X191890201Y-87780274D01*
X191713974Y-87353771D01*
X191387945Y-87027173D01*
X190961751Y-86850202D01*
X190500274Y-86849799D01*
X190073771Y-87026026D01*
X189747173Y-87352055D01*
X189570202Y-87778249D01*
X189569799Y-88239726D01*
X189349799Y-88239726D01*
X189350201Y-87780274D01*
X189173974Y-87353771D01*
X188847945Y-87027173D01*
X188421751Y-86850202D01*
X187960274Y-86849799D01*
X187533771Y-87026026D01*
X187207173Y-87352055D01*
X187030202Y-87778249D01*
X187029799Y-88239726D01*
X182062000Y-88239726D01*
X182062000Y-85978000D01*
X182054121Y-85939094D01*
X182031727Y-85906319D01*
X181998346Y-85884839D01*
X181962000Y-85878000D01*
X174342000Y-85878000D01*
X174303094Y-85885879D01*
X174270319Y-85908273D01*
X174248839Y-85941654D01*
X174242000Y-85978000D01*
X174242000Y-102388000D01*
X164849984Y-102388000D01*
X164850104Y-102249931D01*
X164758952Y-102029326D01*
X164590317Y-101860396D01*
X164369871Y-101768859D01*
X164131176Y-101768651D01*
X163910571Y-101859803D01*
X163741641Y-102028438D01*
X163720000Y-102080555D01*
X163720000Y-99304824D01*
X168153896Y-99304824D01*
X168245048Y-99525429D01*
X168413683Y-99694359D01*
X168634129Y-99785896D01*
X168872824Y-99786104D01*
X169093429Y-99694952D01*
X169262359Y-99526317D01*
X169353896Y-99305871D01*
X169354104Y-99067176D01*
X169262952Y-98846571D01*
X169094317Y-98677641D01*
X168873871Y-98586104D01*
X168635176Y-98585896D01*
X168414571Y-98677048D01*
X168245641Y-98845683D01*
X168154104Y-99066129D01*
X168153896Y-99304824D01*
X163720000Y-99304824D01*
X163720000Y-98034824D01*
X168153896Y-98034824D01*
X168245048Y-98255429D01*
X168413683Y-98424359D01*
X168634129Y-98515896D01*
X168872824Y-98516104D01*
X169093429Y-98424952D01*
X169262359Y-98256317D01*
X169353896Y-98035871D01*
X169354104Y-97797176D01*
X169262952Y-97576571D01*
X169094317Y-97407641D01*
X168873871Y-97316104D01*
X168635176Y-97315896D01*
X168414571Y-97407048D01*
X168245641Y-97575683D01*
X168154104Y-97796129D01*
X168153896Y-98034824D01*
X163720000Y-98034824D01*
X163720000Y-96764824D01*
X168153896Y-96764824D01*
X168245048Y-96985429D01*
X168413683Y-97154359D01*
X168634129Y-97245896D01*
X168872824Y-97246104D01*
X169093429Y-97154952D01*
X169262359Y-96986317D01*
X169353896Y-96765871D01*
X169354104Y-96527176D01*
X169262952Y-96306571D01*
X169094317Y-96137641D01*
X168873871Y-96046104D01*
X168635176Y-96045896D01*
X168414571Y-96137048D01*
X168245641Y-96305683D01*
X168154104Y-96526129D01*
X168153896Y-96764824D01*
X163720000Y-96764824D01*
X163720000Y-95494824D01*
X168153896Y-95494824D01*
X168245048Y-95715429D01*
X168413683Y-95884359D01*
X168634129Y-95975896D01*
X168872824Y-95976104D01*
X169093429Y-95884952D01*
X169262359Y-95716317D01*
X169353896Y-95495871D01*
X169354104Y-95257176D01*
X169262952Y-95036571D01*
X169094317Y-94867641D01*
X168873871Y-94776104D01*
X168635176Y-94775896D01*
X168414571Y-94867048D01*
X168245641Y-95035683D01*
X168154104Y-95256129D01*
X168153896Y-95494824D01*
X163720000Y-95494824D01*
X163720000Y-94224824D01*
X168153896Y-94224824D01*
X168245048Y-94445429D01*
X168413683Y-94614359D01*
X168634129Y-94705896D01*
X168872824Y-94706104D01*
X169093429Y-94614952D01*
X169262359Y-94446317D01*
X169353896Y-94225871D01*
X169354104Y-93987176D01*
X169262952Y-93766571D01*
X169094317Y-93597641D01*
X168873871Y-93506104D01*
X168635176Y-93505896D01*
X168414571Y-93597048D01*
X168245641Y-93765683D01*
X168154104Y-93986129D01*
X168153896Y-94224824D01*
X163720000Y-94224824D01*
X163720000Y-92954824D01*
X168153896Y-92954824D01*
X168245048Y-93175429D01*
X168413683Y-93344359D01*
X168634129Y-93435896D01*
X168872824Y-93436104D01*
X169093429Y-93344952D01*
X169262359Y-93176317D01*
X169353896Y-92955871D01*
X169354104Y-92717176D01*
X169262952Y-92496571D01*
X169094317Y-92327641D01*
X168873871Y-92236104D01*
X168635176Y-92235896D01*
X168414571Y-92327048D01*
X168245641Y-92495683D01*
X168154104Y-92716129D01*
X168153896Y-92954824D01*
X163720000Y-92954824D01*
X163720000Y-91684824D01*
X168153896Y-91684824D01*
X168245048Y-91905429D01*
X168413683Y-92074359D01*
X168634129Y-92165896D01*
X168872824Y-92166104D01*
X169093429Y-92074952D01*
X169262359Y-91906317D01*
X169353896Y-91685871D01*
X169354104Y-91447176D01*
X169262952Y-91226571D01*
X169094317Y-91057641D01*
X168873871Y-90966104D01*
X168635176Y-90965896D01*
X168414571Y-91057048D01*
X168245641Y-91225683D01*
X168154104Y-91446129D01*
X168153896Y-91684824D01*
X163720000Y-91684824D01*
X163720000Y-90160824D01*
X166756896Y-90160824D01*
X166848048Y-90381429D01*
X167016683Y-90550359D01*
X167237129Y-90641896D01*
X167475824Y-90642104D01*
X167696429Y-90550952D01*
X167865359Y-90382317D01*
X167956896Y-90161871D01*
X167956896Y-90160824D01*
X168153896Y-90160824D01*
X168245048Y-90381429D01*
X168413683Y-90550359D01*
X168634129Y-90641896D01*
X168872824Y-90642104D01*
X169093429Y-90550952D01*
X169262359Y-90382317D01*
X169353896Y-90161871D01*
X169354104Y-89923176D01*
X169262952Y-89702571D01*
X169094317Y-89533641D01*
X168873871Y-89442104D01*
X168635176Y-89441896D01*
X168414571Y-89533048D01*
X168245641Y-89701683D01*
X168154104Y-89922129D01*
X168153896Y-90160824D01*
X167956896Y-90160824D01*
X167957104Y-89923176D01*
X167865952Y-89702571D01*
X167697317Y-89533641D01*
X167476871Y-89442104D01*
X167238176Y-89441896D01*
X167017571Y-89533048D01*
X166848641Y-89701683D01*
X166757104Y-89922129D01*
X166756896Y-90160824D01*
X163720000Y-90160824D01*
X163720000Y-88636824D01*
X165359896Y-88636824D01*
X165451048Y-88857429D01*
X165619683Y-89026359D01*
X165840129Y-89117896D01*
X166078824Y-89118104D01*
X166299429Y-89026952D01*
X166468359Y-88858317D01*
X166559896Y-88637871D01*
X166559896Y-88636824D01*
X166756896Y-88636824D01*
X166848048Y-88857429D01*
X167016683Y-89026359D01*
X167237129Y-89117896D01*
X167475824Y-89118104D01*
X167696429Y-89026952D01*
X167865359Y-88858317D01*
X167956896Y-88637871D01*
X167956896Y-88636824D01*
X168153896Y-88636824D01*
X168245048Y-88857429D01*
X168413683Y-89026359D01*
X168634129Y-89117896D01*
X168872824Y-89118104D01*
X169093429Y-89026952D01*
X169262359Y-88858317D01*
X169353896Y-88637871D01*
X169354104Y-88399176D01*
X169262952Y-88178571D01*
X169094317Y-88009641D01*
X168873871Y-87918104D01*
X168635176Y-87917896D01*
X168414571Y-88009048D01*
X168245641Y-88177683D01*
X168154104Y-88398129D01*
X168153896Y-88636824D01*
X167956896Y-88636824D01*
X167957104Y-88399176D01*
X167865952Y-88178571D01*
X167697317Y-88009641D01*
X167476871Y-87918104D01*
X167238176Y-87917896D01*
X167017571Y-88009048D01*
X166848641Y-88177683D01*
X166757104Y-88398129D01*
X166756896Y-88636824D01*
X166559896Y-88636824D01*
X166560104Y-88399176D01*
X166468952Y-88178571D01*
X166300317Y-88009641D01*
X166079871Y-87918104D01*
X165841176Y-87917896D01*
X165620571Y-88009048D01*
X165451641Y-88177683D01*
X165360104Y-88398129D01*
X165359896Y-88636824D01*
X163720000Y-88636824D01*
X163720000Y-85588824D01*
X164470896Y-85588824D01*
X164562048Y-85809429D01*
X164730683Y-85978359D01*
X164951129Y-86069896D01*
X165189824Y-86070104D01*
X165410429Y-85978952D01*
X165579359Y-85810317D01*
X165670896Y-85589871D01*
X165670896Y-85588824D01*
X165867896Y-85588824D01*
X165959048Y-85809429D01*
X166127683Y-85978359D01*
X166348129Y-86069896D01*
X166586824Y-86070104D01*
X166807429Y-85978952D01*
X166976359Y-85810317D01*
X167067896Y-85589871D01*
X167067896Y-85588824D01*
X167264896Y-85588824D01*
X167356048Y-85809429D01*
X167524683Y-85978359D01*
X167745129Y-86069896D01*
X167983824Y-86070104D01*
X168204429Y-85978952D01*
X168373359Y-85810317D01*
X168419280Y-85699726D01*
X187029799Y-85699726D01*
X187206026Y-86126229D01*
X187532055Y-86452827D01*
X187958249Y-86629798D01*
X188419726Y-86630201D01*
X188846229Y-86453974D01*
X189172827Y-86127945D01*
X189349798Y-85701751D01*
X189349799Y-85699726D01*
X189569799Y-85699726D01*
X189746026Y-86126229D01*
X190072055Y-86452827D01*
X190498249Y-86629798D01*
X190959726Y-86630201D01*
X191386229Y-86453974D01*
X191712827Y-86127945D01*
X191889798Y-85701751D01*
X191890201Y-85240274D01*
X191713974Y-84813771D01*
X191387945Y-84487173D01*
X190961751Y-84310202D01*
X190500274Y-84309799D01*
X190073771Y-84486026D01*
X189747173Y-84812055D01*
X189570202Y-85238249D01*
X189569799Y-85699726D01*
X189349799Y-85699726D01*
X189350201Y-85240274D01*
X189173974Y-84813771D01*
X188847945Y-84487173D01*
X188421751Y-84310202D01*
X187960274Y-84309799D01*
X187533771Y-84486026D01*
X187207173Y-84812055D01*
X187030202Y-85238249D01*
X187029799Y-85699726D01*
X168419280Y-85699726D01*
X168464896Y-85589871D01*
X168465104Y-85351176D01*
X168373952Y-85130571D01*
X168205317Y-84961641D01*
X167984871Y-84870104D01*
X167746176Y-84869896D01*
X167525571Y-84961048D01*
X167356641Y-85129683D01*
X167265104Y-85350129D01*
X167264896Y-85588824D01*
X167067896Y-85588824D01*
X167068104Y-85351176D01*
X166976952Y-85130571D01*
X166808317Y-84961641D01*
X166587871Y-84870104D01*
X166349176Y-84869896D01*
X166128571Y-84961048D01*
X165959641Y-85129683D01*
X165868104Y-85350129D01*
X165867896Y-85588824D01*
X165670896Y-85588824D01*
X165671104Y-85351176D01*
X165579952Y-85130571D01*
X165411317Y-84961641D01*
X165190871Y-84870104D01*
X164952176Y-84869896D01*
X164731571Y-84961048D01*
X164562641Y-85129683D01*
X164471104Y-85350129D01*
X164470896Y-85588824D01*
X163720000Y-85588824D01*
X163720000Y-84191824D01*
X164470896Y-84191824D01*
X164562048Y-84412429D01*
X164730683Y-84581359D01*
X164951129Y-84672896D01*
X165189824Y-84673104D01*
X165410429Y-84581952D01*
X165579359Y-84413317D01*
X165670896Y-84192871D01*
X165670896Y-84191824D01*
X165867896Y-84191824D01*
X165959048Y-84412429D01*
X166127683Y-84581359D01*
X166348129Y-84672896D01*
X166586824Y-84673104D01*
X166807429Y-84581952D01*
X166976359Y-84413317D01*
X167067896Y-84192871D01*
X167067896Y-84191824D01*
X167264896Y-84191824D01*
X167356048Y-84412429D01*
X167524683Y-84581359D01*
X167745129Y-84672896D01*
X167983824Y-84673104D01*
X168204429Y-84581952D01*
X168373359Y-84413317D01*
X168464896Y-84192871D01*
X168465104Y-83954176D01*
X168373952Y-83733571D01*
X168205317Y-83564641D01*
X167984871Y-83473104D01*
X167746176Y-83472896D01*
X167525571Y-83564048D01*
X167356641Y-83732683D01*
X167265104Y-83953129D01*
X167264896Y-84191824D01*
X167067896Y-84191824D01*
X167068104Y-83954176D01*
X166976952Y-83733571D01*
X166808317Y-83564641D01*
X166587871Y-83473104D01*
X166349176Y-83472896D01*
X166128571Y-83564048D01*
X165959641Y-83732683D01*
X165868104Y-83953129D01*
X165867896Y-84191824D01*
X165670896Y-84191824D01*
X165671104Y-83954176D01*
X165579952Y-83733571D01*
X165411317Y-83564641D01*
X165190871Y-83473104D01*
X164952176Y-83472896D01*
X164731571Y-83564048D01*
X164562641Y-83732683D01*
X164471104Y-83953129D01*
X164470896Y-84191824D01*
X163720000Y-84191824D01*
X163720000Y-82794824D01*
X164470896Y-82794824D01*
X164562048Y-83015429D01*
X164730683Y-83184359D01*
X164951129Y-83275896D01*
X165189824Y-83276104D01*
X165410429Y-83184952D01*
X165579359Y-83016317D01*
X165670896Y-82795871D01*
X165670896Y-82794824D01*
X165867896Y-82794824D01*
X165959048Y-83015429D01*
X166127683Y-83184359D01*
X166348129Y-83275896D01*
X166586824Y-83276104D01*
X166807429Y-83184952D01*
X166976359Y-83016317D01*
X167067896Y-82795871D01*
X167067896Y-82794824D01*
X167264896Y-82794824D01*
X167356048Y-83015429D01*
X167524683Y-83184359D01*
X167745129Y-83275896D01*
X167983824Y-83276104D01*
X168204429Y-83184952D01*
X168229699Y-83159726D01*
X187029799Y-83159726D01*
X187206026Y-83586229D01*
X187532055Y-83912827D01*
X187958249Y-84089798D01*
X188419726Y-84090201D01*
X188846229Y-83913974D01*
X189172827Y-83587945D01*
X189349798Y-83161751D01*
X189349799Y-83159726D01*
X189569799Y-83159726D01*
X189746026Y-83586229D01*
X190072055Y-83912827D01*
X190498249Y-84089798D01*
X190959726Y-84090201D01*
X191386229Y-83913974D01*
X191712827Y-83587945D01*
X191889798Y-83161751D01*
X191890201Y-82700274D01*
X191713974Y-82273771D01*
X191387945Y-81947173D01*
X190961751Y-81770202D01*
X190500274Y-81769799D01*
X190073771Y-81946026D01*
X189747173Y-82272055D01*
X189570202Y-82698249D01*
X189569799Y-83159726D01*
X189349799Y-83159726D01*
X189350201Y-82700274D01*
X189173974Y-82273771D01*
X188847945Y-81947173D01*
X188421751Y-81770202D01*
X187960274Y-81769799D01*
X187533771Y-81946026D01*
X187207173Y-82272055D01*
X187030202Y-82698249D01*
X187029799Y-83159726D01*
X168229699Y-83159726D01*
X168373359Y-83016317D01*
X168464896Y-82795871D01*
X168465104Y-82557176D01*
X168373952Y-82336571D01*
X168205317Y-82167641D01*
X167984871Y-82076104D01*
X167746176Y-82075896D01*
X167525571Y-82167048D01*
X167356641Y-82335683D01*
X167265104Y-82556129D01*
X167264896Y-82794824D01*
X167067896Y-82794824D01*
X167068104Y-82557176D01*
X166976952Y-82336571D01*
X166808317Y-82167641D01*
X166587871Y-82076104D01*
X166349176Y-82075896D01*
X166128571Y-82167048D01*
X165959641Y-82335683D01*
X165868104Y-82556129D01*
X165867896Y-82794824D01*
X165670896Y-82794824D01*
X165671104Y-82557176D01*
X165579952Y-82336571D01*
X165411317Y-82167641D01*
X165190871Y-82076104D01*
X164952176Y-82075896D01*
X164731571Y-82167048D01*
X164562641Y-82335683D01*
X164471104Y-82556129D01*
X164470896Y-82794824D01*
X163720000Y-82794824D01*
X163720000Y-80508824D01*
X182377896Y-80508824D01*
X182469048Y-80729429D01*
X182637683Y-80898359D01*
X182858129Y-80989896D01*
X183096824Y-80990104D01*
X183317429Y-80898952D01*
X183486359Y-80730317D01*
X183532280Y-80619726D01*
X187029799Y-80619726D01*
X187206026Y-81046229D01*
X187532055Y-81372827D01*
X187958249Y-81549798D01*
X188419726Y-81550201D01*
X188846229Y-81373974D01*
X189172827Y-81047945D01*
X189349798Y-80621751D01*
X189349799Y-80619726D01*
X189569799Y-80619726D01*
X189746026Y-81046229D01*
X190072055Y-81372827D01*
X190498249Y-81549798D01*
X190959726Y-81550201D01*
X191386229Y-81373974D01*
X191712827Y-81047945D01*
X191889798Y-80621751D01*
X191890201Y-80160274D01*
X191713974Y-79733771D01*
X191387945Y-79407173D01*
X190961751Y-79230202D01*
X190500274Y-79229799D01*
X190073771Y-79406026D01*
X189747173Y-79732055D01*
X189570202Y-80158249D01*
X189569799Y-80619726D01*
X189349799Y-80619726D01*
X189350201Y-80160274D01*
X189173974Y-79733771D01*
X188847945Y-79407173D01*
X188421751Y-79230202D01*
X187960274Y-79229799D01*
X187533771Y-79406026D01*
X187207173Y-79732055D01*
X187030202Y-80158249D01*
X187029799Y-80619726D01*
X183532280Y-80619726D01*
X183577896Y-80509871D01*
X183578104Y-80271176D01*
X183486952Y-80050571D01*
X183318317Y-79881641D01*
X183097871Y-79790104D01*
X182859176Y-79789896D01*
X182638571Y-79881048D01*
X182469641Y-80049683D01*
X182378104Y-80270129D01*
X182377896Y-80508824D01*
X163720000Y-80508824D01*
X163720000Y-79166000D01*
X185010000Y-79166000D01*
X185119037Y-79145483D01*
X185219181Y-79081042D01*
X185286364Y-78982717D01*
X185310000Y-78866000D01*
X185310000Y-78079726D01*
X187029799Y-78079726D01*
X187206026Y-78506229D01*
X187532055Y-78832827D01*
X187958249Y-79009798D01*
X188419726Y-79010201D01*
X188846229Y-78833974D01*
X189172827Y-78507945D01*
X189349798Y-78081751D01*
X189349799Y-78079726D01*
X189569799Y-78079726D01*
X189746026Y-78506229D01*
X190072055Y-78832827D01*
X190498249Y-79009798D01*
X190959726Y-79010201D01*
X191386229Y-78833974D01*
X191712827Y-78507945D01*
X191889798Y-78081751D01*
X191890201Y-77620274D01*
X191713974Y-77193771D01*
X191387945Y-76867173D01*
X190961751Y-76690202D01*
X190500274Y-76689799D01*
X190073771Y-76866026D01*
X189747173Y-77192055D01*
X189570202Y-77618249D01*
X189569799Y-78079726D01*
X189349799Y-78079726D01*
X189350201Y-77620274D01*
X189173974Y-77193771D01*
X188847945Y-76867173D01*
X188421751Y-76690202D01*
X187960274Y-76689799D01*
X187533771Y-76866026D01*
X187207173Y-77192055D01*
X187030202Y-77618249D01*
X187029799Y-78079726D01*
X185310000Y-78079726D01*
X185310000Y-76508302D01*
X185398129Y-76544896D01*
X185636824Y-76545104D01*
X185857429Y-76453952D01*
X186026359Y-76285317D01*
X186117896Y-76064871D01*
X186118104Y-75826176D01*
X186087814Y-75752868D01*
X186160129Y-75782896D01*
X186398824Y-75783104D01*
X186619429Y-75691952D01*
X186771921Y-75539726D01*
X187029799Y-75539726D01*
X187206026Y-75966229D01*
X187532055Y-76292827D01*
X187958249Y-76469798D01*
X188419726Y-76470201D01*
X188846229Y-76293974D01*
X189172827Y-75967945D01*
X189349798Y-75541751D01*
X189349799Y-75539726D01*
X189569799Y-75539726D01*
X189746026Y-75966229D01*
X190072055Y-76292827D01*
X190498249Y-76469798D01*
X190959726Y-76470201D01*
X191386229Y-76293974D01*
X191712827Y-75967945D01*
X191889798Y-75541751D01*
X191890201Y-75080274D01*
X191713974Y-74653771D01*
X191387945Y-74327173D01*
X190961751Y-74150202D01*
X190500274Y-74149799D01*
X190073771Y-74326026D01*
X189747173Y-74652055D01*
X189570202Y-75078249D01*
X189569799Y-75539726D01*
X189349799Y-75539726D01*
X189350201Y-75080274D01*
X189173974Y-74653771D01*
X188847945Y-74327173D01*
X188421751Y-74150202D01*
X187960274Y-74149799D01*
X187533771Y-74326026D01*
X187207173Y-74652055D01*
X187030202Y-75078249D01*
X187029799Y-75539726D01*
X186771921Y-75539726D01*
X186788359Y-75523317D01*
X186879896Y-75302871D01*
X186880104Y-75064176D01*
X186788952Y-74843571D01*
X186620317Y-74674641D01*
X186399871Y-74583104D01*
X186161176Y-74582896D01*
X185940571Y-74674048D01*
X185771641Y-74842683D01*
X185680104Y-75063129D01*
X185679896Y-75301824D01*
X185710186Y-75375132D01*
X185637871Y-75345104D01*
X185399176Y-75344896D01*
X185310000Y-75381743D01*
X185310000Y-73759000D01*
X186128010Y-73759000D01*
X186061104Y-73920129D01*
X186060896Y-74158824D01*
X186152048Y-74379429D01*
X186320683Y-74548359D01*
X186541129Y-74639896D01*
X186779824Y-74640104D01*
X187000429Y-74548952D01*
X187169359Y-74380317D01*
X187260896Y-74159871D01*
X187261104Y-73921176D01*
X187194094Y-73759000D01*
X187546921Y-73759000D01*
X187958249Y-73929798D01*
X188419726Y-73930201D01*
X188834065Y-73759000D01*
X190086921Y-73759000D01*
X190498249Y-73929798D01*
X190959726Y-73930201D01*
X191374065Y-73759000D01*
X194662000Y-73759000D01*
X194700906Y-73751121D01*
X194733681Y-73728727D01*
X194755161Y-73695346D01*
X194762000Y-73659000D01*
X194762000Y-56260000D01*
X194754121Y-56221094D01*
X194731727Y-56188319D01*
X194698346Y-56166839D01*
X194662000Y-56160000D01*
X189555000Y-56160000D01*
X189555000Y-50139726D01*
X189569799Y-50139726D01*
X189746026Y-50566229D01*
X190072055Y-50892827D01*
X190498249Y-51069798D01*
X190959726Y-51070201D01*
X191386229Y-50893974D01*
X191682531Y-50598188D01*
X192334398Y-50598188D01*
X192862321Y-51875858D01*
X193839001Y-52854244D01*
X195115747Y-53384395D01*
X196498188Y-53385602D01*
X197775858Y-52857679D01*
X198754244Y-51880999D01*
X199284395Y-50604253D01*
X199285602Y-49221812D01*
X198757679Y-47944142D01*
X197780999Y-46965756D01*
X196504253Y-46435605D01*
X195121812Y-46434398D01*
X193844142Y-46962321D01*
X192865756Y-47939001D01*
X192335605Y-49215747D01*
X192334398Y-50598188D01*
X191682531Y-50598188D01*
X191712827Y-50567945D01*
X191889798Y-50141751D01*
X191890201Y-49680274D01*
X191713974Y-49253771D01*
X191387945Y-48927173D01*
X190961751Y-48750202D01*
X190500274Y-48749799D01*
X190073771Y-48926026D01*
X189747173Y-49252055D01*
X189570202Y-49678249D01*
X189569799Y-50139726D01*
X189555000Y-50139726D01*
X189555000Y-45205000D01*
X200515000Y-45205000D01*
X200515000Y-93498000D01*
G36*
X147318000Y-72289000D02*
X141041000Y-72289000D01*
X141041000Y-71092000D01*
X147318000Y-71092000D01*
X147318000Y-72289000D01*
X147318000Y-72289000D01*
G37*
X147318000Y-72289000D02*
X141041000Y-72289000D01*
X141041000Y-71092000D01*
X147318000Y-71092000D01*
X147318000Y-72289000D01*
G36*
X189155000Y-49234764D02*
X188847945Y-48927173D01*
X188421751Y-48750202D01*
X187960274Y-48749799D01*
X187533771Y-48926026D01*
X187207173Y-49252055D01*
X187030202Y-49678249D01*
X187029799Y-50139726D01*
X187206026Y-50566229D01*
X187532055Y-50892827D01*
X187958249Y-51069798D01*
X188419726Y-51070201D01*
X188846229Y-50893974D01*
X189155000Y-50585741D01*
X189155000Y-51774764D01*
X188847945Y-51467173D01*
X188421751Y-51290202D01*
X187960274Y-51289799D01*
X187533771Y-51466026D01*
X187207173Y-51792055D01*
X187030202Y-52218249D01*
X187029799Y-52679726D01*
X187206026Y-53106229D01*
X187532055Y-53432827D01*
X187958249Y-53609798D01*
X188419726Y-53610201D01*
X188846229Y-53433974D01*
X189155000Y-53125741D01*
X189155000Y-54314764D01*
X188847945Y-54007173D01*
X188421751Y-53830202D01*
X187960274Y-53829799D01*
X187533771Y-54006026D01*
X187207173Y-54332055D01*
X187030202Y-54758249D01*
X187029799Y-55219726D01*
X187206026Y-55646229D01*
X187532055Y-55972827D01*
X187958249Y-56149798D01*
X188419726Y-56150201D01*
X188846229Y-55973974D01*
X189155000Y-55665741D01*
X189155000Y-56260000D01*
X189175517Y-56369037D01*
X189239958Y-56469181D01*
X189338283Y-56536364D01*
X189455000Y-56560000D01*
X194362000Y-56560000D01*
X194362000Y-73359000D01*
X191741455Y-73359000D01*
X191889798Y-73001751D01*
X191890201Y-72540274D01*
X191713974Y-72113771D01*
X191387945Y-71787173D01*
X190961751Y-71610202D01*
X190500274Y-71609799D01*
X190073771Y-71786026D01*
X189747173Y-72112055D01*
X189570202Y-72538249D01*
X189569799Y-72999726D01*
X189718248Y-73359000D01*
X189201455Y-73359000D01*
X189349798Y-73001751D01*
X189350201Y-72540274D01*
X189173974Y-72113771D01*
X188847945Y-71787173D01*
X188421751Y-71610202D01*
X187960274Y-71609799D01*
X187533771Y-71786026D01*
X187220078Y-72099173D01*
X187260896Y-72000871D01*
X187261104Y-71762176D01*
X187169952Y-71541571D01*
X187001317Y-71372641D01*
X186780871Y-71281104D01*
X186542176Y-71280896D01*
X186321571Y-71372048D01*
X186152641Y-71540683D01*
X186061104Y-71761129D01*
X186060896Y-71999824D01*
X186152048Y-72220429D01*
X186320683Y-72389359D01*
X186472846Y-72452543D01*
X186321571Y-72515048D01*
X186152641Y-72683683D01*
X186061104Y-72904129D01*
X186060896Y-73142824D01*
X186150218Y-73359000D01*
X185482930Y-73359000D01*
X185483104Y-73159176D01*
X185391952Y-72938571D01*
X185310000Y-72856476D01*
X185310000Y-72683534D01*
X185391359Y-72602317D01*
X185482896Y-72381871D01*
X185483104Y-72143176D01*
X185391952Y-71922571D01*
X185310000Y-71840476D01*
X185310000Y-71667534D01*
X185391359Y-71586317D01*
X185482896Y-71365871D01*
X185483104Y-71127176D01*
X185391952Y-70906571D01*
X185310000Y-70824476D01*
X185310000Y-70651534D01*
X185391359Y-70570317D01*
X185437280Y-70459726D01*
X187029799Y-70459726D01*
X187206026Y-70886229D01*
X187532055Y-71212827D01*
X187958249Y-71389798D01*
X188419726Y-71390201D01*
X188846229Y-71213974D01*
X189172827Y-70887945D01*
X189349798Y-70461751D01*
X189349799Y-70459726D01*
X189569799Y-70459726D01*
X189746026Y-70886229D01*
X190072055Y-71212827D01*
X190498249Y-71389798D01*
X190959726Y-71390201D01*
X191386229Y-71213974D01*
X191712827Y-70887945D01*
X191889798Y-70461751D01*
X191890201Y-70000274D01*
X191713974Y-69573771D01*
X191387945Y-69247173D01*
X190961751Y-69070202D01*
X190500274Y-69069799D01*
X190073771Y-69246026D01*
X189747173Y-69572055D01*
X189570202Y-69998249D01*
X189569799Y-70459726D01*
X189349799Y-70459726D01*
X189350201Y-70000274D01*
X189173974Y-69573771D01*
X188847945Y-69247173D01*
X188421751Y-69070202D01*
X187960274Y-69069799D01*
X187533771Y-69246026D01*
X187207173Y-69572055D01*
X187030202Y-69998249D01*
X187029799Y-70459726D01*
X185437280Y-70459726D01*
X185482896Y-70349871D01*
X185483104Y-70111176D01*
X185391952Y-69890571D01*
X185310000Y-69808476D01*
X185310000Y-69635534D01*
X185391359Y-69554317D01*
X185482896Y-69333871D01*
X185483104Y-69095176D01*
X185391952Y-68874571D01*
X185310000Y-68792476D01*
X185310000Y-68746534D01*
X185391359Y-68665317D01*
X185482896Y-68444871D01*
X185483104Y-68206176D01*
X185391952Y-67985571D01*
X185326222Y-67919726D01*
X187029799Y-67919726D01*
X187206026Y-68346229D01*
X187532055Y-68672827D01*
X187958249Y-68849798D01*
X188419726Y-68850201D01*
X188846229Y-68673974D01*
X189172827Y-68347945D01*
X189349798Y-67921751D01*
X189349799Y-67919726D01*
X189569799Y-67919726D01*
X189746026Y-68346229D01*
X190072055Y-68672827D01*
X190498249Y-68849798D01*
X190959726Y-68850201D01*
X191386229Y-68673974D01*
X191712827Y-68347945D01*
X191889798Y-67921751D01*
X191890201Y-67460274D01*
X191713974Y-67033771D01*
X191387945Y-66707173D01*
X190961751Y-66530202D01*
X190500274Y-66529799D01*
X190073771Y-66706026D01*
X189747173Y-67032055D01*
X189570202Y-67458249D01*
X189569799Y-67919726D01*
X189349799Y-67919726D01*
X189350201Y-67460274D01*
X189173974Y-67033771D01*
X188847945Y-66707173D01*
X188421751Y-66530202D01*
X187960274Y-66529799D01*
X187533771Y-66706026D01*
X187207173Y-67032055D01*
X187030202Y-67458249D01*
X187029799Y-67919726D01*
X185326222Y-67919726D01*
X185310000Y-67903476D01*
X185310000Y-67182000D01*
X185289483Y-67072963D01*
X185225042Y-66972819D01*
X185126717Y-66905636D01*
X185010000Y-66882000D01*
X172691000Y-66882000D01*
X172581963Y-66902517D01*
X172481819Y-66966958D01*
X172414636Y-67065283D01*
X172391000Y-67182000D01*
X172391000Y-73359000D01*
X163420000Y-73359000D01*
X163310963Y-73379517D01*
X163210819Y-73443958D01*
X163143636Y-73542283D01*
X163140251Y-73559000D01*
X142407558Y-73559000D01*
X142348529Y-73499868D01*
X142508359Y-73340317D01*
X142599896Y-73119871D01*
X142600104Y-72881176D01*
X142520699Y-72689000D01*
X147418000Y-72689000D01*
X147527037Y-72668483D01*
X147627181Y-72604042D01*
X147694364Y-72505717D01*
X147718000Y-72389000D01*
X147718000Y-70992000D01*
X147697483Y-70882963D01*
X147633042Y-70782819D01*
X147534717Y-70715636D01*
X147418000Y-70692000D01*
X140941000Y-70692000D01*
X140831963Y-70712517D01*
X140731819Y-70776958D01*
X140664636Y-70875283D01*
X140641000Y-70992000D01*
X140641000Y-71911183D01*
X139697182Y-72855000D01*
X139530034Y-72855000D01*
X139409871Y-72805104D01*
X139171176Y-72804896D01*
X138950571Y-72896048D01*
X138781641Y-73064683D01*
X138690104Y-73285129D01*
X138689896Y-73523824D01*
X138704430Y-73559000D01*
X131507984Y-73559000D01*
X131433078Y-73377714D01*
X131123913Y-73068009D01*
X130719763Y-72900192D01*
X130282156Y-72899810D01*
X129877714Y-73066922D01*
X129568009Y-73376087D01*
X129492057Y-73559000D01*
X129007984Y-73559000D01*
X128933078Y-73377714D01*
X128623913Y-73068009D01*
X128219763Y-72900192D01*
X127782156Y-72899810D01*
X127377714Y-73066922D01*
X127068009Y-73376087D01*
X126992057Y-73559000D01*
X126507984Y-73559000D01*
X126433078Y-73377714D01*
X126123913Y-73068009D01*
X125719763Y-72900192D01*
X125282156Y-72899810D01*
X124877714Y-73066922D01*
X124568009Y-73376087D01*
X124492058Y-73559000D01*
X124417628Y-73559000D01*
X124390317Y-73531641D01*
X124169871Y-73440104D01*
X123931176Y-73439896D01*
X123710571Y-73531048D01*
X123682570Y-73559000D01*
X123147628Y-73559000D01*
X123120317Y-73531641D01*
X122899871Y-73440104D01*
X122661176Y-73439896D01*
X122440571Y-73531048D01*
X122412570Y-73559000D01*
X121877628Y-73559000D01*
X121850317Y-73531641D01*
X121629871Y-73440104D01*
X121391176Y-73439896D01*
X121170571Y-73531048D01*
X121142570Y-73559000D01*
X120607628Y-73559000D01*
X120580317Y-73531641D01*
X120359871Y-73440104D01*
X120121176Y-73439896D01*
X119900571Y-73531048D01*
X119872570Y-73559000D01*
X119337628Y-73559000D01*
X119310317Y-73531641D01*
X119089871Y-73440104D01*
X118851176Y-73439896D01*
X118630571Y-73531048D01*
X118602570Y-73559000D01*
X105375000Y-73559000D01*
X105375000Y-72888824D01*
X118369896Y-72888824D01*
X118461048Y-73109429D01*
X118629683Y-73278359D01*
X118850129Y-73369896D01*
X119088824Y-73370104D01*
X119309429Y-73278952D01*
X119478359Y-73110317D01*
X119569896Y-72889871D01*
X119569896Y-72888824D01*
X119639896Y-72888824D01*
X119731048Y-73109429D01*
X119899683Y-73278359D01*
X120120129Y-73369896D01*
X120358824Y-73370104D01*
X120579429Y-73278952D01*
X120748359Y-73110317D01*
X120839896Y-72889871D01*
X120839896Y-72888824D01*
X120909896Y-72888824D01*
X121001048Y-73109429D01*
X121169683Y-73278359D01*
X121390129Y-73369896D01*
X121628824Y-73370104D01*
X121849429Y-73278952D01*
X122018359Y-73110317D01*
X122109896Y-72889871D01*
X122109896Y-72888824D01*
X122179896Y-72888824D01*
X122271048Y-73109429D01*
X122439683Y-73278359D01*
X122660129Y-73369896D01*
X122898824Y-73370104D01*
X123119429Y-73278952D01*
X123288359Y-73110317D01*
X123379896Y-72889871D01*
X123379896Y-72888824D01*
X123449896Y-72888824D01*
X123541048Y-73109429D01*
X123709683Y-73278359D01*
X123930129Y-73369896D01*
X124168824Y-73370104D01*
X124389429Y-73278952D01*
X124558359Y-73110317D01*
X124649896Y-72889871D01*
X124650104Y-72651176D01*
X124558952Y-72430571D01*
X124390317Y-72261641D01*
X124169871Y-72170104D01*
X123931176Y-72169896D01*
X123710571Y-72261048D01*
X123541641Y-72429683D01*
X123450104Y-72650129D01*
X123449896Y-72888824D01*
X123379896Y-72888824D01*
X123380104Y-72651176D01*
X123288952Y-72430571D01*
X123120317Y-72261641D01*
X122899871Y-72170104D01*
X122661176Y-72169896D01*
X122440571Y-72261048D01*
X122271641Y-72429683D01*
X122180104Y-72650129D01*
X122179896Y-72888824D01*
X122109896Y-72888824D01*
X122110104Y-72651176D01*
X122018952Y-72430571D01*
X121850317Y-72261641D01*
X121629871Y-72170104D01*
X121391176Y-72169896D01*
X121170571Y-72261048D01*
X121001641Y-72429683D01*
X120910104Y-72650129D01*
X120909896Y-72888824D01*
X120839896Y-72888824D01*
X120840104Y-72651176D01*
X120748952Y-72430571D01*
X120580317Y-72261641D01*
X120359871Y-72170104D01*
X120121176Y-72169896D01*
X119900571Y-72261048D01*
X119731641Y-72429683D01*
X119640104Y-72650129D01*
X119639896Y-72888824D01*
X119569896Y-72888824D01*
X119570104Y-72651176D01*
X119478952Y-72430571D01*
X119310317Y-72261641D01*
X119089871Y-72170104D01*
X118851176Y-72169896D01*
X118630571Y-72261048D01*
X118461641Y-72429683D01*
X118370104Y-72650129D01*
X118369896Y-72888824D01*
X105375000Y-72888824D01*
X105375000Y-72126824D01*
X135387896Y-72126824D01*
X135479048Y-72347429D01*
X135647683Y-72516359D01*
X135868129Y-72607896D01*
X136106824Y-72608104D01*
X136327429Y-72516952D01*
X136496359Y-72348317D01*
X136587896Y-72127871D01*
X136588104Y-71889176D01*
X136496952Y-71668571D01*
X136328317Y-71499641D01*
X136107871Y-71408104D01*
X135869176Y-71407896D01*
X135648571Y-71499048D01*
X135479641Y-71667683D01*
X135388104Y-71888129D01*
X135387896Y-72126824D01*
X105375000Y-72126824D01*
X105375000Y-68886589D01*
X135835145Y-68886589D01*
X135926297Y-69107194D01*
X136094932Y-69276124D01*
X136315378Y-69367661D01*
X136554073Y-69367869D01*
X136774678Y-69276717D01*
X136943608Y-69108082D01*
X137035145Y-68887636D01*
X137035243Y-68774690D01*
X137561579Y-68774690D01*
X137652731Y-68995295D01*
X137821366Y-69164225D01*
X138041812Y-69255762D01*
X138280507Y-69255970D01*
X138501112Y-69164818D01*
X138670042Y-68996183D01*
X138761579Y-68775737D01*
X138761787Y-68537042D01*
X138670635Y-68316437D01*
X138502000Y-68147507D01*
X138281554Y-68055970D01*
X138042859Y-68055762D01*
X137822254Y-68146914D01*
X137653324Y-68315549D01*
X137561787Y-68535995D01*
X137561579Y-68774690D01*
X137035243Y-68774690D01*
X137035353Y-68648941D01*
X136944201Y-68428336D01*
X136775566Y-68259406D01*
X136555120Y-68167869D01*
X136316425Y-68167661D01*
X136095820Y-68258813D01*
X135926890Y-68427448D01*
X135835353Y-68647894D01*
X135835145Y-68886589D01*
X105375000Y-68886589D01*
X105375000Y-66030824D01*
X107701896Y-66030824D01*
X107793048Y-66251429D01*
X107961471Y-66420146D01*
X107793641Y-66587683D01*
X107702104Y-66808129D01*
X107701896Y-67046824D01*
X107793048Y-67267429D01*
X107961471Y-67436146D01*
X107793641Y-67603683D01*
X107702104Y-67824129D01*
X107701896Y-68062824D01*
X107793048Y-68283429D01*
X107961683Y-68452359D01*
X108182129Y-68543896D01*
X108420824Y-68544104D01*
X108641429Y-68452952D01*
X108810146Y-68284529D01*
X108977683Y-68452359D01*
X109198129Y-68543896D01*
X109436824Y-68544104D01*
X109657429Y-68452952D01*
X109826359Y-68284317D01*
X109917896Y-68063871D01*
X109918104Y-67825176D01*
X109826952Y-67604571D01*
X109658529Y-67435854D01*
X109826359Y-67268317D01*
X109917896Y-67047871D01*
X109918104Y-66809176D01*
X109826952Y-66588571D01*
X109658529Y-66419854D01*
X109826359Y-66252317D01*
X109917896Y-66031871D01*
X109918104Y-65793176D01*
X109826952Y-65572571D01*
X109777292Y-65522824D01*
X114051896Y-65522824D01*
X114143048Y-65743429D01*
X114311471Y-65912146D01*
X114143641Y-66079683D01*
X114052104Y-66300129D01*
X114051896Y-66538824D01*
X114143048Y-66759429D01*
X114311471Y-66928146D01*
X114143641Y-67095683D01*
X114052104Y-67316129D01*
X114051896Y-67554824D01*
X114143048Y-67775429D01*
X114311683Y-67944359D01*
X114532129Y-68035896D01*
X114770824Y-68036104D01*
X114991429Y-67944952D01*
X115160146Y-67776529D01*
X115327683Y-67944359D01*
X115548129Y-68035896D01*
X115786824Y-68036104D01*
X116007429Y-67944952D01*
X116176359Y-67776317D01*
X116267896Y-67555871D01*
X116268104Y-67317176D01*
X116176952Y-67096571D01*
X116008529Y-66927854D01*
X116176359Y-66760317D01*
X116215595Y-66665824D01*
X137292896Y-66665824D01*
X137384048Y-66886429D01*
X137552683Y-67055359D01*
X137773129Y-67146896D01*
X138011824Y-67147104D01*
X138232429Y-67055952D01*
X138401359Y-66887317D01*
X138492896Y-66666871D01*
X138492896Y-66665824D01*
X140213896Y-66665824D01*
X140305048Y-66886429D01*
X140473683Y-67055359D01*
X140694129Y-67146896D01*
X140932824Y-67147104D01*
X141153429Y-67055952D01*
X141322359Y-66887317D01*
X141350973Y-66818406D01*
X156666894Y-66818406D01*
X156758046Y-67039011D01*
X156926681Y-67207941D01*
X157147127Y-67299478D01*
X157385822Y-67299686D01*
X157606427Y-67208534D01*
X157775357Y-67039899D01*
X157866894Y-66819453D01*
X157867102Y-66580758D01*
X157775950Y-66360153D01*
X157607315Y-66191223D01*
X157587963Y-66183187D01*
X161574840Y-66183187D01*
X161715366Y-66523286D01*
X161975345Y-66783720D01*
X162315199Y-66924839D01*
X162683187Y-66925160D01*
X163023286Y-66784634D01*
X163283720Y-66524655D01*
X163424839Y-66184801D01*
X163425160Y-65816813D01*
X163284634Y-65476714D01*
X163187816Y-65379726D01*
X187029799Y-65379726D01*
X187206026Y-65806229D01*
X187532055Y-66132827D01*
X187958249Y-66309798D01*
X188419726Y-66310201D01*
X188846229Y-66133974D01*
X189172827Y-65807945D01*
X189349798Y-65381751D01*
X189349799Y-65379726D01*
X189569799Y-65379726D01*
X189746026Y-65806229D01*
X190072055Y-66132827D01*
X190498249Y-66309798D01*
X190959726Y-66310201D01*
X191386229Y-66133974D01*
X191712827Y-65807945D01*
X191889798Y-65381751D01*
X191890201Y-64920274D01*
X191713974Y-64493771D01*
X191387945Y-64167173D01*
X190961751Y-63990202D01*
X190500274Y-63989799D01*
X190073771Y-64166026D01*
X189747173Y-64492055D01*
X189570202Y-64918249D01*
X189569799Y-65379726D01*
X189349799Y-65379726D01*
X189350201Y-64920274D01*
X189173974Y-64493771D01*
X188847945Y-64167173D01*
X188421751Y-63990202D01*
X187960274Y-63989799D01*
X187533771Y-64166026D01*
X187207173Y-64492055D01*
X187030202Y-64918249D01*
X187029799Y-65379726D01*
X163187816Y-65379726D01*
X163024655Y-65216280D01*
X162684801Y-65075161D01*
X162316813Y-65074840D01*
X161976714Y-65215366D01*
X161716280Y-65475345D01*
X161575161Y-65815199D01*
X161574840Y-66183187D01*
X157587963Y-66183187D01*
X157386869Y-66099686D01*
X157148174Y-66099478D01*
X156927569Y-66190630D01*
X156758639Y-66359265D01*
X156667102Y-66579711D01*
X156666894Y-66818406D01*
X141350973Y-66818406D01*
X141413896Y-66666871D01*
X141414104Y-66428176D01*
X141322952Y-66207571D01*
X141154317Y-66038641D01*
X140933871Y-65947104D01*
X140695176Y-65946896D01*
X140474571Y-66038048D01*
X140305641Y-66206683D01*
X140214104Y-66427129D01*
X140213896Y-66665824D01*
X138492896Y-66665824D01*
X138493104Y-66428176D01*
X138401952Y-66207571D01*
X138233317Y-66038641D01*
X138012871Y-65947104D01*
X137774176Y-65946896D01*
X137553571Y-66038048D01*
X137384641Y-66206683D01*
X137293104Y-66427129D01*
X137292896Y-66665824D01*
X116215595Y-66665824D01*
X116267896Y-66539871D01*
X116268104Y-66301176D01*
X116176952Y-66080571D01*
X116008529Y-65911854D01*
X116176359Y-65744317D01*
X116267896Y-65523871D01*
X116268104Y-65285176D01*
X116176952Y-65064571D01*
X116008317Y-64895641D01*
X115787871Y-64804104D01*
X115549176Y-64803896D01*
X115328571Y-64895048D01*
X115159854Y-65063471D01*
X114992317Y-64895641D01*
X114771871Y-64804104D01*
X114533176Y-64803896D01*
X114312571Y-64895048D01*
X114143641Y-65063683D01*
X114052104Y-65284129D01*
X114051896Y-65522824D01*
X109777292Y-65522824D01*
X109658317Y-65403641D01*
X109437871Y-65312104D01*
X109199176Y-65311896D01*
X108978571Y-65403048D01*
X108809854Y-65571471D01*
X108642317Y-65403641D01*
X108421871Y-65312104D01*
X108183176Y-65311896D01*
X107962571Y-65403048D01*
X107793641Y-65571683D01*
X107702104Y-65792129D01*
X107701896Y-66030824D01*
X105375000Y-66030824D01*
X105375000Y-63668624D01*
X124684336Y-63668624D01*
X124775488Y-63889229D01*
X124944123Y-64058159D01*
X125164569Y-64149696D01*
X125403264Y-64149904D01*
X125623869Y-64058752D01*
X125792799Y-63890117D01*
X125878723Y-63683187D01*
X159074840Y-63683187D01*
X159215366Y-64023286D01*
X159475345Y-64283720D01*
X159815199Y-64424839D01*
X160183187Y-64425160D01*
X160523286Y-64284634D01*
X160783720Y-64024655D01*
X160924839Y-63684801D01*
X160925160Y-63316813D01*
X160784634Y-62976714D01*
X160647886Y-62839726D01*
X187029799Y-62839726D01*
X187206026Y-63266229D01*
X187532055Y-63592827D01*
X187958249Y-63769798D01*
X188419726Y-63770201D01*
X188846229Y-63593974D01*
X189172827Y-63267945D01*
X189349798Y-62841751D01*
X189349799Y-62839726D01*
X189569799Y-62839726D01*
X189746026Y-63266229D01*
X190072055Y-63592827D01*
X190498249Y-63769798D01*
X190959726Y-63770201D01*
X191386229Y-63593974D01*
X191712827Y-63267945D01*
X191889798Y-62841751D01*
X191890201Y-62380274D01*
X191713974Y-61953771D01*
X191387945Y-61627173D01*
X190961751Y-61450202D01*
X190500274Y-61449799D01*
X190073771Y-61626026D01*
X189747173Y-61952055D01*
X189570202Y-62378249D01*
X189569799Y-62839726D01*
X189349799Y-62839726D01*
X189350201Y-62380274D01*
X189173974Y-61953771D01*
X188847945Y-61627173D01*
X188421751Y-61450202D01*
X187960274Y-61449799D01*
X187533771Y-61626026D01*
X187207173Y-61952055D01*
X187030202Y-62378249D01*
X187029799Y-62839726D01*
X160647886Y-62839726D01*
X160524655Y-62716280D01*
X160184801Y-62575161D01*
X159816813Y-62574840D01*
X159476714Y-62715366D01*
X159216280Y-62975345D01*
X159075161Y-63315199D01*
X159074840Y-63683187D01*
X125878723Y-63683187D01*
X125884336Y-63669671D01*
X125884544Y-63430976D01*
X125793392Y-63210371D01*
X125624757Y-63041441D01*
X125404311Y-62949904D01*
X125165616Y-62949696D01*
X124945011Y-63040848D01*
X124776081Y-63209483D01*
X124684544Y-63429929D01*
X124684336Y-63668624D01*
X105375000Y-63668624D01*
X105375000Y-62693089D01*
X106524831Y-62693089D01*
X106672954Y-63051571D01*
X106946986Y-63326082D01*
X107305210Y-63474830D01*
X107693089Y-63475169D01*
X108051571Y-63327046D01*
X108326082Y-63053014D01*
X108474830Y-62694790D01*
X108475169Y-62306911D01*
X108327046Y-61948429D01*
X108053014Y-61673918D01*
X107694790Y-61525170D01*
X107306911Y-61524831D01*
X106948429Y-61672954D01*
X106673918Y-61946986D01*
X106525170Y-62305210D01*
X106524831Y-62693089D01*
X105375000Y-62693089D01*
X105375000Y-60755244D01*
X155349756Y-60755244D01*
X155440908Y-60975849D01*
X155609543Y-61144779D01*
X155829989Y-61236316D01*
X156068684Y-61236524D01*
X156197769Y-61183187D01*
X161574840Y-61183187D01*
X161715366Y-61523286D01*
X161975345Y-61783720D01*
X162315199Y-61924839D01*
X162683187Y-61925160D01*
X163023286Y-61784634D01*
X163283720Y-61524655D01*
X163424839Y-61184801D01*
X163425160Y-60816813D01*
X163284634Y-60476714D01*
X163107956Y-60299726D01*
X187029799Y-60299726D01*
X187206026Y-60726229D01*
X187532055Y-61052827D01*
X187958249Y-61229798D01*
X188419726Y-61230201D01*
X188846229Y-61053974D01*
X189172827Y-60727945D01*
X189349798Y-60301751D01*
X189350201Y-59840274D01*
X189173974Y-59413771D01*
X188847945Y-59087173D01*
X188421751Y-58910202D01*
X187960274Y-58909799D01*
X187533771Y-59086026D01*
X187207173Y-59412055D01*
X187030202Y-59838249D01*
X187029799Y-60299726D01*
X163107956Y-60299726D01*
X163024655Y-60216280D01*
X162684801Y-60075161D01*
X162316813Y-60074840D01*
X161976714Y-60215366D01*
X161716280Y-60475345D01*
X161575161Y-60815199D01*
X161574840Y-61183187D01*
X156197769Y-61183187D01*
X156289289Y-61145372D01*
X156458219Y-60976737D01*
X156549756Y-60756291D01*
X156549964Y-60517596D01*
X156458812Y-60296991D01*
X156290177Y-60128061D01*
X156069731Y-60036524D01*
X155831036Y-60036316D01*
X155610431Y-60127468D01*
X155441501Y-60296103D01*
X155349964Y-60516549D01*
X155349756Y-60755244D01*
X105375000Y-60755244D01*
X105375000Y-57902824D01*
X107701896Y-57902824D01*
X107793048Y-58123429D01*
X107961471Y-58292146D01*
X107793641Y-58459683D01*
X107702104Y-58680129D01*
X107701896Y-58918824D01*
X107793048Y-59139429D01*
X107961471Y-59308146D01*
X107793641Y-59475683D01*
X107702104Y-59696129D01*
X107701896Y-59934824D01*
X107793048Y-60155429D01*
X107961683Y-60324359D01*
X108182129Y-60415896D01*
X108420824Y-60416104D01*
X108641429Y-60324952D01*
X108810146Y-60156529D01*
X108977683Y-60324359D01*
X109198129Y-60415896D01*
X109436824Y-60416104D01*
X109657429Y-60324952D01*
X109826359Y-60156317D01*
X109917896Y-59935871D01*
X109917912Y-59917036D01*
X128306472Y-59917036D01*
X128397624Y-60137641D01*
X128566259Y-60306571D01*
X128786705Y-60398108D01*
X129025400Y-60398316D01*
X129246005Y-60307164D01*
X129414935Y-60138529D01*
X129506472Y-59918083D01*
X129506680Y-59679388D01*
X129415528Y-59458783D01*
X129246893Y-59289853D01*
X129026447Y-59198316D01*
X128787752Y-59198108D01*
X128567147Y-59289260D01*
X128398217Y-59457895D01*
X128306680Y-59678341D01*
X128306472Y-59917036D01*
X109917912Y-59917036D01*
X109918104Y-59697176D01*
X109826952Y-59476571D01*
X109658529Y-59307854D01*
X109793795Y-59172824D01*
X132593896Y-59172824D01*
X132685048Y-59393429D01*
X132853683Y-59562359D01*
X133074129Y-59653896D01*
X133312824Y-59654104D01*
X133533429Y-59562952D01*
X133702359Y-59394317D01*
X133793896Y-59173871D01*
X133794104Y-58935176D01*
X133702952Y-58714571D01*
X133534317Y-58545641D01*
X133313871Y-58454104D01*
X133075176Y-58453896D01*
X132854571Y-58545048D01*
X132685641Y-58713683D01*
X132594104Y-58934129D01*
X132593896Y-59172824D01*
X109793795Y-59172824D01*
X109826359Y-59140317D01*
X109917896Y-58919871D01*
X109918104Y-58681176D01*
X109826952Y-58460571D01*
X109658529Y-58291854D01*
X109826359Y-58124317D01*
X109917896Y-57903871D01*
X109918104Y-57665176D01*
X109826952Y-57444571D01*
X109658317Y-57275641D01*
X109437871Y-57184104D01*
X109199176Y-57183896D01*
X108978571Y-57275048D01*
X108809854Y-57443471D01*
X108642317Y-57275641D01*
X108421871Y-57184104D01*
X108183176Y-57183896D01*
X107962571Y-57275048D01*
X107793641Y-57443683D01*
X107702104Y-57664129D01*
X107701896Y-57902824D01*
X105375000Y-57902824D01*
X105375000Y-57138284D01*
X123254316Y-57138284D01*
X123345468Y-57358889D01*
X123514103Y-57527819D01*
X123734549Y-57619356D01*
X123973244Y-57619564D01*
X124193849Y-57528412D01*
X124305540Y-57416917D01*
X124353912Y-57533987D01*
X124522547Y-57702917D01*
X124742993Y-57794454D01*
X124981688Y-57794662D01*
X125202293Y-57703510D01*
X125371223Y-57534875D01*
X125371993Y-57533021D01*
X125388034Y-57571843D01*
X125556669Y-57740773D01*
X125777115Y-57832310D01*
X126015810Y-57832518D01*
X126236415Y-57741366D01*
X126405345Y-57572731D01*
X126496882Y-57352285D01*
X126497090Y-57113590D01*
X126405938Y-56892985D01*
X126237303Y-56724055D01*
X126017594Y-56632824D01*
X127640896Y-56632824D01*
X127732048Y-56853429D01*
X127773471Y-56894924D01*
X127732641Y-56935683D01*
X127641104Y-57156129D01*
X127640896Y-57394824D01*
X127732048Y-57615429D01*
X127773471Y-57656924D01*
X127732641Y-57697683D01*
X127641104Y-57918129D01*
X127640896Y-58156824D01*
X127732048Y-58377429D01*
X127900683Y-58546359D01*
X128121129Y-58637896D01*
X128359824Y-58638104D01*
X128580429Y-58546952D01*
X128749359Y-58378317D01*
X128840896Y-58157871D01*
X128841104Y-57919176D01*
X128775221Y-57759726D01*
X187029799Y-57759726D01*
X187206026Y-58186229D01*
X187532055Y-58512827D01*
X187958249Y-58689798D01*
X188419726Y-58690201D01*
X188846229Y-58513974D01*
X189172827Y-58187945D01*
X189349798Y-57761751D01*
X189350201Y-57300274D01*
X189173974Y-56873771D01*
X188847945Y-56547173D01*
X188421751Y-56370202D01*
X187960274Y-56369799D01*
X187533771Y-56546026D01*
X187207173Y-56872055D01*
X187030202Y-57298249D01*
X187029799Y-57759726D01*
X128775221Y-57759726D01*
X128749952Y-57698571D01*
X128708529Y-57657076D01*
X128749359Y-57616317D01*
X128840896Y-57395871D01*
X128841104Y-57157176D01*
X128749952Y-56936571D01*
X128708529Y-56895076D01*
X128749359Y-56854317D01*
X128840896Y-56633871D01*
X128841104Y-56395176D01*
X128749952Y-56174571D01*
X128581317Y-56005641D01*
X128360871Y-55914104D01*
X128122176Y-55913896D01*
X127901571Y-56005048D01*
X127732641Y-56173683D01*
X127641104Y-56394129D01*
X127640896Y-56632824D01*
X126017594Y-56632824D01*
X126016857Y-56632518D01*
X125778162Y-56632310D01*
X125557557Y-56723462D01*
X125388627Y-56892097D01*
X125387857Y-56893951D01*
X125371816Y-56855129D01*
X125203181Y-56686199D01*
X124982735Y-56594662D01*
X124744040Y-56594454D01*
X124523435Y-56685606D01*
X124411744Y-56797101D01*
X124363372Y-56680031D01*
X124194737Y-56511101D01*
X123974291Y-56419564D01*
X123735596Y-56419356D01*
X123514991Y-56510508D01*
X123346061Y-56679143D01*
X123254524Y-56899589D01*
X123254316Y-57138284D01*
X105375000Y-57138284D01*
X105375000Y-53138188D01*
X106604398Y-53138188D01*
X107132321Y-54415858D01*
X108109001Y-55394244D01*
X109385747Y-55924395D01*
X110768188Y-55925602D01*
X112045858Y-55397679D01*
X113024244Y-54420999D01*
X113066670Y-54318824D01*
X155199896Y-54318824D01*
X155291048Y-54539429D01*
X155459683Y-54708359D01*
X155680129Y-54799896D01*
X155918824Y-54800104D01*
X156139429Y-54708952D01*
X156308359Y-54540317D01*
X156399896Y-54319871D01*
X156400104Y-54081176D01*
X156308952Y-53860571D01*
X156140317Y-53691641D01*
X155919871Y-53600104D01*
X155681176Y-53599896D01*
X155460571Y-53691048D01*
X155291641Y-53859683D01*
X155200104Y-54080129D01*
X155199896Y-54318824D01*
X113066670Y-54318824D01*
X113554395Y-53144253D01*
X113555602Y-51761812D01*
X113027679Y-50484142D01*
X112050999Y-49505756D01*
X110774253Y-48975605D01*
X109391812Y-48974398D01*
X108114142Y-49502321D01*
X107135756Y-50479001D01*
X106605605Y-51755747D01*
X106604398Y-53138188D01*
X105375000Y-53138188D01*
X105375000Y-45205000D01*
X189155000Y-45205000D01*
X189155000Y-49234764D01*
X189155000Y-49234764D01*
G37*
X189155000Y-49234764D02*
X188847945Y-48927173D01*
X188421751Y-48750202D01*
X187960274Y-48749799D01*
X187533771Y-48926026D01*
X187207173Y-49252055D01*
X187030202Y-49678249D01*
X187029799Y-50139726D01*
X187206026Y-50566229D01*
X187532055Y-50892827D01*
X187958249Y-51069798D01*
X188419726Y-51070201D01*
X188846229Y-50893974D01*
X189155000Y-50585741D01*
X189155000Y-51774764D01*
X188847945Y-51467173D01*
X188421751Y-51290202D01*
X187960274Y-51289799D01*
X187533771Y-51466026D01*
X187207173Y-51792055D01*
X187030202Y-52218249D01*
X187029799Y-52679726D01*
X187206026Y-53106229D01*
X187532055Y-53432827D01*
X187958249Y-53609798D01*
X188419726Y-53610201D01*
X188846229Y-53433974D01*
X189155000Y-53125741D01*
X189155000Y-54314764D01*
X188847945Y-54007173D01*
X188421751Y-53830202D01*
X187960274Y-53829799D01*
X187533771Y-54006026D01*
X187207173Y-54332055D01*
X187030202Y-54758249D01*
X187029799Y-55219726D01*
X187206026Y-55646229D01*
X187532055Y-55972827D01*
X187958249Y-56149798D01*
X188419726Y-56150201D01*
X188846229Y-55973974D01*
X189155000Y-55665741D01*
X189155000Y-56260000D01*
X189175517Y-56369037D01*
X189239958Y-56469181D01*
X189338283Y-56536364D01*
X189455000Y-56560000D01*
X194362000Y-56560000D01*
X194362000Y-73359000D01*
X191741455Y-73359000D01*
X191889798Y-73001751D01*
X191890201Y-72540274D01*
X191713974Y-72113771D01*
X191387945Y-71787173D01*
X190961751Y-71610202D01*
X190500274Y-71609799D01*
X190073771Y-71786026D01*
X189747173Y-72112055D01*
X189570202Y-72538249D01*
X189569799Y-72999726D01*
X189718248Y-73359000D01*
X189201455Y-73359000D01*
X189349798Y-73001751D01*
X189350201Y-72540274D01*
X189173974Y-72113771D01*
X188847945Y-71787173D01*
X188421751Y-71610202D01*
X187960274Y-71609799D01*
X187533771Y-71786026D01*
X187220078Y-72099173D01*
X187260896Y-72000871D01*
X187261104Y-71762176D01*
X187169952Y-71541571D01*
X187001317Y-71372641D01*
X186780871Y-71281104D01*
X186542176Y-71280896D01*
X186321571Y-71372048D01*
X186152641Y-71540683D01*
X186061104Y-71761129D01*
X186060896Y-71999824D01*
X186152048Y-72220429D01*
X186320683Y-72389359D01*
X186472846Y-72452543D01*
X186321571Y-72515048D01*
X186152641Y-72683683D01*
X186061104Y-72904129D01*
X186060896Y-73142824D01*
X186150218Y-73359000D01*
X185482930Y-73359000D01*
X185483104Y-73159176D01*
X185391952Y-72938571D01*
X185310000Y-72856476D01*
X185310000Y-72683534D01*
X185391359Y-72602317D01*
X185482896Y-72381871D01*
X185483104Y-72143176D01*
X185391952Y-71922571D01*
X185310000Y-71840476D01*
X185310000Y-71667534D01*
X185391359Y-71586317D01*
X185482896Y-71365871D01*
X185483104Y-71127176D01*
X185391952Y-70906571D01*
X185310000Y-70824476D01*
X185310000Y-70651534D01*
X185391359Y-70570317D01*
X185437280Y-70459726D01*
X187029799Y-70459726D01*
X187206026Y-70886229D01*
X187532055Y-71212827D01*
X187958249Y-71389798D01*
X188419726Y-71390201D01*
X188846229Y-71213974D01*
X189172827Y-70887945D01*
X189349798Y-70461751D01*
X189349799Y-70459726D01*
X189569799Y-70459726D01*
X189746026Y-70886229D01*
X190072055Y-71212827D01*
X190498249Y-71389798D01*
X190959726Y-71390201D01*
X191386229Y-71213974D01*
X191712827Y-70887945D01*
X191889798Y-70461751D01*
X191890201Y-70000274D01*
X191713974Y-69573771D01*
X191387945Y-69247173D01*
X190961751Y-69070202D01*
X190500274Y-69069799D01*
X190073771Y-69246026D01*
X189747173Y-69572055D01*
X189570202Y-69998249D01*
X189569799Y-70459726D01*
X189349799Y-70459726D01*
X189350201Y-70000274D01*
X189173974Y-69573771D01*
X188847945Y-69247173D01*
X188421751Y-69070202D01*
X187960274Y-69069799D01*
X187533771Y-69246026D01*
X187207173Y-69572055D01*
X187030202Y-69998249D01*
X187029799Y-70459726D01*
X185437280Y-70459726D01*
X185482896Y-70349871D01*
X185483104Y-70111176D01*
X185391952Y-69890571D01*
X185310000Y-69808476D01*
X185310000Y-69635534D01*
X185391359Y-69554317D01*
X185482896Y-69333871D01*
X185483104Y-69095176D01*
X185391952Y-68874571D01*
X185310000Y-68792476D01*
X185310000Y-68746534D01*
X185391359Y-68665317D01*
X185482896Y-68444871D01*
X185483104Y-68206176D01*
X185391952Y-67985571D01*
X185326222Y-67919726D01*
X187029799Y-67919726D01*
X187206026Y-68346229D01*
X187532055Y-68672827D01*
X187958249Y-68849798D01*
X188419726Y-68850201D01*
X188846229Y-68673974D01*
X189172827Y-68347945D01*
X189349798Y-67921751D01*
X189349799Y-67919726D01*
X189569799Y-67919726D01*
X189746026Y-68346229D01*
X190072055Y-68672827D01*
X190498249Y-68849798D01*
X190959726Y-68850201D01*
X191386229Y-68673974D01*
X191712827Y-68347945D01*
X191889798Y-67921751D01*
X191890201Y-67460274D01*
X191713974Y-67033771D01*
X191387945Y-66707173D01*
X190961751Y-66530202D01*
X190500274Y-66529799D01*
X190073771Y-66706026D01*
X189747173Y-67032055D01*
X189570202Y-67458249D01*
X189569799Y-67919726D01*
X189349799Y-67919726D01*
X189350201Y-67460274D01*
X189173974Y-67033771D01*
X188847945Y-66707173D01*
X188421751Y-66530202D01*
X187960274Y-66529799D01*
X187533771Y-66706026D01*
X187207173Y-67032055D01*
X187030202Y-67458249D01*
X187029799Y-67919726D01*
X185326222Y-67919726D01*
X185310000Y-67903476D01*
X185310000Y-67182000D01*
X185289483Y-67072963D01*
X185225042Y-66972819D01*
X185126717Y-66905636D01*
X185010000Y-66882000D01*
X172691000Y-66882000D01*
X172581963Y-66902517D01*
X172481819Y-66966958D01*
X172414636Y-67065283D01*
X172391000Y-67182000D01*
X172391000Y-73359000D01*
X163420000Y-73359000D01*
X163310963Y-73379517D01*
X163210819Y-73443958D01*
X163143636Y-73542283D01*
X163140251Y-73559000D01*
X142407558Y-73559000D01*
X142348529Y-73499868D01*
X142508359Y-73340317D01*
X142599896Y-73119871D01*
X142600104Y-72881176D01*
X142520699Y-72689000D01*
X147418000Y-72689000D01*
X147527037Y-72668483D01*
X147627181Y-72604042D01*
X147694364Y-72505717D01*
X147718000Y-72389000D01*
X147718000Y-70992000D01*
X147697483Y-70882963D01*
X147633042Y-70782819D01*
X147534717Y-70715636D01*
X147418000Y-70692000D01*
X140941000Y-70692000D01*
X140831963Y-70712517D01*
X140731819Y-70776958D01*
X140664636Y-70875283D01*
X140641000Y-70992000D01*
X140641000Y-71911183D01*
X139697182Y-72855000D01*
X139530034Y-72855000D01*
X139409871Y-72805104D01*
X139171176Y-72804896D01*
X138950571Y-72896048D01*
X138781641Y-73064683D01*
X138690104Y-73285129D01*
X138689896Y-73523824D01*
X138704430Y-73559000D01*
X131507984Y-73559000D01*
X131433078Y-73377714D01*
X131123913Y-73068009D01*
X130719763Y-72900192D01*
X130282156Y-72899810D01*
X129877714Y-73066922D01*
X129568009Y-73376087D01*
X129492057Y-73559000D01*
X129007984Y-73559000D01*
X128933078Y-73377714D01*
X128623913Y-73068009D01*
X128219763Y-72900192D01*
X127782156Y-72899810D01*
X127377714Y-73066922D01*
X127068009Y-73376087D01*
X126992057Y-73559000D01*
X126507984Y-73559000D01*
X126433078Y-73377714D01*
X126123913Y-73068009D01*
X125719763Y-72900192D01*
X125282156Y-72899810D01*
X124877714Y-73066922D01*
X124568009Y-73376087D01*
X124492058Y-73559000D01*
X124417628Y-73559000D01*
X124390317Y-73531641D01*
X124169871Y-73440104D01*
X123931176Y-73439896D01*
X123710571Y-73531048D01*
X123682570Y-73559000D01*
X123147628Y-73559000D01*
X123120317Y-73531641D01*
X122899871Y-73440104D01*
X122661176Y-73439896D01*
X122440571Y-73531048D01*
X122412570Y-73559000D01*
X121877628Y-73559000D01*
X121850317Y-73531641D01*
X121629871Y-73440104D01*
X121391176Y-73439896D01*
X121170571Y-73531048D01*
X121142570Y-73559000D01*
X120607628Y-73559000D01*
X120580317Y-73531641D01*
X120359871Y-73440104D01*
X120121176Y-73439896D01*
X119900571Y-73531048D01*
X119872570Y-73559000D01*
X119337628Y-73559000D01*
X119310317Y-73531641D01*
X119089871Y-73440104D01*
X118851176Y-73439896D01*
X118630571Y-73531048D01*
X118602570Y-73559000D01*
X105375000Y-73559000D01*
X105375000Y-72888824D01*
X118369896Y-72888824D01*
X118461048Y-73109429D01*
X118629683Y-73278359D01*
X118850129Y-73369896D01*
X119088824Y-73370104D01*
X119309429Y-73278952D01*
X119478359Y-73110317D01*
X119569896Y-72889871D01*
X119569896Y-72888824D01*
X119639896Y-72888824D01*
X119731048Y-73109429D01*
X119899683Y-73278359D01*
X120120129Y-73369896D01*
X120358824Y-73370104D01*
X120579429Y-73278952D01*
X120748359Y-73110317D01*
X120839896Y-72889871D01*
X120839896Y-72888824D01*
X120909896Y-72888824D01*
X121001048Y-73109429D01*
X121169683Y-73278359D01*
X121390129Y-73369896D01*
X121628824Y-73370104D01*
X121849429Y-73278952D01*
X122018359Y-73110317D01*
X122109896Y-72889871D01*
X122109896Y-72888824D01*
X122179896Y-72888824D01*
X122271048Y-73109429D01*
X122439683Y-73278359D01*
X122660129Y-73369896D01*
X122898824Y-73370104D01*
X123119429Y-73278952D01*
X123288359Y-73110317D01*
X123379896Y-72889871D01*
X123379896Y-72888824D01*
X123449896Y-72888824D01*
X123541048Y-73109429D01*
X123709683Y-73278359D01*
X123930129Y-73369896D01*
X124168824Y-73370104D01*
X124389429Y-73278952D01*
X124558359Y-73110317D01*
X124649896Y-72889871D01*
X124650104Y-72651176D01*
X124558952Y-72430571D01*
X124390317Y-72261641D01*
X124169871Y-72170104D01*
X123931176Y-72169896D01*
X123710571Y-72261048D01*
X123541641Y-72429683D01*
X123450104Y-72650129D01*
X123449896Y-72888824D01*
X123379896Y-72888824D01*
X123380104Y-72651176D01*
X123288952Y-72430571D01*
X123120317Y-72261641D01*
X122899871Y-72170104D01*
X122661176Y-72169896D01*
X122440571Y-72261048D01*
X122271641Y-72429683D01*
X122180104Y-72650129D01*
X122179896Y-72888824D01*
X122109896Y-72888824D01*
X122110104Y-72651176D01*
X122018952Y-72430571D01*
X121850317Y-72261641D01*
X121629871Y-72170104D01*
X121391176Y-72169896D01*
X121170571Y-72261048D01*
X121001641Y-72429683D01*
X120910104Y-72650129D01*
X120909896Y-72888824D01*
X120839896Y-72888824D01*
X120840104Y-72651176D01*
X120748952Y-72430571D01*
X120580317Y-72261641D01*
X120359871Y-72170104D01*
X120121176Y-72169896D01*
X119900571Y-72261048D01*
X119731641Y-72429683D01*
X119640104Y-72650129D01*
X119639896Y-72888824D01*
X119569896Y-72888824D01*
X119570104Y-72651176D01*
X119478952Y-72430571D01*
X119310317Y-72261641D01*
X119089871Y-72170104D01*
X118851176Y-72169896D01*
X118630571Y-72261048D01*
X118461641Y-72429683D01*
X118370104Y-72650129D01*
X118369896Y-72888824D01*
X105375000Y-72888824D01*
X105375000Y-72126824D01*
X135387896Y-72126824D01*
X135479048Y-72347429D01*
X135647683Y-72516359D01*
X135868129Y-72607896D01*
X136106824Y-72608104D01*
X136327429Y-72516952D01*
X136496359Y-72348317D01*
X136587896Y-72127871D01*
X136588104Y-71889176D01*
X136496952Y-71668571D01*
X136328317Y-71499641D01*
X136107871Y-71408104D01*
X135869176Y-71407896D01*
X135648571Y-71499048D01*
X135479641Y-71667683D01*
X135388104Y-71888129D01*
X135387896Y-72126824D01*
X105375000Y-72126824D01*
X105375000Y-68886589D01*
X135835145Y-68886589D01*
X135926297Y-69107194D01*
X136094932Y-69276124D01*
X136315378Y-69367661D01*
X136554073Y-69367869D01*
X136774678Y-69276717D01*
X136943608Y-69108082D01*
X137035145Y-68887636D01*
X137035243Y-68774690D01*
X137561579Y-68774690D01*
X137652731Y-68995295D01*
X137821366Y-69164225D01*
X138041812Y-69255762D01*
X138280507Y-69255970D01*
X138501112Y-69164818D01*
X138670042Y-68996183D01*
X138761579Y-68775737D01*
X138761787Y-68537042D01*
X138670635Y-68316437D01*
X138502000Y-68147507D01*
X138281554Y-68055970D01*
X138042859Y-68055762D01*
X137822254Y-68146914D01*
X137653324Y-68315549D01*
X137561787Y-68535995D01*
X137561579Y-68774690D01*
X137035243Y-68774690D01*
X137035353Y-68648941D01*
X136944201Y-68428336D01*
X136775566Y-68259406D01*
X136555120Y-68167869D01*
X136316425Y-68167661D01*
X136095820Y-68258813D01*
X135926890Y-68427448D01*
X135835353Y-68647894D01*
X135835145Y-68886589D01*
X105375000Y-68886589D01*
X105375000Y-66030824D01*
X107701896Y-66030824D01*
X107793048Y-66251429D01*
X107961471Y-66420146D01*
X107793641Y-66587683D01*
X107702104Y-66808129D01*
X107701896Y-67046824D01*
X107793048Y-67267429D01*
X107961471Y-67436146D01*
X107793641Y-67603683D01*
X107702104Y-67824129D01*
X107701896Y-68062824D01*
X107793048Y-68283429D01*
X107961683Y-68452359D01*
X108182129Y-68543896D01*
X108420824Y-68544104D01*
X108641429Y-68452952D01*
X108810146Y-68284529D01*
X108977683Y-68452359D01*
X109198129Y-68543896D01*
X109436824Y-68544104D01*
X109657429Y-68452952D01*
X109826359Y-68284317D01*
X109917896Y-68063871D01*
X109918104Y-67825176D01*
X109826952Y-67604571D01*
X109658529Y-67435854D01*
X109826359Y-67268317D01*
X109917896Y-67047871D01*
X109918104Y-66809176D01*
X109826952Y-66588571D01*
X109658529Y-66419854D01*
X109826359Y-66252317D01*
X109917896Y-66031871D01*
X109918104Y-65793176D01*
X109826952Y-65572571D01*
X109777292Y-65522824D01*
X114051896Y-65522824D01*
X114143048Y-65743429D01*
X114311471Y-65912146D01*
X114143641Y-66079683D01*
X114052104Y-66300129D01*
X114051896Y-66538824D01*
X114143048Y-66759429D01*
X114311471Y-66928146D01*
X114143641Y-67095683D01*
X114052104Y-67316129D01*
X114051896Y-67554824D01*
X114143048Y-67775429D01*
X114311683Y-67944359D01*
X114532129Y-68035896D01*
X114770824Y-68036104D01*
X114991429Y-67944952D01*
X115160146Y-67776529D01*
X115327683Y-67944359D01*
X115548129Y-68035896D01*
X115786824Y-68036104D01*
X116007429Y-67944952D01*
X116176359Y-67776317D01*
X116267896Y-67555871D01*
X116268104Y-67317176D01*
X116176952Y-67096571D01*
X116008529Y-66927854D01*
X116176359Y-66760317D01*
X116215595Y-66665824D01*
X137292896Y-66665824D01*
X137384048Y-66886429D01*
X137552683Y-67055359D01*
X137773129Y-67146896D01*
X138011824Y-67147104D01*
X138232429Y-67055952D01*
X138401359Y-66887317D01*
X138492896Y-66666871D01*
X138492896Y-66665824D01*
X140213896Y-66665824D01*
X140305048Y-66886429D01*
X140473683Y-67055359D01*
X140694129Y-67146896D01*
X140932824Y-67147104D01*
X141153429Y-67055952D01*
X141322359Y-66887317D01*
X141350973Y-66818406D01*
X156666894Y-66818406D01*
X156758046Y-67039011D01*
X156926681Y-67207941D01*
X157147127Y-67299478D01*
X157385822Y-67299686D01*
X157606427Y-67208534D01*
X157775357Y-67039899D01*
X157866894Y-66819453D01*
X157867102Y-66580758D01*
X157775950Y-66360153D01*
X157607315Y-66191223D01*
X157587963Y-66183187D01*
X161574840Y-66183187D01*
X161715366Y-66523286D01*
X161975345Y-66783720D01*
X162315199Y-66924839D01*
X162683187Y-66925160D01*
X163023286Y-66784634D01*
X163283720Y-66524655D01*
X163424839Y-66184801D01*
X163425160Y-65816813D01*
X163284634Y-65476714D01*
X163187816Y-65379726D01*
X187029799Y-65379726D01*
X187206026Y-65806229D01*
X187532055Y-66132827D01*
X187958249Y-66309798D01*
X188419726Y-66310201D01*
X188846229Y-66133974D01*
X189172827Y-65807945D01*
X189349798Y-65381751D01*
X189349799Y-65379726D01*
X189569799Y-65379726D01*
X189746026Y-65806229D01*
X190072055Y-66132827D01*
X190498249Y-66309798D01*
X190959726Y-66310201D01*
X191386229Y-66133974D01*
X191712827Y-65807945D01*
X191889798Y-65381751D01*
X191890201Y-64920274D01*
X191713974Y-64493771D01*
X191387945Y-64167173D01*
X190961751Y-63990202D01*
X190500274Y-63989799D01*
X190073771Y-64166026D01*
X189747173Y-64492055D01*
X189570202Y-64918249D01*
X189569799Y-65379726D01*
X189349799Y-65379726D01*
X189350201Y-64920274D01*
X189173974Y-64493771D01*
X188847945Y-64167173D01*
X188421751Y-63990202D01*
X187960274Y-63989799D01*
X187533771Y-64166026D01*
X187207173Y-64492055D01*
X187030202Y-64918249D01*
X187029799Y-65379726D01*
X163187816Y-65379726D01*
X163024655Y-65216280D01*
X162684801Y-65075161D01*
X162316813Y-65074840D01*
X161976714Y-65215366D01*
X161716280Y-65475345D01*
X161575161Y-65815199D01*
X161574840Y-66183187D01*
X157587963Y-66183187D01*
X157386869Y-66099686D01*
X157148174Y-66099478D01*
X156927569Y-66190630D01*
X156758639Y-66359265D01*
X156667102Y-66579711D01*
X156666894Y-66818406D01*
X141350973Y-66818406D01*
X141413896Y-66666871D01*
X141414104Y-66428176D01*
X141322952Y-66207571D01*
X141154317Y-66038641D01*
X140933871Y-65947104D01*
X140695176Y-65946896D01*
X140474571Y-66038048D01*
X140305641Y-66206683D01*
X140214104Y-66427129D01*
X140213896Y-66665824D01*
X138492896Y-66665824D01*
X138493104Y-66428176D01*
X138401952Y-66207571D01*
X138233317Y-66038641D01*
X138012871Y-65947104D01*
X137774176Y-65946896D01*
X137553571Y-66038048D01*
X137384641Y-66206683D01*
X137293104Y-66427129D01*
X137292896Y-66665824D01*
X116215595Y-66665824D01*
X116267896Y-66539871D01*
X116268104Y-66301176D01*
X116176952Y-66080571D01*
X116008529Y-65911854D01*
X116176359Y-65744317D01*
X116267896Y-65523871D01*
X116268104Y-65285176D01*
X116176952Y-65064571D01*
X116008317Y-64895641D01*
X115787871Y-64804104D01*
X115549176Y-64803896D01*
X115328571Y-64895048D01*
X115159854Y-65063471D01*
X114992317Y-64895641D01*
X114771871Y-64804104D01*
X114533176Y-64803896D01*
X114312571Y-64895048D01*
X114143641Y-65063683D01*
X114052104Y-65284129D01*
X114051896Y-65522824D01*
X109777292Y-65522824D01*
X109658317Y-65403641D01*
X109437871Y-65312104D01*
X109199176Y-65311896D01*
X108978571Y-65403048D01*
X108809854Y-65571471D01*
X108642317Y-65403641D01*
X108421871Y-65312104D01*
X108183176Y-65311896D01*
X107962571Y-65403048D01*
X107793641Y-65571683D01*
X107702104Y-65792129D01*
X107701896Y-66030824D01*
X105375000Y-66030824D01*
X105375000Y-63668624D01*
X124684336Y-63668624D01*
X124775488Y-63889229D01*
X124944123Y-64058159D01*
X125164569Y-64149696D01*
X125403264Y-64149904D01*
X125623869Y-64058752D01*
X125792799Y-63890117D01*
X125878723Y-63683187D01*
X159074840Y-63683187D01*
X159215366Y-64023286D01*
X159475345Y-64283720D01*
X159815199Y-64424839D01*
X160183187Y-64425160D01*
X160523286Y-64284634D01*
X160783720Y-64024655D01*
X160924839Y-63684801D01*
X160925160Y-63316813D01*
X160784634Y-62976714D01*
X160647886Y-62839726D01*
X187029799Y-62839726D01*
X187206026Y-63266229D01*
X187532055Y-63592827D01*
X187958249Y-63769798D01*
X188419726Y-63770201D01*
X188846229Y-63593974D01*
X189172827Y-63267945D01*
X189349798Y-62841751D01*
X189349799Y-62839726D01*
X189569799Y-62839726D01*
X189746026Y-63266229D01*
X190072055Y-63592827D01*
X190498249Y-63769798D01*
X190959726Y-63770201D01*
X191386229Y-63593974D01*
X191712827Y-63267945D01*
X191889798Y-62841751D01*
X191890201Y-62380274D01*
X191713974Y-61953771D01*
X191387945Y-61627173D01*
X190961751Y-61450202D01*
X190500274Y-61449799D01*
X190073771Y-61626026D01*
X189747173Y-61952055D01*
X189570202Y-62378249D01*
X189569799Y-62839726D01*
X189349799Y-62839726D01*
X189350201Y-62380274D01*
X189173974Y-61953771D01*
X188847945Y-61627173D01*
X188421751Y-61450202D01*
X187960274Y-61449799D01*
X187533771Y-61626026D01*
X187207173Y-61952055D01*
X187030202Y-62378249D01*
X187029799Y-62839726D01*
X160647886Y-62839726D01*
X160524655Y-62716280D01*
X160184801Y-62575161D01*
X159816813Y-62574840D01*
X159476714Y-62715366D01*
X159216280Y-62975345D01*
X159075161Y-63315199D01*
X159074840Y-63683187D01*
X125878723Y-63683187D01*
X125884336Y-63669671D01*
X125884544Y-63430976D01*
X125793392Y-63210371D01*
X125624757Y-63041441D01*
X125404311Y-62949904D01*
X125165616Y-62949696D01*
X124945011Y-63040848D01*
X124776081Y-63209483D01*
X124684544Y-63429929D01*
X124684336Y-63668624D01*
X105375000Y-63668624D01*
X105375000Y-62693089D01*
X106524831Y-62693089D01*
X106672954Y-63051571D01*
X106946986Y-63326082D01*
X107305210Y-63474830D01*
X107693089Y-63475169D01*
X108051571Y-63327046D01*
X108326082Y-63053014D01*
X108474830Y-62694790D01*
X108475169Y-62306911D01*
X108327046Y-61948429D01*
X108053014Y-61673918D01*
X107694790Y-61525170D01*
X107306911Y-61524831D01*
X106948429Y-61672954D01*
X106673918Y-61946986D01*
X106525170Y-62305210D01*
X106524831Y-62693089D01*
X105375000Y-62693089D01*
X105375000Y-60755244D01*
X155349756Y-60755244D01*
X155440908Y-60975849D01*
X155609543Y-61144779D01*
X155829989Y-61236316D01*
X156068684Y-61236524D01*
X156197769Y-61183187D01*
X161574840Y-61183187D01*
X161715366Y-61523286D01*
X161975345Y-61783720D01*
X162315199Y-61924839D01*
X162683187Y-61925160D01*
X163023286Y-61784634D01*
X163283720Y-61524655D01*
X163424839Y-61184801D01*
X163425160Y-60816813D01*
X163284634Y-60476714D01*
X163107956Y-60299726D01*
X187029799Y-60299726D01*
X187206026Y-60726229D01*
X187532055Y-61052827D01*
X187958249Y-61229798D01*
X188419726Y-61230201D01*
X188846229Y-61053974D01*
X189172827Y-60727945D01*
X189349798Y-60301751D01*
X189350201Y-59840274D01*
X189173974Y-59413771D01*
X188847945Y-59087173D01*
X188421751Y-58910202D01*
X187960274Y-58909799D01*
X187533771Y-59086026D01*
X187207173Y-59412055D01*
X187030202Y-59838249D01*
X187029799Y-60299726D01*
X163107956Y-60299726D01*
X163024655Y-60216280D01*
X162684801Y-60075161D01*
X162316813Y-60074840D01*
X161976714Y-60215366D01*
X161716280Y-60475345D01*
X161575161Y-60815199D01*
X161574840Y-61183187D01*
X156197769Y-61183187D01*
X156289289Y-61145372D01*
X156458219Y-60976737D01*
X156549756Y-60756291D01*
X156549964Y-60517596D01*
X156458812Y-60296991D01*
X156290177Y-60128061D01*
X156069731Y-60036524D01*
X155831036Y-60036316D01*
X155610431Y-60127468D01*
X155441501Y-60296103D01*
X155349964Y-60516549D01*
X155349756Y-60755244D01*
X105375000Y-60755244D01*
X105375000Y-57902824D01*
X107701896Y-57902824D01*
X107793048Y-58123429D01*
X107961471Y-58292146D01*
X107793641Y-58459683D01*
X107702104Y-58680129D01*
X107701896Y-58918824D01*
X107793048Y-59139429D01*
X107961471Y-59308146D01*
X107793641Y-59475683D01*
X107702104Y-59696129D01*
X107701896Y-59934824D01*
X107793048Y-60155429D01*
X107961683Y-60324359D01*
X108182129Y-60415896D01*
X108420824Y-60416104D01*
X108641429Y-60324952D01*
X108810146Y-60156529D01*
X108977683Y-60324359D01*
X109198129Y-60415896D01*
X109436824Y-60416104D01*
X109657429Y-60324952D01*
X109826359Y-60156317D01*
X109917896Y-59935871D01*
X109917912Y-59917036D01*
X128306472Y-59917036D01*
X128397624Y-60137641D01*
X128566259Y-60306571D01*
X128786705Y-60398108D01*
X129025400Y-60398316D01*
X129246005Y-60307164D01*
X129414935Y-60138529D01*
X129506472Y-59918083D01*
X129506680Y-59679388D01*
X129415528Y-59458783D01*
X129246893Y-59289853D01*
X129026447Y-59198316D01*
X128787752Y-59198108D01*
X128567147Y-59289260D01*
X128398217Y-59457895D01*
X128306680Y-59678341D01*
X128306472Y-59917036D01*
X109917912Y-59917036D01*
X109918104Y-59697176D01*
X109826952Y-59476571D01*
X109658529Y-59307854D01*
X109793795Y-59172824D01*
X132593896Y-59172824D01*
X132685048Y-59393429D01*
X132853683Y-59562359D01*
X133074129Y-59653896D01*
X133312824Y-59654104D01*
X133533429Y-59562952D01*
X133702359Y-59394317D01*
X133793896Y-59173871D01*
X133794104Y-58935176D01*
X133702952Y-58714571D01*
X133534317Y-58545641D01*
X133313871Y-58454104D01*
X133075176Y-58453896D01*
X132854571Y-58545048D01*
X132685641Y-58713683D01*
X132594104Y-58934129D01*
X132593896Y-59172824D01*
X109793795Y-59172824D01*
X109826359Y-59140317D01*
X109917896Y-58919871D01*
X109918104Y-58681176D01*
X109826952Y-58460571D01*
X109658529Y-58291854D01*
X109826359Y-58124317D01*
X109917896Y-57903871D01*
X109918104Y-57665176D01*
X109826952Y-57444571D01*
X109658317Y-57275641D01*
X109437871Y-57184104D01*
X109199176Y-57183896D01*
X108978571Y-57275048D01*
X108809854Y-57443471D01*
X108642317Y-57275641D01*
X108421871Y-57184104D01*
X108183176Y-57183896D01*
X107962571Y-57275048D01*
X107793641Y-57443683D01*
X107702104Y-57664129D01*
X107701896Y-57902824D01*
X105375000Y-57902824D01*
X105375000Y-57138284D01*
X123254316Y-57138284D01*
X123345468Y-57358889D01*
X123514103Y-57527819D01*
X123734549Y-57619356D01*
X123973244Y-57619564D01*
X124193849Y-57528412D01*
X124305540Y-57416917D01*
X124353912Y-57533987D01*
X124522547Y-57702917D01*
X124742993Y-57794454D01*
X124981688Y-57794662D01*
X125202293Y-57703510D01*
X125371223Y-57534875D01*
X125371993Y-57533021D01*
X125388034Y-57571843D01*
X125556669Y-57740773D01*
X125777115Y-57832310D01*
X126015810Y-57832518D01*
X126236415Y-57741366D01*
X126405345Y-57572731D01*
X126496882Y-57352285D01*
X126497090Y-57113590D01*
X126405938Y-56892985D01*
X126237303Y-56724055D01*
X126017594Y-56632824D01*
X127640896Y-56632824D01*
X127732048Y-56853429D01*
X127773471Y-56894924D01*
X127732641Y-56935683D01*
X127641104Y-57156129D01*
X127640896Y-57394824D01*
X127732048Y-57615429D01*
X127773471Y-57656924D01*
X127732641Y-57697683D01*
X127641104Y-57918129D01*
X127640896Y-58156824D01*
X127732048Y-58377429D01*
X127900683Y-58546359D01*
X128121129Y-58637896D01*
X128359824Y-58638104D01*
X128580429Y-58546952D01*
X128749359Y-58378317D01*
X128840896Y-58157871D01*
X128841104Y-57919176D01*
X128775221Y-57759726D01*
X187029799Y-57759726D01*
X187206026Y-58186229D01*
X187532055Y-58512827D01*
X187958249Y-58689798D01*
X188419726Y-58690201D01*
X188846229Y-58513974D01*
X189172827Y-58187945D01*
X189349798Y-57761751D01*
X189350201Y-57300274D01*
X189173974Y-56873771D01*
X188847945Y-56547173D01*
X188421751Y-56370202D01*
X187960274Y-56369799D01*
X187533771Y-56546026D01*
X187207173Y-56872055D01*
X187030202Y-57298249D01*
X187029799Y-57759726D01*
X128775221Y-57759726D01*
X128749952Y-57698571D01*
X128708529Y-57657076D01*
X128749359Y-57616317D01*
X128840896Y-57395871D01*
X128841104Y-57157176D01*
X128749952Y-56936571D01*
X128708529Y-56895076D01*
X128749359Y-56854317D01*
X128840896Y-56633871D01*
X128841104Y-56395176D01*
X128749952Y-56174571D01*
X128581317Y-56005641D01*
X128360871Y-55914104D01*
X128122176Y-55913896D01*
X127901571Y-56005048D01*
X127732641Y-56173683D01*
X127641104Y-56394129D01*
X127640896Y-56632824D01*
X126017594Y-56632824D01*
X126016857Y-56632518D01*
X125778162Y-56632310D01*
X125557557Y-56723462D01*
X125388627Y-56892097D01*
X125387857Y-56893951D01*
X125371816Y-56855129D01*
X125203181Y-56686199D01*
X124982735Y-56594662D01*
X124744040Y-56594454D01*
X124523435Y-56685606D01*
X124411744Y-56797101D01*
X124363372Y-56680031D01*
X124194737Y-56511101D01*
X123974291Y-56419564D01*
X123735596Y-56419356D01*
X123514991Y-56510508D01*
X123346061Y-56679143D01*
X123254524Y-56899589D01*
X123254316Y-57138284D01*
X105375000Y-57138284D01*
X105375000Y-53138188D01*
X106604398Y-53138188D01*
X107132321Y-54415858D01*
X108109001Y-55394244D01*
X109385747Y-55924395D01*
X110768188Y-55925602D01*
X112045858Y-55397679D01*
X113024244Y-54420999D01*
X113066670Y-54318824D01*
X155199896Y-54318824D01*
X155291048Y-54539429D01*
X155459683Y-54708359D01*
X155680129Y-54799896D01*
X155918824Y-54800104D01*
X156139429Y-54708952D01*
X156308359Y-54540317D01*
X156399896Y-54319871D01*
X156400104Y-54081176D01*
X156308952Y-53860571D01*
X156140317Y-53691641D01*
X155919871Y-53600104D01*
X155681176Y-53599896D01*
X155460571Y-53691048D01*
X155291641Y-53859683D01*
X155200104Y-54080129D01*
X155199896Y-54318824D01*
X113066670Y-54318824D01*
X113554395Y-53144253D01*
X113555602Y-51761812D01*
X113027679Y-50484142D01*
X112050999Y-49505756D01*
X110774253Y-48975605D01*
X109391812Y-48974398D01*
X108114142Y-49502321D01*
X107135756Y-50479001D01*
X106605605Y-51755747D01*
X106604398Y-53138188D01*
X105375000Y-53138188D01*
X105375000Y-45205000D01*
X189155000Y-45205000D01*
X189155000Y-49234764D01*
G36*
X172203431Y-125128853D02*
X172133384Y-125297544D01*
X172133176Y-125536239D01*
X172224328Y-125756844D01*
X172392963Y-125925774D01*
X172613409Y-126017311D01*
X172852104Y-126017519D01*
X172972000Y-125967979D01*
X172972000Y-132104802D01*
X162405190Y-131979007D01*
X162405000Y-131979005D01*
X161877366Y-131973729D01*
X161855317Y-131951641D01*
X161634871Y-131860104D01*
X161396176Y-131859896D01*
X161175571Y-131951048D01*
X161160037Y-131966555D01*
X157629892Y-131931254D01*
X157524703Y-131773827D01*
X157151616Y-131524539D01*
X156711530Y-131437000D01*
X156666470Y-131437000D01*
X156226384Y-131524539D01*
X155853297Y-131773827D01*
X155760598Y-131912561D01*
X149804000Y-131852995D01*
X149804000Y-130047000D01*
X155516470Y-130047000D01*
X155604009Y-130487086D01*
X155853297Y-130860173D01*
X156226384Y-131109461D01*
X156666470Y-131197000D01*
X156711530Y-131197000D01*
X157151616Y-131109461D01*
X157524703Y-130860173D01*
X157773991Y-130487086D01*
X157861530Y-130047000D01*
X157773991Y-129606914D01*
X157524703Y-129233827D01*
X157151616Y-128984539D01*
X156711530Y-128897000D01*
X156666470Y-128897000D01*
X156226384Y-128984539D01*
X155853297Y-129233827D01*
X155604009Y-129606914D01*
X155516470Y-130047000D01*
X149804000Y-130047000D01*
X149804000Y-128879025D01*
X158801460Y-128879025D01*
X158892612Y-129099630D01*
X159061247Y-129268560D01*
X159281693Y-129360097D01*
X159520388Y-129360305D01*
X159740993Y-129269153D01*
X159909923Y-129100518D01*
X160001460Y-128880072D01*
X160001668Y-128641377D01*
X159910516Y-128420772D01*
X159741881Y-128251842D01*
X159521435Y-128160305D01*
X159282740Y-128160097D01*
X159062135Y-128251249D01*
X158893205Y-128419884D01*
X158801668Y-128640330D01*
X158801460Y-128879025D01*
X149804000Y-128879025D01*
X149804000Y-126841486D01*
X152764558Y-126841486D01*
X152855710Y-127062091D01*
X153024345Y-127231021D01*
X153244791Y-127322558D01*
X153483486Y-127322766D01*
X153704091Y-127231614D01*
X153873021Y-127062979D01*
X153964558Y-126842533D01*
X153964760Y-126609824D01*
X154056896Y-126609824D01*
X154148048Y-126830429D01*
X154316683Y-126999359D01*
X154537129Y-127090896D01*
X154775824Y-127091104D01*
X154996429Y-126999952D01*
X155165359Y-126831317D01*
X155237741Y-126657000D01*
X155533123Y-126657000D01*
X155533123Y-128357000D01*
X155554042Y-128468173D01*
X155619745Y-128570279D01*
X155719997Y-128638778D01*
X155839000Y-128662877D01*
X157539000Y-128662877D01*
X157650173Y-128641958D01*
X157752279Y-128576255D01*
X157820778Y-128476003D01*
X157844877Y-128357000D01*
X157844877Y-126657000D01*
X157823958Y-126545827D01*
X157758255Y-126443721D01*
X157658003Y-126375222D01*
X157539000Y-126351123D01*
X155839000Y-126351123D01*
X155727827Y-126372042D01*
X155625721Y-126437745D01*
X155557222Y-126537997D01*
X155533123Y-126657000D01*
X155237741Y-126657000D01*
X155256896Y-126610871D01*
X155257104Y-126372176D01*
X155166052Y-126151813D01*
X169745845Y-126151813D01*
X169836997Y-126372418D01*
X170005632Y-126541348D01*
X170226078Y-126632885D01*
X170464773Y-126633093D01*
X170685378Y-126541941D01*
X170854308Y-126373306D01*
X170945845Y-126152860D01*
X170946053Y-125914165D01*
X170854901Y-125693560D01*
X170686266Y-125524630D01*
X170465820Y-125433093D01*
X170227125Y-125432885D01*
X170006520Y-125524037D01*
X169837590Y-125692672D01*
X169746053Y-125913118D01*
X169745845Y-126151813D01*
X155166052Y-126151813D01*
X155165952Y-126151571D01*
X154997317Y-125982641D01*
X154776871Y-125891104D01*
X154538176Y-125890896D01*
X154317571Y-125982048D01*
X154148641Y-126150683D01*
X154057104Y-126371129D01*
X154056896Y-126609824D01*
X153964760Y-126609824D01*
X153964766Y-126603838D01*
X153873614Y-126383233D01*
X153704979Y-126214303D01*
X153484533Y-126122766D01*
X153245838Y-126122558D01*
X153025233Y-126213710D01*
X152856303Y-126382345D01*
X152764766Y-126602791D01*
X152764558Y-126841486D01*
X149804000Y-126841486D01*
X149804000Y-125099829D01*
X150217844Y-125100190D01*
X150622286Y-124933078D01*
X150931991Y-124623913D01*
X151099808Y-124219763D01*
X151099809Y-124217844D01*
X151399810Y-124217844D01*
X151566922Y-124622286D01*
X151876087Y-124931991D01*
X152280237Y-125099808D01*
X152717844Y-125100190D01*
X153122286Y-124933078D01*
X153431991Y-124623913D01*
X153599808Y-124219763D01*
X153600190Y-123782156D01*
X153433078Y-123377714D01*
X153236532Y-123180824D01*
X166248896Y-123180824D01*
X166340048Y-123401429D01*
X166508683Y-123570359D01*
X166729129Y-123661896D01*
X166967824Y-123662104D01*
X167188429Y-123570952D01*
X167357359Y-123402317D01*
X167448896Y-123181871D01*
X167449007Y-123053824D01*
X168153896Y-123053824D01*
X168245048Y-123274429D01*
X168413683Y-123443359D01*
X168634129Y-123534896D01*
X168872824Y-123535104D01*
X169093429Y-123443952D01*
X169262359Y-123275317D01*
X169353896Y-123054871D01*
X169354104Y-122816176D01*
X169262952Y-122595571D01*
X169094317Y-122426641D01*
X168873871Y-122335104D01*
X168635176Y-122334896D01*
X168414571Y-122426048D01*
X168245641Y-122594683D01*
X168154104Y-122815129D01*
X168153896Y-123053824D01*
X167449007Y-123053824D01*
X167449104Y-122943176D01*
X167357952Y-122722571D01*
X167189317Y-122553641D01*
X166968871Y-122462104D01*
X166730176Y-122461896D01*
X166509571Y-122553048D01*
X166340641Y-122721683D01*
X166249104Y-122942129D01*
X166248896Y-123180824D01*
X153236532Y-123180824D01*
X153123913Y-123068009D01*
X152719763Y-122900192D01*
X152282156Y-122899810D01*
X151877714Y-123066922D01*
X151568009Y-123376087D01*
X151400192Y-123780237D01*
X151399810Y-124217844D01*
X151099809Y-124217844D01*
X151100190Y-123782156D01*
X150933078Y-123377714D01*
X150623913Y-123068009D01*
X150219763Y-122900192D01*
X149804000Y-122899829D01*
X149804000Y-120915877D01*
X150808000Y-120915877D01*
X150919173Y-120894958D01*
X151021279Y-120829255D01*
X151089778Y-120729003D01*
X151113877Y-120610000D01*
X151113877Y-119243824D01*
X157104896Y-119243824D01*
X157196048Y-119464429D01*
X157364683Y-119633359D01*
X157585129Y-119724896D01*
X157823824Y-119725104D01*
X158044429Y-119633952D01*
X158053572Y-119624824D01*
X160152896Y-119624824D01*
X160244048Y-119845429D01*
X160412683Y-120014359D01*
X160564846Y-120077543D01*
X160413571Y-120140048D01*
X160244641Y-120308683D01*
X160153104Y-120529129D01*
X160152896Y-120767824D01*
X160244048Y-120988429D01*
X160412683Y-121157359D01*
X160633129Y-121248896D01*
X160871824Y-121249104D01*
X161092429Y-121157952D01*
X161197535Y-121053029D01*
X161301683Y-121157359D01*
X161522129Y-121248896D01*
X161760824Y-121249104D01*
X161981429Y-121157952D01*
X162086535Y-121053029D01*
X162190683Y-121157359D01*
X162411129Y-121248896D01*
X162649824Y-121249104D01*
X162870429Y-121157952D01*
X162879572Y-121148824D01*
X163200896Y-121148824D01*
X163292048Y-121369429D01*
X163460683Y-121538359D01*
X163681129Y-121629896D01*
X163919824Y-121630104D01*
X164140429Y-121538952D01*
X164309359Y-121370317D01*
X164400896Y-121149871D01*
X164401104Y-120911176D01*
X164309952Y-120690571D01*
X164141317Y-120521641D01*
X163920871Y-120430104D01*
X163682176Y-120429896D01*
X163461571Y-120521048D01*
X163292641Y-120689683D01*
X163201104Y-120910129D01*
X163200896Y-121148824D01*
X162879572Y-121148824D01*
X163039359Y-120989317D01*
X163130896Y-120768871D01*
X163131104Y-120530176D01*
X163039952Y-120309571D01*
X162871317Y-120140641D01*
X162719154Y-120077457D01*
X162870429Y-120014952D01*
X162975535Y-119910029D01*
X163079683Y-120014359D01*
X163300129Y-120105896D01*
X163538824Y-120106104D01*
X163759429Y-120014952D01*
X163928359Y-119846317D01*
X164019896Y-119625871D01*
X164020104Y-119387176D01*
X163928952Y-119166571D01*
X163760317Y-118997641D01*
X163608154Y-118934457D01*
X163759429Y-118871952D01*
X163928359Y-118703317D01*
X164019896Y-118482871D01*
X164020104Y-118244176D01*
X163928952Y-118023571D01*
X163760317Y-117854641D01*
X163539871Y-117763104D01*
X163301176Y-117762896D01*
X163080571Y-117854048D01*
X162975465Y-117958971D01*
X162871317Y-117854641D01*
X162650871Y-117763104D01*
X162412176Y-117762896D01*
X162191571Y-117854048D01*
X162086465Y-117958971D01*
X161982317Y-117854641D01*
X161761871Y-117763104D01*
X161523176Y-117762896D01*
X161302571Y-117854048D01*
X161133641Y-118022683D01*
X161042104Y-118243129D01*
X161041896Y-118481824D01*
X161133048Y-118702429D01*
X161301683Y-118871359D01*
X161453846Y-118934543D01*
X161302571Y-118997048D01*
X161197465Y-119101971D01*
X161093317Y-118997641D01*
X160872871Y-118906104D01*
X160634176Y-118905896D01*
X160413571Y-118997048D01*
X160244641Y-119165683D01*
X160153104Y-119386129D01*
X160152896Y-119624824D01*
X158053572Y-119624824D01*
X158213359Y-119465317D01*
X158304896Y-119244871D01*
X158305104Y-119006176D01*
X158213952Y-118785571D01*
X158045317Y-118616641D01*
X157824871Y-118525104D01*
X157586176Y-118524896D01*
X157365571Y-118616048D01*
X157196641Y-118784683D01*
X157105104Y-119005129D01*
X157104896Y-119243824D01*
X151113877Y-119243824D01*
X151113877Y-118910000D01*
X151092958Y-118798827D01*
X151027255Y-118696721D01*
X150927003Y-118628222D01*
X150808000Y-118604123D01*
X149804000Y-118604123D01*
X149804000Y-117794996D01*
X159705398Y-117794996D01*
X159796550Y-118015601D01*
X159965185Y-118184531D01*
X160185631Y-118276068D01*
X160424326Y-118276276D01*
X160644931Y-118185124D01*
X160813861Y-118016489D01*
X160905398Y-117796043D01*
X160905606Y-117557348D01*
X160814454Y-117336743D01*
X160645819Y-117167813D01*
X160425373Y-117076276D01*
X160186678Y-117076068D01*
X159966073Y-117167220D01*
X159797143Y-117335855D01*
X159705606Y-117556301D01*
X159705398Y-117794996D01*
X149804000Y-117794996D01*
X149804000Y-115288000D01*
X162362578Y-115288000D01*
X172203431Y-125128853D01*
X172203431Y-125128853D01*
G37*
X172203431Y-125128853D02*
X172133384Y-125297544D01*
X172133176Y-125536239D01*
X172224328Y-125756844D01*
X172392963Y-125925774D01*
X172613409Y-126017311D01*
X172852104Y-126017519D01*
X172972000Y-125967979D01*
X172972000Y-132104802D01*
X162405190Y-131979007D01*
X162405000Y-131979005D01*
X161877366Y-131973729D01*
X161855317Y-131951641D01*
X161634871Y-131860104D01*
X161396176Y-131859896D01*
X161175571Y-131951048D01*
X161160037Y-131966555D01*
X157629892Y-131931254D01*
X157524703Y-131773827D01*
X157151616Y-131524539D01*
X156711530Y-131437000D01*
X156666470Y-131437000D01*
X156226384Y-131524539D01*
X155853297Y-131773827D01*
X155760598Y-131912561D01*
X149804000Y-131852995D01*
X149804000Y-130047000D01*
X155516470Y-130047000D01*
X155604009Y-130487086D01*
X155853297Y-130860173D01*
X156226384Y-131109461D01*
X156666470Y-131197000D01*
X156711530Y-131197000D01*
X157151616Y-131109461D01*
X157524703Y-130860173D01*
X157773991Y-130487086D01*
X157861530Y-130047000D01*
X157773991Y-129606914D01*
X157524703Y-129233827D01*
X157151616Y-128984539D01*
X156711530Y-128897000D01*
X156666470Y-128897000D01*
X156226384Y-128984539D01*
X155853297Y-129233827D01*
X155604009Y-129606914D01*
X155516470Y-130047000D01*
X149804000Y-130047000D01*
X149804000Y-128879025D01*
X158801460Y-128879025D01*
X158892612Y-129099630D01*
X159061247Y-129268560D01*
X159281693Y-129360097D01*
X159520388Y-129360305D01*
X159740993Y-129269153D01*
X159909923Y-129100518D01*
X160001460Y-128880072D01*
X160001668Y-128641377D01*
X159910516Y-128420772D01*
X159741881Y-128251842D01*
X159521435Y-128160305D01*
X159282740Y-128160097D01*
X159062135Y-128251249D01*
X158893205Y-128419884D01*
X158801668Y-128640330D01*
X158801460Y-128879025D01*
X149804000Y-128879025D01*
X149804000Y-126841486D01*
X152764558Y-126841486D01*
X152855710Y-127062091D01*
X153024345Y-127231021D01*
X153244791Y-127322558D01*
X153483486Y-127322766D01*
X153704091Y-127231614D01*
X153873021Y-127062979D01*
X153964558Y-126842533D01*
X153964760Y-126609824D01*
X154056896Y-126609824D01*
X154148048Y-126830429D01*
X154316683Y-126999359D01*
X154537129Y-127090896D01*
X154775824Y-127091104D01*
X154996429Y-126999952D01*
X155165359Y-126831317D01*
X155237741Y-126657000D01*
X155533123Y-126657000D01*
X155533123Y-128357000D01*
X155554042Y-128468173D01*
X155619745Y-128570279D01*
X155719997Y-128638778D01*
X155839000Y-128662877D01*
X157539000Y-128662877D01*
X157650173Y-128641958D01*
X157752279Y-128576255D01*
X157820778Y-128476003D01*
X157844877Y-128357000D01*
X157844877Y-126657000D01*
X157823958Y-126545827D01*
X157758255Y-126443721D01*
X157658003Y-126375222D01*
X157539000Y-126351123D01*
X155839000Y-126351123D01*
X155727827Y-126372042D01*
X155625721Y-126437745D01*
X155557222Y-126537997D01*
X155533123Y-126657000D01*
X155237741Y-126657000D01*
X155256896Y-126610871D01*
X155257104Y-126372176D01*
X155166052Y-126151813D01*
X169745845Y-126151813D01*
X169836997Y-126372418D01*
X170005632Y-126541348D01*
X170226078Y-126632885D01*
X170464773Y-126633093D01*
X170685378Y-126541941D01*
X170854308Y-126373306D01*
X170945845Y-126152860D01*
X170946053Y-125914165D01*
X170854901Y-125693560D01*
X170686266Y-125524630D01*
X170465820Y-125433093D01*
X170227125Y-125432885D01*
X170006520Y-125524037D01*
X169837590Y-125692672D01*
X169746053Y-125913118D01*
X169745845Y-126151813D01*
X155166052Y-126151813D01*
X155165952Y-126151571D01*
X154997317Y-125982641D01*
X154776871Y-125891104D01*
X154538176Y-125890896D01*
X154317571Y-125982048D01*
X154148641Y-126150683D01*
X154057104Y-126371129D01*
X154056896Y-126609824D01*
X153964760Y-126609824D01*
X153964766Y-126603838D01*
X153873614Y-126383233D01*
X153704979Y-126214303D01*
X153484533Y-126122766D01*
X153245838Y-126122558D01*
X153025233Y-126213710D01*
X152856303Y-126382345D01*
X152764766Y-126602791D01*
X152764558Y-126841486D01*
X149804000Y-126841486D01*
X149804000Y-125099829D01*
X150217844Y-125100190D01*
X150622286Y-124933078D01*
X150931991Y-124623913D01*
X151099808Y-124219763D01*
X151099809Y-124217844D01*
X151399810Y-124217844D01*
X151566922Y-124622286D01*
X151876087Y-124931991D01*
X152280237Y-125099808D01*
X152717844Y-125100190D01*
X153122286Y-124933078D01*
X153431991Y-124623913D01*
X153599808Y-124219763D01*
X153600190Y-123782156D01*
X153433078Y-123377714D01*
X153236532Y-123180824D01*
X166248896Y-123180824D01*
X166340048Y-123401429D01*
X166508683Y-123570359D01*
X166729129Y-123661896D01*
X166967824Y-123662104D01*
X167188429Y-123570952D01*
X167357359Y-123402317D01*
X167448896Y-123181871D01*
X167449007Y-123053824D01*
X168153896Y-123053824D01*
X168245048Y-123274429D01*
X168413683Y-123443359D01*
X168634129Y-123534896D01*
X168872824Y-123535104D01*
X169093429Y-123443952D01*
X169262359Y-123275317D01*
X169353896Y-123054871D01*
X169354104Y-122816176D01*
X169262952Y-122595571D01*
X169094317Y-122426641D01*
X168873871Y-122335104D01*
X168635176Y-122334896D01*
X168414571Y-122426048D01*
X168245641Y-122594683D01*
X168154104Y-122815129D01*
X168153896Y-123053824D01*
X167449007Y-123053824D01*
X167449104Y-122943176D01*
X167357952Y-122722571D01*
X167189317Y-122553641D01*
X166968871Y-122462104D01*
X166730176Y-122461896D01*
X166509571Y-122553048D01*
X166340641Y-122721683D01*
X166249104Y-122942129D01*
X166248896Y-123180824D01*
X153236532Y-123180824D01*
X153123913Y-123068009D01*
X152719763Y-122900192D01*
X152282156Y-122899810D01*
X151877714Y-123066922D01*
X151568009Y-123376087D01*
X151400192Y-123780237D01*
X151399810Y-124217844D01*
X151099809Y-124217844D01*
X151100190Y-123782156D01*
X150933078Y-123377714D01*
X150623913Y-123068009D01*
X150219763Y-122900192D01*
X149804000Y-122899829D01*
X149804000Y-120915877D01*
X150808000Y-120915877D01*
X150919173Y-120894958D01*
X151021279Y-120829255D01*
X151089778Y-120729003D01*
X151113877Y-120610000D01*
X151113877Y-119243824D01*
X157104896Y-119243824D01*
X157196048Y-119464429D01*
X157364683Y-119633359D01*
X157585129Y-119724896D01*
X157823824Y-119725104D01*
X158044429Y-119633952D01*
X158053572Y-119624824D01*
X160152896Y-119624824D01*
X160244048Y-119845429D01*
X160412683Y-120014359D01*
X160564846Y-120077543D01*
X160413571Y-120140048D01*
X160244641Y-120308683D01*
X160153104Y-120529129D01*
X160152896Y-120767824D01*
X160244048Y-120988429D01*
X160412683Y-121157359D01*
X160633129Y-121248896D01*
X160871824Y-121249104D01*
X161092429Y-121157952D01*
X161197535Y-121053029D01*
X161301683Y-121157359D01*
X161522129Y-121248896D01*
X161760824Y-121249104D01*
X161981429Y-121157952D01*
X162086535Y-121053029D01*
X162190683Y-121157359D01*
X162411129Y-121248896D01*
X162649824Y-121249104D01*
X162870429Y-121157952D01*
X162879572Y-121148824D01*
X163200896Y-121148824D01*
X163292048Y-121369429D01*
X163460683Y-121538359D01*
X163681129Y-121629896D01*
X163919824Y-121630104D01*
X164140429Y-121538952D01*
X164309359Y-121370317D01*
X164400896Y-121149871D01*
X164401104Y-120911176D01*
X164309952Y-120690571D01*
X164141317Y-120521641D01*
X163920871Y-120430104D01*
X163682176Y-120429896D01*
X163461571Y-120521048D01*
X163292641Y-120689683D01*
X163201104Y-120910129D01*
X163200896Y-121148824D01*
X162879572Y-121148824D01*
X163039359Y-120989317D01*
X163130896Y-120768871D01*
X163131104Y-120530176D01*
X163039952Y-120309571D01*
X162871317Y-120140641D01*
X162719154Y-120077457D01*
X162870429Y-120014952D01*
X162975535Y-119910029D01*
X163079683Y-120014359D01*
X163300129Y-120105896D01*
X163538824Y-120106104D01*
X163759429Y-120014952D01*
X163928359Y-119846317D01*
X164019896Y-119625871D01*
X164020104Y-119387176D01*
X163928952Y-119166571D01*
X163760317Y-118997641D01*
X163608154Y-118934457D01*
X163759429Y-118871952D01*
X163928359Y-118703317D01*
X164019896Y-118482871D01*
X164020104Y-118244176D01*
X163928952Y-118023571D01*
X163760317Y-117854641D01*
X163539871Y-117763104D01*
X163301176Y-117762896D01*
X163080571Y-117854048D01*
X162975465Y-117958971D01*
X162871317Y-117854641D01*
X162650871Y-117763104D01*
X162412176Y-117762896D01*
X162191571Y-117854048D01*
X162086465Y-117958971D01*
X161982317Y-117854641D01*
X161761871Y-117763104D01*
X161523176Y-117762896D01*
X161302571Y-117854048D01*
X161133641Y-118022683D01*
X161042104Y-118243129D01*
X161041896Y-118481824D01*
X161133048Y-118702429D01*
X161301683Y-118871359D01*
X161453846Y-118934543D01*
X161302571Y-118997048D01*
X161197465Y-119101971D01*
X161093317Y-118997641D01*
X160872871Y-118906104D01*
X160634176Y-118905896D01*
X160413571Y-118997048D01*
X160244641Y-119165683D01*
X160153104Y-119386129D01*
X160152896Y-119624824D01*
X158053572Y-119624824D01*
X158213359Y-119465317D01*
X158304896Y-119244871D01*
X158305104Y-119006176D01*
X158213952Y-118785571D01*
X158045317Y-118616641D01*
X157824871Y-118525104D01*
X157586176Y-118524896D01*
X157365571Y-118616048D01*
X157196641Y-118784683D01*
X157105104Y-119005129D01*
X157104896Y-119243824D01*
X151113877Y-119243824D01*
X151113877Y-118910000D01*
X151092958Y-118798827D01*
X151027255Y-118696721D01*
X150927003Y-118628222D01*
X150808000Y-118604123D01*
X149804000Y-118604123D01*
X149804000Y-117794996D01*
X159705398Y-117794996D01*
X159796550Y-118015601D01*
X159965185Y-118184531D01*
X160185631Y-118276068D01*
X160424326Y-118276276D01*
X160644931Y-118185124D01*
X160813861Y-118016489D01*
X160905398Y-117796043D01*
X160905606Y-117557348D01*
X160814454Y-117336743D01*
X160645819Y-117167813D01*
X160425373Y-117076276D01*
X160186678Y-117076068D01*
X159966073Y-117167220D01*
X159797143Y-117335855D01*
X159705606Y-117556301D01*
X159705398Y-117794996D01*
X149804000Y-117794996D01*
X149804000Y-115288000D01*
X162362578Y-115288000D01*
X172203431Y-125128853D01*
G36*
X184910000Y-67725023D02*
X184764176Y-67724896D01*
X184543571Y-67816048D01*
X184374641Y-67984683D01*
X184283104Y-68205129D01*
X184282896Y-68443824D01*
X184374048Y-68664429D01*
X184478971Y-68769535D01*
X184374641Y-68873683D01*
X184283104Y-69094129D01*
X184282896Y-69332824D01*
X184374048Y-69553429D01*
X184542471Y-69722146D01*
X184374641Y-69889683D01*
X184283104Y-70110129D01*
X184282896Y-70348824D01*
X184374048Y-70569429D01*
X184542471Y-70738146D01*
X184374641Y-70905683D01*
X184283104Y-71126129D01*
X184282896Y-71364824D01*
X184374048Y-71585429D01*
X184542471Y-71754146D01*
X184374641Y-71921683D01*
X184283104Y-72142129D01*
X184282938Y-72332793D01*
X184150496Y-72200119D01*
X183930050Y-72108582D01*
X183691355Y-72108374D01*
X183470750Y-72199526D01*
X183301820Y-72368161D01*
X183210283Y-72588607D01*
X183210075Y-72827302D01*
X183301227Y-73047907D01*
X183469862Y-73216837D01*
X183690308Y-73308374D01*
X183929003Y-73308582D01*
X184149608Y-73217430D01*
X184318538Y-73048795D01*
X184410075Y-72828349D01*
X184410241Y-72637685D01*
X184542471Y-72770146D01*
X184374641Y-72937683D01*
X184283104Y-73158129D01*
X184282969Y-73313030D01*
X184129176Y-73312896D01*
X183908571Y-73404048D01*
X183739641Y-73572683D01*
X183648104Y-73793129D01*
X183647896Y-74031824D01*
X183739048Y-74252429D01*
X183907683Y-74421359D01*
X184018539Y-74467390D01*
X184010171Y-74470848D01*
X183841241Y-74639483D01*
X183749704Y-74859929D01*
X183749496Y-75098624D01*
X183840648Y-75319229D01*
X184009283Y-75488159D01*
X184229729Y-75579696D01*
X184468424Y-75579904D01*
X184689029Y-75488752D01*
X184857959Y-75320117D01*
X184910000Y-75194788D01*
X184910000Y-76049612D01*
X184883952Y-75986571D01*
X184715317Y-75817641D01*
X184494871Y-75726104D01*
X184256176Y-75725896D01*
X184035571Y-75817048D01*
X183866641Y-75985683D01*
X183775104Y-76206129D01*
X183774896Y-76444824D01*
X183866048Y-76665429D01*
X184034683Y-76834359D01*
X184255129Y-76925896D01*
X184493824Y-76926104D01*
X184714429Y-76834952D01*
X184883359Y-76666317D01*
X184910000Y-76602158D01*
X184910000Y-77512139D01*
X184909352Y-77510571D01*
X184740717Y-77341641D01*
X184520271Y-77250104D01*
X184281576Y-77249896D01*
X184060971Y-77341048D01*
X183892041Y-77509683D01*
X183800504Y-77730129D01*
X183800296Y-77968824D01*
X183891448Y-78189429D01*
X184060083Y-78358359D01*
X184280529Y-78449896D01*
X184519224Y-78450104D01*
X184739829Y-78358952D01*
X184908759Y-78190317D01*
X184910000Y-78187328D01*
X184910000Y-78766000D01*
X163420000Y-78766000D01*
X163381094Y-78773879D01*
X163348319Y-78796273D01*
X163326839Y-78829654D01*
X163320000Y-78866000D01*
X163320000Y-98745442D01*
X163252317Y-98677641D01*
X163031871Y-98586104D01*
X162793176Y-98585896D01*
X162572571Y-98677048D01*
X162403641Y-98845683D01*
X162312104Y-99066129D01*
X162311896Y-99304824D01*
X162403048Y-99525429D01*
X162571683Y-99694359D01*
X162792129Y-99785896D01*
X163030824Y-99786104D01*
X163251429Y-99694952D01*
X163320000Y-99626501D01*
X163320000Y-101900061D01*
X163131176Y-101899896D01*
X162910571Y-101991048D01*
X162792030Y-102109382D01*
X162758952Y-102029326D01*
X162590317Y-101860396D01*
X162369871Y-101768859D01*
X162131176Y-101768651D01*
X161910571Y-101859803D01*
X161741641Y-102028438D01*
X161650104Y-102248884D01*
X161649896Y-102487579D01*
X161741048Y-102708184D01*
X161909683Y-102877114D01*
X162130129Y-102968651D01*
X162368824Y-102968859D01*
X162589429Y-102877707D01*
X162707970Y-102759373D01*
X162741048Y-102839429D01*
X162901471Y-103000132D01*
X162741641Y-103159683D01*
X162650104Y-103380129D01*
X162649896Y-103618824D01*
X162741048Y-103839429D01*
X162909683Y-104008359D01*
X163130129Y-104099896D01*
X163320000Y-104100061D01*
X163320000Y-111505000D01*
X163327879Y-111543906D01*
X163349289Y-111575711D01*
X164811107Y-113037529D01*
X164776285Y-113051918D01*
X164607355Y-113220553D01*
X164515818Y-113440999D01*
X164515610Y-113679694D01*
X164606762Y-113900299D01*
X164775397Y-114069229D01*
X164995843Y-114160766D01*
X165234538Y-114160974D01*
X165455143Y-114069822D01*
X165624073Y-113901187D01*
X165638946Y-113865368D01*
X169562180Y-117788602D01*
X169565028Y-117795495D01*
X169733663Y-117964425D01*
X169741085Y-117967507D01*
X174144289Y-122370711D01*
X174177371Y-122392650D01*
X174215000Y-122400000D01*
X188778578Y-122400000D01*
X189355000Y-122976422D01*
X189355000Y-124163578D01*
X188778578Y-124740000D01*
X182771407Y-124740000D01*
X182724952Y-124627571D01*
X182556317Y-124458641D01*
X182335871Y-124367104D01*
X182097176Y-124366896D01*
X181876571Y-124458048D01*
X181707641Y-124626683D01*
X181660588Y-124740000D01*
X172986422Y-124740000D01*
X171875067Y-123628645D01*
X177971219Y-123628645D01*
X178062371Y-123849250D01*
X178231006Y-124018180D01*
X178451452Y-124109717D01*
X178690147Y-124109925D01*
X178910752Y-124018773D01*
X179079682Y-123850138D01*
X179171219Y-123629692D01*
X179171427Y-123390997D01*
X179080275Y-123170392D01*
X178911640Y-123001462D01*
X178691194Y-122909925D01*
X178452499Y-122909717D01*
X178231894Y-123000869D01*
X178062964Y-123169504D01*
X177971427Y-123389950D01*
X177971219Y-123628645D01*
X171875067Y-123628645D01*
X169418811Y-121172389D01*
X169480896Y-121022871D01*
X169481104Y-120784176D01*
X169389952Y-120563571D01*
X169221317Y-120394641D01*
X169000871Y-120303104D01*
X168762176Y-120302896D01*
X168611554Y-120365132D01*
X160980000Y-112733578D01*
X160980000Y-103787557D01*
X161130129Y-103849896D01*
X161368824Y-103850104D01*
X161589429Y-103758952D01*
X161758359Y-103590317D01*
X161849896Y-103369871D01*
X161850104Y-103131176D01*
X161758952Y-102910571D01*
X161590317Y-102741641D01*
X161369871Y-102650104D01*
X161131176Y-102649896D01*
X160980000Y-102712361D01*
X160980000Y-101461144D01*
X161136242Y-101396586D01*
X161305172Y-101227951D01*
X161396709Y-101007505D01*
X161396917Y-100768810D01*
X161305765Y-100548205D01*
X161137130Y-100379275D01*
X160980000Y-100314029D01*
X160980000Y-100178631D01*
X161028361Y-100130354D01*
X161119898Y-99909908D01*
X161120106Y-99671213D01*
X161028954Y-99450608D01*
X160980000Y-99401568D01*
X160980000Y-98394097D01*
X160987670Y-98394104D01*
X161208275Y-98302952D01*
X161377205Y-98134317D01*
X161468742Y-97913871D01*
X161468950Y-97675176D01*
X161377798Y-97454571D01*
X161209163Y-97285641D01*
X160988717Y-97194104D01*
X160980000Y-97194096D01*
X160980000Y-87325724D01*
X161014129Y-87339896D01*
X161252824Y-87340104D01*
X161473429Y-87248952D01*
X161642359Y-87080317D01*
X161733896Y-86859871D01*
X161734104Y-86621176D01*
X161642952Y-86400571D01*
X161474529Y-86231854D01*
X161642359Y-86064317D01*
X161733896Y-85843871D01*
X161734104Y-85605176D01*
X161642952Y-85384571D01*
X161474529Y-85215854D01*
X161642359Y-85048317D01*
X161733896Y-84827871D01*
X161734104Y-84589176D01*
X161642952Y-84368571D01*
X161474529Y-84199854D01*
X161642359Y-84032317D01*
X161733896Y-83811871D01*
X161734104Y-83573176D01*
X161642952Y-83352571D01*
X161474529Y-83183854D01*
X161642359Y-83016317D01*
X161733896Y-82795871D01*
X161734104Y-82557176D01*
X161642952Y-82336571D01*
X161474529Y-82167854D01*
X161642359Y-82000317D01*
X161733896Y-81779871D01*
X161734104Y-81541176D01*
X161642952Y-81320571D01*
X161474529Y-81151854D01*
X161642359Y-80984317D01*
X161733896Y-80763871D01*
X161734104Y-80525176D01*
X161642952Y-80304571D01*
X161474317Y-80135641D01*
X161253871Y-80044104D01*
X161015176Y-80043896D01*
X160980000Y-80058430D01*
X160980000Y-77984994D01*
X178307828Y-77984994D01*
X178398980Y-78205599D01*
X178567615Y-78374529D01*
X178788061Y-78466066D01*
X179026756Y-78466274D01*
X179247361Y-78375122D01*
X179339242Y-78283401D01*
X180036904Y-78283401D01*
X180128056Y-78504006D01*
X180296691Y-78672936D01*
X180517137Y-78764473D01*
X180755832Y-78764681D01*
X180976437Y-78673529D01*
X181145367Y-78504894D01*
X181236904Y-78284448D01*
X181237112Y-78045753D01*
X181145960Y-77825148D01*
X180977325Y-77656218D01*
X180756879Y-77564681D01*
X180518184Y-77564473D01*
X180297579Y-77655625D01*
X180128649Y-77824260D01*
X180037112Y-78044706D01*
X180036904Y-78283401D01*
X179339242Y-78283401D01*
X179416291Y-78206487D01*
X179507828Y-77986041D01*
X179508036Y-77747346D01*
X179416884Y-77526741D01*
X179248249Y-77357811D01*
X179027803Y-77266274D01*
X178789108Y-77266066D01*
X178568503Y-77357218D01*
X178399573Y-77525853D01*
X178308036Y-77746299D01*
X178307828Y-77984994D01*
X160980000Y-77984994D01*
X160980000Y-76680000D01*
X172691000Y-76680000D01*
X172729906Y-76672121D01*
X172762681Y-76649727D01*
X172784161Y-76616346D01*
X172791000Y-76580000D01*
X172791000Y-75523344D01*
X180023104Y-75523344D01*
X180114256Y-75743949D01*
X180282891Y-75912879D01*
X180503337Y-76004416D01*
X180742032Y-76004624D01*
X180962637Y-75913472D01*
X181131567Y-75744837D01*
X181223104Y-75524391D01*
X181223312Y-75285696D01*
X181132160Y-75065091D01*
X180963525Y-74896161D01*
X180743079Y-74804624D01*
X180504384Y-74804416D01*
X180283779Y-74895568D01*
X180114849Y-75064203D01*
X180023312Y-75284649D01*
X180023104Y-75523344D01*
X172791000Y-75523344D01*
X172791000Y-73258133D01*
X177548263Y-73258133D01*
X177639415Y-73478738D01*
X177808050Y-73647668D01*
X178028496Y-73739205D01*
X178267191Y-73739413D01*
X178487796Y-73648261D01*
X178656726Y-73479626D01*
X178748263Y-73259180D01*
X178748471Y-73020485D01*
X178673080Y-72838024D01*
X179787096Y-72838024D01*
X179878248Y-73058629D01*
X180046883Y-73227559D01*
X180267329Y-73319096D01*
X180506024Y-73319304D01*
X180726629Y-73228152D01*
X180895559Y-73059517D01*
X180946011Y-72938014D01*
X180995848Y-73058629D01*
X181164483Y-73227559D01*
X181384929Y-73319096D01*
X181623624Y-73319304D01*
X181844229Y-73228152D01*
X182013159Y-73059517D01*
X182104696Y-72839071D01*
X182104904Y-72600376D01*
X182013752Y-72379771D01*
X181845117Y-72210841D01*
X181624671Y-72119304D01*
X181385976Y-72119096D01*
X181165371Y-72210248D01*
X180996441Y-72378883D01*
X180945989Y-72500386D01*
X180896152Y-72379771D01*
X180727517Y-72210841D01*
X180507071Y-72119304D01*
X180268376Y-72119096D01*
X180047771Y-72210248D01*
X179878841Y-72378883D01*
X179787304Y-72599329D01*
X179787096Y-72838024D01*
X178673080Y-72838024D01*
X178657319Y-72799880D01*
X178488684Y-72630950D01*
X178268238Y-72539413D01*
X178029543Y-72539205D01*
X177808938Y-72630357D01*
X177640008Y-72798992D01*
X177548471Y-73019438D01*
X177548263Y-73258133D01*
X172791000Y-73258133D01*
X172791000Y-69713824D01*
X178694896Y-69713824D01*
X178786048Y-69934429D01*
X178954683Y-70103359D01*
X179175129Y-70194896D01*
X179413824Y-70195104D01*
X179634429Y-70103952D01*
X179803359Y-69935317D01*
X179894896Y-69714871D01*
X179894896Y-69713824D01*
X179964896Y-69713824D01*
X180056048Y-69934429D01*
X180224683Y-70103359D01*
X180445129Y-70194896D01*
X180683824Y-70195104D01*
X180904429Y-70103952D01*
X181073359Y-69935317D01*
X181164896Y-69714871D01*
X181164896Y-69713824D01*
X181234896Y-69713824D01*
X181326048Y-69934429D01*
X181494683Y-70103359D01*
X181715129Y-70194896D01*
X181953824Y-70195104D01*
X182174429Y-70103952D01*
X182343359Y-69935317D01*
X182434896Y-69714871D01*
X182434896Y-69713824D01*
X182504896Y-69713824D01*
X182596048Y-69934429D01*
X182764683Y-70103359D01*
X182985129Y-70194896D01*
X183223824Y-70195104D01*
X183444429Y-70103952D01*
X183613359Y-69935317D01*
X183704896Y-69714871D01*
X183705104Y-69476176D01*
X183613952Y-69255571D01*
X183445317Y-69086641D01*
X183224871Y-68995104D01*
X182986176Y-68994896D01*
X182765571Y-69086048D01*
X182596641Y-69254683D01*
X182505104Y-69475129D01*
X182504896Y-69713824D01*
X182434896Y-69713824D01*
X182435104Y-69476176D01*
X182343952Y-69255571D01*
X182175317Y-69086641D01*
X181954871Y-68995104D01*
X181716176Y-68994896D01*
X181495571Y-69086048D01*
X181326641Y-69254683D01*
X181235104Y-69475129D01*
X181234896Y-69713824D01*
X181164896Y-69713824D01*
X181165104Y-69476176D01*
X181073952Y-69255571D01*
X180905317Y-69086641D01*
X180684871Y-68995104D01*
X180446176Y-68994896D01*
X180225571Y-69086048D01*
X180056641Y-69254683D01*
X179965104Y-69475129D01*
X179964896Y-69713824D01*
X179894896Y-69713824D01*
X179895104Y-69476176D01*
X179803952Y-69255571D01*
X179635317Y-69086641D01*
X179414871Y-68995104D01*
X179176176Y-68994896D01*
X178955571Y-69086048D01*
X178786641Y-69254683D01*
X178695104Y-69475129D01*
X178694896Y-69713824D01*
X172791000Y-69713824D01*
X172791000Y-67282000D01*
X184910000Y-67282000D01*
X184910000Y-67725023D01*
X184910000Y-67725023D01*
G37*
X184910000Y-67725023D02*
X184764176Y-67724896D01*
X184543571Y-67816048D01*
X184374641Y-67984683D01*
X184283104Y-68205129D01*
X184282896Y-68443824D01*
X184374048Y-68664429D01*
X184478971Y-68769535D01*
X184374641Y-68873683D01*
X184283104Y-69094129D01*
X184282896Y-69332824D01*
X184374048Y-69553429D01*
X184542471Y-69722146D01*
X184374641Y-69889683D01*
X184283104Y-70110129D01*
X184282896Y-70348824D01*
X184374048Y-70569429D01*
X184542471Y-70738146D01*
X184374641Y-70905683D01*
X184283104Y-71126129D01*
X184282896Y-71364824D01*
X184374048Y-71585429D01*
X184542471Y-71754146D01*
X184374641Y-71921683D01*
X184283104Y-72142129D01*
X184282938Y-72332793D01*
X184150496Y-72200119D01*
X183930050Y-72108582D01*
X183691355Y-72108374D01*
X183470750Y-72199526D01*
X183301820Y-72368161D01*
X183210283Y-72588607D01*
X183210075Y-72827302D01*
X183301227Y-73047907D01*
X183469862Y-73216837D01*
X183690308Y-73308374D01*
X183929003Y-73308582D01*
X184149608Y-73217430D01*
X184318538Y-73048795D01*
X184410075Y-72828349D01*
X184410241Y-72637685D01*
X184542471Y-72770146D01*
X184374641Y-72937683D01*
X184283104Y-73158129D01*
X184282969Y-73313030D01*
X184129176Y-73312896D01*
X183908571Y-73404048D01*
X183739641Y-73572683D01*
X183648104Y-73793129D01*
X183647896Y-74031824D01*
X183739048Y-74252429D01*
X183907683Y-74421359D01*
X184018539Y-74467390D01*
X184010171Y-74470848D01*
X183841241Y-74639483D01*
X183749704Y-74859929D01*
X183749496Y-75098624D01*
X183840648Y-75319229D01*
X184009283Y-75488159D01*
X184229729Y-75579696D01*
X184468424Y-75579904D01*
X184689029Y-75488752D01*
X184857959Y-75320117D01*
X184910000Y-75194788D01*
X184910000Y-76049612D01*
X184883952Y-75986571D01*
X184715317Y-75817641D01*
X184494871Y-75726104D01*
X184256176Y-75725896D01*
X184035571Y-75817048D01*
X183866641Y-75985683D01*
X183775104Y-76206129D01*
X183774896Y-76444824D01*
X183866048Y-76665429D01*
X184034683Y-76834359D01*
X184255129Y-76925896D01*
X184493824Y-76926104D01*
X184714429Y-76834952D01*
X184883359Y-76666317D01*
X184910000Y-76602158D01*
X184910000Y-77512139D01*
X184909352Y-77510571D01*
X184740717Y-77341641D01*
X184520271Y-77250104D01*
X184281576Y-77249896D01*
X184060971Y-77341048D01*
X183892041Y-77509683D01*
X183800504Y-77730129D01*
X183800296Y-77968824D01*
X183891448Y-78189429D01*
X184060083Y-78358359D01*
X184280529Y-78449896D01*
X184519224Y-78450104D01*
X184739829Y-78358952D01*
X184908759Y-78190317D01*
X184910000Y-78187328D01*
X184910000Y-78766000D01*
X163420000Y-78766000D01*
X163381094Y-78773879D01*
X163348319Y-78796273D01*
X163326839Y-78829654D01*
X163320000Y-78866000D01*
X163320000Y-98745442D01*
X163252317Y-98677641D01*
X163031871Y-98586104D01*
X162793176Y-98585896D01*
X162572571Y-98677048D01*
X162403641Y-98845683D01*
X162312104Y-99066129D01*
X162311896Y-99304824D01*
X162403048Y-99525429D01*
X162571683Y-99694359D01*
X162792129Y-99785896D01*
X163030824Y-99786104D01*
X163251429Y-99694952D01*
X163320000Y-99626501D01*
X163320000Y-101900061D01*
X163131176Y-101899896D01*
X162910571Y-101991048D01*
X162792030Y-102109382D01*
X162758952Y-102029326D01*
X162590317Y-101860396D01*
X162369871Y-101768859D01*
X162131176Y-101768651D01*
X161910571Y-101859803D01*
X161741641Y-102028438D01*
X161650104Y-102248884D01*
X161649896Y-102487579D01*
X161741048Y-102708184D01*
X161909683Y-102877114D01*
X162130129Y-102968651D01*
X162368824Y-102968859D01*
X162589429Y-102877707D01*
X162707970Y-102759373D01*
X162741048Y-102839429D01*
X162901471Y-103000132D01*
X162741641Y-103159683D01*
X162650104Y-103380129D01*
X162649896Y-103618824D01*
X162741048Y-103839429D01*
X162909683Y-104008359D01*
X163130129Y-104099896D01*
X163320000Y-104100061D01*
X163320000Y-111505000D01*
X163327879Y-111543906D01*
X163349289Y-111575711D01*
X164811107Y-113037529D01*
X164776285Y-113051918D01*
X164607355Y-113220553D01*
X164515818Y-113440999D01*
X164515610Y-113679694D01*
X164606762Y-113900299D01*
X164775397Y-114069229D01*
X164995843Y-114160766D01*
X165234538Y-114160974D01*
X165455143Y-114069822D01*
X165624073Y-113901187D01*
X165638946Y-113865368D01*
X169562180Y-117788602D01*
X169565028Y-117795495D01*
X169733663Y-117964425D01*
X169741085Y-117967507D01*
X174144289Y-122370711D01*
X174177371Y-122392650D01*
X174215000Y-122400000D01*
X188778578Y-122400000D01*
X189355000Y-122976422D01*
X189355000Y-124163578D01*
X188778578Y-124740000D01*
X182771407Y-124740000D01*
X182724952Y-124627571D01*
X182556317Y-124458641D01*
X182335871Y-124367104D01*
X182097176Y-124366896D01*
X181876571Y-124458048D01*
X181707641Y-124626683D01*
X181660588Y-124740000D01*
X172986422Y-124740000D01*
X171875067Y-123628645D01*
X177971219Y-123628645D01*
X178062371Y-123849250D01*
X178231006Y-124018180D01*
X178451452Y-124109717D01*
X178690147Y-124109925D01*
X178910752Y-124018773D01*
X179079682Y-123850138D01*
X179171219Y-123629692D01*
X179171427Y-123390997D01*
X179080275Y-123170392D01*
X178911640Y-123001462D01*
X178691194Y-122909925D01*
X178452499Y-122909717D01*
X178231894Y-123000869D01*
X178062964Y-123169504D01*
X177971427Y-123389950D01*
X177971219Y-123628645D01*
X171875067Y-123628645D01*
X169418811Y-121172389D01*
X169480896Y-121022871D01*
X169481104Y-120784176D01*
X169389952Y-120563571D01*
X169221317Y-120394641D01*
X169000871Y-120303104D01*
X168762176Y-120302896D01*
X168611554Y-120365132D01*
X160980000Y-112733578D01*
X160980000Y-103787557D01*
X161130129Y-103849896D01*
X161368824Y-103850104D01*
X161589429Y-103758952D01*
X161758359Y-103590317D01*
X161849896Y-103369871D01*
X161850104Y-103131176D01*
X161758952Y-102910571D01*
X161590317Y-102741641D01*
X161369871Y-102650104D01*
X161131176Y-102649896D01*
X160980000Y-102712361D01*
X160980000Y-101461144D01*
X161136242Y-101396586D01*
X161305172Y-101227951D01*
X161396709Y-101007505D01*
X161396917Y-100768810D01*
X161305765Y-100548205D01*
X161137130Y-100379275D01*
X160980000Y-100314029D01*
X160980000Y-100178631D01*
X161028361Y-100130354D01*
X161119898Y-99909908D01*
X161120106Y-99671213D01*
X161028954Y-99450608D01*
X160980000Y-99401568D01*
X160980000Y-98394097D01*
X160987670Y-98394104D01*
X161208275Y-98302952D01*
X161377205Y-98134317D01*
X161468742Y-97913871D01*
X161468950Y-97675176D01*
X161377798Y-97454571D01*
X161209163Y-97285641D01*
X160988717Y-97194104D01*
X160980000Y-97194096D01*
X160980000Y-87325724D01*
X161014129Y-87339896D01*
X161252824Y-87340104D01*
X161473429Y-87248952D01*
X161642359Y-87080317D01*
X161733896Y-86859871D01*
X161734104Y-86621176D01*
X161642952Y-86400571D01*
X161474529Y-86231854D01*
X161642359Y-86064317D01*
X161733896Y-85843871D01*
X161734104Y-85605176D01*
X161642952Y-85384571D01*
X161474529Y-85215854D01*
X161642359Y-85048317D01*
X161733896Y-84827871D01*
X161734104Y-84589176D01*
X161642952Y-84368571D01*
X161474529Y-84199854D01*
X161642359Y-84032317D01*
X161733896Y-83811871D01*
X161734104Y-83573176D01*
X161642952Y-83352571D01*
X161474529Y-83183854D01*
X161642359Y-83016317D01*
X161733896Y-82795871D01*
X161734104Y-82557176D01*
X161642952Y-82336571D01*
X161474529Y-82167854D01*
X161642359Y-82000317D01*
X161733896Y-81779871D01*
X161734104Y-81541176D01*
X161642952Y-81320571D01*
X161474529Y-81151854D01*
X161642359Y-80984317D01*
X161733896Y-80763871D01*
X161734104Y-80525176D01*
X161642952Y-80304571D01*
X161474317Y-80135641D01*
X161253871Y-80044104D01*
X161015176Y-80043896D01*
X160980000Y-80058430D01*
X160980000Y-77984994D01*
X178307828Y-77984994D01*
X178398980Y-78205599D01*
X178567615Y-78374529D01*
X178788061Y-78466066D01*
X179026756Y-78466274D01*
X179247361Y-78375122D01*
X179339242Y-78283401D01*
X180036904Y-78283401D01*
X180128056Y-78504006D01*
X180296691Y-78672936D01*
X180517137Y-78764473D01*
X180755832Y-78764681D01*
X180976437Y-78673529D01*
X181145367Y-78504894D01*
X181236904Y-78284448D01*
X181237112Y-78045753D01*
X181145960Y-77825148D01*
X180977325Y-77656218D01*
X180756879Y-77564681D01*
X180518184Y-77564473D01*
X180297579Y-77655625D01*
X180128649Y-77824260D01*
X180037112Y-78044706D01*
X180036904Y-78283401D01*
X179339242Y-78283401D01*
X179416291Y-78206487D01*
X179507828Y-77986041D01*
X179508036Y-77747346D01*
X179416884Y-77526741D01*
X179248249Y-77357811D01*
X179027803Y-77266274D01*
X178789108Y-77266066D01*
X178568503Y-77357218D01*
X178399573Y-77525853D01*
X178308036Y-77746299D01*
X178307828Y-77984994D01*
X160980000Y-77984994D01*
X160980000Y-76680000D01*
X172691000Y-76680000D01*
X172729906Y-76672121D01*
X172762681Y-76649727D01*
X172784161Y-76616346D01*
X172791000Y-76580000D01*
X172791000Y-75523344D01*
X180023104Y-75523344D01*
X180114256Y-75743949D01*
X180282891Y-75912879D01*
X180503337Y-76004416D01*
X180742032Y-76004624D01*
X180962637Y-75913472D01*
X181131567Y-75744837D01*
X181223104Y-75524391D01*
X181223312Y-75285696D01*
X181132160Y-75065091D01*
X180963525Y-74896161D01*
X180743079Y-74804624D01*
X180504384Y-74804416D01*
X180283779Y-74895568D01*
X180114849Y-75064203D01*
X180023312Y-75284649D01*
X180023104Y-75523344D01*
X172791000Y-75523344D01*
X172791000Y-73258133D01*
X177548263Y-73258133D01*
X177639415Y-73478738D01*
X177808050Y-73647668D01*
X178028496Y-73739205D01*
X178267191Y-73739413D01*
X178487796Y-73648261D01*
X178656726Y-73479626D01*
X178748263Y-73259180D01*
X178748471Y-73020485D01*
X178673080Y-72838024D01*
X179787096Y-72838024D01*
X179878248Y-73058629D01*
X180046883Y-73227559D01*
X180267329Y-73319096D01*
X180506024Y-73319304D01*
X180726629Y-73228152D01*
X180895559Y-73059517D01*
X180946011Y-72938014D01*
X180995848Y-73058629D01*
X181164483Y-73227559D01*
X181384929Y-73319096D01*
X181623624Y-73319304D01*
X181844229Y-73228152D01*
X182013159Y-73059517D01*
X182104696Y-72839071D01*
X182104904Y-72600376D01*
X182013752Y-72379771D01*
X181845117Y-72210841D01*
X181624671Y-72119304D01*
X181385976Y-72119096D01*
X181165371Y-72210248D01*
X180996441Y-72378883D01*
X180945989Y-72500386D01*
X180896152Y-72379771D01*
X180727517Y-72210841D01*
X180507071Y-72119304D01*
X180268376Y-72119096D01*
X180047771Y-72210248D01*
X179878841Y-72378883D01*
X179787304Y-72599329D01*
X179787096Y-72838024D01*
X178673080Y-72838024D01*
X178657319Y-72799880D01*
X178488684Y-72630950D01*
X178268238Y-72539413D01*
X178029543Y-72539205D01*
X177808938Y-72630357D01*
X177640008Y-72798992D01*
X177548471Y-73019438D01*
X177548263Y-73258133D01*
X172791000Y-73258133D01*
X172791000Y-69713824D01*
X178694896Y-69713824D01*
X178786048Y-69934429D01*
X178954683Y-70103359D01*
X179175129Y-70194896D01*
X179413824Y-70195104D01*
X179634429Y-70103952D01*
X179803359Y-69935317D01*
X179894896Y-69714871D01*
X179894896Y-69713824D01*
X179964896Y-69713824D01*
X180056048Y-69934429D01*
X180224683Y-70103359D01*
X180445129Y-70194896D01*
X180683824Y-70195104D01*
X180904429Y-70103952D01*
X181073359Y-69935317D01*
X181164896Y-69714871D01*
X181164896Y-69713824D01*
X181234896Y-69713824D01*
X181326048Y-69934429D01*
X181494683Y-70103359D01*
X181715129Y-70194896D01*
X181953824Y-70195104D01*
X182174429Y-70103952D01*
X182343359Y-69935317D01*
X182434896Y-69714871D01*
X182434896Y-69713824D01*
X182504896Y-69713824D01*
X182596048Y-69934429D01*
X182764683Y-70103359D01*
X182985129Y-70194896D01*
X183223824Y-70195104D01*
X183444429Y-70103952D01*
X183613359Y-69935317D01*
X183704896Y-69714871D01*
X183705104Y-69476176D01*
X183613952Y-69255571D01*
X183445317Y-69086641D01*
X183224871Y-68995104D01*
X182986176Y-68994896D01*
X182765571Y-69086048D01*
X182596641Y-69254683D01*
X182505104Y-69475129D01*
X182504896Y-69713824D01*
X182434896Y-69713824D01*
X182435104Y-69476176D01*
X182343952Y-69255571D01*
X182175317Y-69086641D01*
X181954871Y-68995104D01*
X181716176Y-68994896D01*
X181495571Y-69086048D01*
X181326641Y-69254683D01*
X181235104Y-69475129D01*
X181234896Y-69713824D01*
X181164896Y-69713824D01*
X181165104Y-69476176D01*
X181073952Y-69255571D01*
X180905317Y-69086641D01*
X180684871Y-68995104D01*
X180446176Y-68994896D01*
X180225571Y-69086048D01*
X180056641Y-69254683D01*
X179965104Y-69475129D01*
X179964896Y-69713824D01*
X179894896Y-69713824D01*
X179895104Y-69476176D01*
X179803952Y-69255571D01*
X179635317Y-69086641D01*
X179414871Y-68995104D01*
X179176176Y-68994896D01*
X178955571Y-69086048D01*
X178786641Y-69254683D01*
X178695104Y-69475129D01*
X178694896Y-69713824D01*
X172791000Y-69713824D01*
X172791000Y-67282000D01*
X184910000Y-67282000D01*
X184910000Y-67725023D01*
M02*
