M48
;DRILL file {KiCad 4.0.7-e2-6376~58~ubuntu16.04.1} date Tue May 15 20:14:32 2018
;FORMAT={-:-/ absolute / inch / decimal}
FMAT,2
INCH,TZ
T1C0.012
T2C0.016
T3C0.026
T4C0.039
T5C0.040
T6C0.059
T7C0.125
%
G90
G05
M72
T1
X6.6995Y-4.3556
X6.6995Y-4.395
X6.6995Y-4.4343
X6.7389Y-4.3556
X6.7389Y-4.395
X6.7389Y-4.4343
X6.7782Y-4.3556
X6.7782Y-4.395
X6.7782Y-4.4343
T2
X4.2639Y-2.275
X4.2639Y-2.315
X4.2639Y-2.355
X4.2639Y-2.595
X4.2639Y-2.635
X4.2639Y-2.675
X4.3039Y-2.275
X4.3039Y-2.315
X4.3039Y-2.355
X4.3039Y-2.595
X4.3039Y-2.635
X4.3039Y-2.675
X4.5039Y-2.365
X4.5039Y-2.425
X4.5139Y-2.575
X4.5139Y-2.615
X4.5139Y-2.655
X4.5339Y-2.395
X4.5539Y-2.575
X4.5539Y-2.615
X4.5539Y-2.655
X4.5639Y-2.365
X4.5639Y-2.425
X4.5939Y-2.395
X4.6839Y-2.865
X4.6839Y-2.915
X4.7339Y-2.865
X4.7339Y-2.915
X4.7839Y-2.865
X4.7839Y-2.915
X4.8339Y-2.865
X4.8339Y-2.915
X4.8762Y-2.2449
X4.8839Y-2.865
X4.8839Y-2.915
X4.9159Y-2.2518
X4.9325Y-2.502
X4.9566Y-2.2532
X4.9839Y-1.865
X4.9839Y-1.915
X4.9839Y-1.965
X4.9839Y-2.015
X4.9839Y-2.065
X4.9839Y-2.115
X5.0339Y-1.865
X5.0339Y-1.915
X5.0339Y-1.965
X5.0339Y-2.015
X5.0339Y-2.065
X5.0339Y-2.115
X5.0339Y-2.415
X5.0339Y-2.465
X5.0339Y-2.515
X5.0339Y-2.565
X5.0339Y-2.615
X5.0339Y-2.665
X5.0489Y-2.225
X5.0489Y-2.255
X5.0489Y-2.285
X5.0751Y-2.3543
X5.2439Y-2.325
X5.3539Y-2.835
X5.3715Y-2.7074
X5.4289Y-2.62
X5.4394Y-2.703
X5.4839Y-2.89
X5.4839Y-3.965
X5.5439Y-2.62
X5.5639Y-2.81
X5.5639Y-2.835
X5.5689Y-2.725
X5.5689Y-2.775
X5.5755Y-4.5461
X5.5761Y-4.692
X5.5889Y-2.81
X5.5889Y-2.835
X5.5906Y-2.874
X5.5906Y-2.9134
X5.5906Y-3.0118
X5.5939Y-2.7502
X5.6075Y-4.6909
X5.6102Y-2.9528
X5.6496Y-2.9429
X5.6496Y-2.9724
X5.7129Y-4.9
X5.7397Y-4.425
X5.7439Y-2.725
X5.7439Y-2.775
X5.7639Y-2.81
X5.7639Y-2.835
X5.7689Y-2.75
X5.7889Y-2.81
X5.7889Y-2.835
X5.7939Y-2.725
X5.7939Y-2.775
X5.8189Y-2.75
X5.8437Y-4.3864
X5.8889Y-4.32
X5.8889Y-4.425
X5.8939Y-4.035
X5.8939Y-4.085
X5.9189Y-4.06
X5.9339Y-4.58
X5.9439Y-4.035
X5.9439Y-4.085
X5.9589Y-4.61
X5.9689Y-4.58
X5.9689Y-4.785
X5.9939Y-4.61
X6.0039Y-4.58
X6.0289Y-4.61
X6.0289Y-4.785
X6.038Y-4.9891
X6.0789Y-4.66
X6.0789Y-4.72
X6.0889Y-4.785
X6.0889Y-4.98
X6.1089Y-4.69
X6.1089Y-4.75
X6.1189Y-3.79
X6.1239Y-3.885
X6.1339Y-2.1339
X6.1398Y-2.3873
X6.1789Y-3.755
X6.1889Y-3.88
X6.2089Y-4.69
X6.2205Y-2.8642
X6.2389Y-3.93
X6.2439Y-4.165
X6.2639Y-3.175
X6.2639Y-3.215
X6.2639Y-3.255
X6.2639Y-3.295
X6.2639Y-3.335
X6.2639Y-3.375
X6.2639Y-3.415
X6.2757Y-5.0693
X6.3039Y-3.175
X6.3039Y-3.215
X6.3039Y-3.255
X6.3039Y-3.295
X6.3039Y-3.335
X6.3039Y-3.375
X6.3039Y-3.415
X6.3112Y-4.6329
X6.3197Y-3.9287
X6.3289Y-4.705
X6.3289Y-4.75
X6.3306Y-3.972
X6.3334Y-3.8502
X6.3439Y-3.175
X6.3439Y-3.215
X6.3439Y-3.255
X6.3439Y-3.295
X6.3439Y-3.335
X6.3439Y-3.375
X6.3439Y-3.415
X6.3484Y-4.065
X6.3589Y-5.215
X6.3639Y-4.66
X6.3639Y-4.705
X6.3639Y-4.75
X6.3878Y-4.0303
X6.3989Y-4.66
X6.3989Y-4.705
X6.3989Y-4.75
X6.4139Y-3.905
X6.4239Y-5.05
X6.4239Y-5.12
X6.4239Y-5.285
X6.4272Y-4.0354
X6.4272Y-4.0748
X6.4339Y-4.66
X6.4339Y-4.705
X6.4489Y-4.765
X6.4539Y-3.605
X6.4539Y-3.655
X6.4539Y-3.705
X6.4539Y-3.755
X6.4539Y-3.805
X6.4539Y-3.855
X6.4579Y-3.8977
X6.4589Y-5.015
X6.4589Y-5.085
X6.4665Y-4.0303
X6.4689Y-4.155
X6.4839Y-4.325
X6.4939Y-5.05
X6.4939Y-5.12
X6.4966Y-4.3721
X6.4989Y-3.255
X6.4989Y-3.31
X6.4989Y-3.365
X6.5006Y-4.4709
X6.5039Y-5.285
X6.5061Y-4.4338
X6.5289Y-5.015
X6.5289Y-5.085
X6.5339Y-3.485
X6.5431Y-4.347
X6.5531Y-4.4557
X6.5539Y-3.255
X6.5539Y-3.31
X6.5539Y-3.365
X6.5639Y-5.05
X6.5639Y-5.12
X6.5689Y-4.845
X6.5839Y-5.285
X6.5889Y-3.485
X6.5889Y-3.545
X6.5989Y-5.015
X6.5989Y-5.085
X6.6089Y-3.255
X6.6089Y-3.31
X6.6089Y-3.365
X6.6233Y-4.4727
X6.6339Y-5.05
X6.6339Y-5.12
X6.6438Y-4.155
X6.6439Y-3.485
X6.6439Y-3.545
X6.6439Y-3.605
X6.6439Y-3.655
X6.6439Y-3.705
X6.6439Y-3.755
X6.6439Y-3.805
X6.6439Y-3.855
X6.6439Y-3.905
X6.6439Y-4.84
X6.6489Y-4.76
X6.6541Y-4.3112
X6.6639Y-5.285
X6.6689Y-5.015
X6.6689Y-5.085
X6.6958Y-4.6243
X6.7039Y-5.12
X6.7065Y-4.9619
X6.7239Y-3.255
X6.7239Y-3.31
X6.7239Y-3.365
X6.7239Y-3.485
X6.7389Y-5.085
X6.7416Y-4.5571
X6.7439Y-5.285
X6.7589Y-3.92
X6.7589Y-3.96
X6.7589Y-4.005
X6.7739Y-5.12
X6.7789Y-3.255
X6.7789Y-3.31
X6.7789Y-3.365
X6.7789Y-3.485
X6.7789Y-3.545
X6.8005Y-4.9377
X6.8039Y-3.92
X6.8039Y-3.96
X6.8039Y-4.005
X6.8089Y-4.535
X6.8232Y-4.2302
X6.8239Y-5.285
X6.8339Y-3.255
X6.8339Y-3.31
X6.8339Y-3.365
X6.8339Y-3.485
X6.8339Y-3.545
X6.8339Y-3.605
X6.8339Y-3.655
X6.8339Y-3.705
X6.8339Y-3.755
X6.8339Y-3.805
X6.8339Y-3.855
X6.8365Y-4.936
X6.8417Y-4.6961
X6.8424Y-4.4929
X6.8489Y-3.92
X6.8489Y-3.96
X6.8489Y-4.005
X6.8539Y-2.66
X6.8539Y-2.71
X6.8539Y-2.76
X6.8602Y-4.1831
X6.8749Y-4.618
X6.8789Y-2.685
X6.8789Y-2.735
X6.8789Y-2.785
X6.8911Y-4.7227
X6.8982Y-4.3745
X6.8989Y-4.545
X6.9039Y-2.66
X6.9039Y-2.71
X6.9039Y-2.76
X6.9039Y-4.335
X6.9039Y-5.285
X6.9056Y-4.2504
X6.9255Y-4.3903
X6.932Y-4.4231
X6.9389Y-4.49
X6.9539Y-5.09
X6.9649Y-4.0329
X6.9839Y-5.285
X7.0089Y-4.205
X7.0137Y-2.8795
X7.0239Y-5.245
X7.0304Y-4.8626
X7.0436Y-3.0656
X7.0439Y-2.675
X7.0481Y-3.9279
X7.0589Y-2.74
X7.0639Y-5.285
X7.0739Y-4.72
X7.1019Y-2.863
X7.1039Y-4.55
X7.1039Y-5.245
X7.1089Y-2.74
X7.1089Y-4.355
X7.109Y-4.4013
X7.1111Y-2.9687
X7.1117Y-3.0773
X7.1235Y-4.6338
X7.1289Y-4.23
X7.1295Y-3.9363
X7.1439Y-2.975
X7.1439Y-5.285
X7.1459Y-2.863
X7.1589Y-2.74
X7.1739Y-4.92
X7.1789Y-3.0861
X7.1789Y-3.765
X7.1789Y-3.815
X7.1789Y-3.865
X7.1789Y-3.915
X7.1789Y-3.965
X7.1839Y-4.565
X7.1839Y-5.25
X7.2039Y-3.165
X7.2089Y-2.74
X7.2126Y-4.9347
X7.2239Y-3.765
X7.2239Y-3.815
X7.2239Y-3.865
X7.2239Y-3.915
X7.2239Y-3.965
X7.2239Y-5.285
X7.2289Y-4.495
X7.2289Y-4.53
X7.2289Y-4.565
X7.2289Y-4.605
X7.2366Y-2.8625
X7.2489Y-3.705
X7.2539Y-2.91
X7.2579Y-2.952
X7.2581Y-4.7211
X7.2589Y-3.005
X7.2599Y-3.065
X7.2639Y-5.25
X7.2689Y-3.765
X7.2689Y-3.815
X7.2689Y-3.865
X7.2689Y-3.915
X7.2689Y-3.965
X7.2739Y-4.495
X7.2739Y-4.53
X7.2789Y-2.69
X7.2789Y-2.725
X7.2789Y-2.765
X7.2789Y-2.805
X7.2789Y-2.845
X7.2789Y-2.885
X7.2826Y-4.9653
X7.3039Y-2.99
X7.3039Y-5.285
X7.3139Y-3.765
X7.3139Y-3.815
X7.3139Y-3.865
X7.3139Y-3.915
X7.3189Y-4.495
X7.3189Y-4.53
X7.3289Y-5.2007
X7.3339Y-2.96
X7.3489Y-2.83
X7.3489Y-2.875
X7.3489Y-2.915
T3
X6.2992Y-2.5
X6.3976Y-2.4016
X6.3976Y-2.5984
T4
X4.9409Y-2.9134
X5.0394Y-2.9134
X5.1378Y-2.9134
X5.8071Y-4.8819
X5.9039Y-4.715
X5.9055Y-4.8819
X6.0039Y-4.715
X6.0039Y-4.8819
X6.1689Y-5.02
X6.1689Y-5.12
X6.1689Y-5.22
T5
X7.4091Y-1.965
X7.4091Y-2.065
X7.4091Y-2.165
X7.4091Y-2.265
X7.4091Y-2.365
X7.4091Y-2.465
X7.4091Y-2.565
X7.4091Y-2.665
X7.4091Y-2.765
X7.4091Y-2.865
X7.4091Y-2.965
X7.4091Y-3.065
X7.4091Y-3.165
X7.4091Y-3.265
X7.4091Y-3.365
X7.4091Y-3.465
X7.4091Y-3.565
X7.4091Y-3.665
X7.4091Y-3.765
X7.4091Y-3.865
X7.4091Y-3.965
X7.4091Y-4.065
X7.4091Y-4.165
X7.4091Y-4.265
X7.4091Y-4.365
X7.4091Y-4.465
X7.4091Y-4.565
X7.4091Y-4.665
X7.4091Y-4.765
X7.4091Y-4.865
X7.4091Y-4.965
X7.4091Y-5.065
X7.5091Y-1.965
X7.5091Y-2.065
X7.5091Y-2.165
X7.5091Y-2.265
X7.5091Y-2.365
X7.5091Y-2.465
X7.5091Y-2.565
X7.5091Y-2.665
X7.5091Y-2.765
X7.5091Y-2.865
X7.5091Y-2.965
X7.5091Y-3.065
X7.5091Y-3.165
X7.5091Y-3.265
X7.5091Y-3.365
X7.5091Y-3.465
X7.5091Y-3.565
X7.5091Y-3.665
X7.5091Y-3.765
X7.5091Y-3.865
X7.5091Y-3.965
X7.5091Y-4.065
X7.5091Y-4.165
X7.5091Y-4.265
X7.5091Y-4.365
X7.5091Y-4.465
X7.5091Y-4.565
X7.5091Y-4.665
X7.5091Y-4.765
X7.5091Y-4.865
X7.5091Y-4.965
X7.5091Y-5.065
T6
X4.878Y-5.128
X4.8858Y-4.9705
X4.8957Y-3.2972
X5.1594Y-4.9705
X5.1693Y-3.2972
X5.2146Y-5.128
X5.4882Y-5.128
X5.4961Y-4.9705
X5.5059Y-3.2972
T7
X4.3339Y-2.065
X4.3339Y-4.965
X7.7091Y-1.965
X7.7091Y-5.115
T0
M30
